<?xml version="1.0" encoding="iso-8859-1"?>
<!-- Generator: Adobe Illustrator 19.0.0, SVG Export Plug-In . SVG Version: 6.00 Build 0)  -->
<svg version="1.1" id="Capa_1" xmlns="http://www.w3.org/2000/svg" xmlns:xlink="http://www.w3.org/1999/xlink" x="0px" y="0px"
	 viewBox="0 0 464 464" style="enable-background:new 0 0 464 464;" xml:space="preserve">
<circle style="fill:#00F2A9;" cx="360" cy="200" r="32"/>
<g>
	<path style="fill:#322153;" d="M64,168c0,22.056,17.944,40,40,40s40-17.944,40-40s-17.944-40-40-40S64,145.944,64,168z M104,144
		c13.232,0,24,10.768,24,24s-10.768,24-24,24s-24-10.768-24-24S90.768,144,104,144z"/>
	<path style="fill:#322153;" d="M232,208c22.056,0,40-17.944,40-40s-17.944-40-40-40s-40,17.944-40,40S209.944,208,232,208z
		 M232,144c13.232,0,24,10.768,24,24s-10.768,24-24,24s-24-10.768-24-24S218.768,144,232,144z"/>
	<path style="fill:#322153;" d="M360,128c-22.056,0-40,17.944-40,40s17.944,40,40,40s40-17.944,40-40S382.056,128,360,128z M360,192
		c-13.232,0-24-10.768-24-24s10.768-24,24-24s24,10.768,24,24S373.232,192,360,192z"/>
	<path style="fill:#322153;" d="M104,256c-22.056,0-40,17.944-40,40s17.944,40,40,40s40-17.944,40-40S126.056,256,104,256z M104,320
		c-13.232,0-24-10.768-24-24s10.768-24,24-24s24,10.768,24,24S117.232,320,104,320z"/>
	<path style="fill:#322153;" d="M232,336c22.056,0,40-17.944,40-40s-17.944-40-40-40s-40,17.944-40,40S209.944,336,232,336z
		 M232,272c13.232,0,24,10.768,24,24s-10.768,24-24,24s-24-10.768-24-24S218.768,272,232,272z"/>
	<path style="fill:#322153;" d="M360,256c-22.056,0-40,17.944-40,40s17.944,40,40,40s40-17.944,40-40S382.056,256,360,256z M360,320
		c-13.232,0-24-10.768-24-24s10.768-24,24-24s24,10.768,24,24S373.232,320,360,320z"/>
	<path style="fill:#322153;" d="M432,65.192V40c0-4.424-3.576-8-8-8s-8,3.576-8,8v24h-80V40c0-4.424-3.576-8-8-8s-8,3.576-8,8v24
		h-80V40c0-4.424-3.576-8-8-8s-8,3.576-8,8v24h-80V40c0-4.424-3.576-8-8-8s-8,3.576-8,8v24H48V40c0-4.424-3.576-8-8-8s-8,3.576-8,8
		v25.192C13.968,68.896,0,84.888,0,104v288c0,21.848,18.152,40,40,40h384c21.848,0,40-18.152,40-40V104
		C464,84.888,450.032,68.896,432,65.192z M448,392c0,13.44-10.56,24-24,24H40c-13.44,0-24-10.56-24-24V104
		c0-13.016,10.096-23.592,22.952-24.248c0.416,0.072,0.704,0.44,1.144,0.44C40.752,80.184,41.248,80,41.856,80h92.28
		c0.616,0,1.2,0.376,1.856,0.376S137.248,80,137.856,80h92.28c0.616,0,1.2,0.376,1.856,0.376S233.248,80,233.856,80h92.28
		c0.616,0,1.2,0.376,1.856,0.376S329.248,80,329.856,80h92.28c0.616,0,1.2,0.184,1.856,0.184c0.44,0,0.632-0.272,1.048-0.344
		C437.904,80.504,448,90.984,448,104V392z"/>
	<path style="fill:#322153;" d="M392,384H72c-4.424,0-8,3.576-8,8s3.576,8,8,8h320c4.424,0,8-3.576,8-8S396.424,384,392,384z"/>
	<path style="fill:#322153;" d="M80,104c0-4.424-3.576-8-8-8c-30.984,0-39.712,26.056-40,39.832
		c-0.096,4.416,3.416,8.072,7.832,8.168c0.056,0,0.112,0,0.168,0c4.344,0,7.904-3.48,8-7.832C48.048,133.696,49.16,112,72,112
		C76.424,112,80,108.424,80,104z"/>
	<path style="fill:#322153;" d="M424,224c-4.424,0-8,3.576-8,8v32c0,4.424,3.576,8,8,8s8-3.576,8-8v-32
		C432,227.576,428.424,224,424,224z"/>
</g>
<g>
</g>
<g>
</g>
<g>
</g>
<g>
</g>
<g>
</g>
<g>
</g>
<g>
</g>
<g>
</g>
<g>
</g>
<g>
</g>
<g>
</g>
<g>
</g>
<g>
</g>
<g>
</g>
<g>
</g>
</svg>
