<?xml version="1.0" encoding="iso-8859-1"?>
<!-- Generator: Adobe Illustrator 19.0.0, SVG Export Plug-In . SVG Version: 6.00 Build 0)  -->
<svg version="1.1" id="Capa_1" xmlns="http://www.w3.org/2000/svg" xmlns:xlink="http://www.w3.org/1999/xlink" x="0px" y="0px"
	 viewBox="0 0 488 488" style="enable-background:new 0 0 488 488;" xml:space="preserve">
<path style="fill:#00F2A9;" d="M244,72c106.04,0,192,85.96,192,192s-85.96,192-192,192S52,370.04,52,264S137.96,72,244,72
	C120.288,72,20,165.128,20,280s100.288,208,224,208s224-93.128,224-208S367.712,72,244,72z"/>
<g>
	<path style="fill:#322153;" d="M441.656,45.656c0.024-0.024,0.024-0.048,0.048-0.072C444.832,47.088,448.296,48,452,48
		c13.232,0,24-10.768,24-24S465.232,0,452,0s-24,10.768-24,24c0,3.704,0.912,7.168,2.416,10.296
		c-0.024,0.024-0.048,0.024-0.072,0.048l-41.208,41.208c-0.824,0.824-1.4,1.784-1.784,2.8C349.808,50.8,302.976,33.808,252,32.192
		V16h24c4.424,0,8-3.576,8-8s-3.576-8-8-8h-64c-4.424,0-8,3.576-8,8s3.576,8,8,8h24v16.192C111.776,36.136,12,131.4,12,248
		c0,119.104,104.08,216,232,216s232-96.896,232-216c0-63.56-29.656-120.784-76.744-160.344c0.392-0.272,0.84-0.44,1.184-0.792
		L441.656,45.656z M452,16c4.416,0,8,3.584,8,8s-3.584,8-8,8s-8-3.584-8-8S447.584,16,452,16z M244,48c101.464,0,184,82.536,184,184
		s-82.536,184-184,184S60,333.464,60,232S142.536,48,244,48z M460,248c0,110.28-96.896,200-216,200S28,358.28,28,248
		c0-49.12,19.216-94.152,51.064-129C56.944,151.168,44,190.104,44,232c0,110.28,89.72,200,200,200s200-89.72,200-200
		c0-41.896-12.944-80.832-35.064-113C440.784,153.848,460,198.88,460,248z"/>
	<path style="fill:#322153;" d="M252,104c0-4.424-3.576-8-8-8s-8,3.576-8,8v88.808c-18.232,3.72-32,19.872-32,39.192
		s13.768,35.472,32,39.192V296c0,4.424,3.576,8,8,8c4.424,0,8-3.576,8-8v-24.808c18.232-3.72,32-19.872,32-39.192
		s-13.768-35.472-32-39.192V104z M268,232c0,13.232-10.768,24-24,24s-24-10.768-24-24s10.768-24,24-24S268,218.768,268,232z"/>
	<path style="fill:#322153;" d="M84,240c4.424,0,8-3.576,8-8c0-83.816,68.184-152,152-152c4.424,0,8-3.576,8-8s-3.576-8-8-8
		c-92.632,0-168,75.368-168,168C76,236.424,79.576,240,84,240z"/>
	<path style="fill:#322153;" d="M236,392c0,4.424,3.576,8,8,8c92.632,0,168-75.368,168-168c0-4.424-3.576-8-8-8s-8,3.576-8,8
		c0,83.816-68.184,152-152,152C239.576,384,236,387.576,236,392z"/>
</g>
<g>
</g>
<g>
</g>
<g>
</g>
<g>
</g>
<g>
</g>
<g>
</g>
<g>
</g>
<g>
</g>
<g>
</g>
<g>
</g>
<g>
</g>
<g>
</g>
<g>
</g>
<g>
</g>
<g>
</g>
</svg>
