<?xml version="1.0" encoding="iso-8859-1"?>
<!-- Generator: Adobe Illustrator 19.0.0, SVG Export Plug-In . SVG Version: 6.00 Build 0)  -->
<svg version="1.1" id="Capa_1" xmlns="http://www.w3.org/2000/svg" xmlns:xlink="http://www.w3.org/1999/xlink" x="0px" y="0px"
	 viewBox="0 0 464 464" style="enable-background:new 0 0 464 464;" xml:space="preserve">
<path style="fill:#00F2A9;" d="M232,104c-88.368,0-160,71.632-160,160s71.632,160,160,160s160-71.632,160-160S320.368,104,232,104z
	 M232,392c-70.696,0-128-57.304-128-128s57.304-128,128-128s128,57.304,128,128S302.696,392,232,392z"/>
<g>
	<path style="fill:#322153;" d="M240,40V8c0-4.424-3.584-8-8-8s-8,3.576-8,8v32c0,4.424,3.584,8,8,8C236.416,48,240,44.424,240,40z"
		/>
	<path style="fill:#322153;" d="M40,224H8c-4.416,0-8,3.576-8,8c0,4.424,3.584,8,8,8h32c4.416,0,8-3.576,8-8S44.416,224,40,224z"/>
	<path style="fill:#322153;" d="M456,224h-32c-4.424,0-8,3.576-8,8c0,4.424,3.576,8,8,8h32c4.424,0,8-3.576,8-8S460.424,224,456,224
		z"/>
	<path style="fill:#322153;" d="M96.232,104.232c2.048,0,4.096-0.784,5.656-2.344c3.128-3.128,3.128-8.184,0-11.312L79.264,67.952
		c-3.128-3.128-8.184-3.128-11.312,0s-3.128,8.184,0,11.312l22.624,22.624C92.144,103.456,94.184,104.232,96.232,104.232z"/>
	<path style="fill:#322153;" d="M373.424,362.112c-3.128-3.128-8.184-3.128-11.312,0s-3.128,8.184,0,11.312l22.624,22.624
		c1.56,1.56,3.608,2.344,5.656,2.344s4.096-0.784,5.656-2.344c3.128-3.128,3.128-8.184,0-11.312L373.424,362.112z"/>
	<path style="fill:#322153;" d="M90.576,362.112l-22.624,22.624c-3.128,3.128-3.128,8.184,0,11.312
		c1.56,1.56,3.608,2.344,5.656,2.344s4.096-0.784,5.656-2.344l22.624-22.624c3.128-3.128,3.128-8.184,0-11.312
		S93.704,358.984,90.576,362.112z"/>
	<path style="fill:#322153;" d="M373.424,101.888l22.624-22.624c3.128-3.128,3.128-8.184,0-11.312s-8.184-3.128-11.312,0
		l-22.624,22.624c-3.128,3.128-3.128,8.184,0,11.312c1.56,1.56,3.608,2.344,5.656,2.344S371.856,103.456,373.424,101.888z"/>
	<path style="fill:#322153;" d="M256,200c0,4.424,3.576,8,8,8s8-3.576,8-8c0-19.312-13.768-35.472-32-39.192V136
		c0-4.424-3.584-8-8-8s-8,3.576-8,8v24.808c-18.232,3.72-32,19.872-32,39.192s13.768,35.472,32,39.192v47.336
		c-9.288-3.312-16-12.112-16-22.528c0-4.424-3.584-8-8-8s-8,3.576-8,8c0,19.312,13.768,35.472,32,39.192V328c0,4.424,3.584,8,8,8
		c4.416,0,8-3.576,8-8v-24.808c18.232-3.72,32-19.872,32-39.192s-13.768-35.472-32-39.192v-47.336
		C249.288,180.784,256,189.584,256,200z M208,200c0-10.416,6.712-19.216,16-22.528v45.048C214.712,219.216,208,210.416,208,200z
		 M256,264c0,10.416-6.712,19.216-16,22.528V241.48C249.288,244.784,256,253.584,256,264z"/>
	<path style="fill:#322153;" d="M222.792,64.24C135.432,68.92,64.2,144,64,231.616c-0.176,77.544,53.312,145.136,128,163.416V424
		c0,22.056,17.944,40,40,40s40-17.944,40-40v-28.968C346.52,376.792,400,309.36,400,232c0-46.576-18.624-89.888-52.44-121.944
		C313.768,78.024,269.456,61.768,222.792,64.24z M232,352c-66.168,0-120-53.832-120-120s53.832-120,120-120s120,53.832,120,120
		S298.168,352,232,352z M256,424c0,13.232-10.768,24-24,24s-24-10.768-24-24v-32c0-10.416,6.712-19.216,16-22.528V392
		c0,4.424,3.584,8,8,8c4.416,0,8-3.576,8-8v-22.528c9.288,3.312,16,12.112,16,22.528V424z M270.688,379.024
		c-1.504-5.456-4.24-10.408-7.88-14.536C323.008,350.488,368,296.4,368,232c0-74.992-61.008-136-136-136S96,157.008,96,232
		c0,64.4,44.992,118.488,105.192,132.488c-3.648,4.136-6.376,9.088-7.88,14.536C127.008,361.632,79.84,300.968,80,231.648
		c0.176-79.264,64.616-147.192,143.64-151.424c42.336-2.312,82.344,12.472,112.912,41.44C367.152,150.672,384,189.848,384,232
		C384,301.152,336.832,361.664,270.688,379.024z"/>
</g>
<g>
</g>
<g>
</g>
<g>
</g>
<g>
</g>
<g>
</g>
<g>
</g>
<g>
</g>
<g>
</g>
<g>
</g>
<g>
</g>
<g>
</g>
<g>
</g>
<g>
</g>
<g>
</g>
<g>
</g>
</svg>
