<?xml version="1.0" encoding="iso-8859-1"?>
<!-- Generator: Adobe Illustrator 19.0.0, SVG Export Plug-In . SVG Version: 6.00 Build 0)  -->
<svg version="1.1" id="Capa_1" xmlns="http://www.w3.org/2000/svg" xmlns:xlink="http://www.w3.org/1999/xlink" x="0px" y="0px"
	 viewBox="0 0 464 464" style="enable-background:new 0 0 464 464;" xml:space="preserve">
<g>
	<circle style="fill:#00F2A9;" cx="136" cy="72" r="32"/>
	<path style="fill:#00F2A9;" d="M264,136c-17.672,0-32,14.328-32,32h64C296,150.328,281.672,136,264,136z"/>
	<circle style="fill:#00F2A9;" cx="328" cy="72" r="32"/>
</g>
<g>
	<path style="fill:#322153;" d="M196.936,463.392c0.992,0.416,2.032,0.608,3.064,0.608c2.08,0,4.128-0.816,5.656-2.344l64-64
		C271.16,396.16,272,394.128,272,392v-60.688l125.648-125.648c0.744-0.736,1.328-1.624,1.736-2.608
		C399.792,202.08,400,201.04,400,200v-64c0-4.424-3.576-8-8-8h-88.808c-3.72-18.232-19.872-32-39.192-32s-35.472,13.768-39.192,32
		H72c-4.424,0-8,3.576-8,8v64c0,1.04,0.208,2.08,0.616,3.056c0.408,0.984,0.992,1.872,1.736,2.608L192,331.312V456
		C192,459.232,193.944,462.16,196.936,463.392z M264,112c10.432,0,19.328,6.688,22.632,16h-45.264
		C244.672,118.688,253.568,112,264,112z M232,144h64h88v16h-24c-4.424,0-8,3.576-8,8s3.576,8,8,8h24v16H80v-16h24
		c4.424,0,8-3.576,8-8s-3.576-8-8-8H80v-16H232z M91.312,208h281.376L258.344,322.344C256.84,323.84,256,325.872,256,328v60.688
		l-48,48V328c0-2.128-0.84-4.16-2.344-5.656L91.312,208z"/>
	<path style="fill:#322153;" d="M205.656,290.344l-64-64c-3.128-3.128-8.184-3.128-11.312,0s-3.128,8.184,0,11.312l64,64
		c1.56,1.56,3.608,2.344,5.656,2.344s4.096-0.784,5.656-2.344C208.784,298.528,208.784,293.472,205.656,290.344z"/>
	<path style="fill:#322153;" d="M136,0c-22.056,0-40,17.944-40,40s17.944,40,40,40s40-17.944,40-40S158.056,0,136,0z M136,64
		c-13.232,0-24-10.768-24-24s10.768-24,24-24s24,10.768,24,24S149.232,64,136,64z"/>
	<path style="fill:#322153;" d="M328,80c22.056,0,40-17.944,40-40S350.056,0,328,0s-40,17.944-40,40S305.944,80,328,80z M328,16
		c13.232,0,24,10.768,24,24s-10.768,24-24,24s-24-10.768-24-24S314.768,16,328,16z"/>
</g>
<g>
</g>
<g>
</g>
<g>
</g>
<g>
</g>
<g>
</g>
<g>
</g>
<g>
</g>
<g>
</g>
<g>
</g>
<g>
</g>
<g>
</g>
<g>
</g>
<g>
</g>
<g>
</g>
<g>
</g>
</svg>
