<?xml version="1.0" encoding="iso-8859-1"?>
<!-- Generator: Adobe Illustrator 19.0.0, SVG Export Plug-In . SVG Version: 6.00 Build 0)  -->
<svg version="1.1" id="Capa_1" xmlns="http://www.w3.org/2000/svg" xmlns:xlink="http://www.w3.org/1999/xlink" x="0px" y="0px"
	 viewBox="0 0 464.64 464.64" style="enable-background:new 0 0 464.64 464.64;" xml:space="preserve">
<path style="fill:#00F2A9;" d="M328.407,184.64c0,8.832,7.16,16,16,16s16-7.168,16-16v-12.384
	c0-68.92-52.968-128.232-121.816-131.472c-73.504-3.456-134.184,55.112-134.184,127.856v96h32v-92.816
	c0-52.856,41.352-98.2,94.2-99.168c53.84-0.984,97.8,42.368,97.8,95.984V184.64z"/>
<g>
	<path style="fill:#322153;" d="M232.407,400.64c22.056,0,40-17.944,40-40c0-19.312-13.768-35.472-32-39.192V296.64
		c0-4.424-3.576-8-8-8s-8,3.576-8,8v24.808c-18.232,3.72-32,19.872-32,39.192C192.407,382.696,210.351,400.64,232.407,400.64z
		 M232.407,336.64c13.232,0,24,10.768,24,24s-10.768,24-24,24s-24-10.768-24-24S219.175,336.64,232.407,336.64z"/>
	<path style="fill:#322153;" d="M136.407,256.64c-4.424,0-8,3.576-8,8v32c0,4.424,3.576,8,8,8s8-3.576,8-8v-32
		C144.407,260.216,140.831,256.64,136.407,256.64z"/>
	<path style="fill:#322153;" d="M144.407,392.6c-0.024-4.4-3.592-7.96-8-7.96c-4.424,0-8,3.576-8,8c0,13.832,8.36,40,40,40
		c4.424,0,8-3.576,8-8s-3.576-8-8-8C145.839,416.64,144.455,396.632,144.407,392.6z"/>
	<path style="fill:#322153;" d="M328.407,400.64c4.424,0,8-3.576,8-8v-96c0-4.424-3.576-8-8-8s-8,3.576-8,8v96
		C320.407,397.064,323.983,400.64,328.407,400.64z"/>
	<path style="fill:#322153;" d="M344.407,177.28c13.584,0,24-11.056,24-24.64v-12.384c0-75.128-56.808-136.664-129.728-140.104
		c-37.776-1.744-73.128,11.576-100.416,37.608c-27.304,26.048-41.856,61.16-41.856,98.88v96c0,1.128-0.392,2.184,0,3.176V424.64
		c0,22.056,17.944,40,40,40h192c22.056,0,40-17.944,40-40v-192c0-4.424-3.576-8-8-8h-216v-84.816
		c0-49.056,38.776-89.664,86.04-90.528c24.016-0.256,46.464,8.456,63.328,25.008c16.864,16.56,26.632,38.696,26.632,62.336v16
		C320.407,166.224,330.823,177.28,344.407,177.28z M352.407,424.64c0,13.232-10.768,24-24,24h-192c-13.232,0-24-10.768-24-24v-184
		h20.824c0.984,0.392,2.048,0.64,3.176,0.64s2.184-0.248,3.176-0.64h212.824V424.64z M305.399,61.968
		c-20.2-19.832-46.824-30.368-74.784-29.952c-56.624,1.04-102.208,49.408-102.208,107.808v84.816h-16v-88
		c0-32.944,13.456-63.624,37.304-86.376c23.832-22.728,55.704-34.448,88.64-32.84c63.688,3,114.056,56.952,114.056,122.832v12.384
		c0,4.056-3.944,7.36-8,7.36s-8-3.304-8-7.36v-16C336.407,108.328,325.599,81.808,305.399,61.968z"/>
</g>
<g>
</g>
<g>
</g>
<g>
</g>
<g>
</g>
<g>
</g>
<g>
</g>
<g>
</g>
<g>
</g>
<g>
</g>
<g>
</g>
<g>
</g>
<g>
</g>
<g>
</g>
<g>
</g>
<g>
</g>
</svg>
