<?xml version="1.0" encoding="iso-8859-1"?>
<!-- Generator: Adobe Illustrator 19.0.0, SVG Export Plug-In . SVG Version: 6.00 Build 0)  -->
<svg version="1.1" id="Capa_1" xmlns="http://www.w3.org/2000/svg" xmlns:xlink="http://www.w3.org/1999/xlink" x="0px" y="0px"
	 viewBox="0 0 464.008 464.008" style="enable-background:new 0 0 464.008 464.008;" xml:space="preserve">
<g>
	<path style="fill:#00F2A9;" d="M318.64,337.364c-5.84-5.76-13.84-9.36-22.64-9.36H168c-14.32,0-26.48,9.44-30.48,22.4
		c23.44,25.6,57.04,41.6,94.48,41.6s71.04-16,94.48-41.6C324.96,345.444,322.24,340.964,318.64,337.364z"/>
	<circle style="fill:#00F2A9;" cx="424" cy="264.004" r="32"/>
	<ellipse style="fill:#00F2A9;" cx="96.271" cy="128.239" rx="32" ry="32"/>
</g>
<path style="fill:#322153;" d="M424,192.004c-19.312,0-35.472,13.768-39.192,32h-17.216c-1.848-31.48-14.384-60.064-34.112-82.224
	c0.056-0.048,0.12-0.064,0.176-0.12l12.056-12.056c6.488,4.304,14.088,6.632,22.056,6.632c10.688,0,20.736-4.168,28.28-11.72
	c7.552-7.544,11.72-17.592,11.72-28.28s-4.168-20.728-11.72-28.28s-17.592-11.72-28.28-11.72s-20.736,4.168-28.28,11.72
	c-7.552,7.544-11.72,17.592-11.72,28.28c0,7.968,2.328,15.568,6.632,22.056l-12.056,12.056c-0.048,0.048-0.064,0.12-0.12,0.176
	C300.064,110.796,271.48,98.252,240,96.412V79.196c18.232-3.72,32-19.872,32-39.192c0-22.056-17.944-40-40-40s-40,17.944-40,40
	c0,19.312,13.768,35.472,32,39.192v17.216c-31.48,1.848-60.064,14.384-82.224,34.112c-0.048-0.056-0.064-0.128-0.12-0.176
	L129.6,118.292c4.304-6.488,6.632-14.088,6.632-22.056c0-10.688-4.168-20.728-11.72-28.28s-17.592-11.72-28.28-11.72
	s-20.736,4.168-28.28,11.72c-7.552,7.544-11.72,17.592-11.72,28.28s4.168,20.736,11.72,28.28c7.544,7.552,17.592,11.72,28.28,11.72
	c7.968,0,15.568-2.328,22.056-6.632l12.056,12.056c0.048,0.048,0.12,0.064,0.176,0.12c-19.728,22.16-32.272,50.744-34.112,82.224
	H79.192c-3.72-18.232-19.872-32-39.192-32c-22.056,0-40,17.944-40,40s17.944,40,40,40c19.312,0,35.472-13.768,39.192-32h17.216
	c1.792,30.616,13.672,58.528,32.472,80.424c-0.264,1.368-0.608,2.704-0.728,4.12l-9.864,9.856
	c-6.488-4.304-14.088-6.632-22.056-6.632c-10.688,0-20.736,4.168-28.28,11.72c-7.552,7.544-11.72,17.592-11.72,28.28
	s4.168,20.736,11.72,28.28c7.544,7.552,17.592,11.72,28.28,11.72s20.736-4.168,28.28-11.72c7.552-7.544,11.72-17.592,11.72-28.28
	c0-7.968-2.328-15.568-6.632-22.056l12.056-12.056c0.048-0.048,0.064-0.12,0.12-0.176c22.16,19.728,50.744,32.272,82.224,34.112
	v17.216c-18.232,3.72-32,19.872-32,39.192c0,22.056,17.944,40,40,40s40-17.944,40-40c0-19.312-13.768-35.472-32-39.192v-17.216
	c31.48-1.848,60.064-14.384,82.224-34.112c0.048,0.056,0.064,0.128,0.12,0.176l12.056,12.056
	c-4.304,6.488-6.632,14.088-6.632,22.056c0,10.688,4.168,20.736,11.72,28.28c7.544,7.552,17.592,11.72,28.28,11.72
	s20.736-4.168,28.28-11.72c7.552-7.544,11.72-17.592,11.72-28.28s-4.168-20.728-11.72-28.28s-17.592-11.72-28.28-11.72
	c-7.968,0-15.568,2.328-22.056,6.632l-9.856-9.856c-0.12-1.408-0.464-2.752-0.728-4.12c18.808-21.896,30.68-49.8,32.472-80.424
	h17.216c3.72,18.232,19.872,32,39.192,32c22.056,0,40-17.944,40-40S446.056,192.004,424,192.004z M350.8,79.268
	c4.528-4.528,10.552-7.032,16.968-7.032s12.44,2.504,16.968,7.032s7.032,10.552,7.032,16.968s-2.504,12.44-7.032,16.968
	c-9.064,9.064-24.872,9.064-33.936,0c-4.528-4.528-7.032-10.552-7.032-16.968S346.264,83.804,350.8,79.268z M79.264,113.204
	c-4.528-4.528-7.032-10.552-7.032-16.968s2.504-12.44,7.032-16.968s10.552-7.032,16.968-7.032s12.44,2.504,16.968,7.032
	s7.032,10.552,7.032,16.968s-2.504,12.44-7.032,16.968C104.144,122.268,88.328,122.268,79.264,113.204z M208,40.004
	c0-13.232,10.768-24,24-24s24,10.768,24,24s-10.768,24-24,24S208,53.236,208,40.004z M40,256.004c-13.232,0-24-10.768-24-24
	s10.768-24,24-24s24,10.768,24,24S53.232,256.004,40,256.004z M113.2,384.74c-9.064,9.064-24.872,9.064-33.936,0
	c-4.528-4.528-7.032-10.552-7.032-16.968s2.504-12.44,7.032-16.968s10.552-7.032,16.968-7.032s12.44,2.504,16.968,7.032
	s7.032,10.552,7.032,16.968S117.736,380.204,113.2,384.74z M256,424.004c0,13.232-10.768,24-24,24s-24-10.768-24-24s10.768-24,24-24
	S256,410.772,256,424.004z M232,352.004c-33.184,0-63.256-13.544-85-35.384c4.072-7.472,11.904-12.616,21-12.616h128
	c9.096,0,16.928,5.144,21,12.616C295.256,338.46,265.184,352.004,232,352.004z M232,256.004c-30.872,0-56-25.128-56-56
	s25.128-56,56-56s56,25.128,56,56S262.872,256.004,232,256.004z M207.104,267.476c7.776,2.88,16.136,4.528,24.896,4.528
	c8.76,0,17.12-1.648,24.896-4.528c0.376,0.776,0.808,1.536,1.448,2.184l18.344,18.344h-89.376l18.344-18.344
	C206.304,269.012,206.728,268.252,207.104,267.476z M384.736,350.804c4.528,4.528,7.032,10.552,7.032,16.968
	s-2.504,12.44-7.032,16.968c-9.064,9.064-24.872,9.064-33.936,0c-4.528-4.528-7.032-10.552-7.032-16.968s2.504-12.44,7.032-16.968
	s10.552-7.032,16.968-7.032S380.2,346.268,384.736,350.804z M327.816,303.94c-6.656-8.776-16.768-14.792-28.36-15.792l-28-28
	C291.04,247.276,304,225.14,304,200.004c0-39.704-32.296-72-72-72s-72,32.296-72,72c0,25.136,12.96,47.272,32.536,60.152l-28,28
	c-11.584,1-21.704,7.016-28.36,15.792C121.072,283.868,112,259.004,112,232.004c0-66.168,53.832-120,120-120s120,53.832,120,120
	C352,259.004,342.928,283.868,327.816,303.94z M424,256.004c-13.232,0-24-10.768-24-24s10.768-24,24-24s24,10.768,24,24
	S437.232,256.004,424,256.004z"/>
<g>
</g>
<g>
</g>
<g>
</g>
<g>
</g>
<g>
</g>
<g>
</g>
<g>
</g>
<g>
</g>
<g>
</g>
<g>
</g>
<g>
</g>
<g>
</g>
<g>
</g>
<g>
</g>
<g>
</g>
</svg>
