<?xml version="1.0" encoding="iso-8859-1"?>
<!-- Generator: Adobe Illustrator 19.0.0, SVG Export Plug-In . SVG Version: 6.00 Build 0)  -->
<svg version="1.1" id="Capa_1" xmlns="http://www.w3.org/2000/svg" xmlns:xlink="http://www.w3.org/1999/xlink" x="0px" y="0px"
	 viewBox="0 0 464 464" style="enable-background:new 0 0 464 464;" xml:space="preserve">
<path style="fill:#00F2A9;" d="M424,172H232c-17.672,0-32-14.328-32-32s-14.328-32-32-32h-64c-17.672,0-32,14.328-32,32v32v256
	c0,17.672,14.328,32,32,32h320c17.672,0,32-14.328,32-32V204C456,186.328,441.672,172,424,172z"/>
<g>
	<path style="fill:#322153;" d="M431.264,132.736C427.832,114.144,411.568,100,392,100H207.192
		c-3.24-15.888-15.936-28.312-31.928-31.264c-3-16.224-15.776-29-32-32C139.832,18.144,123.568,4,104,4H40C17.944,4,0,21.944,0,44
		v288c0,19.568,14.144,35.832,32.736,39.264c3,16.224,15.776,29,32,32C68.168,421.856,84.432,436,104,436h320
		c22.056,0,40-17.944,40-40V172C464,152.432,449.856,136.168,431.264,132.736z M168,388h-32c-7.472,0-13.256-2.024-17.208-6.008
		C111.984,375.128,112,364.224,112,364v-32c0-4.424-3.576-8-8-8s-8,3.576-8,8v31.832c-0.016,0.616-0.128,13.176,7.192,24.168H80V108
		c0-13.232,10.768-24,24-24h56.808c3.24,15.888,15.936,28.312,31.928,31.264C196.168,133.856,212.432,148,232,148h184v56v96v64
		c0,13.232-10.768,24-24,24H168z M414.528,132H232c-10.416,0-19.216-6.712-22.528-16H392C402.416,116,411.216,122.712,414.528,132z
		 M189.448,97.448c-4.736-2.336-8.56-6.168-10.896-10.896C183.288,88.888,187.112,92.712,189.448,97.448z M16,332V44
		c0-13.232,10.768-24,24-24h64c10.432,0,19.328,6.688,22.632,16H72c-22.056,0-40,17.944-40,40v278.632
		C22.688,351.328,16,342.432,16,332z M48,364V76c0-13.232,10.768-24,24-24h64c10.416,0,19.216,6.712,22.528,16H104
		c-22.056,0-40,17.944-40,40v278.528C54.712,383.216,48,374.416,48,364z M448,396c0,13.232-10.768,24-24,24H104
		c-10.416,0-19.216-6.712-22.528-16H136h32h224c22.056,0,40-17.944,40-40v-64v-96v-54.528c9.288,3.312,16,12.112,16,22.528V396z"/>
	<path style="fill:#322153;" d="M136,100.008c-31.64,0-40,26.168-40,40.008c0,4.392,3.552,7.984,7.952,7.984
		c0.016,0,0.032,0,0.048,0c4.384,0,7.952-3.56,8-7.944c0.048-4.016,1.416-24.056,24-24.056c4.424,0,8-3.576,8-8
		S140.424,100.008,136,100.008z"/>
</g>
<g>
</g>
<g>
</g>
<g>
</g>
<g>
</g>
<g>
</g>
<g>
</g>
<g>
</g>
<g>
</g>
<g>
</g>
<g>
</g>
<g>
</g>
<g>
</g>
<g>
</g>
<g>
</g>
<g>
</g>
</svg>
