<?xml version="1.0" encoding="iso-8859-1"?>
<!-- Generator: Adobe Illustrator 19.0.0, SVG Export Plug-In . SVG Version: 6.00 Build 0)  -->
<svg version="1.1" id="Capa_1" xmlns="http://www.w3.org/2000/svg" xmlns:xlink="http://www.w3.org/1999/xlink" x="0px" y="0px"
	 viewBox="0 0 464 464" style="enable-background:new 0 0 464 464;" xml:space="preserve">
<polygon style="fill:#00F2A9;" points="264,412 264,252 296,252 232,188 168,252 200,252 200,412 "/>
<g>
	<path style="fill:#322153;" d="M392,116c-24.216,0-45.688,12.024-58.744,30.416C321.504,92.504,273.392,52,216,52
		c-63.832,0-116.184,50.104-119.8,113.048C86.008,154.536,71.76,148,56,148c-30.88,0-56,25.128-56,56v32c0,30.872,25.12,56,56,56
		h136v88c0,4.424,3.584,8,8,8h64c4.424,0,8-3.576,8-8v-88h120c39.704,0,72-32.296,72-72v-32C464,148.296,431.704,116,392,116z
		 M256,372h-48V220c0-4.424-3.584-8-8-8h-12.688L232,167.312L276.688,212H264c-4.424,0-8,3.576-8,8V372z M448,220
		c0,30.872-25.128,56-56,56H272v-48h24c3.232,0,6.16-1.944,7.392-4.936c1.24-2.992,0.552-6.432-1.736-8.72l-64-64
		c-3.128-3.128-8.184-3.128-11.312,0l-64,64c-2.288,2.288-2.976,5.728-1.736,8.72S164.768,228,168,228h24v48H56
		c-22.056,0-40-17.944-40-40v-32c0-22.056,17.944-40,40-40s40,17.944,40,40c0,4.424,3.584,8,8,8s8-3.576,8-8v-32
		c0-57.344,46.656-104,104-104s104,46.656,104,104v16c0,4.424,3.576,8,8,8s8-3.576,8-8c0-30.872,25.128-56,56-56s56,25.128,56,56
		V220z"/>
	<path style="fill:#322153;" d="M200,84c-56.064,0-71.608,47.016-72,71.872c-0.064,4.416,3.456,8.056,7.872,8.128
		c0.04,0,0.088,0,0.128,0c4.36,0,7.928-3.504,8-7.872c0.032-2.296,1.504-56.128,56-56.128c4.416,0,8-3.576,8-8S204.416,84,200,84z"
		/>
	<path style="fill:#322153;" d="M392,148c-4.4,0-7.952,3.552-7.976,7.952s3.528,8,7.928,8.048c4.016,0.048,24.048,1.416,24.048,24
		c0,4.424,3.576,8,8,8s8-3.576,8-8C432,156.36,405.832,148,392,148z"/>
</g>
<g>
</g>
<g>
</g>
<g>
</g>
<g>
</g>
<g>
</g>
<g>
</g>
<g>
</g>
<g>
</g>
<g>
</g>
<g>
</g>
<g>
</g>
<g>
</g>
<g>
</g>
<g>
</g>
<g>
</g>
</svg>
