<?xml version="1.0" encoding="iso-8859-1"?>
<!-- Generator: Adobe Illustrator 19.0.0, SVG Export Plug-In . SVG Version: 6.00 Build 0)  -->
<svg version="1.1" id="Capa_1" xmlns="http://www.w3.org/2000/svg" xmlns:xlink="http://www.w3.org/1999/xlink" x="0px" y="0px"
	 viewBox="0 0 464 464" style="enable-background:new 0 0 464 464;" xml:space="preserve">
<rect x="8" y="136" style="fill:#00F2A9;" width="448" height="64"/>
<g>
	<path style="fill:#322153;" d="M424,64H40C17.944,64,0,81.944,0,104v64v192c0,22.056,17.944,40,40,40h384c22.056,0,40-17.944,40-40
		V168v-64C464,81.944,446.056,64,424,64z M16,112h432v48H16V112z M40,80h384c10.416,0,19.216,6.712,22.528,16H17.472
		C20.784,86.712,29.584,80,40,80z M424,384H40c-13.232,0-24-10.768-24-24V176h432v184C448,373.232,437.232,384,424,384z"/>
	<path style="fill:#322153;" d="M200,224H72c-4.424,0-8,3.576-8,8v96c0,4.424,3.576,8,8,8h128c4.424,0,8-3.576,8-8v-96
		C208,227.576,204.424,224,200,224z M192,320H80v-80h112V320z"/>
	<path style="fill:#322153;" d="M386.344,258.344L360,284.688l-26.344-26.344c-3.128-3.128-8.184-3.128-11.312,0l-32,32
		c-3.128,3.128-3.128,8.184,0,11.312s8.184,3.128,11.312,0L328,275.312l26.344,26.344c1.56,1.56,3.608,2.344,5.656,2.344
		s4.096-0.784,5.656-2.344l32-32c3.128-3.128,3.128-8.184,0-11.312S389.472,255.216,386.344,258.344z"/>
	<path style="fill:#322153;" d="M386.344,290.344L360,316.688l-26.344-26.344c-3.128-3.128-8.184-3.128-11.312,0l-32,32
		c-3.128,3.128-3.128,8.184,0,11.312s8.184,3.128,11.312,0L328,307.312l26.344,26.344c1.56,1.56,3.608,2.344,5.656,2.344
		s4.096-0.784,5.656-2.344l32-32c3.128-3.128,3.128-8.184,0-11.312S389.472,287.216,386.344,290.344z"/>
</g>
<g>
</g>
<g>
</g>
<g>
</g>
<g>
</g>
<g>
</g>
<g>
</g>
<g>
</g>
<g>
</g>
<g>
</g>
<g>
</g>
<g>
</g>
<g>
</g>
<g>
</g>
<g>
</g>
<g>
</g>
</svg>
