<?xml version="1.0" encoding="iso-8859-1"?>
<!-- Generator: Adobe Illustrator 19.0.0, SVG Export Plug-In . SVG Version: 6.00 Build 0)  -->
<svg version="1.1" id="Capa_1" xmlns="http://www.w3.org/2000/svg" xmlns:xlink="http://www.w3.org/1999/xlink" x="0px" y="0px"
	 viewBox="0 0 464 464" style="enable-background:new 0 0 464 464;" xml:space="preserve">
<path style="fill:#00F2A9;" d="M136,392h160c17.672,0,32-14.328,32-32s-14.328-32-32-32H136c-17.672,0-32,14.328-32,32
	S118.328,392,136,392z"/>
<g>
	<path style="fill:#322153;" d="M464,75.824C464,51.616,444.384,32,420.176,32H43.824C19.616,32,0,51.616,0,75.824v312.36
		C0,412.384,19.616,432,43.824,432h376.36c24.2,0,43.816-19.616,43.816-43.824V75.824z M448,389.712
		c0,14.52-11.768,26.288-26.288,26.288H42.288C27.768,416,16,404.232,16,389.712V74.288C16,59.768,27.768,48,42.288,48h379.424
		C436.232,48,448,59.768,448,74.288V389.712z"/>
	<path style="fill:#322153;" d="M368,103.584C368,99.4,364.6,96,360.416,96H71.584C67.4,96,64,99.4,64,103.584v96.832
		C64,204.6,67.4,208,71.584,208h288.832c4.184,0,7.584-3.4,7.584-7.584V103.584z M352,192H80v-80h272V192z"/>
	<path style="fill:#322153;" d="M98.344,173.656c1.56,1.56,3.608,2.344,5.656,2.344c2.048,0,4.096-0.784,5.656-2.344L120,163.312
		l10.344,10.344c1.56,1.56,3.608,2.344,5.656,2.344s4.096-0.784,5.656-2.344c3.128-3.128,3.128-8.184,0-11.312L131.312,152
		l10.344-10.344c3.128-3.128,3.128-8.184,0-11.312s-8.184-3.128-11.312,0L120,140.688l-10.344-10.344
		c-3.128-3.128-8.184-3.128-11.312,0s-3.128,8.184,0,11.312L108.688,152l-10.344,10.344
		C95.216,165.472,95.216,170.528,98.344,173.656z"/>
	<path style="fill:#322153;" d="M162.344,173.656c1.56,1.56,3.608,2.344,5.656,2.344s4.096-0.784,5.656-2.344L184,163.312
		l10.344,10.344c1.56,1.56,3.608,2.344,5.656,2.344s4.096-0.784,5.656-2.344c3.128-3.128,3.128-8.184,0-11.312L195.312,152
		l10.344-10.344c3.128-3.128,3.128-8.184,0-11.312s-8.184-3.128-11.312,0L184,140.688l-10.344-10.344
		c-3.128-3.128-8.184-3.128-11.312,0s-3.128,8.184,0,11.312L172.688,152l-10.344,10.344
		C159.216,165.472,159.216,170.528,162.344,173.656z"/>
	<path style="fill:#322153;" d="M226.344,173.656c1.56,1.56,3.608,2.344,5.656,2.344s4.096-0.784,5.656-2.344L248,163.312
		l10.344,10.344c1.56,1.56,3.608,2.344,5.656,2.344s4.096-0.784,5.656-2.344c3.128-3.128,3.128-8.184,0-11.312L259.312,152
		l10.344-10.344c3.128-3.128,3.128-8.184,0-11.312s-8.184-3.128-11.312,0L248,140.688l-10.344-10.344
		c-3.128-3.128-8.184-3.128-11.312,0s-3.128,8.184,0,11.312L236.688,152l-10.344,10.344
		C223.216,165.472,223.216,170.528,226.344,173.656z"/>
	<path style="fill:#322153;" d="M290.344,173.656c1.56,1.56,3.608,2.344,5.656,2.344s4.096-0.784,5.656-2.344L312,163.312
		l10.344,10.344c1.56,1.56,3.608,2.344,5.656,2.344s4.096-0.784,5.656-2.344c3.128-3.128,3.128-8.184,0-11.312L323.312,152
		l10.344-10.344c3.128-3.128,3.128-8.184,0-11.312s-8.184-3.128-11.312,0L312,140.688l-10.344-10.344
		c-3.128-3.128-8.184-3.128-11.312,0s-3.128,8.184,0,11.312L300.688,152l-10.344,10.344
		C287.216,165.472,287.216,170.528,290.344,173.656z"/>
	<path style="fill:#322153;" d="M296,240c4.424,0,8-3.576,8-8s-3.576-8-8-8H136c-4.424,0-8,3.576-8,8c0,4.424,3.576,8,8,8H296z"/>
	<path style="fill:#322153;" d="M296,288H136c-22.408,0-40.64,17.592-40.64,40s18.232,40,40.64,40h160
		c22.408,0,40.64-17.592,40.64-40S318.408,288,296,288z M296,352H136c-12.88,0-23.36-11.12-23.36-24s10.48-24,23.36-24h160
		c12.88,0,23.36,11.12,23.36,24S308.88,352,296,352z"/>
	<path style="fill:#322153;" d="M392,64c-4.4,0-7.952,3.552-7.976,7.952s3.528,8,7.928,8.048C395.968,80.048,416,81.416,416,104v64
		c0,4.424,3.576,8,8,8s8-3.576,8-8v-64C432,72.36,405.832,64,392,64z"/>
	<path style="fill:#322153;" d="M424,352c-4.424,0-8,3.576-8,8c0,22.568-20.008,23.952-24.04,24c-4.4,0.024-7.96,3.592-7.96,8
		c0,4.424,3.576,8,8,8c13.832,0,40-8.36,40-40C432,355.576,428.424,352,424,352z"/>
</g>
<g>
</g>
<g>
</g>
<g>
</g>
<g>
</g>
<g>
</g>
<g>
</g>
<g>
</g>
<g>
</g>
<g>
</g>
<g>
</g>
<g>
</g>
<g>
</g>
<g>
</g>
<g>
</g>
<g>
</g>
</svg>
