<?xml version="1.0" encoding="iso-8859-1"?>
<!-- Generator: Adobe Illustrator 19.0.0, SVG Export Plug-In . SVG Version: 6.00 Build 0)  -->
<svg version="1.1" id="Capa_1" xmlns="http://www.w3.org/2000/svg" xmlns:xlink="http://www.w3.org/1999/xlink" x="0px" y="0px"
	 viewBox="0 0 464 464" style="enable-background:new 0 0 464 464;" xml:space="preserve">
<path style="fill:#00F2A9;" d="M328,232V104c0-17.672-14.328-32-32-32h-50.744c-8.488,0-16.624-3.368-22.624-9.376l-13.256-13.256
	c-6.008-6-14.144-9.368-22.632-9.368H168c-17.672,0-32,14.328-32,32v160v32h192V232z"/>
<g>
	<path style="fill:#322153;" d="M64,424c0,22.056,17.944,40,40,40h256c22.056,0,40-17.944,40-40v-64
		c0-0.384-0.168-0.704-0.216-1.072c-0.048-0.376,0.016-0.744-0.088-1.12L344.848,165.84L336,134.872V72c0-22.056-17.944-40-40-40
		h-50.744c-6.416,0-12.448-2.504-16.976-7.032L215.032,11.72C207.48,4.168,197.432,0,186.744,0H168c-22.056,0-40,17.944-40,40
		v94.872l-8.832,30.936l-54.856,192c-0.104,0.376-0.04,0.744-0.088,1.12C64.168,359.296,64,359.616,64,360V424z M96.32,304h271.36
		l13.712,48H296H168H82.608L96.32,304z M114.608,240H136h192h21.392l13.712,48H100.896L114.608,240z M128,193.136V224h-8.816
		L128,193.136z M336,193.136L344.816,224H336V193.136z M286.528,368c-3.312,9.288-12.112,16-22.528,16h-64.008
		c-10.408,0-19.208-6.712-22.52-16H286.528z M384,424c0,13.232-10.768,24-24,24H104c-13.232,0-24-10.768-24-24v-56l80.808,0.008
		C164.52,386.24,180.68,400,199.992,400H264c19.32,0,35.48-13.768,39.192-32H384V424z M144,40c0-13.232,10.768-24,24-24h18.744
		c6.416,0,12.448,2.504,16.976,7.032l13.248,13.248c7.552,7.552,17.6,11.72,28.288,11.72H296c13.232,0,24,10.768,24,24v152H144V40z"
		/>
	<path style="fill:#322153;" d="M136,416c-7.4,0-13.16-2.008-17.112-5.976c-6.816-6.848-6.888-17.72-6.888-17.944
		c0.048-4.392-3.472-8.008-7.872-8.08c-4.512,0.2-8.056,3.464-8.128,7.872c-0.008,0.712-0.144,17.56,11.416,29.296
		C114.488,428.36,124.112,432,136,432c4.424,0,8-3.576,8-8S140.424,416,136,416z"/>
	<path style="fill:#322153;" d="M288,424c0,4.424,3.576,8,8,8h32c4.424,0,8-3.576,8-8s-3.576-8-8-8h-32
		C291.576,416,288,419.576,288,424z"/>
	<path style="fill:#322153;" d="M168,176h64c4.424,0,8-3.576,8-8s-3.576-8-8-8h-64c-4.424,0-8,3.576-8,8S163.576,176,168,176z"/>
	<path style="fill:#322153;" d="M264,192h-96c-4.424,0-8,3.576-8,8s3.576,8,8,8h96c4.424,0,8-3.576,8-8S268.424,192,264,192z"/>
</g>
<g>
</g>
<g>
</g>
<g>
</g>
<g>
</g>
<g>
</g>
<g>
</g>
<g>
</g>
<g>
</g>
<g>
</g>
<g>
</g>
<g>
</g>
<g>
</g>
<g>
</g>
<g>
</g>
<g>
</g>
</svg>
