<?xml version="1.0" encoding="iso-8859-1"?>
<!-- Generator: Adobe Illustrator 19.0.0, SVG Export Plug-In . SVG Version: 6.00 Build 0)  -->
<svg version="1.1" id="Capa_1" xmlns="http://www.w3.org/2000/svg" xmlns:xlink="http://www.w3.org/1999/xlink" x="0px" y="0px"
	 viewBox="0 0 464.012 464.012" style="enable-background:new 0 0 464.012 464.012;" xml:space="preserve">
<path style="fill:#00F2A9;" d="M328.006,280.006h-192c-17.672,0-32,14.328-32,32v64c0,17.672,14.328,32,32,32h192
	c17.672,0,32-14.328,32-32v-64C360.006,294.334,345.678,280.006,328.006,280.006z"/>
<g>
	<path style="fill:#322153;" d="M462.814,307.806c-1.464-2.36-4.032-3.8-6.808-3.8h-88v-24c0-22.056-17.944-40-40-40h-192
		c-22.056,0-40,17.944-40,40v24h-88c-2.776,0-5.344,1.44-6.808,3.8s-1.592,5.304-0.352,7.784l30.216,60.416L0.854,436.43
		c-1.24,2.48-1.112,5.424,0.352,7.784s4.024,3.792,6.8,3.792h128c22.056,0,40-17.944,40-40v-24h112v24c0,22.056,17.944,40,40,40h128
		c2.776,0,5.344-1.44,6.808-3.8s1.592-5.304,0.352-7.784l-30.216-60.416l30.208-60.424
		C464.406,313.11,464.27,310.166,462.814,307.806z M112.006,280.006c0-13.232,10.768-24,24-24h192c13.232,0,24,10.768,24,24v64
		c0,13.232-10.768,24-24,24h-192c-13.232,0-24-10.768-24-24V280.006z M160.006,408.006c0,13.232-10.768,24-24,24H20.95
		l26.208-52.424c1.128-2.248,1.128-4.904,0-7.16L20.95,320.006h75.056v24c0,22.056,17.944,40,40,40h24V408.006z M416.846,372.43
		c-1.128,2.248-1.128,4.904,0,7.16l26.216,52.416H328.006c-13.232,0-24-10.768-24-24v-24h24c22.056,0,40-17.944,40-40v-24h75.056
		L416.846,372.43z"/>
	<path style="fill:#322153;" d="M109.662,50.35c-3.128-3.128-8.184-3.128-11.312,0L88.006,60.694L77.662,50.35
		c-3.128-3.128-8.184-3.128-11.312,0c-3.128,3.128-3.128,8.184,0,11.312l10.344,10.344L66.35,82.35
		c-3.128,3.128-3.128,8.184,0,11.312c1.56,1.56,3.608,2.344,5.656,2.344s4.096-0.784,5.656-2.344l10.344-10.344L98.35,93.662
		c1.56,1.56,3.608,2.344,5.656,2.344c2.048,0,4.096-0.784,5.656-2.344c3.128-3.128,3.128-8.184,0-11.312L99.318,72.006
		l10.344-10.344C112.79,58.534,112.79,53.478,109.662,50.35z"/>
	<path style="fill:#322153;" d="M429.662,178.35c-3.128-3.128-8.184-3.128-11.312,0l-10.344,10.344l-10.344-10.344
		c-3.128-3.128-8.184-3.128-11.312,0s-3.128,8.184,0,11.312l10.344,10.344L386.35,210.35c-3.128,3.128-3.128,8.184,0,11.312
		c1.56,1.56,3.608,2.344,5.656,2.344s4.096-0.784,5.656-2.344l10.344-10.344l10.344,10.344c1.56,1.56,3.608,2.344,5.656,2.344
		s4.096-0.784,5.656-2.344c3.128-3.128,3.128-8.184,0-11.312l-10.344-10.344l10.344-10.344
		C432.79,186.534,432.79,181.478,429.662,178.35z"/>
	<path style="fill:#322153;" d="M269.662,114.35c-3.128-3.128-8.184-3.128-11.312,0l-10.344,10.344l-10.344-10.344
		c-3.128-3.128-8.184-3.128-11.312,0s-3.128,8.184,0,11.312l10.344,10.344L226.35,146.35c-3.128,3.128-3.128,8.184,0,11.312
		c1.56,1.56,3.608,2.344,5.656,2.344s4.096-0.784,5.656-2.344l10.344-10.344l10.344,10.344c1.56,1.56,3.608,2.344,5.656,2.344
		s4.096-0.784,5.656-2.344c3.128-3.128,3.128-8.184,0-11.312l-10.344-10.344l10.344-10.344
		C272.79,122.534,272.79,117.478,269.662,114.35z"/>
	<path style="fill:#322153;" d="M344.006,16.006c-13.232,0-24,10.768-24,24s10.768,24,24,24s24-10.768,24-24
		S357.238,16.006,344.006,16.006z M344.006,48.006c-4.416,0-8-3.584-8-8s3.584-8,8-8s8,3.584,8,8S348.422,48.006,344.006,48.006z"/>
	<path style="fill:#322153;" d="M56.006,176.006c-13.232,0-24,10.768-24,24s10.768,24,24,24s24-10.768,24-24
		S69.238,176.006,56.006,176.006z M56.006,208.006c-4.416,0-8-3.584-8-8s3.584-8,8-8s8,3.584,8,8S60.422,208.006,56.006,208.006z"/>
</g>
<g>
</g>
<g>
</g>
<g>
</g>
<g>
</g>
<g>
</g>
<g>
</g>
<g>
</g>
<g>
</g>
<g>
</g>
<g>
</g>
<g>
</g>
<g>
</g>
<g>
</g>
<g>
</g>
<g>
</g>
</svg>
