<?xml version="1.0" encoding="iso-8859-1"?>
<!-- Generator: Adobe Illustrator 19.0.0, SVG Export Plug-In . SVG Version: 6.00 Build 0)  -->
<svg version="1.1" id="Capa_1" xmlns="http://www.w3.org/2000/svg" xmlns:xlink="http://www.w3.org/1999/xlink" x="0px" y="0px"
	 viewBox="0 0 464 464" style="enable-background:new 0 0 464 464;" xml:space="preserve">
<path style="fill:#00F2A9;" d="M360,295.992c-0.16-17.52-14.4-32-32-32h-18.72c-8.48,0-16.64-3.2-22.64-9.2l-6.56-6.56l-0.16-0.16
	L232,264.232l-47.92-16.24l-0.08,0.08l-6.64,6.64c-6,6-14.16,9.28-22.64,9.28H136c-17.6,0-31.84,14.48-32,32v82.72
	c0,8.48,3.36,16.64,9.36,22.64l22.64,22.64h192l22.64-22.64c6-6,9.36-14.16,9.36-22.64V295.992z"/>
<g>
	<path style="fill:#322153;" d="M435.936,386.016L456,345.88c5.6-11.2,5.6-24.576,0-35.784l-24.84-49.688
		c-0.408-0.808-0.992-1.456-1.608-2.056c1.52-3.144,2.448-6.632,2.448-10.36c0-13.232-10.768-24-24-24s-24,10.768-24,24
		s10.768,24,24,24c3.56,0,6.904-0.824,9.944-2.224l23.744,47.488c3.368,6.72,3.368,14.752,0,21.472l-22.632,45.264h-71.744
		l8.968-8.968c7.552-7.552,11.72-17.6,11.72-28.288v-82.744c0-0.12-0.064-0.232-0.072-0.344
		c-0.368-21.912-18.104-39.656-39.928-39.656h-18.744c-6.536,0-12.56-2.432-16.976-6.856l-17.968-17.96
		C310.608,182.904,336,146.464,336,104.136c0-56.016-44.432-101.712-99.832-103.92c-0.552-0.024-1.104-0.064-1.656-0.08
		c-0.84-0.024-1.664-0.128-2.512-0.128c-1.616,0-3.192,0.168-4.792,0.24c-1,0.048-2,0.08-3,0.152
		c-2.176,0.168-4.336,0.408-6.472,0.704c-1.256,0.168-2.504,0.36-3.752,0.576c-1.888,0.336-3.752,0.712-5.608,1.144
		c-1.56,0.36-3.112,0.768-4.656,1.2c-1.496,0.424-2.976,0.856-4.448,1.344c-1.944,0.64-3.856,1.36-5.768,2.12
		c-1.032,0.416-2.064,0.816-3.08,1.264c-2.296,1-4.552,2.104-6.792,3.28c-0.592,0.312-1.192,0.616-1.784,0.936
		c-2.504,1.376-4.944,2.88-7.344,4.472c-0.312,0.208-0.624,0.4-0.936,0.616c-2.496,1.696-4.928,3.528-7.304,5.472
		c-0.2,0.16-0.4,0.32-0.6,0.48c-0.936,0.776-1.92,1.472-2.84,2.288c-0.056,0.04-0.104,0.088-0.16,0.136
		c-0.048,0.04-0.088,0.088-0.136,0.128l-0.352,0.312l0.016,0.016c-0.232,0.248-0.392,0.552-0.6,0.824
		C141,46.744,128,73.92,128,104.144c0,42.352,25.416,78.8,61.744,95.056l-18.032,17.944c-4.408,4.416-10.432,6.848-16.968,6.848H136
		c-21.76,0-39.432,17.64-39.912,39.552C96.08,263.704,96,263.84,96,263.992v82.744c0,10.688,4.168,20.736,11.72,28.288l8.968,8.968
		H44.944l-22.632-45.264c-3.368-6.72-3.368-14.752,0-21.472l23.744-47.488c3.04,1.392,6.384,2.224,9.944,2.224
		c13.232,0,24-10.768,24-24s-10.768-24-24-24s-24,10.768-24,24c0,3.504,0.792,6.808,2.144,9.808L8,310.104
		c-5.6,11.2-5.6,24.576,0,35.784l20.064,40.128C11.864,391.128,0,406.12,0,423.992v32c0,4.424,3.576,8,8,8h448c4.424,0,8-3.576,8-8
		v-32C464,406.12,452.136,391.128,435.936,386.016z M408,255.992c-4.416,0-8-3.584-8-8s3.584-8,8-8s8,3.584,8,8
		S412.416,255.992,408,255.992z M56,239.992c4.416,0,8,3.584,8,8s-3.584,8-8,8s-8-3.584-8-8S51.584,239.992,56,239.992z
		 M288.24,36.456L272,52.696V40.008c0-3.232-1.944-6.16-4.936-7.392c-0.992-0.416-2.032-0.608-3.064-0.608
		c-2.08,0-4.128,0.816-5.656,2.344L240,52.696V40.008c0-3.232-1.944-6.16-4.936-7.392c-3-1.248-6.432-0.56-8.72,1.736L208,52.696
		V40.008c0-3.232-1.944-6.16-4.936-7.392c-2.984-1.248-6.432-0.56-8.72,1.736L176,52.696V36.208
		c6.392-5.296,13.552-9.688,21.272-13.016c0.616-0.264,1.24-0.496,1.864-0.744c1.776-0.72,3.576-1.384,5.408-1.984
		c1.104-0.36,2.216-0.688,3.328-1.008c1.336-0.384,2.688-0.728,4.056-1.048c1.456-0.336,2.904-0.656,4.368-0.92
		c0.992-0.176,2-0.312,3-0.456c1.768-0.256,3.544-0.504,5.328-0.656c0.344-0.032,0.696-0.032,1.04-0.056
		c9.64-0.672,19.36,0.208,28.744,2.68c0.04,0.008,0.088,0.024,0.128,0.032c2.352,0.624,4.68,1.352,6.984,2.168
		c0.128,0.048,0.256,0.096,0.376,0.136c2.248,0.816,4.472,1.712,6.664,2.72c0.16,0.072,0.32,0.16,0.48,0.232
		c2.16,1.008,4.296,2.088,6.384,3.272c0.128,0.072,0.248,0.16,0.376,0.232C280.128,30.296,284.304,33.176,288.24,36.456z
		 M144,104.144c0-18.792,5.952-36.192,16-50.512v18.376c0,3.232,1.944,6.16,4.936,7.392c3,1.24,6.432,0.552,8.72-1.736L192,59.32
		v12.688c0,3.232,1.944,6.16,4.936,7.392c2.984,1.24,6.432,0.552,8.72-1.736L224,59.32v12.688c0,3.232,1.944,6.16,4.936,7.392
		c2.984,1.24,6.432,0.552,8.72-1.736L256,59.32v12.688c0,3.232,1.944,6.16,4.936,7.392c0.992,0.416,2.032,0.608,3.064,0.608
		c2.08,0,4.128-0.816,5.656-2.344L299.56,47.76C312.304,63.056,320,82.712,320,104.144c0,48.592-39.48,88.136-88,88.136
		S144,152.736,144,104.144z M232,208.272c8.896,0,17.488-1.248,25.736-3.36c0.224,0.296,0.336,0.648,0.608,0.912l6.92,6.92
		L232,223.8l-33.192-11.048l6.832-6.808c0.304-0.296,0.432-0.688,0.68-1.016C214.552,207.032,223.12,208.272,232,208.272z
		 M232,282.056l22.256,44.472L232,348.752l-22.256-22.224L232,282.056z M232.008,252.88l-18.368-18.336l15.832,5.272
		c1.64,0.544,3.408,0.544,5.048,0l15.88-5.272L232.008,252.88z M119.032,363.712c-4.536-4.536-7.032-10.56-7.032-16.976v-82.392
		c0-13.424,10.768-24.352,24-24.352h18.744c10.824,0,20.872-4.104,28.272-11.528l0.944-0.936l38.296,38.248l-29.416,58.752
		c-1.536,3.08-0.936,6.808,1.504,9.24l32,31.952c1.56,1.552,3.608,2.336,5.656,2.336c2.048,0,4.096-0.784,5.656-2.336l32-31.952
		c2.44-2.44,3.04-6.168,1.504-9.24l-29.416-58.752l38.336-38.216l0.888,0.88c7.416,7.448,17.472,11.552,28.288,11.552H328
		c13.232,0,24,10.928,24,24.344v0.2v82.192c0,6.416-2.504,12.448-7.032,16.976l-20.28,20.288H304v-88c0-4.424-3.576-8-8-8
		s-8,3.576-8,8v88H176v-88c0-4.424-3.576-8-8-8s-8,3.576-8,8v88h-20.688L119.032,363.712z M448,447.992H16v-24
		c0-13.232,10.768-24,24-24h384c13.232,0,24,10.768,24,24V447.992z"/>
	<path style="fill:#322153;" d="M104,415.992H40c-4.424,0-8,3.576-8,8s3.576,8,8,8h64c4.424,0,8-3.576,8-8
		S108.424,415.992,104,415.992z"/>
	<path style="fill:#322153;" d="M424,415.992h-64c-4.424,0-8,3.576-8,8s3.576,8,8,8h64c4.424,0,8-3.576,8-8
		S428.424,415.992,424,415.992z"/>
</g>
<g>
</g>
<g>
</g>
<g>
</g>
<g>
</g>
<g>
</g>
<g>
</g>
<g>
</g>
<g>
</g>
<g>
</g>
<g>
</g>
<g>
</g>
<g>
</g>
<g>
</g>
<g>
</g>
<g>
</g>
</svg>
