<?xml version="1.0" encoding="iso-8859-1"?>
<!-- Generator: Adobe Illustrator 19.0.0, SVG Export Plug-In . SVG Version: 6.00 Build 0)  -->
<svg version="1.1" id="Capa_1" xmlns="http://www.w3.org/2000/svg" xmlns:xlink="http://www.w3.org/1999/xlink" x="0px" y="0px"
	 viewBox="0 0 464.003 464.003" style="enable-background:new 0 0 464.003 464.003;" xml:space="preserve">
<circle style="fill:#00F2A9;" cx="232" cy="264.003" r="96"/>
<path style="fill:#322153;" d="M461.656,2.346c-3.128-3.128-8.184-3.128-11.312,0l-60.168,60.168
	C348.704,23.779,293.088,0.002,232,0.002c-127.92,0-232,104.08-232,232s104.08,232,232,232s232-104.08,232-232
	c0-61.088-23.776-116.704-62.504-158.176l60.168-60.168C464.784,10.53,464.784,5.475,461.656,2.346z M448,232.003
	c0,119.104-96.896,216-216,216s-216-96.896-216-216s96.896-216,216-216c56.68,0,108.296,21.976,146.872,57.816l-34.064,34.064
	c-28-25.472-64.536-41.56-104.808-43.472V40.002c0-4.424-3.576-8-8-8s-8,3.576-8,8v24.408
	c-86.24,4.088-155.504,73.352-159.592,159.592H40c-4.424,0-8,3.576-8,8c0,4.424,3.576,8,8,8h24.408
	C68.496,326.242,137.76,395.507,224,399.595v24.408c0,4.424,3.576,8,8,8c4.424,0,8-3.576,8-8v-24.408
	c86.24-4.088,155.504-73.352,159.592-159.592H424c4.424,0,8-3.576,8-8s-3.576-8-8-8h-24.408c-1.912-40.28-18-76.816-43.472-104.808
	l34.064-34.064C426.024,123.706,448,175.323,448,232.003z M232,320.003c-48.52,0-88-39.48-88-88s39.48-88,88-88
	c21.384,0,41,7.68,56.272,20.416L240,212.691v-12.688c0-4.424-3.576-8-8-8s-8,3.576-8,8v32c0,0.984,0.232,1.912,0.56,2.792
	c0.104,0.272,0.232,0.504,0.36,0.76c0.304,0.608,0.68,1.16,1.128,1.672c0.184,0.208,0.344,0.416,0.552,0.608
	c0.624,0.576,1.32,1.064,2.12,1.424c0.072,0.032,0.128,0.088,0.2,0.12c0.008,0,0.016,0.008,0.024,0.016
	c0.984,0.416,2.024,0.608,3.056,0.608h32c4.424,0,8-3.576,8-8s-3.576-8-8-8h-12.688l48.272-48.272
	C312.312,191.003,320,210.618,320,232.003C320,280.522,280.52,320.003,232,320.003z M299.576,153.115
	c-16.288-13.976-36.92-22.968-59.576-24.704v-48c35.872,1.88,68.424,16.192,93.504,38.776L299.576,153.115z M224,128.411
	c-50.96,3.904-91.688,44.632-95.592,95.592h-48C84.464,146.587,146.584,84.466,224,80.41V128.411z M128.408,240.003
	c3.904,50.96,44.632,91.688,95.592,95.592v48c-77.416-4.056-139.536-66.176-143.592-143.592H128.408z M240,335.595
	c50.96-3.904,91.688-44.632,95.592-95.592h48C379.536,317.418,317.416,379.539,240,383.595V335.595z M335.592,224.003
	c-1.736-22.664-10.728-43.288-24.704-59.576l33.928-33.928c22.592,25.08,36.896,57.632,38.776,93.504H335.592z"/>
<g>
</g>
<g>
</g>
<g>
</g>
<g>
</g>
<g>
</g>
<g>
</g>
<g>
</g>
<g>
</g>
<g>
</g>
<g>
</g>
<g>
</g>
<g>
</g>
<g>
</g>
<g>
</g>
<g>
</g>
</svg>
