<?xml version="1.0" encoding="iso-8859-1"?>
<!-- Generator: Adobe Illustrator 19.0.0, SVG Export Plug-In . SVG Version: 6.00 Build 0)  -->
<svg version="1.1" id="Capa_1" xmlns="http://www.w3.org/2000/svg" xmlns:xlink="http://www.w3.org/1999/xlink" x="0px" y="0px"
	 viewBox="0 0 464 464" style="enable-background:new 0 0 464 464;" xml:space="preserve">
<g>
	<circle style="fill:#00F2A9;" cx="232" cy="104" r="64"/>
	<path style="fill:#00F2A9;" d="M200,200c0,0,0,33.336,0,96s-32,96-32,96h128c0,0-32-33.336-32-96s0-96,0-96H200z"/>
</g>
<g>
	<path style="fill:#322153;" d="M164.288,352h-15.032c-10.688,0-20.736,4.168-28.288,11.72l-20.656,20.656
		C80.008,386.264,64,403.208,64,424c0,22.056,17.944,40,40,40h256c22.056,0,40-17.944,40-40c0-20.792-16.008-37.736-36.312-39.624
		l-20.656-20.656c-7.552-7.552-17.6-11.72-28.288-11.72h-15.048C292.984,343.672,272,313.656,272,264v-88h8
		c13.232,0,24-10.768,24-24s-10.768-24-24-24h-2.84C293.504,114.792,304,94.608,304,72c0-39.704-32.296-72-72-72s-72,32.296-72,72
		c0,22.608,10.496,42.792,26.84,56H184c-13.232,0-24,10.768-24,24s10.768,24,24,24h8v88C192,313.352,170.968,343.624,164.288,352z
		 M384,424c0,13.232-10.768,24-24,24H104c-13.232,0-24-10.768-24-24s10.768-24,24-24h256C373.232,400,384,410.768,384,424z
		 M331.72,375.032l8.968,8.968H123.312l8.968-8.968c4.536-4.528,10.56-7.032,16.976-7.032H168h128h18.744
		C321.16,368,327.184,370.504,331.72,375.032z M176,72c0-30.872,25.128-56,56-56s56,25.128,56,56s-25.128,56-56,56
		S176,102.872,176,72z M176,152c0-4.416,3.584-8,8-8h96c4.416,0,8,3.584,8,8s-3.584,8-8,8h-16h-64h-16
		C179.584,160,176,156.416,176,152z M256,176v88c0,42.48,13.96,72.12,24.064,88h-96.128C194.04,336.12,208,306.48,208,264v-88H256z"
		/>
	<path style="fill:#322153;" d="M168,416h-64c-4.424,0-8,3.576-8,8s3.576,8,8,8h64c4.424,0,8-3.576,8-8S172.424,416,168,416z"/>
	<path style="fill:#322153;" d="M232,96c-22.08,0-23.872-21.832-24.008-24.368c-0.192-4.4-3.952-7.832-8.328-7.624
		c-4.416,0.176-7.84,3.912-7.656,8.328C192.576,86.056,201.672,112,232,112c4.424,0,8-3.576,8-8S236.424,96,232,96z"/>
</g>
<g>
</g>
<g>
</g>
<g>
</g>
<g>
</g>
<g>
</g>
<g>
</g>
<g>
</g>
<g>
</g>
<g>
</g>
<g>
</g>
<g>
</g>
<g>
</g>
<g>
</g>
<g>
</g>
<g>
</g>
</svg>
