<?xml version="1.0" encoding="iso-8859-1"?>
<!-- Generator: Adobe Illustrator 19.0.0, SVG Export Plug-In . SVG Version: 6.00 Build 0)  -->
<svg version="1.1" id="Capa_1" xmlns="http://www.w3.org/2000/svg" xmlns:xlink="http://www.w3.org/1999/xlink" x="0px" y="0px"
	 viewBox="0 0 464 464" style="enable-background:new 0 0 464 464;" xml:space="preserve">
<rect x="168" y="151.98" style="fill:#00F2A9;" width="256" height="96"/>
<g>
	<path style="fill:#322153;" d="M424,79.98H143.192c-3.72-18.232-19.872-32-39.192-32H72c-19.568,0-35.832,14.144-39.264,32.736
		C14.144,84.148,0,100.412,0,119.98v192c0,19.568,14.144,35.832,32.736,39.264C36.168,369.836,52.432,383.98,72,383.98h24.632
		c2.4,13.704,12.44,32,39.368,32l63.336-0.032c0.136,0.016,0.888,0.072,2.096,0.072c4.912,0,17.384-0.944,26.944-9.736
		C236.088,399.18,240,388.988,240,375.98v-24h184c22.056,0,40-17.944,40-40v-192C464,97.924,446.056,79.98,424,79.98z M16,311.98
		v-192c0-10.432,6.688-19.328,16-22.632v237.264C22.688,331.308,16,322.412,16,311.98z M48,343.98v-256c0-13.232,10.768-24,24-24h32
		c13.232,0,24,10.768,24,24v256c0,13.232-10.768,24-24,24H72C58.768,367.98,48,357.212,48,343.98z M224,375.98
		c0,8.296-2.144,14.504-6.376,18.456c-6.664,6.216-16.896,5.6-17.624,5.544h-64c-16.496,0-21.656-10.104-23.272-17.024
		c15.288-3.424,27.32-15.576,30.464-30.976H224V375.98z M448,311.98c0,13.232-10.768,24-24,24H232.232
		c-0.08,0-0.152-0.048-0.232-0.048s-0.152,0.048-0.232,0.048H144v-240h280c13.232,0,24,10.768,24,24V311.98z"/>
	<path style="fill:#322153;" d="M72,207.98c-4.416,0-8,3.576-8,8v96c0,4.424,3.584,8,8,8s8-3.576,8-8v-96
		C80,211.556,76.416,207.98,72,207.98z"/>
	<path style="fill:#322153;" d="M424,111.98H168c-4.416,0-8,3.576-8,8v96c0,4.424,3.584,8,8,8h256c4.424,0,8-3.576,8-8v-96
		C432,115.556,428.424,111.98,424,111.98z M416,207.98H176v-80h240V207.98z"/>
	<path style="fill:#322153;" d="M200,239.98h-32c-4.416,0-8,3.576-8,8s3.584,8,8,8h32c4.416,0,8-3.576,8-8
		S204.416,239.98,200,239.98z"/>
	<path style="fill:#322153;" d="M264,239.98h-32c-4.416,0-8,3.576-8,8s3.584,8,8,8h32c4.424,0,8-3.576,8-8
		S268.424,239.98,264,239.98z"/>
	<path style="fill:#322153;" d="M328,239.98h-32c-4.424,0-8,3.576-8,8s3.576,8,8,8h32c4.424,0,8-3.576,8-8
		S332.424,239.98,328,239.98z"/>
	<path style="fill:#322153;" d="M200,271.98h-32c-4.416,0-8,3.576-8,8s3.584,8,8,8h32c4.416,0,8-3.576,8-8
		S204.416,271.98,200,271.98z"/>
	<path style="fill:#322153;" d="M264,271.98h-32c-4.416,0-8,3.576-8,8s3.584,8,8,8h32c4.424,0,8-3.576,8-8
		S268.424,271.98,264,271.98z"/>
	<path style="fill:#322153;" d="M328,271.98h-32c-4.424,0-8,3.576-8,8s3.576,8,8,8h32c4.424,0,8-3.576,8-8
		S332.424,271.98,328,271.98z"/>
	<path style="fill:#322153;" d="M200,303.98h-32c-4.416,0-8,3.576-8,8s3.584,8,8,8h32c4.416,0,8-3.576,8-8
		S204.416,303.98,200,303.98z"/>
	<path style="fill:#322153;" d="M264,303.98h-32c-4.416,0-8,3.576-8,8s3.584,8,8,8h32c4.424,0,8-3.576,8-8
		S268.424,303.98,264,303.98z"/>
	<path style="fill:#322153;" d="M328,303.98h-32c-4.424,0-8,3.576-8,8s3.576,8,8,8h32c4.424,0,8-3.576,8-8
		S332.424,303.98,328,303.98z"/>
	<path style="fill:#322153;" d="M424,239.98h-32c-4.424,0-8,3.576-8,8s3.576,8,8,8h32c4.424,0,8-3.576,8-8
		S428.424,239.98,424,239.98z"/>
	<path style="fill:#322153;" d="M424,271.98h-32c-4.424,0-8,3.576-8,8s3.576,8,8,8h32c4.424,0,8-3.576,8-8
		S428.424,271.98,424,271.98z"/>
	<path style="fill:#322153;" d="M424,303.98h-32c-4.424,0-8,3.576-8,8s3.576,8,8,8h32c4.424,0,8-3.576,8-8
		S428.424,303.98,424,303.98z"/>
	<path style="fill:#322153;" d="M200,191.98c2.048,0,4.096-0.784,5.656-2.344l32-32c3.128-3.128,3.128-8.184,0-11.312
		s-8.184-3.128-11.312,0l-32,32c-3.128,3.128-3.128,8.184,0,11.312C195.904,191.196,197.952,191.98,200,191.98z"/>
	<path style="fill:#322153;" d="M226.344,189.636c1.56,1.56,3.608,2.344,5.656,2.344s4.096-0.784,5.656-2.344l32-32
		c3.128-3.128,3.128-8.184,0-11.312s-8.184-3.128-11.312,0l-32,32C223.216,181.452,223.216,186.508,226.344,189.636z"/>
</g>
<g>
</g>
<g>
</g>
<g>
</g>
<g>
</g>
<g>
</g>
<g>
</g>
<g>
</g>
<g>
</g>
<g>
</g>
<g>
</g>
<g>
</g>
<g>
</g>
<g>
</g>
<g>
</g>
<g>
</g>
</svg>
