<?xml version="1.0" encoding="iso-8859-1"?>
<!-- Generator: Adobe Illustrator 19.0.0, SVG Export Plug-In . SVG Version: 6.00 Build 0)  -->
<svg version="1.1" id="Capa_1" xmlns="http://www.w3.org/2000/svg" xmlns:xlink="http://www.w3.org/1999/xlink" x="0px" y="0px"
	 viewBox="0 0 457.881 457.881" style="enable-background:new 0 0 457.881 457.881;" xml:space="preserve">
<path style="fill:#00F2A9;" d="M409.566,339.386c-21.832-21.832-57.24-21.832-79.072,0c-14.608,14.608-36.928,18.232-55.408,8.992
	l0,0c-63-31.504-114.08-82.584-145.584-145.584c-9.24-18.48-5.616-40.8,8.992-55.408c21.832-21.832,21.832-57.24,0-79.072
	l-8.464-8.464c-26.512-26.512-69.488-26.512-96,0c-10.784,10.784-15.824,26.016-13.456,41.08
	c6.856,43.584,32.144,137.608,125.456,230.92s187.336,118.6,230.92,125.456c15.064,2.368,30.296-2.672,41.08-13.456
	c26.512-26.512,26.512-69.488,0-96L409.566,339.386z"/>
<g>
	<path style="fill:#322153;" d="M12.67,70.17c7.504,47.696,34.064,141.696,127.704,235.336s187.64,120.2,235.336,127.704
		c2.832,0.448,5.68,0.664,8.512,0.664c14.632-0.008,28.928-5.832,39.464-16.368c29.584-29.584,29.584-77.728,0-107.312l-8.464-8.464
		c-24.92-24.92-65.472-24.92-90.392,0c-12.184,12.184-30.744,15.2-46.168,7.496c-61.048-30.52-111.488-80.96-142.008-142.008
		c-7.712-15.432-4.696-33.984,7.496-46.168c24.92-24.92,24.92-65.472,0-90.392l-8.464-8.464c-29.576-29.592-77.736-29.592-107.312,0
		C15.798,34.77,9.926,52.698,12.67,70.17z M82.03,16.002c15.336,0,30.672,5.832,42.344,17.504l8.464,8.464
		c18.68,18.68,18.68,49.088,0,67.768c-17.064,17.064-21.28,43.04-10.496,64.64c32.064,64.128,85.04,117.104,149.168,149.168
		c21.584,10.784,47.568,6.568,64.64-10.496c18.688-18.688,49.08-18.688,67.768,0l8.464,8.464c23.344,23.352,23.344,61.336,0,84.688
		c-8.968,8.968-21.68,13.2-34.176,11.2c-45.776-7.192-136.072-32.768-226.504-123.2S35.678,113.458,28.486,67.682
		c-1.952-12.432,2.232-25.208,11.2-34.176C51.358,21.834,66.694,16.002,82.03,16.002z"/>
	<path style="fill:#322153;" d="M82.038,179.85c1.176,0,2.384-0.256,3.512-0.824c3.968-1.936,5.6-6.736,3.656-10.704
		C44.166,76.434,56.23,49.274,56.806,48.09c2.256-3.6,1.304-8.376-2.224-10.824c-3.64-2.512-8.616-1.608-11.136,2.024
		c-3.456,4.984-18.168,34.984,31.4,136.08C76.23,178.21,79.078,179.85,82.038,179.85z"/>
	<path style="fill:#322153;" d="M242.03,163.85c-22.056,0-40,17.944-40,40s17.944,40,40,40s40-17.944,40-40
		S264.086,163.85,242.03,163.85z M242.03,227.85c-13.232,0-24-10.768-24-24s10.768-24,24-24s24,10.768,24,24
		S255.262,227.85,242.03,227.85z"/>
	<path style="fill:#322153;" d="M306.03,211.85c4.424,0,8-3.576,8-8c0-39.704-32.296-72-72-72c-4.424,0-8,3.576-8,8s3.576,8,8,8
		c30.872,0,56,25.128,56,56C298.03,208.274,301.606,211.85,306.03,211.85z"/>
	<path style="fill:#322153;" d="M338.03,211.85c4.424,0,8-3.576,8-8c0-57.344-46.656-104-104-104c-4.424,0-8,3.576-8,8s3.576,8,8,8
		c48.52,0,88,39.48,88,88C330.03,208.274,333.606,211.85,338.03,211.85z"/>
	<path style="fill:#322153;" d="M370.03,211.85c4.424,0,8-3.576,8-8c0-74.992-61.008-136-136-136c-4.424,0-8,3.576-8,8
		c0,4.424,3.576,8,8,8c66.168,0,120,53.832,120,120C362.03,208.274,365.606,211.85,370.03,211.85z"/>
	<path style="fill:#322153;" d="M402.03,211.85c4.424,0,8-3.576,8-8c0-92.632-75.368-168-168-168c-4.424,0-8,3.576-8,8s3.576,8,8,8
		c83.816,0,152,68.184,152,152C394.03,208.274,397.606,211.85,402.03,211.85z"/>
</g>
<g>
</g>
<g>
</g>
<g>
</g>
<g>
</g>
<g>
</g>
<g>
</g>
<g>
</g>
<g>
</g>
<g>
</g>
<g>
</g>
<g>
</g>
<g>
</g>
<g>
</g>
<g>
</g>
<g>
</g>
</svg>
