<?xml version="1.0" encoding="iso-8859-1"?>
<!-- Generator: Adobe Illustrator 19.0.0, SVG Export Plug-In . SVG Version: 6.00 Build 0)  -->
<svg version="1.1" id="Capa_1" xmlns="http://www.w3.org/2000/svg" xmlns:xlink="http://www.w3.org/1999/xlink" x="0px" y="0px"
	 viewBox="0 0 464 464" style="enable-background:new 0 0 464 464;" xml:space="preserve">
<path style="fill:#00F2A9;" d="M424,40H40C22.328,40,8,54.328,8,72v224c0,17.672,14.328,32,32,32h384c17.672,0,32-14.328,32-32V72
	C456,54.328,441.672,40,424,40z M424,296H40V72h384V296z"/>
<g>
	<path style="fill:#322153;" d="M424,272c4.424,0,8-3.576,8-8V40c0-4.424-3.576-8-8-8H40c-4.424,0-8,3.576-8,8v224
		c0,4.424,3.576,8,8,8H424z M48,48h368v208H48V48z"/>
	<path style="fill:#322153;" d="M32,448H8c-4.424,0-8,3.576-8,8s3.576,8,8,8h64c4.424,0,8-3.576,8-8s-3.576-8-8-8H48v-80h368v80h-24
		c-4.424,0-8,3.576-8,8s3.576,8,8,8h64c4.424,0,8-3.576,8-8s-3.576-8-8-8h-24V303.192c18.232-3.72,32-19.872,32-39.192V40
		c0-22.056-17.944-40-40-40H40C17.944,0,0,17.944,0,40v224c0,19.312,13.768,35.472,32,39.192V448z M48,352v-48h368v48H48z M16,264
		V40c0-13.232,10.768-24,24-24h384c13.232,0,24,10.768,24,24v224c0,13.232-10.768,24-24,24H40C26.768,288,16,277.232,16,264z"/>
	<path style="fill:#322153;" d="M392,224H91.312L136,179.312l26.344,26.344c3.128,3.128,8.184,3.128,11.312,0L264,115.312
		l26.344,26.344c3.128,3.128,8.184,3.128,11.312,0l64-64c3.128-3.128,3.128-8.184,0-11.312s-8.184-3.128-11.312,0L296,124.688
		l-26.344-26.344c-3.128-3.128-8.184-3.128-11.312,0L168,188.688l-26.344-26.344c-3.128-3.128-8.184-3.128-11.312,0L80,212.688V72
		c0-4.424-3.576-8-8-8s-8,3.576-8,8v160c0,1.04,0.208,2.08,0.616,3.056c0.808,1.96,2.368,3.52,4.328,4.328
		C69.92,239.792,70.96,240,72,240h320c4.424,0,8-3.576,8-8S396.424,224,392,224z"/>
</g>
<g>
</g>
<g>
</g>
<g>
</g>
<g>
</g>
<g>
</g>
<g>
</g>
<g>
</g>
<g>
</g>
<g>
</g>
<g>
</g>
<g>
</g>
<g>
</g>
<g>
</g>
<g>
</g>
<g>
</g>
</svg>
