<?xml version="1.0" encoding="iso-8859-1"?>
<!-- Generator: Adobe Illustrator 19.0.0, SVG Export Plug-In . SVG Version: 6.00 Build 0)  -->
<svg version="1.1" id="Capa_1" xmlns="http://www.w3.org/2000/svg" xmlns:xlink="http://www.w3.org/1999/xlink" x="0px" y="0px"
	 viewBox="0 0 488 488" style="enable-background:new 0 0 488 488;" xml:space="preserve">
<path style="fill:#00F2A9;" d="M372,168c-53.016,0-96,42.984-96,96v128c0,53.016,42.984,96,96,96s96-42.984,96-96V264
	C468,210.984,425.016,168,372,168z"/>
<g>
	<path style="fill:#322153;" d="M380,128.408V72.256c0-1.272,0.736-31.504-19.752-52.648C347.64,6.592,330.056,0,308,0h-64.128
		C219.016,0.392,172,15.936,172,72l0.016,64.456c0,0.104,0.448,10.552-5.968,17.288C162.096,157.888,156.024,160,148,160h-32.024
		c-0.232,0-0.472,0.008-0.704,0.032C101.552,160.976,76,170.488,76,200v24H52c-22.056,0-40,17.944-40,40v32
		c0,22.056,17.944,40,40,40h24v80H52c-13.232,0-24-10.768-24-24c0-4.424-3.576-8-8-8s-8,3.576-8,8c0,22.056,17.944,40,40,40h24v24
		c0,4.424,3.576,8,8,8s8-3.576,8-8v-24h24c22.056,0,40-17.944,40-40v-32c0-22.056-17.944-40-40-40H92v-80h24
		c13.232,0,24,10.768,24,24c0,4.424,3.576,8,8,8s8-3.576,8-8c0-22.056-17.944-40-40-40H92v-24c0-21.128,21.032-23.728,24.296-24H148
		c12.672,0,22.688-3.832,29.792-11.384C188.928,152.76,188.032,136.2,188,136V72c0-54.2,53.848-55.952,56-56h64
		c17.504,0,31.184,4.928,40.664,14.648C364.456,46.84,364.008,71.52,364,72v56.408c-53.608,4.104-96,48.952-96,103.592v128
		c0,57.344,46.656,104,104,104s104-46.656,104-104V232C476,177.36,433.608,132.512,380,128.408z M116,336c13.232,0,24,10.768,24,24
		v32c0,13.232-10.768,24-24,24H92v-80H116z M76,320H52c-13.232,0-24-10.768-24-24v-32c0-13.232,10.768-24,24-24h24V320z M460,360
		c0,48.52-39.48,88-88,88s-88-39.48-88-88V232c0-48.52,39.48-88,88-88s88,39.48,88,88V360z"/>
	<path style="fill:#322153;" d="M372,192c-4.424,0-8,3.576-8,8v32c0,4.424,3.576,8,8,8s8-3.576,8-8v-32
		C380,195.576,376.424,192,372,192z"/>
	<path style="fill:#322153;" d="M372,416c-16.84,0-30.176-4.808-39.64-14.288C316.136,385.448,316,360.288,316,360.04
		c0.024-4.408-3.52-8.008-7.936-8.04c-0.024,0-0.04,0-0.064,0c-4.392,0-7.968,3.536-8,7.936c-0.008,1.288-0.008,31.872,20.912,52.96
		C333.496,425.568,350.68,432,372,432c4.424,0,8-3.576,8-8S376.424,416,372,416z"/>
</g>
<g>
</g>
<g>
</g>
<g>
</g>
<g>
</g>
<g>
</g>
<g>
</g>
<g>
</g>
<g>
</g>
<g>
</g>
<g>
</g>
<g>
</g>
<g>
</g>
<g>
</g>
<g>
</g>
<g>
</g>
</svg>
