<?xml version="1.0" encoding="iso-8859-1"?>
<!-- Generator: Adobe Illustrator 19.0.0, SVG Export Plug-In . SVG Version: 6.00 Build 0)  -->
<svg version="1.1" id="Capa_1" xmlns="http://www.w3.org/2000/svg" xmlns:xlink="http://www.w3.org/1999/xlink" x="0px" y="0px"
	 viewBox="0 0 464.002 464.002" style="enable-background:new 0 0 464.002 464.002;" xml:space="preserve">
<circle style="fill:#00F2A9;" cx="360.002" cy="136.002" r="96"/>
<g>
	<path style="fill:#322153;" d="M360.002,0.002c-54.64,0-99.48,42.392-103.592,96H143.194c-3.72-18.232-19.872-32-39.192-32
		c-8.136,0-15.696,2.472-22.024,6.664l-68.32-68.32c-3.128-3.128-8.184-3.128-11.312,0s-3.128,8.184,0,11.312l68.32,68.32
		c-4.192,6.328-6.664,13.888-6.664,22.024c0,22.056,17.944,40,40,40c8.136,0,15.696-2.472,22.024-6.664l104.64,104.64
		c-4.192,6.328-6.664,13.888-6.664,22.024c0,8.136,2.472,15.696,6.664,22.024l-77.192,77.192
		c-9.352-7.008-20.912-11.216-33.472-11.216c-30.872,0-56,25.128-56,56s25.128,56,56,56s56-25.128,56-56
		c0-12.56-4.208-24.12-11.216-33.472l77.192-77.192c6.328,4.192,13.888,6.664,22.024,6.664c22.056,0,40-17.944,40-40
		s-17.944-40-40-40c-8.136,0-15.696,2.472-22.024,6.664l-104.64-104.64c2.784-4.192,4.816-8.928,5.856-14.024H256.41
		c3.904,50.96,44.632,91.688,95.592,95.592V384.81c-18.232,3.72-32,19.872-32,39.192c0,22.056,17.944,40,40,40s40-17.944,40-40
		c0-19.312-13.768-35.472-32-39.192V207.594c53.608-4.104,96-48.952,96-103.592C464.002,46.658,417.346,0.002,360.002,0.002z
		 M80.002,104.002c0-13.232,10.768-24,24-24s24,10.768,24,24c0,6.504-2.624,12.4-6.84,16.728c-0.08,0.072-0.184,0.096-0.264,0.176
		s-0.096,0.184-0.176,0.256c-4.32,4.216-10.216,6.84-16.72,6.84C90.77,128.002,80.002,117.234,80.002,104.002z M120.002,448.002
		c-22.056,0-40-17.944-40-40s17.944-40,40-40c11.008,0,20.984,4.472,28.224,11.688c0.016,0.016,0.016,0.032,0.032,0.048
		s0.04,0.016,0.048,0.032c7.224,7.248,11.696,17.224,11.696,28.232C160.002,430.058,142.058,448.002,120.002,448.002z
		 M288.002,264.002c0,13.232-10.768,24-24,24c-13.232,0-24-10.768-24-24c0-13.232,10.768-24,24-24
		C277.234,240.002,288.002,250.77,288.002,264.002z M384.002,424.002c0,13.232-10.768,24-24,24s-24-10.768-24-24s10.768-24,24-24
		S384.002,410.77,384.002,424.002z M360.002,192.002c-48.52,0-88-39.48-88-88s39.48-88,88-88s88,39.48,88,88
		S408.522,192.002,360.002,192.002z"/>
	<path style="fill:#322153;" d="M360.002,160.002c-30.872,0-56-25.128-56-56c0-4.424-3.576-8-8-8s-8,3.576-8,8
		c0,39.704,32.296,72,72,72c4.424,0,8-3.576,8-8S364.426,160.002,360.002,160.002z"/>
	<path style="fill:#322153;" d="M360.002,32.002c-4.424,0-8,3.576-8,8s3.576,8,8,8c30.872,0,56,25.128,56,56c0,4.424,3.576,8,8,8
		s8-3.576,8-8C432.002,64.298,399.706,32.002,360.002,32.002z"/>
</g>
<g>
</g>
<g>
</g>
<g>
</g>
<g>
</g>
<g>
</g>
<g>
</g>
<g>
</g>
<g>
</g>
<g>
</g>
<g>
</g>
<g>
</g>
<g>
</g>
<g>
</g>
<g>
</g>
<g>
</g>
</svg>
