<?xml version="1.0" encoding="iso-8859-1"?>
<!-- Generator: Adobe Illustrator 19.0.0, SVG Export Plug-In . SVG Version: 6.00 Build 0)  -->
<svg version="1.1" id="Capa_1" xmlns="http://www.w3.org/2000/svg" xmlns:xlink="http://www.w3.org/1999/xlink" x="0px" y="0px"
	 viewBox="0 0 464 464" style="enable-background:new 0 0 464 464;" xml:space="preserve">
<polygon style="fill:#00F2A9;" points="200,312 200,184 232,152 168,152 136,184 136,312 168,280 "/>
<g>
	<path style="fill:#322153;" d="M440,48H117.256c-10.688,0-20.736,4.168-28.288,11.72L2.352,146.336
		c-0.744,0.736-1.328,1.624-1.736,2.608C0.208,149.92,0,150.96,0,152v240c0,13.232,10.768,24,24,24h336
		c1.04,0,2.08-0.208,3.056-0.616c0.984-0.408,1.872-0.992,2.608-1.736l86.616-86.616c7.552-7.552,11.72-17.6,11.72-28.288V72
		C464,58.768,453.232,48,440,48z M100.28,71.032C104.816,66.504,110.84,64,117.256,64h319.432l-80,80H219.312l18.344-18.344
		c2.288-2.288,2.976-5.728,1.736-8.72C238.16,113.944,235.232,112,232,112h-64c-2.128,0-4.16,0.84-5.656,2.344L132.688,144H27.312
		L100.28,71.032z M196.688,144h-41.376l16-16h41.376L196.688,144z M144,160h48v100.688l-18.344-18.344
		c-1.56-1.56-3.608-2.344-5.656-2.344s-4.096,0.784-5.656,2.344L144,260.688V160z M16,392V160h112v120
		c0,3.232,1.944,6.16,4.936,7.392c2.992,1.248,6.432,0.552,8.72-1.736L168,259.312l26.344,26.344
		C195.872,287.184,197.92,288,200,288c1.032,0,2.072-0.192,3.064-0.608c2.992-1.232,4.936-4.16,4.936-7.392V160h144v240H24
		C19.584,400,16,396.416,16,392z M440.968,315.72L368,388.688V155.312l80-80v223.432C448,305.16,445.496,311.184,440.968,315.72z"/>
	<path style="fill:#322153;" d="M40,352h64c4.424,0,8-3.576,8-8s-3.576-8-8-8H40c-4.424,0-8,3.576-8,8S35.576,352,40,352z"/>
	<path style="fill:#322153;" d="M136,368H40c-4.424,0-8,3.576-8,8s3.576,8,8,8h96c4.424,0,8-3.576,8-8S140.424,368,136,368z"/>
	<path style="fill:#322153;" d="M328,303.976c-4.424,0-8,3.584-8,8V344c0,8.08-2.144,14.152-6.36,18.296
		c-6.728,6.6-17.128,6.424-17.44,6.456c-4.24,0.152-8.064,3.104-8.192,7.504c-0.144,4.408,3.328,7.744,7.744,7.744
		c0.056,0,0.216,0,0.472,0c2.864,0,17.656-0.024,28.472-10.504C332.192,366.216,336,356.624,336,344v-32.024
		C336,307.56,332.424,303.976,328,303.976z"/>
	<path style="fill:#322153;" d="M66.344,125.656C67.904,127.216,69.952,128,72,128s4.096-0.784,5.656-2.344l32-32
		c3.128-3.128,3.128-8.184,0-11.312s-8.184-3.128-11.312,0l-32,32C63.216,117.472,63.216,122.528,66.344,125.656z"/>
</g>
<g>
</g>
<g>
</g>
<g>
</g>
<g>
</g>
<g>
</g>
<g>
</g>
<g>
</g>
<g>
</g>
<g>
</g>
<g>
</g>
<g>
</g>
<g>
</g>
<g>
</g>
<g>
</g>
<g>
</g>
</svg>
