<?xml version="1.0" encoding="iso-8859-1"?>
<!-- Generator: Adobe Illustrator 19.0.0, SVG Export Plug-In . SVG Version: 6.00 Build 0)  -->
<svg version="1.1" id="Capa_1" xmlns="http://www.w3.org/2000/svg" xmlns:xlink="http://www.w3.org/1999/xlink" x="0px" y="0px"
	 viewBox="0 0 464 464" style="enable-background:new 0 0 464 464;" xml:space="preserve">
<path style="fill:#00F2A9;" d="M232,346.6c56.424-24.672,95.904-80.88,95.992-146.384C301.232,180.08,268.064,168,232,168
	s-69.232,12.08-95.992,32.208C136.096,265.712,175.576,321.928,232,346.6z"/>
<path style="fill:#322153;" d="M296,0c-22.096,0-43.584,4.416-64,12.864C211.584,4.416,190.096,0,168,0C75.36,0,0,75.368,0,168
	c0,51.856,23.376,99.64,64.192,131.776C66.224,390.656,140.64,464,232,464c91.28,0,165.648-73.224,167.792-164.2
	C440.616,267.664,464,219.872,464,168C464,75.368,388.632,0,296,0z M246.12,37.752c0.976,0.584,1.976,1.128,2.928,1.728
	c2.976,1.88,5.88,3.832,8.704,5.896c0.192,0.144,0.376,0.296,0.568,0.44c2.616,1.936,5.168,3.944,7.64,6.032
	c0.896,0.752,1.744,1.56,2.616,2.336c1.728,1.528,3.448,3.064,5.096,4.664c0.976,0.944,1.904,1.928,2.856,2.904
	c1.48,1.512,2.944,3.024,4.352,4.592c0.952,1.056,1.872,2.144,2.792,3.232c1.32,1.56,2.624,3.136,3.88,4.736
	c0.888,1.136,1.768,2.288,2.624,3.448c1.208,1.632,2.376,3.296,3.52,4.976c0.808,1.184,1.608,2.376,2.376,3.584
	c1.12,1.752,2.184,3.544,3.224,5.344c0.688,1.184,1.392,2.36,2.056,3.568c1.072,1.96,2.064,3.96,3.04,5.96
	c0.536,1.096,1.112,2.184,1.624,3.296c1.184,2.568,2.264,5.176,3.304,7.808c0.232,0.584,0.496,1.152,0.72,1.736
	c1.232,3.248,2.352,6.544,3.368,9.88c0.272,0.904,0.488,1.832,0.744,2.744c0.696,2.448,1.36,4.896,1.936,7.384
	c0.288,1.24,0.512,2.504,0.76,3.752c0.448,2.192,0.88,4.392,1.224,6.616c0.216,1.368,0.384,2.752,0.56,4.136
	c0.168,1.304,0.296,2.624,0.432,3.936c-2.496-1.528-5.048-2.92-7.6-4.304c-0.656-0.36-1.296-0.76-1.96-1.112
	c-3.736-1.96-7.528-3.768-11.376-5.432c-1.024-0.448-2.08-0.816-3.12-1.24c-2.84-1.16-5.688-2.272-8.584-3.272
	c-1.424-0.496-2.872-0.928-4.312-1.376c-2.568-0.808-5.144-1.568-7.744-2.256c-1.552-0.408-3.104-0.784-4.672-1.144
	c-2.584-0.6-5.184-1.12-7.8-1.592c-1.552-0.28-3.096-0.568-4.656-0.808c-2.824-0.432-5.664-0.752-8.52-1.032
	c-1.352-0.136-2.688-0.312-4.048-0.416C240.488,128.192,236.256,128,232,128s-8.488,0.192-12.696,0.512
	c-1.36,0.104-2.704,0.28-4.056,0.416c-2.848,0.28-5.68,0.6-8.496,1.032c-1.576,0.24-3.136,0.528-4.704,0.816
	c-2.592,0.472-5.168,0.992-7.728,1.584c-1.584,0.368-3.168,0.752-4.744,1.16c-2.568,0.672-5.112,1.424-7.64,2.224
	c-1.48,0.464-2.96,0.912-4.424,1.416c-2.816,0.976-5.6,2.064-8.368,3.192c-1.104,0.448-2.232,0.848-3.336,1.328
	c-3.824,1.656-7.592,3.448-11.304,5.392c-0.76,0.4-1.496,0.864-2.256,1.28c-2.472,1.352-4.952,2.696-7.368,4.176
	c0.136-1.344,0.272-2.688,0.448-4.024c0.176-1.384,0.344-2.776,0.56-4.152c0.352-2.232,0.784-4.44,1.232-6.64
	c0.248-1.232,0.464-2.472,0.752-3.696c0.592-2.584,1.288-5.136,2.016-7.68c0.232-0.8,0.416-1.624,0.656-2.424
	c1.016-3.336,2.136-6.64,3.376-9.888c0.256-0.664,0.56-1.312,0.816-1.968c1.016-2.552,2.064-5.088,3.216-7.584
	c0.504-1.096,1.064-2.16,1.592-3.24c0.992-2.024,2-4.04,3.08-6.016c0.64-1.176,1.328-2.32,2-3.48
	c1.064-1.832,2.152-3.648,3.288-5.44c0.752-1.176,1.528-2.328,2.312-3.48c1.168-1.72,2.36-3.416,3.6-5.088
	c0.832-1.128,1.68-2.248,2.544-3.352c1.288-1.648,2.624-3.256,3.976-4.848c0.896-1.048,1.784-2.104,2.704-3.128
	c1.448-1.608,2.952-3.168,4.464-4.712c0.912-0.928,1.808-1.88,2.752-2.792c1.712-1.656,3.488-3.248,5.28-4.824
	c0.816-0.72,1.608-1.472,2.44-2.176c2.624-2.216,5.328-4.36,8.112-6.4c0.04-0.032,0.072-0.056,0.112-0.088
	c2.832-2.072,5.752-4.04,8.736-5.92c0.936-0.592,1.92-1.12,2.872-1.696c2.072-1.248,4.152-2.472,6.296-3.624
	c1.216-0.656,2.472-1.248,3.704-1.872c1.376-0.688,2.768-1.36,4.168-2.008c1.4,0.648,2.784,1.312,4.16,2
	c1.248,0.624,2.504,1.224,3.728,1.888C242.008,35.304,244.064,36.528,246.12,37.752z M346.672,196.464
	c2.936,3.36,5.744,6.808,8.36,10.384c0.32,0.44,0.616,0.896,0.936,1.336c2.592,3.624,5.04,7.352,7.288,11.176
	c0.128,0.216,0.272,0.432,0.4,0.648c2.264,3.896,4.304,7.904,6.2,11.984c0.312,0.664,0.624,1.32,0.928,1.992
	c1.784,3.984,3.4,8.048,4.832,12.176c0.248,0.712,0.48,1.432,0.712,2.152c1.4,4.256,2.664,8.56,3.688,12.952
	c0.08,0.336,0.136,0.68,0.208,1.024c0.968,4.28,1.736,8.624,2.328,13.016c0.08,0.568,0.176,1.128,0.248,1.704
	c0.544,4.408,0.864,8.864,1.032,13.352c0.016,0.44,0.024,0.888,0.04,1.328c-1.224,0.872-2.456,1.728-3.704,2.56
	c-1.536,1.032-3.064,2.072-4.624,3.04c-1.896,1.176-3.832,2.256-5.768,3.344c-1.552,0.872-3.096,1.768-4.68,2.584
	c-2.008,1.04-4.064,1.976-6.112,2.92c-1.568,0.72-3.12,1.48-4.704,2.144c-2.128,0.888-4.288,1.664-6.448,2.456
	c-1.568,0.576-3.12,1.192-4.704,1.712c-2.24,0.736-4.52,1.344-6.792,1.976c-1.552,0.432-3.088,0.92-4.656,1.296
	c-2.392,0.584-4.816,1.016-7.24,1.48c-1.488,0.28-2.96,0.632-4.456,0.872c-2.688,0.432-5.408,0.704-8.128,0.984
	c-1.264,0.128-2.512,0.336-3.776,0.44c-4,0.336-8.032,0.504-12.08,0.504c-4.688,0-9.336-0.288-13.96-0.712
	c-1.312-0.12-2.624-0.28-3.936-0.432c-3.632-0.432-7.24-0.992-10.824-1.688c-1.08-0.208-2.168-0.376-3.24-0.608
	c-4.032-0.872-8.016-1.96-11.976-3.168c1.008-0.584,1.96-1.224,2.952-1.824c1.184-0.72,2.368-1.44,3.536-2.184
	c2.2-1.408,4.344-2.88,6.464-4.376c0.952-0.68,1.936-1.328,2.872-2.024c3-2.216,5.928-4.512,8.752-6.912
	c0.28-0.24,0.536-0.496,0.816-0.736c2.544-2.184,5.024-4.448,7.424-6.776c0.888-0.856,1.728-1.752,2.6-2.632
	c1.76-1.784,3.488-3.592,5.168-5.448c0.912-1.008,1.808-2.032,2.688-3.064c1.592-1.848,3.128-3.736,4.632-5.648
	c0.808-1.032,1.632-2.056,2.416-3.104c1.656-2.216,3.24-4.48,4.792-6.768c0.52-0.768,1.08-1.52,1.584-2.304
	c2.008-3.088,3.92-6.24,5.728-9.448c0.416-0.736,0.784-1.504,1.184-2.248c1.36-2.512,2.672-5.04,3.904-7.624
	c0.552-1.16,1.064-2.328,1.592-3.496c1.008-2.248,1.976-4.512,2.888-6.8c0.504-1.256,0.992-2.52,1.464-3.792
	c0.872-2.352,1.68-4.736,2.448-7.136c0.376-1.176,0.776-2.336,1.12-3.52c0.92-3.104,1.744-6.248,2.48-9.416
	c0.112-0.48,0.256-0.944,0.36-1.424c0.816-3.648,1.496-7.336,2.064-11.048c0.168-1.112,0.288-2.232,0.432-3.352
	c0.248-1.88,0.544-3.744,0.728-5.64c0.168,0.16,0.352,0.304,0.52,0.464c3.288,3.056,6.408,6.248,9.384,9.544
	C345.608,195.256,346.144,195.856,346.672,196.464z M199.96,316.56c-1.064,0.232-2.152,0.392-3.224,0.6
	c-3.592,0.696-7.208,1.256-10.848,1.688c-1.304,0.152-2.608,0.312-3.92,0.432c-4.632,0.432-9.28,0.72-13.968,0.72
	c-4.048,0-8.072-0.168-12.072-0.488c-1.328-0.104-2.64-0.32-3.96-0.464c-2.656-0.28-5.312-0.544-7.928-0.96
	c-1.584-0.256-3.136-0.624-4.712-0.92c-2.328-0.448-4.664-0.872-6.968-1.424c-1.672-0.408-3.32-0.92-4.976-1.384
	c-2.16-0.6-4.32-1.176-6.448-1.88c-1.704-0.56-3.368-1.224-5.048-1.84c-2.04-0.752-4.08-1.48-6.088-2.32
	c-1.704-0.712-3.368-1.52-5.048-2.304c-1.928-0.896-3.864-1.768-5.76-2.752c-1.688-0.872-3.336-1.824-4.992-2.76
	c-1.832-1.032-3.664-2.056-5.456-3.168c-1.648-1.024-3.256-2.12-4.88-3.208c-1.184-0.8-2.36-1.608-3.536-2.44
	c0.008-0.416,0.024-0.84,0.04-1.256c0.16-4.52,0.488-9.008,1.032-13.448c0.072-0.56,0.168-1.12,0.248-1.68
	c0.592-4.36,1.352-8.68,2.312-12.936c0.088-0.376,0.144-0.768,0.24-1.144c1.008-4.336,2.256-8.6,3.64-12.808
	c0.256-0.776,0.504-1.56,0.776-2.336c1.416-4.072,3-8.08,4.76-12c0.336-0.744,0.688-1.488,1.04-2.224
	c1.872-4,3.872-7.936,6.088-11.76c0.192-0.328,0.4-0.632,0.592-0.96c2.176-3.696,4.536-7.288,7.032-10.792
	c0.368-0.52,0.72-1.056,1.096-1.568c2.576-3.52,5.344-6.92,8.232-10.232c0.576-0.656,1.152-1.312,1.744-1.96
	c2.944-3.256,6.024-6.408,9.272-9.424c0.184-0.168,0.376-0.336,0.568-0.504c0.184,1.872,0.472,3.728,0.728,5.584
	c0.152,1.136,0.264,2.288,0.44,3.416c0.576,3.704,1.248,7.376,2.064,11.016c0.12,0.536,0.28,1.056,0.4,1.584
	c0.728,3.112,1.536,6.2,2.44,9.256c0.352,1.208,0.76,2.392,1.144,3.584c0.76,2.384,1.56,4.744,2.424,7.088
	c0.472,1.28,0.968,2.552,1.472,3.816c0.912,2.28,1.872,4.536,2.88,6.776c0.528,1.176,1.048,2.36,1.6,3.52
	c1.232,2.576,2.544,5.104,3.896,7.616c0.4,0.744,0.768,1.512,1.184,2.248c1.808,3.216,3.72,6.376,5.736,9.464
	c0.496,0.76,1.032,1.488,1.536,2.24c1.56,2.32,3.168,4.608,4.848,6.848c0.768,1.032,1.576,2.032,2.368,3.04
	c1.52,1.936,3.08,3.84,4.688,5.704c0.872,1.016,1.752,2.024,2.648,3.016c1.696,1.88,3.448,3.712,5.232,5.52
	c0.848,0.856,1.672,1.728,2.536,2.568c2.44,2.368,4.952,4.664,7.536,6.88c0.24,0.208,0.464,0.432,0.712,0.64
	c2.832,2.408,5.776,4.704,8.776,6.928c0.92,0.68,1.88,1.32,2.824,1.984c2.136,1.512,4.304,3,6.52,4.416
	c1.152,0.736,2.328,1.448,3.504,2.16c1,0.6,1.96,1.248,2.968,1.832C207.976,314.6,203.992,315.688,199.96,316.56z M152.52,166.672
	c1.84-1.136,3.712-2.184,5.584-3.24c1.608-0.904,3.208-1.832,4.84-2.672c1.96-1.008,3.96-1.92,5.96-2.848
	c1.616-0.744,3.208-1.52,4.848-2.208c2.08-0.872,4.208-1.632,6.32-2.408c1.608-0.592,3.2-1.224,4.824-1.76
	c2.208-0.728,4.448-1.328,6.688-1.944c1.584-0.44,3.152-0.936,4.752-1.32c2.368-0.576,4.768-1.008,7.16-1.464
	c1.512-0.288,3.008-0.648,4.528-0.888c2.672-0.424,5.376-0.696,8.08-0.984c1.28-0.136,2.536-0.344,3.824-0.448
	C223.92,144.168,227.952,144,232,144s8.08,0.168,12.08,0.488c1.272,0.104,2.512,0.312,3.776,0.44c2.72,0.288,5.44,0.56,8.128,0.984
	c1.496,0.24,2.968,0.592,4.456,0.872c2.424,0.464,4.848,0.904,7.24,1.48c1.568,0.376,3.104,0.864,4.656,1.296
	c2.272,0.632,4.552,1.24,6.792,1.976c1.584,0.52,3.136,1.144,4.704,1.712c2.16,0.792,4.328,1.568,6.448,2.456
	c1.584,0.664,3.144,1.424,4.704,2.144c2.048,0.944,4.096,1.88,6.112,2.92c1.576,0.816,3.12,1.712,4.68,2.584
	c1.936,1.088,3.872,2.176,5.768,3.344c1.56,0.968,3.088,2.008,4.624,3.04c1.232,0.824,2.456,1.672,3.672,2.544
	c-0.04,1.312-0.08,2.616-0.152,3.92c-0.088,1.624-0.168,3.248-0.304,4.856c-0.176,2.04-0.424,4.056-0.68,6.072
	c-0.2,1.584-0.384,3.176-0.64,4.752c-0.32,2.016-0.72,4.008-1.12,6c-0.312,1.544-0.592,3.088-0.952,4.616
	c-0.464,2-1.016,3.968-1.568,5.936c-0.408,1.488-0.792,2.984-1.248,4.448c-0.608,1.968-1.312,3.904-2,5.84
	c-0.504,1.424-0.976,2.872-1.528,4.28c-0.76,1.952-1.616,3.864-2.456,5.776c-0.584,1.344-1.128,2.704-1.752,4.024
	c-0.936,1.976-1.968,3.888-2.984,5.824c-0.64,1.216-1.232,2.456-1.904,3.656c-1.2,2.144-2.52,4.224-3.824,6.304
	c-0.576,0.92-1.104,1.88-1.704,2.784c-1.936,2.944-3.976,5.824-6.112,8.632c-0.704,0.92-1.48,1.792-2.208,2.704
	c-1.488,1.864-2.96,3.736-4.536,5.528c-0.992,1.128-2.056,2.184-3.08,3.28c-1.4,1.504-2.784,3.032-4.248,4.48
	c-1.136,1.12-2.344,2.176-3.512,3.264c-1.44,1.336-2.864,2.696-4.36,3.984c-1.248,1.072-2.568,2.08-3.856,3.12
	c-1.504,1.208-3,2.44-4.56,3.592c-1.344,1-2.744,1.928-4.128,2.888c-1.584,1.096-3.16,2.208-4.792,3.248
	c-1.424,0.912-2.904,1.752-4.368,2.624c-1.672,0.992-3.336,1.984-5.056,2.912c-1.496,0.808-3.032,1.56-4.56,2.32
	c-1.216,0.608-2.44,1.192-3.672,1.768c-1.24-0.576-2.464-1.168-3.68-1.768c-1.528-0.76-3.056-1.504-4.552-2.312
	c-1.728-0.936-3.408-1.936-5.088-2.928c-1.448-0.856-2.912-1.696-4.328-2.6c-1.648-1.048-3.24-2.176-4.848-3.28
	c-1.36-0.944-2.744-1.864-4.072-2.848c-1.576-1.176-3.096-2.416-4.624-3.648c-1.264-1.016-2.56-2.008-3.784-3.064
	c-1.528-1.312-2.976-2.696-4.44-4.056c-1.144-1.064-2.32-2.096-3.432-3.192c-1.488-1.472-2.888-3.016-4.312-4.552
	c-1-1.072-2.048-2.112-3.016-3.216c-1.608-1.832-3.112-3.736-4.624-5.64c-0.696-0.872-1.44-1.704-2.112-2.592
	c-2.136-2.808-4.176-5.68-6.112-8.632c-0.632-0.96-1.184-1.968-1.8-2.944c-1.272-2.032-2.552-4.056-3.72-6.144
	c-0.704-1.256-1.328-2.568-2-3.848c-0.976-1.864-1.976-3.712-2.872-5.616c-0.656-1.392-1.232-2.824-1.848-4.24
	c-0.808-1.848-1.632-3.68-2.368-5.56c-0.576-1.48-1.072-2.992-1.6-4.488c-0.656-1.864-1.336-3.72-1.92-5.616
	c-0.48-1.552-0.88-3.128-1.312-4.696c-0.52-1.888-1.048-3.768-1.496-5.68c-0.376-1.608-0.68-3.232-1-4.856
	c-0.384-1.912-0.768-3.824-1.08-5.752c-0.264-1.656-0.464-3.32-0.672-4.992c-0.24-1.936-0.488-3.872-0.656-5.824
	c-0.144-1.688-0.232-3.392-0.32-5.088c-0.064-1.256-0.112-2.512-0.144-3.768c1.168-0.832,2.344-1.648,3.528-2.44
	C149.296,168.768,150.888,167.68,152.52,166.672z M16,168C16,84.184,84.184,16,168,16c15.04,0,29.792,2.192,44.04,6.536
	c-0.984,0.568-1.92,1.208-2.888,1.792c-1.376,0.832-2.736,1.672-4.088,2.536c-1.936,1.248-3.824,2.544-5.704,3.864
	c-1.304,0.92-2.616,1.824-3.888,2.776c-1.84,1.376-3.616,2.808-5.392,4.256c-1.224,1-2.472,1.96-3.664,2.992
	c-1.752,1.512-3.424,3.096-5.112,4.672c-1.128,1.056-2.288,2.064-3.384,3.144c-2.536,2.512-4.992,5.104-7.36,7.768
	c-1.616,1.816-3.128,3.712-4.664,5.6c-0.8,0.984-1.632,1.936-2.416,2.944c-1.584,2.032-3.072,4.136-4.56,6.24
	c-0.624,0.88-1.264,1.752-1.872,2.648c-1.536,2.256-2.984,4.568-4.408,6.904c-0.456,0.744-0.912,1.488-1.352,2.24
	c-1.48,2.52-2.888,5.08-4.24,7.672c-0.272,0.528-0.544,1.056-0.816,1.584c-1.44,2.848-2.816,5.728-4.096,8.656
	c-0.064,0.152-0.128,0.304-0.192,0.456c-8.216,18.92-12.968,39.464-13.728,60.768c-0.032,0.728-0.104,1.44-0.128,2.176
	c-0.424,0.336-0.792,0.72-1.216,1.064c-3.96,3.176-7.784,6.472-11.4,9.936c-0.4,0.384-0.776,0.792-1.176,1.184
	c-3.536,3.456-6.912,7.048-10.104,10.768c-0.32,0.368-0.656,0.72-0.968,1.096c-3.224,3.824-6.224,7.792-9.072,11.856
	c-0.496,0.712-1.008,1.416-1.496,2.136c-2.728,4.024-5.272,8.144-7.624,12.376c-0.416,0.744-0.808,1.496-1.208,2.248
	c-2.352,4.376-4.544,8.832-6.488,13.4c-0.16,0.384-0.296,0.776-0.456,1.152c-1.888,4.52-3.56,9.136-5.04,13.824
	c-0.16,0.504-0.344,1-0.504,1.512c-1.44,4.728-2.64,9.544-3.656,14.408c-0.184,0.872-0.368,1.736-0.544,2.616
	c-0.928,4.8-1.656,9.664-2.168,14.576c-0.04,0.352-0.12,0.696-0.152,1.048C33.616,250.656,16,210.84,16,168z M232,448
	c-78.544,0-143.36-59.872-151.192-136.56c2.48,1.52,5.016,2.896,7.552,4.28c0.72,0.392,1.416,0.832,2.144,1.216
	c3.72,1.952,7.504,3.752,11.336,5.416c1.064,0.456,2.144,0.84,3.216,1.28c2.808,1.144,5.624,2.248,8.488,3.24
	c1.44,0.496,2.896,0.928,4.352,1.392c2.552,0.808,5.12,1.568,7.712,2.248c1.56,0.408,3.12,0.784,4.688,1.152
	c2.584,0.6,5.184,1.12,7.792,1.592c1.544,0.28,3.088,0.568,4.648,0.808c2.824,0.424,5.672,0.752,8.528,1.032
	c1.352,0.136,2.688,0.312,4.048,0.416c4.2,0.296,8.432,0.488,12.688,0.488c5.672,0,11.296-0.304,16.88-0.864
	c1.864-0.184,3.688-0.568,5.536-0.816c3.704-0.504,7.416-0.976,11.072-1.728c2.176-0.448,4.304-1.088,6.464-1.616
	c3.28-0.808,6.568-1.584,9.808-2.592c2.256-0.704,4.464-1.592,6.704-2.4c2.512-0.904,5.056-1.672,7.536-2.696
	c2.488,1.024,5.032,1.8,7.552,2.704c2.232,0.8,4.432,1.688,6.68,2.392c3.24,1.008,6.536,1.784,9.816,2.592
	c2.152,0.528,4.288,1.176,6.456,1.616c3.648,0.744,7.352,1.224,11.048,1.72c1.856,0.248,3.688,0.632,5.56,0.824
	C284.704,335.696,290.336,336,296,336c4.264,0,8.488-0.192,12.704-0.512c1.36-0.104,2.696-0.28,4.048-0.416
	c2.856-0.288,5.696-0.608,8.52-1.032c1.568-0.24,3.12-0.528,4.672-0.808c2.6-0.472,5.184-0.992,7.76-1.584
	c1.584-0.368,3.16-0.752,4.728-1.16c2.568-0.672,5.112-1.432,7.648-2.224c1.472-0.464,2.952-0.904,4.416-1.416
	c2.824-0.976,5.608-2.064,8.376-3.192c1.104-0.448,2.224-0.848,3.32-1.32c3.824-1.656,7.6-3.448,11.312-5.4
	c0.736-0.384,1.448-0.84,2.184-1.232c2.536-1.376,5.072-2.76,7.544-4.272C375.472,388.016,310.608,448,232,448z M399.184,279.4
	c-0.032-0.36-0.12-0.704-0.16-1.056c-0.512-4.896-1.232-9.744-2.16-14.536c-0.176-0.888-0.36-1.776-0.552-2.664
	c-1.024-4.856-2.208-9.656-3.648-14.368c-0.16-0.52-0.352-1.024-0.512-1.544c-1.472-4.656-3.136-9.248-5.016-13.744
	c-0.168-0.408-0.312-0.824-0.488-1.224c-1.944-4.552-4.128-9-6.472-13.36c-0.408-0.76-0.808-1.52-1.224-2.272
	c-2.352-4.224-4.888-8.344-7.616-12.36c-0.488-0.72-0.992-1.424-1.496-2.136c-2.848-4.064-5.848-8.04-9.072-11.864
	c-0.304-0.36-0.632-0.696-0.936-1.056c-3.192-3.72-6.568-7.32-10.112-10.784c-0.4-0.392-0.784-0.808-1.192-1.2
	c-3.616-3.472-7.448-6.768-11.408-9.952c-0.416-0.336-0.776-0.712-1.192-1.04c-0.04-1.848-0.2-3.672-0.304-5.512
	c-0.08-1.4-0.12-2.8-0.232-4.192c-0.232-2.904-0.584-5.784-0.96-8.648c-0.128-0.984-0.208-1.976-0.36-2.96
	c-0.584-3.848-1.288-7.664-2.128-11.44c-0.144-0.656-0.344-1.288-0.496-1.944c-0.728-3.096-1.512-6.168-2.416-9.2
	c-0.376-1.264-0.816-2.496-1.216-3.744c-0.768-2.4-1.56-4.784-2.44-7.144c-0.52-1.384-1.08-2.752-1.632-4.12
	c-0.88-2.176-1.784-4.344-2.744-6.48c-0.632-1.4-1.296-2.776-1.96-4.152c-1.008-2.072-2.048-4.112-3.136-6.136
	c-0.728-1.352-1.464-2.704-2.232-4.04c-1.152-2.016-2.368-3.992-3.6-5.952c-0.792-1.264-1.576-2.528-2.408-3.768
	c-1.36-2.032-2.784-4.016-4.232-5.984c-0.808-1.096-1.576-2.216-2.408-3.296c-1.784-2.312-3.648-4.552-5.552-6.768
	c-0.576-0.672-1.112-1.368-1.696-2.032c-2.52-2.848-5.144-5.616-7.864-8.296c-0.648-0.672-1.384-1.288-2.072-1.952
	c-2.064-1.968-4.16-3.92-6.328-5.784c-1.08-0.928-2.208-1.8-3.312-2.704c-1.872-1.528-3.744-3.04-5.688-4.488
	c-1.256-0.936-2.544-1.832-3.832-2.736c-1.88-1.328-3.776-2.624-5.72-3.88c-1.376-0.888-2.768-1.744-4.168-2.592
	c-0.952-0.576-1.872-1.2-2.84-1.76C266.208,18.192,280.96,16,296,16c83.816,0,152,68.184,152,152
	C448,210.84,430.384,250.656,399.184,279.4z"/>
<g>
</g>
<g>
</g>
<g>
</g>
<g>
</g>
<g>
</g>
<g>
</g>
<g>
</g>
<g>
</g>
<g>
</g>
<g>
</g>
<g>
</g>
<g>
</g>
<g>
</g>
<g>
</g>
<g>
</g>
</svg>
