<?xml version="1.0" encoding="iso-8859-1"?>
<!-- Generator: Adobe Illustrator 19.0.0, SVG Export Plug-In . SVG Version: 6.00 Build 0)  -->
<svg version="1.1" id="Capa_1" xmlns="http://www.w3.org/2000/svg" xmlns:xlink="http://www.w3.org/1999/xlink" x="0px" y="0px"
	 viewBox="0 0 464.002 464.002" style="enable-background:new 0 0 464.002 464.002;" xml:space="preserve">
<polygon style="fill:#00F2A9;" points="232.001,264.002 264.001,296.002 264.001,104.002 296.001,104.002 232.001,40.002 
	168.001,104.002 200.001,104.002 200.001,296.002 "/>
<g>
	<path style="fill:#322153;" d="M400.001,360.002c0-0.384-0.168-0.704-0.216-1.072c-0.048-0.376,0.016-0.744-0.088-1.12
		l-57.368-200.8c-4.888-17.08-20.704-29.008-38.472-29.008h-31.856v-48h24c3.232,0,6.16-1.944,7.392-4.936
		c1.24-2.992,0.552-6.432-1.736-8.72l-64-64c-3.128-3.128-8.184-3.128-11.312,0l-64,64c-2.288,2.288-2.976,5.728-1.736,8.72
		c1.232,2.992,4.16,4.936,7.392,4.936h24v48h-31.856c-17.768,0-33.576,11.928-38.472,29.016L64.305,357.81
		c-0.104,0.376-0.04,0.744-0.088,1.12c-0.048,0.368-0.216,0.688-0.216,1.072v64c0,22.056,17.944,40,40,40h256
		c22.056,0,40-17.944,40-40V360.002z M187.313,64.002l44.688-44.688l44.688,44.688h-12.688c-4.424,0-8,3.576-8,8V244.69
		l-18.344-18.344c-1.56-1.56-3.608-2.344-5.656-2.344s-4.096,0.784-5.656,2.344l-18.344,18.344V72.002c0-4.424-3.576-8-8-8H187.313z
		 M137.065,161.418c2.928-10.256,12.424-17.416,23.08-17.416h31.856v120c0,3.232,1.944,6.16,4.936,7.392
		c2.984,1.248,6.432,0.552,8.72-1.736l26.344-26.344l26.344,26.344c1.528,1.528,3.576,2.344,5.656,2.344
		c1.032,0,2.072-0.192,3.064-0.608c2.992-1.232,4.936-4.16,4.936-7.392v-120h31.856c10.656,0,20.152,7.16,23.08,17.408
		l54.456,190.592h-85.392c-4.424,0-8,3.576-8,8c0,13.232-10.768,24-24,24h-64.008c-13.224,0-23.992-10.768-23.992-24
		c0-4.424-3.576-8-8-8H82.609L137.065,161.418z M384.001,424.002c0,13.232-10.768,24-24,24h-256c-13.232,0-24-10.768-24-24v-56
		l80.808,0.008c3.712,18.232,19.872,31.992,39.184,31.992h64.008c19.32,0,35.48-13.768,39.192-32h80.808V424.002z"/>
	<path style="fill:#322153;" d="M136.001,416.002c-7.4,0-13.16-2.008-17.112-5.976c-6.816-6.848-6.888-17.72-6.888-17.944
		c0.048-4.392-3.472-8.008-7.872-8.08c-4.16-0.16-8.048,3.464-8.128,7.872c-0.008,0.712-0.144,17.56,11.416,29.296
		c7.072,7.192,16.696,10.832,28.584,10.832c4.424,0,8-3.576,8-8S140.425,416.002,136.001,416.002z"/>
	<path style="fill:#322153;" d="M288.001,424.002c0,4.424,3.576,8,8,8h32c4.424,0,8-3.576,8-8s-3.576-8-8-8h-32
		C291.577,416.002,288.001,419.578,288.001,424.002z"/>
	<path style="fill:#322153;" d="M136.001,336.002h192c4.424,0,8-3.576,8-8s-3.576-8-8-8h-192c-4.424,0-8,3.576-8,8
		S131.577,336.002,136.001,336.002z"/>
</g>
<g>
</g>
<g>
</g>
<g>
</g>
<g>
</g>
<g>
</g>
<g>
</g>
<g>
</g>
<g>
</g>
<g>
</g>
<g>
</g>
<g>
</g>
<g>
</g>
<g>
</g>
<g>
</g>
<g>
</g>
</svg>
