<?xml version="1.0" encoding="iso-8859-1"?>
<!-- Generator: Adobe Illustrator 19.0.0, SVG Export Plug-In . SVG Version: 6.00 Build 0)  -->
<svg version="1.1" id="Capa_1" xmlns="http://www.w3.org/2000/svg" xmlns:xlink="http://www.w3.org/1999/xlink" x="0px" y="0px"
	 viewBox="0 0 464 464" style="enable-background:new 0 0 464 464;" xml:space="preserve">
<g>
	<path style="fill:#00F2A9;" d="M104,144H72v240c0,8.832,7.16,16,16,16s16-7.168,16-16V144z"/>
	<path style="fill:#00F2A9;" d="M392,384V144h-32v240c0,8.832,7.16,16,16,16S392,392.832,392,384z"/>
</g>
<g>
	<path style="fill:#322153;" d="M424,104h-32h-32h-24V80c0-19.752-14.416-36.088-33.264-39.32C299.624,31.04,290.664,24,280,24h-96
		c-10.664,0-19.624,7.04-22.736,16.68C142.416,43.912,128,60.248,128,80v24h-24H72H40c-22.056,0-40,17.944-40,40v115.928
		c0,10.656,7.16,20.152,17.408,23.08L32,287.176V416c0,13.232,10.768,24,24,24h352c13.232,0,24-10.768,24-24V287.176l14.592-4.168
		C456.84,280.08,464,270.584,464,259.928V144C464,121.944,446.056,104,424,104z M384,120v164.248l-16,4.576V120H384z M368,305.464
		l16-4.568V352c0,4.416-3.584,8-8,8s-8-3.584-8-8V305.464z M352,120v173.392L232,327.68l-120-34.288V120H352z M184,40h96
		c4.416,0,8,3.584,8,8s-3.584,8-8,8h-96c-4.416,0-8-3.584-8-8S179.584,40,184,40z M144,80c0-11.064,7.56-20.312,17.76-23.072
		C165.312,65.744,173.928,72,184,72h96c10.072,0,18.688-6.256,22.24-15.072C312.44,59.688,320,68.936,320,80v24H144V80z M96,120
		v168.824l-16-4.576V120H96z M80,300.896l16,4.568V352c0,4.416-3.584,8-8,8s-8-3.584-8-8V300.896z M16,259.928V144
		c0-13.232,10.768-24,24-24h24v159.672l-42.2-12.056C18.384,266.648,16,263.488,16,259.928z M416,416c0,4.416-3.584,8-8,8H56
		c-4.416,0-8-3.584-8-8V291.752l16,4.568V352c0,13.232,10.768,24,24,24s24-10.768,24-24v-41.968l117.808,33.664
		c0.712,0.2,1.448,0.304,2.192,0.304c0.744,0,1.48-0.104,2.192-0.304L352,310.032V352c0,13.232,10.768,24,24,24s24-10.768,24-24
		v-55.68l16-4.568V416z M448,259.928c0,3.552-2.384,6.72-5.8,7.688L400,279.672V120h24c13.232,0,24,10.768,24,24V259.928z"/>
	<path style="fill:#322153;" d="M104,392H72c-4.424,0-8,3.576-8,8s3.576,8,8,8h32c4.424,0,8-3.576,8-8S108.424,392,104,392z"/>
	<path style="fill:#322153;" d="M392,392h-32c-4.424,0-8,3.576-8,8s3.576,8,8,8h32c4.424,0,8-3.576,8-8S396.424,392,392,392z"/>
	<path style="fill:#322153;" d="M231.992,312c4.424,0,8-3.576,8-8s-3.576-8-8-8c-14.952,0-29.016-5.832-39.592-16.4
		c-21.832-21.832-21.832-57.368,0-79.2c21.84-21.832,57.376-21.832,79.2,0c19.904,19.912,21.6,51.176,5.2,73.096l-11.44-11.44
		c4.312-6.488,6.64-14.088,6.64-22.056c0-10.688-4.168-20.736-11.72-28.28C252.736,204.168,242.688,200,232,200
		s-20.736,4.168-28.28,11.72C196.168,219.264,192,229.312,192,240c0,10.688,4.168,20.736,11.72,28.28
		C211.264,275.832,221.312,280,232,280c7.968,0,15.568-2.328,22.056-6.632l17.544,17.544c1.56,1.56,3.608,2.344,5.656,2.344
		s4.096-0.784,5.656-2.344c28.072-28.08,28.072-73.752,0-101.832c-28.08-28.064-73.752-28.064-101.832,0
		c-28.072,28.08-28.072,73.752,0,101.832C194.696,304.512,212.776,312,231.992,312z M215.032,256.968
		C210.496,252.44,208,246.416,208,240s2.496-12.44,7.032-16.968C219.56,218.504,225.584,216,232,216
		c6.416,0,12.44,2.504,16.968,7.032C253.496,227.56,256,233.584,256,240c0,6.416-2.504,12.44-7.032,16.968
		C239.904,266.032,224.096,266.032,215.032,256.968z"/>
</g>
<g>
</g>
<g>
</g>
<g>
</g>
<g>
</g>
<g>
</g>
<g>
</g>
<g>
</g>
<g>
</g>
<g>
</g>
<g>
</g>
<g>
</g>
<g>
</g>
<g>
</g>
<g>
</g>
<g>
</g>
</svg>
