<?xml version="1.0" encoding="iso-8859-1"?>
<!-- Generator: Adobe Illustrator 19.0.0, SVG Export Plug-In . SVG Version: 6.00 Build 0)  -->
<svg version="1.1" id="Capa_1" xmlns="http://www.w3.org/2000/svg" xmlns:xlink="http://www.w3.org/1999/xlink" x="0px" y="0px"
	 viewBox="0 0 464.003 464.003" style="enable-background:new 0 0 464.003 464.003;" xml:space="preserve">
<g>
	<path style="fill:#00F2A9;" d="M200.002,280.002c0-23.672,12.888-44.296,32-55.368c-9.424-5.456-20.328-8.632-32-8.632
		c-35.344,0-64,28.656-64,64s28.656,64,64,64c11.672,0,22.576-3.176,32-8.632C212.89,324.298,200.002,303.674,200.002,280.002z"/>
	<path style="fill:#00F2A9;" d="M328.002,280.002c0-35.344-28.656-64-64-64c-11.672,0-22.576,3.176-32,8.632
		c19.112,11.072,32,31.696,32,55.368s-12.888,44.296-32,55.368c9.424,5.456,20.328,8.632,32,8.632
		C299.346,344.002,328.002,315.346,328.002,280.002z"/>
</g>
<g>
	<path style="fill:#322153;" d="M264.002,176.002c-11.112,0-22.04,2.752-32,7.728c-9.96-4.976-20.888-7.728-32-7.728
		c-39.704,0-72,32.296-72,72s32.296,72,72,72c11.112,0,22.04-2.752,32-7.728c9.96,4.976,20.888,7.728,32,7.728
		c39.704,0,72-32.296,72-72S303.706,176.002,264.002,176.002z M243.314,212.746c0.648,0.792,1.28,1.592,1.88,2.416
		c0.776,1.072,1.504,2.184,2.208,3.304c0.536,0.848,1.072,1.704,1.552,2.584c0.656,1.184,1.232,2.408,1.8,3.632
		c0.408,0.888,0.84,1.76,1.208,2.664c0.528,1.312,0.952,2.664,1.376,4.016c0.272,0.872,0.592,1.736,0.824,2.624
		c0.4,1.52,0.672,3.072,0.936,4.632c0.128,0.76,0.328,1.512,0.424,2.28c0.304,2.344,0.48,4.712,0.48,7.104s-0.176,4.76-0.48,7.104
		c-0.096,0.768-0.296,1.52-0.424,2.28c-0.272,1.552-0.544,3.112-0.936,4.632c-0.232,0.888-0.552,1.752-0.824,2.624
		c-0.424,1.352-0.856,2.704-1.376,4.016c-0.36,0.912-0.792,1.784-1.208,2.664c-0.568,1.232-1.144,2.448-1.8,3.632
		c-0.488,0.88-1.024,1.728-1.552,2.584c-0.704,1.12-1.424,2.232-2.208,3.304c-0.6,0.824-1.232,1.624-1.88,2.416
		c-0.832,1.016-1.688,2.008-2.592,2.976c-0.704,0.752-1.432,1.488-2.184,2.208c-0.96,0.912-1.96,1.784-2.984,2.632
		c-0.792,0.656-1.592,1.312-2.424,1.928c-0.36,0.272-0.76,0.496-1.128,0.76c-0.368-0.256-0.768-0.488-1.128-0.76
		c-0.832-0.616-1.632-1.264-2.424-1.928c-1.024-0.848-2.024-1.72-2.984-2.632c-0.752-0.712-1.472-1.456-2.184-2.208
		c-0.904-0.96-1.768-1.952-2.592-2.976c-0.648-0.792-1.28-1.592-1.88-2.416c-0.776-1.072-1.504-2.184-2.208-3.304
		c-0.536-0.848-1.072-1.704-1.552-2.584c-0.656-1.184-1.232-2.408-1.8-3.632c-0.408-0.888-0.84-1.76-1.208-2.664
		c-0.528-1.312-0.952-2.664-1.376-4.016c-0.272-0.872-0.592-1.736-0.824-2.624c-0.4-1.52-0.672-3.072-0.936-4.632
		c-0.128-0.76-0.328-1.512-0.424-2.28c-0.304-2.344-0.48-4.712-0.48-7.104s0.176-4.76,0.48-7.104c0.096-0.768,0.296-1.52,0.424-2.28
		c0.272-1.552,0.544-3.112,0.936-4.632c0.232-0.888,0.552-1.752,0.824-2.624c0.424-1.352,0.856-2.704,1.376-4.016
		c0.36-0.912,0.792-1.784,1.208-2.664c0.568-1.232,1.144-2.448,1.8-3.632c0.488-0.88,1.024-1.728,1.552-2.584
		c0.704-1.12,1.424-2.232,2.208-3.304c0.6-0.824,1.232-1.624,1.88-2.416c0.832-1.016,1.688-2.008,2.592-2.976
		c0.704-0.752,1.432-1.488,2.184-2.208c0.96-0.912,1.96-1.784,2.984-2.632c0.792-0.656,1.592-1.312,2.424-1.928
		c0.36-0.272,0.76-0.496,1.128-0.76c0.368,0.256,0.768,0.488,1.128,0.76c0.832,0.616,1.632,1.264,2.424,1.928
		c1.024,0.848,2.024,1.72,2.984,2.632c0.752,0.712,1.472,1.456,2.184,2.208C241.626,210.738,242.482,211.73,243.314,212.746z
		 M200.002,304.002c-30.872,0-56-25.128-56-56s25.128-56,56-56c5.448,0,10.848,0.808,16.056,2.376
		c-0.64,0.568-1.2,1.216-1.816,1.808c-0.728,0.704-1.456,1.408-2.152,2.144c-1.416,1.48-2.736,3.016-4.016,4.608
		c-0.528,0.656-1.088,1.288-1.592,1.96c-1.712,2.288-3.312,4.648-4.744,7.112c-0.144,0.256-0.264,0.528-0.408,0.784
		c-1.256,2.224-2.384,4.52-3.4,6.864c-0.368,0.848-0.672,1.712-1,2.568c-0.712,1.84-1.36,3.696-1.92,5.592
		c-0.288,0.968-0.552,1.936-0.8,2.912c-0.488,1.944-0.872,3.912-1.192,5.896c-0.144,0.896-0.32,1.776-0.432,2.672
		c-0.352,2.872-0.584,5.776-0.584,8.704c0,2.928,0.232,5.832,0.584,8.704c0.112,0.904,0.288,1.784,0.432,2.672
		c0.32,1.984,0.704,3.952,1.192,5.896c0.248,0.976,0.512,1.944,0.8,2.912c0.56,1.896,1.208,3.752,1.92,5.592
		c0.336,0.856,0.64,1.72,1,2.568c1.016,2.352,2.144,4.64,3.4,6.872c0.144,0.256,0.256,0.528,0.408,0.784
		c1.432,2.464,3.032,4.832,4.744,7.112c0.504,0.672,1.064,1.304,1.592,1.96c1.28,1.584,2.608,3.128,4.016,4.608
		c0.696,0.736,1.424,1.44,2.152,2.144c0.616,0.592,1.176,1.232,1.816,1.808C210.85,303.194,205.45,304.002,200.002,304.002z
		 M264.002,304.002c-5.448,0-10.848-0.808-16.056-2.376c0.64-0.568,1.2-1.216,1.816-1.808c0.728-0.704,1.456-1.408,2.152-2.144
		c1.416-1.48,2.736-3.016,4.016-4.608c0.528-0.656,1.088-1.288,1.592-1.96c1.712-2.288,3.312-4.648,4.744-7.112
		c0.144-0.256,0.256-0.528,0.408-0.784c1.256-2.224,2.384-4.52,3.4-6.872c0.368-0.84,0.672-1.712,1-2.568
		c0.712-1.84,1.36-3.696,1.92-5.592c0.288-0.968,0.552-1.936,0.8-2.912c0.488-1.944,0.872-3.912,1.192-5.896
		c0.144-0.896,0.32-1.776,0.432-2.672c0.352-2.864,0.584-5.768,0.584-8.696s-0.232-5.832-0.584-8.704
		c-0.112-0.904-0.288-1.784-0.432-2.672c-0.32-1.984-0.704-3.952-1.192-5.896c-0.248-0.976-0.512-1.944-0.8-2.912
		c-0.56-1.896-1.208-3.752-1.92-5.592c-0.336-0.856-0.64-1.728-1-2.568c-1.016-2.352-2.144-4.64-3.4-6.864
		c-0.144-0.256-0.256-0.528-0.408-0.784c-1.432-2.464-3.032-4.832-4.744-7.112c-0.504-0.672-1.064-1.304-1.592-1.96
		c-1.28-1.584-2.608-3.128-4.016-4.608c-0.696-0.736-1.424-1.44-2.152-2.144c-0.616-0.592-1.176-1.232-1.816-1.808
		c5.208-1.568,10.608-2.376,16.056-2.376c30.872,0,56,25.128,56,56S294.874,304.002,264.002,304.002z"/>
	<path style="fill:#322153;" d="M392.002,80.002h-320c-22.056,0-40,17.944-40,40v216h-24c-3.232,0-6.16,1.944-7.392,4.936
		c-1.24,2.992-0.552,6.432,1.736,8.72l27.312,27.312c4.528,4.536,10.56,7.032,16.968,7.032h370.752
		c6.408,0,12.44-2.504,16.968-7.032l27.312-27.312c2.288-2.288,2.976-5.728,1.736-8.72c-1.232-2.992-4.16-4.936-7.392-4.936h-24
		v-216C432.002,97.946,414.058,80.002,392.002,80.002z M48.002,120.002c0-13.232,10.768-24,24-24h320c13.232,0,24,10.768,24,24v216
		h-16v-200c0-13.232-10.768-24-24-24h-288c-13.232,0-24,10.768-24,24v200h-16V120.002z M80.002,336.002v-200c0-4.416,3.584-8,8-8
		h288c4.416,0,8,3.584,8,8v200H80.002z M423.034,365.658c-1.496,1.496-3.552,2.344-5.656,2.344H46.626
		c-2.104,0-4.168-0.848-5.656-2.344l-13.656-13.656h12.688h32h320h32h12.688L423.034,365.658z"/>
</g>
<g>
</g>
<g>
</g>
<g>
</g>
<g>
</g>
<g>
</g>
<g>
</g>
<g>
</g>
<g>
</g>
<g>
</g>
<g>
</g>
<g>
</g>
<g>
</g>
<g>
</g>
<g>
</g>
<g>
</g>
</svg>
