<?xml version="1.0" encoding="iso-8859-1"?>
<!-- Generator: Adobe Illustrator 19.0.0, SVG Export Plug-In . SVG Version: 6.00 Build 0)  -->
<svg version="1.1" id="Capa_1" xmlns="http://www.w3.org/2000/svg" xmlns:xlink="http://www.w3.org/1999/xlink" x="0px" y="0px"
	 viewBox="0 0 464 464" style="enable-background:new 0 0 464 464;" xml:space="preserve">
<g>
	<path style="fill:#00F2A9;" d="M200,232c0-95.336-96-96-96-96v192h160v-32C200,296,200,250.664,200,232z"/>
	<path style="fill:#00F2A9;" d="M392,136c0,31.504-32,32-32,32v160h64V104C424,104,392,104.504,392,136z"/>
</g>
<g>
	<path style="fill:#322153;" d="M424,32H40C17.944,32,0,49.944,0,72v127.28v0.832V328c0,22.056,17.944,40,40,40h152v4.224
		c0,9.144-5.088,17.368-13.264,21.464l-46.312,23.16c-3.32,1.656-5.064,5.384-4.208,8.992S132.288,432,136,432h192
		c3.712,0,6.928-2.552,7.792-6.168c0.848-3.608-0.888-7.336-4.208-8.992l-46.312-23.16C277.088,389.592,272,381.368,272,372.224V368
		h152c22.056,0,40-17.944,40-40V72C464,49.944,446.056,32,424,32z M272,288v-16.312c18.032-1.432,32.72-7.832,43.736-19.072
		C336.416,231.496,336.024,201.12,336,200v-32.128c0-0.112,0.024-10.92,6.816-17.824c2.424-2.456,5.52-4.064,9.184-5.024V288H272z
		 M16,288v-88.112c-0.008-0.392-0.248-39.224,25.16-64.992c13.448-13.64,31.896-21.184,54.84-22.6V288H16z M112,112.56
		c21.856,2.464,80,15.752,80,87.44c0,17.128,0,67.88,64,71.768V288H112V112.56z M368,143.264c6.544-1.136,11.872-3.608,16.152-6.912
		c0.2-0.136,0.384-0.312,0.584-0.456c0.496-0.4,1.008-0.8,1.48-1.224c7.088-5.616,12.576-14.312,13.472-27.176
		c0.152-1.208,0.264-2.376,0.312-3.456c0-0.024,0-0.056,0-0.08c0-1.176,0.144-2.208,0.256-3.28
		c0.392-3.024,1.416-7.264,3.928-11.144c3.224-4.504,7.776-6.952,11.824-8.192V288h-48V143.264H368z M432,80h16v208h-16V80z M16,72
		c0-13.232,10.768-24,24-24h384c10.416,0,19.216,6.712,22.528,16H424c-0.032,0-0.064,0-0.096,0c-0.008,0-0.016,0-0.032,0
		c-0.888,0-1.832,0.064-2.808,0.152c-13.352,0.736-22.256,6.304-27.96,13.432c-0.152,0.176-0.296,0.368-0.456,0.552
		c-0.232,0.304-0.472,0.592-0.696,0.896c-4.136,5.232-7.072,12.112-7.752,21.04c-0.12,1.256-0.2,2.48-0.2,3.592
		c-0.072,1.808-0.96,13.808-9.984,20.248c-4.848,3.008-10.176,3.824-12.936,4.024c-0.24,0.008-0.464,0.04-0.712,0.048
		c-0.16,0-0.36,0.016-0.496,0.016c-0.024,0-0.048,0.016-0.072,0.016c-11.792,0.04-21.36,3.664-28.384,10.816
		C319.856,150.56,319.992,167.416,320,168v32.168c0.008,0.248,0.328,24.888-15.696,41.256C294.832,251.096,281.264,256,264,256
		c-56,0-56-36.432-56-56C208,97.896,105.096,96.008,104.056,96c-0.016,0-0.04,0-0.056,0c-31.16,0-56.136,9.304-74.232,27.664
		C24.2,129.312,19.68,135.424,16,141.656V72z M278.112,408l16,8H169.888l16-8c13.64-6.832,22.112-20.528,22.112-35.776V368h48v4.224
		C256,387.472,264.472,401.168,278.112,408z M424,352H264h-64H40c-13.232,0-24-10.768-24-24v-24h88h160h96h64h24v24
		C448,341.232,437.232,352,424,352z"/>
	<path style="fill:#322153;" d="M226.32,322.32c-1.448,1.512-2.32,3.512-2.32,5.68c0,1.04,0.24,2.08,0.64,3.04s0.96,1.832,1.68,2.64
		c1.512,1.44,3.512,2.32,5.68,2.32c1.04,0,2.08-0.24,3.04-0.64s1.832-0.96,2.64-1.68c0.72-0.808,1.28-1.68,1.68-2.64
		s0.64-2,0.64-3.04c0-2.08-0.88-4.168-2.32-5.68C234.64,319.36,229.28,319.36,226.32,322.32z"/>
</g>
<g>
</g>
<g>
</g>
<g>
</g>
<g>
</g>
<g>
</g>
<g>
</g>
<g>
</g>
<g>
</g>
<g>
</g>
<g>
</g>
<g>
</g>
<g>
</g>
<g>
</g>
<g>
</g>
<g>
</g>
</svg>
