<?xml version="1.0" encoding="iso-8859-1"?>
<!-- Generator: Adobe Illustrator 19.0.0, SVG Export Plug-In . SVG Version: 6.00 Build 0)  -->
<svg version="1.1" id="Capa_1" xmlns="http://www.w3.org/2000/svg" xmlns:xlink="http://www.w3.org/1999/xlink" x="0px" y="0px"
	 viewBox="0 0 464 464" style="enable-background:new 0 0 464 464;" xml:space="preserve">
<polygon style="fill:#00F2A9;" points="184,40 120,40 120,264 152,232 184,264 "/>
<g>
	<path style="fill:#322153;" d="M376,464c22.056,0,40-17.944,40-40V40c0-22.056-17.944-40-40-40H184h-64H88
		C65.944,0,48,17.944,48,40v384c0,22.056,17.944,40,40,40H376z M400,40v384c0,13.232-10.768,24-24,24H96V16h16v216
		c0,3.232,1.952,6.16,4.936,7.392c2.984,1.24,6.424,0.552,8.72-1.736L152,211.312l26.344,26.344C179.872,239.184,181.92,240,184,240
		c1.032,0,2.072-0.192,3.064-0.608c2.984-1.232,4.936-4.16,4.936-7.392V16h184C389.232,16,400,26.768,400,40z M176,16v196.688
		l-18.344-18.344c-1.56-1.56-3.608-2.344-5.656-2.344s-4.096,0.784-5.656,2.344L128,212.688V16H176z M64,424V40
		c0-10.416,6.712-19.216,16-22.528V446.52C70.712,443.216,64,434.416,64,424z"/>
	<path style="fill:#322153;" d="M312,432h31.752c0.056,0,0.224,0,0.488,0c2.944,0,17.936-0.528,28.752-11.008
		C380.288,413.904,384,404.152,384,392v-32c0-4.424-3.576-8-8-8s-8,3.576-8,8v32c0,7.608-2.048,13.472-6.08,17.432
		c-6.824,6.696-17.56,6.56-17.92,6.568h-32c-4.424,0-8,3.576-8,8S307.576,432,312,432z"/>
	<path style="fill:#322153;" d="M376,240c4.424,0,8-3.576,8-8V72c0-4.424-3.576-8-8-8s-8,3.576-8,8v160
		C368,236.424,371.576,240,376,240z"/>
</g>
<g>
</g>
<g>
</g>
<g>
</g>
<g>
</g>
<g>
</g>
<g>
</g>
<g>
</g>
<g>
</g>
<g>
</g>
<g>
</g>
<g>
</g>
<g>
</g>
<g>
</g>
<g>
</g>
<g>
</g>
</svg>
