<?xml version="1.0" encoding="iso-8859-1"?>
<!-- Generator: Adobe Illustrator 19.0.0, SVG Export Plug-In . SVG Version: 6.00 Build 0)  -->
<svg version="1.1" id="Capa_1" xmlns="http://www.w3.org/2000/svg" xmlns:xlink="http://www.w3.org/1999/xlink" x="0px" y="0px"
	 viewBox="0 0 432 432" style="enable-background:new 0 0 432 432;" xml:space="preserve">
<path style="fill:#00F2A9;" d="M344,71.984C344,54.312,329.672,40,312,40H120c-17.672,0-32,14.312-32,31.984v202.664l128,85.336
	l128-85.336V71.984z"/>
<g>
	<path style="fill:#322153;" d="M312,0H120C97.944,0,80,17.944,80,40v113.056l-60.44,40.288c-0.344,0.232-0.632,0.528-0.928,0.8
		c-0.128,0.112-0.264,0.208-0.376,0.328c-0.624,0.648-1.104,1.384-1.48,2.192c-0.088,0.184-0.144,0.368-0.216,0.56
		C16.232,198.112,16,199.032,16,200v224c0,1.04,0.208,2.08,0.616,3.056c0.808,1.96,2.368,3.52,4.328,4.328
		C21.92,431.792,22.96,432,24,432h384c1.04,0,2.08-0.208,3.056-0.616c1.96-0.808,3.52-2.368,4.328-4.328
		C415.792,426.08,416,425.04,416,424V200c0-0.968-0.232-1.888-0.56-2.776c-0.072-0.192-0.136-0.376-0.216-0.568
		c-0.368-0.808-0.856-1.544-1.472-2.192c-0.12-0.12-0.256-0.216-0.376-0.328c-0.304-0.28-0.584-0.568-0.928-0.8L352,153.056V40
		C352,17.944,334.056,0,312,0z M400,404.688l-113.84-113.84L400,214.944V404.688z M32,214.944l113.84,75.896L32,404.688V214.944z
		 M157.656,301.656c0.6-0.6,0.984-1.32,1.352-2.04l52.552,35.04c1.344,0.896,2.896,1.344,4.44,1.344s3.096-0.448,4.44-1.344
		l52.552-35.04c0.368,0.72,0.752,1.432,1.352,2.04L388.688,416H43.312L157.656,301.656z M96,40c0-13.232,10.768-24,24-24h192
		c13.232,0,24,10.768,24,24v198.384l-120,80l-120-80V40z M80,172.28v55.432L38.424,200L80,172.28z M393.576,200L352,227.72v-55.44
		L393.576,200z"/>
	<path style="fill:#322153;" d="M184,80h64c4.424,0,8-3.576,8-8s-3.576-8-8-8h-64c-4.424,0-8,3.576-8,8
		C176,76.424,179.576,80,184,80z"/>
	<path style="fill:#322153;" d="M120,144h192c4.424,0,8-3.576,8-8s-3.576-8-8-8H120c-4.424,0-8,3.576-8,8S115.576,144,120,144z"/>
	<path style="fill:#322153;" d="M120,176h192c4.424,0,8-3.576,8-8s-3.576-8-8-8H120c-4.424,0-8,3.576-8,8S115.576,176,120,176z"/>
	<path style="fill:#322153;" d="M320,200c0-4.424-3.576-8-8-8H120c-4.424,0-8,3.576-8,8c0,4.424,3.576,8,8,8h192
		C316.424,208,320,204.424,320,200z"/>
</g>
<g>
</g>
<g>
</g>
<g>
</g>
<g>
</g>
<g>
</g>
<g>
</g>
<g>
</g>
<g>
</g>
<g>
</g>
<g>
</g>
<g>
</g>
<g>
</g>
<g>
</g>
<g>
</g>
<g>
</g>
</svg>
