<?xml version="1.0" encoding="iso-8859-1"?>
<!-- Generator: Adobe Illustrator 19.0.0, SVG Export Plug-In . SVG Version: 6.00 Build 0)  -->
<svg version="1.1" id="Capa_1" xmlns="http://www.w3.org/2000/svg" xmlns:xlink="http://www.w3.org/1999/xlink" x="0px" y="0px"
	 viewBox="0 0 464 464" style="enable-background:new 0 0 464 464;" xml:space="preserve">
<g>
	<rect x="136" y="104" style="fill:#00F2A9;" width="96" height="96"/>
	<rect x="136" y="232" style="fill:#00F2A9;" width="96" height="96"/>
	<rect x="136" y="360" style="fill:#00F2A9;" width="96" height="96"/>
</g>
<g>
	<path style="fill:#322153;" d="M136,464h192c22.056,0,40-17.944,40-40V40c0-22.056-17.944-40-40-40H136c-22.056,0-40,17.944-40,40
		v384C96,446.056,113.944,464,136,464z M276.688,16l-16,16h-57.376l-16-16H276.688z M112,40c0-13.232,10.768-24,24-24h28.688
		l29.656,29.656C195.84,47.16,197.872,48,200,48h64c2.128,0,4.16-0.84,5.656-2.344L299.312,16H328c13.232,0,24,10.768,24,24v384
		c0,13.232-10.768,24-24,24H136c-13.232,0-24-10.768-24-24V40z"/>
	<path style="fill:#322153;" d="M136,176h96c4.424,0,8-3.576,8-8V72c0-4.424-3.576-8-8-8h-96c-4.424,0-8,3.576-8,8v96
		C128,172.424,131.576,176,136,176z M144,80h80v80h-80V80z"/>
	<path style="fill:#322153;" d="M264,80h64c4.424,0,8-3.576,8-8s-3.576-8-8-8h-64c-4.424,0-8,3.576-8,8S259.576,80,264,80z"/>
	<path style="fill:#322153;" d="M264,112h64c4.424,0,8-3.576,8-8s-3.576-8-8-8h-64c-4.424,0-8,3.576-8,8
		C256,108.424,259.576,112,264,112z"/>
	<path style="fill:#322153;" d="M264,144h32c4.424,0,8-3.576,8-8s-3.576-8-8-8h-32c-4.424,0-8,3.576-8,8S259.576,144,264,144z"/>
	<path style="fill:#322153;" d="M136,304h96c4.424,0,8-3.576,8-8v-96c0-4.424-3.576-8-8-8h-96c-4.424,0-8,3.576-8,8v96
		C128,300.424,131.576,304,136,304z M144,208h80v80h-80V208z"/>
	<path style="fill:#322153;" d="M264,208h64c4.424,0,8-3.576,8-8s-3.576-8-8-8h-64c-4.424,0-8,3.576-8,8S259.576,208,264,208z"/>
	<path style="fill:#322153;" d="M264,240h64c4.424,0,8-3.576,8-8s-3.576-8-8-8h-64c-4.424,0-8,3.576-8,8
		C256,236.424,259.576,240,264,240z"/>
	<path style="fill:#322153;" d="M264,272h32c4.424,0,8-3.576,8-8s-3.576-8-8-8h-32c-4.424,0-8,3.576-8,8S259.576,272,264,272z"/>
	<path style="fill:#322153;" d="M136,432h96c4.424,0,8-3.576,8-8v-96c0-4.424-3.576-8-8-8h-96c-4.424,0-8,3.576-8,8v96
		C128,428.424,131.576,432,136,432z M144,336h80v80h-80V336z"/>
	<path style="fill:#322153;" d="M264,336h64c4.424,0,8-3.576,8-8s-3.576-8-8-8h-64c-4.424,0-8,3.576-8,8S259.576,336,264,336z"/>
	<path style="fill:#322153;" d="M264,368h64c4.424,0,8-3.576,8-8s-3.576-8-8-8h-64c-4.424,0-8,3.576-8,8S259.576,368,264,368z"/>
	<path style="fill:#322153;" d="M264,400h32c4.424,0,8-3.576,8-8s-3.576-8-8-8h-32c-4.424,0-8,3.576-8,8S259.576,400,264,400z"/>
</g>
<g>
</g>
<g>
</g>
<g>
</g>
<g>
</g>
<g>
</g>
<g>
</g>
<g>
</g>
<g>
</g>
<g>
</g>
<g>
</g>
<g>
</g>
<g>
</g>
<g>
</g>
<g>
</g>
<g>
</g>
</svg>
