<?xml version="1.0" encoding="iso-8859-1"?>
<!-- Generator: Adobe Illustrator 19.0.0, SVG Export Plug-In . SVG Version: 6.00 Build 0)  -->
<svg version="1.1" id="Capa_1" xmlns="http://www.w3.org/2000/svg" xmlns:xlink="http://www.w3.org/1999/xlink" x="0px" y="0px"
	 viewBox="0 0 464 464" style="enable-background:new 0 0 464 464;" xml:space="preserve">
<rect x="88" y="72" style="fill:#00F2A9;" width="128" height="160"/>
<g>
	<path style="fill:#322153;" d="M88,464h288c22.056,0,40-17.944,40-40V40c0-22.056-17.944-40-40-40H88C65.944,0,48,17.944,48,40v384
		C48,446.056,65.944,464,88,464z M64,40c0-13.232,10.768-24,24-24h288c13.232,0,24,10.768,24,24v384c0,13.232-10.768,24-24,24H88
		c-13.232,0-24-10.768-24-24V40z"/>
	<path style="fill:#322153;" d="M88,208h128c4.424,0,8-3.576,8-8V40c0-4.424-3.576-8-8-8H88c-4.424,0-8,3.576-8,8v160
		C80,204.424,83.576,208,88,208z M96,48h112v144H96V48z"/>
	<path style="fill:#322153;" d="M248,80h96c4.424,0,8-3.576,8-8s-3.576-8-8-8h-96c-4.424,0-8,3.576-8,8S243.576,80,248,80z"/>
	<path style="fill:#322153;" d="M248,112h128c4.424,0,8-3.576,8-8s-3.576-8-8-8H248c-4.424,0-8,3.576-8,8
		C240,108.424,243.576,112,248,112z"/>
	<path style="fill:#322153;" d="M376,416h-96c-4.424,0-8,3.576-8,8s3.576,8,8,8h96c4.424,0,8-3.576,8-8S380.424,416,376,416z"/>
	<path style="fill:#322153;" d="M184,256c-4.424,0-8,3.576-8,8s3.576,8,8,8h96c4.424,0,8-3.576,8-8s-3.576-8-8-8H184z"/>
	<path style="fill:#322153;" d="M88,304h288c4.424,0,8-3.576,8-8s-3.576-8-8-8H88c-4.424,0-8,3.576-8,8S83.576,304,88,304z"/>
	<path style="fill:#322153;" d="M88,336h288c4.424,0,8-3.576,8-8s-3.576-8-8-8H88c-4.424,0-8,3.576-8,8S83.576,336,88,336z"/>
	<path style="fill:#322153;" d="M88,368h288c4.424,0,8-3.576,8-8s-3.576-8-8-8H88c-4.424,0-8,3.576-8,8S83.576,368,88,368z"/>
</g>
<g>
</g>
<g>
</g>
<g>
</g>
<g>
</g>
<g>
</g>
<g>
</g>
<g>
</g>
<g>
</g>
<g>
</g>
<g>
</g>
<g>
</g>
<g>
</g>
<g>
</g>
<g>
</g>
<g>
</g>
</svg>
