<?xml version="1.0" encoding="iso-8859-1"?>
<!-- Generator: Adobe Illustrator 19.0.0, SVG Export Plug-In . SVG Version: 6.00 Build 0)  -->
<svg version="1.1" id="Capa_1" xmlns="http://www.w3.org/2000/svg" xmlns:xlink="http://www.w3.org/1999/xlink" x="0px" y="0px"
	 viewBox="0 0 463.999 463.999" style="enable-background:new 0 0 463.999 463.999;" xml:space="preserve">
<path style="fill:#00F2A9;" d="M263.999,392V136h-96v31.984c-53.016,0-96,42.984-96,96s42.984,96,96,96V392H263.999z"/>
<g>
	<path style="fill:#322153;" d="M167.999,304c4.424,0,8-3.576,8-8V168c0-4.424-3.576-8-8-8s-8,3.576-8,8v128
		C159.999,300.424,163.575,304,167.999,304z"/>
	<path style="fill:#322153;" d="M463.999,104c0-4.424-3.576-8-8-8h-80V72c0-4.424-3.576-8-8-8s-8,3.576-8,8v32v256v32
		c0,4.424,3.576,8,8,8s8-3.576,8-8v-24h80c4.424,0,8-3.576,8-8V104z M447.999,352h-72V112h72V352z"/>
	<path style="fill:#322153;" d="M31.999,264c0,22.104-21.88,23.872-24.336,24.008c-4.416,0.176-7.84,3.912-7.656,8.328
		C0.183,300.632,3.727,304,7.991,304c0.12,0,0.224,0,0.344,0c13.72,0,39.664-9.664,39.664-40c0-14.416,9.296-20.16,16.464-22.472
		c4.592,50.264,45.072,90.296,95.536,94.16V360c0,4.424,3.576,8,8,8h88v24c0,4.424,3.576,8,8,8s8-3.576,8-8v-32v-24h40
		c13.232,0,24-10.768,24-24s-10.768-24-24-24h-40V176h40c13.232,0,24-10.768,24-24s-10.768-24-24-24h-40v-24V72c0-4.424-3.576-8-8-8
		s-8,3.576-8,8v24h-88c-4.424,0-8,3.576-8,8v24.304c-51.312,3.92-92.216,45.264-95.664,96.704
		C50.343,228.032,31.999,238.488,31.999,264z M311.999,304c4.416,0,8,3.584,8,8s-3.584,8-8,8h-40v-16H311.999z M311.999,144
		c4.416,0,8,3.584,8,8s-3.584,8-8,8h-40v-16H311.999z M167.999,144c4.424,0,8-3.576,8-8v-24h80v184v32v24h-80v-24
		c0-4.424-3.576-8-8-8c-48.52,0-88-39.48-88-88S119.479,144,167.999,144z"/>
	<path style="fill:#322153;" d="M391.999,176c2.048,0,4.096-0.784,5.656-2.344l32-32c3.128-3.128,3.128-8.184,0-11.312
		s-8.184-3.128-11.312,0l-32,32c-3.128,3.128-3.128,8.184,0,11.312C387.903,175.216,389.951,176,391.999,176z"/>
	<path style="fill:#322153;" d="M391.999,208c2.048,0,4.096-0.784,5.656-2.344l32-32c3.128-3.128,3.128-8.184,0-11.312
		s-8.184-3.128-11.312,0l-32,32c-3.128,3.128-3.128,8.184,0,11.312C387.903,207.216,389.951,208,391.999,208z"/>
</g>
<g>
</g>
<g>
</g>
<g>
</g>
<g>
</g>
<g>
</g>
<g>
</g>
<g>
</g>
<g>
</g>
<g>
</g>
<g>
</g>
<g>
</g>
<g>
</g>
<g>
</g>
<g>
</g>
<g>
</g>
</svg>
