<?xml version="1.0" encoding="iso-8859-1"?>
<!-- Generator: Adobe Illustrator 19.0.0, SVG Export Plug-In . SVG Version: 6.00 Build 0)  -->
<svg version="1.1" id="Capa_1" xmlns="http://www.w3.org/2000/svg" xmlns:xlink="http://www.w3.org/1999/xlink" x="0px" y="0px"
	 viewBox="0 0 463.972 463.972" style="enable-background:new 0 0 463.972 463.972;" xml:space="preserve">
<path style="fill:#00F2A9;" d="M60.729,204.533c-6.304,6.304-6.312,16.528-0.008,22.832l11.08,11.08
	c4.624,4.624,6,11.592,3.48,17.632l-6.032,14.464c-3.432,8.232,0.456,17.688,8.688,21.12l15.528,6.232
	c6.008,2.512,10.512,8.392,10.512,14.904v16.184c0,8.92,6.048,14.984,14.968,14.984h15.672c6.544,0,12.44,4.536,14.936,10.584
	l5.96,14.784c3.392,8.248,12.832,12.328,21.08,8.936l14.968-6.08c6.024-2.48,12.952-1.056,17.56,3.552l11.44,11.464
	c6.304,6.304,16.528,6.312,22.832,0.008l11.08-11.08c4.632-4.624,11.592-6,17.632-3.48l14.464,6.032
	c8.232,3.432,17.688-0.456,21.12-8.688l6.232-15.52c2.512-6.008,8.392-10.512,14.904-10.512h16.184
	c8.92,0,14.968-6.064,14.968-14.984v-15.672c0-6.544,4.544-12.44,10.592-14.936l14.792-5.96c8.248-3.392,12.328-12.832,8.936-21.08
	l-6.08-14.968c-2.48-6.024-1.056-12.952,3.552-17.56l11.48-11.44c6.304-6.304,6.304-16.528,0-22.832l-11.08-11.08
	c-4.624-4.632-6.008-11.592-3.488-17.632l6.032-14.464c3.432-8.232-0.456-17.688-8.688-21.12l-15.528-6.232
	c-6.016-2.512-10.52-8.384-10.52-14.904v-16.184c0-8.92-6.048-14.952-14.968-14.952h-15.672c-6.544,0-12.44-4.544-14.936-10.6
	l-5.96-14.792c-3.392-8.248-12.832-12.328-21.08-8.936l-14.968,6.08c-6.024,2.48-12.952,1.056-17.56-3.552l-11.44-11.464
	c-6.304-6.304-16.528-6.312-22.832-0.008l-11.08,11.08c-4.632,4.624-11.592,6-17.632,3.48l-14.464-6.032
	c-8.232-3.432-17.688,0.456-21.12,8.688l-6.232,15.536c-2.512,6.008-8.392,10.52-14.904,10.52h-16.184
	c-8.92,0-14.968,6.032-14.968,14.952v15.672c0,6.544-4.544,12.44-10.592,14.936l-14.792,5.96
	c-8.248,3.392-12.328,12.832-8.936,21.08l6.08,14.968c2.48,6.024,1.056,12.952-3.552,17.56L60.729,204.533z M231.977,119.069
	c53.512,0,96.888,43.376,96.888,96.888s-43.376,96.88-96.888,96.88s-96.888-43.376-96.888-96.888S178.465,119.069,231.977,119.069z"
	/>
<g>
	<path style="fill:#322153;" d="M55.065,166.885c-9.408,9.432-9.408,24.752,0,34.16l11.08,11.088
		c2.344,2.336,3.032,5.832,1.752,8.888l-6.032,14.464c-5.12,12.288,0.712,26.464,13.096,31.624l15.424,6.184
		c3.24,1.352,5.6,4.512,5.6,7.52v16.176c-0.008,13.32,9.648,22.976,22.96,22.976h9.032v136c0,2.568,1.232,4.984,3.32,6.496
		c2.088,1.496,4.776,1.92,7.208,1.096l93.472-31.16l93.472,31.16c0.824,0.272,1.68,0.408,2.528,0.408
		c1.656,0,3.296-0.512,4.68-1.504c2.088-1.512,3.32-3.928,3.32-6.496v-136h9.032c13.312,0,22.968-9.656,22.968-22.968v-15.672
		c0-3.024,2.368-6.184,5.584-7.504l14.84-5.984c12.384-5.104,18.344-19.24,13.304-31.496l-6.104-14.992
		c-1.248-3.04-0.536-6.512,1.808-8.848l11.488-11.44c0-0.008,0.008-0.016,0.016-0.016c9.4-9.424,9.4-24.736-0.008-34.16
		l-11.088-11.08c-2.344-2.344-3.032-5.832-1.76-8.896l6.032-14.464c2.488-5.952,2.504-12.512,0.048-18.488
		c-2.456-5.96-7.08-10.616-13.144-13.144l-15.416-6.176c-3.24-1.352-5.6-4.512-5.6-7.52V70.941c0-13.32-9.656-22.976-22.968-22.976
		h-15.672c-3.072,0-6.168-2.32-7.504-5.584l-5.984-14.84c-5.104-12.368-19.216-18.328-31.496-13.304l-14.992,6.104
		c-3.056,1.248-6.512,0.52-8.856-1.808l-11.448-11.48c-9.44-9.408-24.752-9.4-34.16,0l-11.088,11.08
		c-2.336,2.336-5.832,3.04-8.888,1.752l-14.464-6.032c-12.28-5.104-26.456,0.696-31.624,13.096l-6.184,15.416
		c-1.352,3.24-4.512,5.6-7.52,5.6h-16.176c-13.32,0-22.976,9.656-22.976,22.968v15.672c0,3.024-2.368,6.184-5.584,7.504
		l-14.84,5.984c-12.376,5.104-18.336,19.232-13.304,31.496l6.104,14.992c1.248,3.04,0.536,6.512-1.808,8.856L55.065,166.885z
		 M234.505,416.381c-1.64-0.544-3.424-0.544-5.064,0l-85.464,28.48v-114.72l4.136,10.248c5.112,12.376,19.24,18.344,31.496,13.304
		l14.992-6.104c3.064-1.248,6.512-0.52,8.856,1.808l11.448,11.48c4.72,4.704,10.904,7.056,17.088,7.056
		c6.184,0,12.368-2.352,17.072-7.056l11.088-11.08c2.336-2.344,5.832-3.04,8.888-1.752l14.464,6.032
		c12.264,5.104,26.456-0.696,31.624-13.096l4.848-12.104v115.984L234.505,416.381z M77.841,166.765
		c6.928-6.928,9.008-17.232,5.312-26.232l-6.104-14.992c-1.696-4.128,0.36-8.896,4.528-10.616l14.832-5.984
		c9.32-3.816,15.568-12.8,15.568-22.336V70.933c0-4.488,2.48-6.968,6.968-6.968h16.176c9.488,0,18.44-6.2,22.328-15.544
		l6.184-15.424c1.728-4.144,6.496-6.104,10.664-4.384l14.456,6.032c9.096,3.792,19.44,1.736,26.376-5.208l11.08-11.072
		c3.168-3.168,8.352-3.168,11.52,0l11.448,11.472c6.92,6.92,17.216,9,26.232,5.312l15-6.104c4.096-1.712,8.888,0.36,10.608,4.528
		l5.984,14.84c3.832,9.304,12.808,15.552,22.336,15.552h15.672c4.488,0,6.968,2.48,6.968,6.968v16.176
		c0,9.488,6.2,18.44,15.544,22.328l15.424,6.184c2.008,0.832,3.568,2.416,4.4,4.424c0.832,2.016,0.824,4.224-0.016,6.24
		l-6.032,14.464c-3.784,9.072-1.736,19.424,5.208,26.368l11.08,11.08c3.168,3.168,3.176,8.336,0.016,11.512l-11.496,11.456
		c-6.928,6.928-9.008,17.232-5.312,26.232l6.104,15c1.696,4.128-0.36,8.888-4.528,10.608l-14.832,5.984
		c-9.312,3.816-15.56,12.8-15.56,22.336v15.672c0,4.488-2.48,6.968-6.968,6.968h-16.176c-9.488,0-18.44,6.2-22.328,15.544
		l-6.184,15.424c-1.736,4.144-6.496,6.104-10.664,4.384l-14.456-6.032c-9.104-3.816-19.44-1.736-26.376,5.208l-11.08,11.072
		c-3.168,3.168-8.352,3.168-11.52,0l-11.448-11.472c-4.648-4.648-10.824-7.12-17.104-7.12c-3.072,0-6.168,0.592-9.136,1.808
		l-15,6.104c-4.096,1.704-8.896-0.36-10.608-4.528l-5.984-14.832c-3.808-9.312-12.792-15.56-22.328-15.56h-15.672
		c-4.488,0-6.968-2.48-6.968-6.968v-16.176c0-9.488-6.2-18.44-15.544-22.328l-15.424-6.184c-4.144-1.736-6.112-6.512-4.384-10.664
		l6.032-14.456c3.792-9.08,1.744-19.432-5.208-26.376l-11.072-11.08c-3.168-3.168-3.168-8.352,0-11.52L77.841,166.765z"/>
	<path style="fill:#322153;" d="M231.977,288.845c57.832,0,104.88-47.048,104.88-104.88s-47.048-104.88-104.88-104.88
		s-104.88,47.048-104.88,104.88S174.145,288.845,231.977,288.845z M231.977,95.085c49.008,0,88.88,39.872,88.88,88.88
		s-39.872,88.88-88.88,88.88s-88.88-39.872-88.88-88.88S182.969,95.085,231.977,95.085z"/>
	<path style="fill:#322153;" d="M231.977,239.965c4.424,0,8-3.576,8-8s-3.576-8-8-8c-22.056,0-40-17.944-40-40c0-4.424-3.576-8-8-8
		s-8,3.576-8,8C175.977,214.837,201.105,239.965,231.977,239.965z"/>
	<path style="fill:#322153;" d="M231.977,143.965c22.056,0,40,17.944,40,40c0,4.424,3.576,8,8,8s8-3.576,8-8
		c0-30.872-25.128-56-56-56c-4.424,0-8,3.576-8,8S227.553,143.965,231.977,143.965z"/>
	<path style="fill:#322153;" d="M167.977,383.965c-4.424,0-8,3.576-8,8v32c0,4.424,3.576,8,8,8s8-3.576,8-8v-32
		C175.977,387.541,172.401,383.965,167.977,383.965z"/>
</g>
<g>
</g>
<g>
</g>
<g>
</g>
<g>
</g>
<g>
</g>
<g>
</g>
<g>
</g>
<g>
</g>
<g>
</g>
<g>
</g>
<g>
</g>
<g>
</g>
<g>
</g>
<g>
</g>
<g>
</g>
</svg>
