<?xml version="1.0" encoding="iso-8859-1"?>
<!-- Generator: Adobe Illustrator 19.0.0, SVG Export Plug-In . SVG Version: 6.00 Build 0)  -->
<svg version="1.1" id="Capa_1" xmlns="http://www.w3.org/2000/svg" xmlns:xlink="http://www.w3.org/1999/xlink" x="0px" y="0px"
	 viewBox="0 0 464.01 464.01" style="enable-background:new 0 0 464.01 464.01;" xml:space="preserve">
<g>
	<path style="fill:#00F2A9;" d="M360.002,347.989v64c0,17.672,14.328,32.016,32,32.016h64v-128h-64
		C374.33,316.005,360.002,330.317,360.002,347.989z"/>
	<path style="fill:#00F2A9;" d="M360.002,92.005c0-17.672-14.328-32-32-32h-192c-17.672,0-32,14.328-32,32v64
		c0,17.672,14.328,32,32,32h192c17.672,0,32-14.328,32-32V92.005z"/>
</g>
<g>
	<path style="fill:#322153;" d="M392.002,36.005h64c4.424,0,8-3.576,8-8s-3.576-8-8-8h-64c-13.128,0-24.704,6.448-32,16.248
		c-7.296-9.8-18.872-16.248-32-16.248h-192c-13.128,0-24.704,6.448-32,16.248c-7.296-9.8-18.872-16.248-32-16.248h-64
		c-4.416,0-8,3.576-8,8c0,4.424,3.584,8,8,8h64c13.232,0,24,10.768,24,24v64c0,13.232-10.768,24-24,24h-64c-4.416,0-8,3.576-8,8
		s3.584,8,8,8h64c1.744,0,3.416,0,5.104,0h53.8c1.688,0,3.352,0,5.104,0h68.992c11.12,2.312,19,12.192,19,24v64
		c0,11.808-7.88,21.688-19.008,24h-68.992c-1.744,0-3.416,0-5.104,0h-53.8c-1.688,0-3.352,0-5.104,0H8.002c-4.416,0-8,3.576-8,8
		s3.584,8,8,8h64c13.232,0,24,10.768,24,24v64c0,13.232-10.768,24-24,24h-64c-4.416,0-8,3.576-8,8s3.584,8,8,8h64
		c13.128,0,24.704-6.448,32-16.248c7.296,9.8,18.872,16.248,32,16.248h192c13.128,0,24.704-6.448,32-16.248
		c7.296,9.8,18.872,16.248,32,16.248h64c4.424,0,8-3.576,8-8s-3.576-8-8-8h-64c-13.232,0-24-10.768-24-24v-64
		c0-13.232,10.768-24,24-24h64c4.424,0,8-3.576,8-8s-3.576-8-8-8h-64c-1.744,0-3.416,0-5.104,0h-53.8c-1.688,0-3.352,0-5.104,0
		H259.01c-11.128-2.312-19.008-12.192-19.008-24v-64c0-11.808,7.88-21.688,19.016-24h68.984c1.744,0,3.416,0,5.104,0h53.8
		c1.688,0,3.352,0,5.104,0h64c4.424,0,8-3.576,8-8s-3.576-8-8-8h-64c-13.232,0-24-10.768-24-24v-64
		C368.002,46.773,378.77,36.005,392.002,36.005z M136.002,36.005h192c13.232,0,24,10.768,24,24v64c0,13.232-10.768,24-24,24h-192
		c-13.232,0-24-10.768-24-24v-64C112.002,46.773,122.77,36.005,136.002,36.005z M104.634,148.517h-1.256
		c0.208-0.256,0.432-0.496,0.632-0.76C104.202,148.021,104.426,148.261,104.634,148.517z M103.37,291.493h1.256
		c-0.208,0.256-0.432,0.496-0.632,0.76C103.802,291.989,103.578,291.749,103.37,291.493z M328.002,404.005h-192
		c-13.232,0-24-10.768-24-24v-64c0-13.232,10.768-24,24-24h192c13.232,0,24,10.768,24,24v64
		C352.002,393.237,341.234,404.005,328.002,404.005z M359.37,291.493h1.256c-0.208,0.256-0.432,0.496-0.632,0.76
		C359.802,291.989,359.578,291.749,359.37,291.493z M232.866,276.005h-1.736c0.28-0.36,0.6-0.68,0.872-1.048
		C232.266,275.325,232.594,275.645,232.866,276.005z M232.002,165.053c-0.264-0.368-0.592-0.688-0.872-1.048h1.736
		C232.594,164.365,232.266,164.685,232.002,165.053z M360.634,148.517h-1.256c0.208-0.256,0.432-0.496,0.632-0.76
		C360.202,148.021,360.426,148.261,360.634,148.517z"/>
	<path style="fill:#322153;" d="M136.002,100.005c2.048,0,4.096-0.784,5.656-2.344l32-32c3.128-3.128,3.128-8.184,0-11.312
		s-8.184-3.128-11.312,0l-32,32c-3.128,3.128-3.128,8.184,0,11.312C131.906,99.221,133.954,100.005,136.002,100.005z"/>
	<path style="fill:#322153;" d="M136.002,132.005c2.048,0,4.096-0.784,5.656-2.344l64-64c3.128-3.128,3.128-8.184,0-11.312
		s-8.184-3.128-11.312,0l-64,64c-3.128,3.128-3.128,8.184,0,11.312C131.906,131.221,133.954,132.005,136.002,132.005z"/>
	<path style="fill:#322153;" d="M360.002,228.005c2.048,0,4.096-0.784,5.656-2.344l32-32c3.128-3.128,3.128-8.184,0-11.312
		s-8.184-3.128-11.312,0l-32,32c-3.128,3.128-3.128,8.184,0,11.312C355.906,227.221,357.954,228.005,360.002,228.005z"/>
	<path style="fill:#322153;" d="M354.346,257.661c1.56,1.56,3.608,2.344,5.656,2.344s4.096-0.784,5.656-2.344l64-64
		c3.128-3.128,3.128-8.184,0-11.312s-8.184-3.128-11.312,0l-64,64C351.218,249.477,351.218,254.533,354.346,257.661z"/>
	<path style="fill:#322153;" d="M34.346,310.349l-32,32c-3.128,3.128-3.128,8.184,0,11.312c1.56,1.56,3.608,2.344,5.656,2.344
		s4.096-0.784,5.656-2.344l32-32c3.128-3.128,3.128-8.184,0-11.312S37.474,307.221,34.346,310.349z"/>
	<path style="fill:#322153;" d="M2.346,385.661c1.56,1.56,3.608,2.344,5.656,2.344s4.096-0.784,5.656-2.344l64-64
		c3.128-3.128,3.128-8.184,0-11.312s-8.184-3.128-11.312,0l-64,64C-0.782,377.477-0.782,382.533,2.346,385.661z"/>
</g>
<g>
</g>
<g>
</g>
<g>
</g>
<g>
</g>
<g>
</g>
<g>
</g>
<g>
</g>
<g>
</g>
<g>
</g>
<g>
</g>
<g>
</g>
<g>
</g>
<g>
</g>
<g>
</g>
<g>
</g>
</svg>
