<?xml version="1.0" encoding="iso-8859-1"?>
<!-- Generator: Adobe Illustrator 19.0.0, SVG Export Plug-In . SVG Version: 6.00 Build 0)  -->
<svg version="1.1" id="Capa_1" xmlns="http://www.w3.org/2000/svg" xmlns:xlink="http://www.w3.org/1999/xlink" x="0px" y="0px"
	 viewBox="0 0 464 464" style="enable-background:new 0 0 464 464;" xml:space="preserve">
<g>
	<circle style="fill:#00F2A9;" cx="104" cy="300.001" r="96"/>
	<circle style="fill:#00F2A9;" cx="360" cy="300.001" r="96"/>
</g>
<g>
	<path style="fill:#322153;" d="M429.656,70.345c-3.128-3.128-8.184-3.128-11.312,0s-3.128,8.184,0,11.312L448,111.313v101.52
		c-18.424-29.272-50.936-48.832-88-48.832c-54.64,0-99.48,42.392-103.592,96H207.6c-4.12-53.608-48.96-96-103.6-96
		c-37.064,0-69.576,19.56-88,48.832v-101.52l29.656-29.656c3.128-3.128,3.128-8.184,0-11.312s-8.184-3.128-11.312,0l-32,32
		C0.84,103.841,0,105.873,0,108.001v160c0,57.344,46.656,104,104,104c54.64,0,99.48-42.392,103.592-96H256.4
		c4.12,53.608,48.96,96,103.6,96c57.344,0,104-46.656,104-104v-160c0-2.128-0.84-4.16-2.344-5.656L429.656,70.345z M104,356.001
		c-48.52,0-88-39.48-88-88s39.48-88,88-88s88,39.48,88,88S152.52,356.001,104,356.001z M360,356.001c-48.52,0-88-39.48-88-88
		s39.48-88,88-88s88,39.48,88,88S408.52,356.001,360,356.001z"/>
	<path style="fill:#322153;" d="M40,244.001c2.048,0,4.096-0.784,5.656-2.344l32-32c3.128-3.128,3.128-8.184,0-11.312
		s-8.184-3.128-11.312,0l-32,32c-3.128,3.128-3.128,8.184,0,11.312C35.904,243.217,37.952,244.001,40,244.001z"/>
	<path style="fill:#322153;" d="M98.344,198.345l-64,64c-3.128,3.128-3.128,8.184,0,11.312c1.56,1.56,3.608,2.344,5.656,2.344
		c2.048,0,4.096-0.784,5.656-2.344l64-64c3.128-3.128,3.128-8.184,0-11.312S101.472,195.217,98.344,198.345z"/>
	<path style="fill:#322153;" d="M296,244.001c2.048,0,4.096-0.784,5.656-2.344l32-32c3.128-3.128,3.128-8.184,0-11.312
		s-8.184-3.128-11.312,0l-32,32c-3.128,3.128-3.128,8.184,0,11.312C291.904,243.217,293.952,244.001,296,244.001z"/>
	<path style="fill:#322153;" d="M354.344,198.345l-64,64c-3.128,3.128-3.128,8.184,0,11.312c1.56,1.56,3.608,2.344,5.656,2.344
		s4.096-0.784,5.656-2.344l64-64c3.128-3.128,3.128-8.184,0-11.312S357.472,195.217,354.344,198.345z"/>
</g>
<g>
</g>
<g>
</g>
<g>
</g>
<g>
</g>
<g>
</g>
<g>
</g>
<g>
</g>
<g>
</g>
<g>
</g>
<g>
</g>
<g>
</g>
<g>
</g>
<g>
</g>
<g>
</g>
<g>
</g>
</svg>
