<?xml version="1.0" encoding="iso-8859-1"?>
<!-- Generator: Adobe Illustrator 19.0.0, SVG Export Plug-In . SVG Version: 6.00 Build 0)  -->
<svg version="1.1" id="Capa_1" xmlns="http://www.w3.org/2000/svg" xmlns:xlink="http://www.w3.org/1999/xlink" x="0px" y="0px"
	 viewBox="0 0 464 464" style="enable-background:new 0 0 464 464;" xml:space="preserve">
<rect x="72" y="72" style="fill:#00F2A9;" width="320" height="32"/>
<g>
	<path style="fill:#322153;" d="M104,96c-4.424,0-8,3.576-8,8v320c0,22.056,17.944,40,40,40h192c22.056,0,40-17.944,40-40V104
		c0-4.424-3.576-8-8-8H104z M352,424c0,13.232-10.768,24-24,24H136c-13.232,0-24-10.768-24-24V112h240V424z"/>
	<path style="fill:#322153;" d="M400,72V40c0-4.424-3.576-8-8-8H271.192C267.472,13.768,251.312,0,232,0s-35.472,13.768-39.192,32
		H72c-4.424,0-8,3.576-8,8v32c0,4.424,3.576,8,8,8h320C396.424,80,400,76.424,400,72z M232,16c10.416,0,19.216,6.712,22.528,16
		H209.48C212.784,22.712,221.584,16,232,16z M384,64H80V48h304V64z"/>
	<path style="fill:#322153;" d="M168,400c4.424,0,8-3.576,8-8V168c0-4.424-3.576-8-8-8s-8,3.576-8,8v224
		C160,396.424,163.576,400,168,400z"/>
	<path style="fill:#322153;" d="M232,400c4.424,0,8-3.576,8-8V168c0-4.424-3.576-8-8-8s-8,3.576-8,8v224
		C224,396.424,227.576,400,232,400z"/>
	<path style="fill:#322153;" d="M296,400c4.424,0,8-3.576,8-8V168c0-4.424-3.576-8-8-8s-8,3.576-8,8v224
		C288,396.424,291.576,400,296,400z"/>
</g>
<g>
</g>
<g>
</g>
<g>
</g>
<g>
</g>
<g>
</g>
<g>
</g>
<g>
</g>
<g>
</g>
<g>
</g>
<g>
</g>
<g>
</g>
<g>
</g>
<g>
</g>
<g>
</g>
<g>
</g>
</svg>
