<?xml version="1.0" encoding="iso-8859-1"?>
<!-- Generator: Adobe Illustrator 19.0.0, SVG Export Plug-In . SVG Version: 6.00 Build 0)  -->
<svg version="1.1" id="Capa_1" xmlns="http://www.w3.org/2000/svg" xmlns:xlink="http://www.w3.org/1999/xlink" x="0px" y="0px"
	 viewBox="0 0 488 488" style="enable-background:new 0 0 488 488;" xml:space="preserve">
<path style="fill:#00F2A9;" d="M436,232h-35.216c-4.144-20.424-12.224-39.4-23.344-56.192l24.944-24.944
	c12.496-12.496,12.496-32.76,0-45.256s-32.76-12.496-45.256,0l-24.944,24.944c-16.792-11.12-35.768-19.2-56.192-23.344V72
	c0-17.672-14.328-32-32-32s-32,14.328-32,32v35.216c-20.424,4.144-39.4,12.224-56.192,23.344l-24.944-24.944
	c-12.496-12.496-32.76-12.496-45.256,0s-12.496,32.76,0,45.256l24.944,24.944c-11.12,16.792-19.2,35.768-23.344,56.192H52
	c-17.672,0-32,14.328-32,32s14.328,32,32,32h35.216c4.144,20.424,12.224,39.4,23.344,56.192l-24.944,24.944
	c-12.496,12.496-12.496,32.76,0,45.256s32.76,12.496,45.256,0l24.944-24.944c16.792,11.12,35.768,19.2,56.192,23.344V456
	c0,17.672,14.328,32,32,32s32-14.328,32-32v-35.216c20.424-4.144,39.4-12.224,56.192-23.344l24.944,24.944
	c12.496,12.496,32.76,12.496,45.256,0s12.496-32.76,0-45.256l-24.944-24.944c11.12-16.792,19.2-35.768,23.344-56.192H436
	c17.672,0,32-14.328,32-32C468,246.328,453.672,232,436,232z M244,360c-53.016,0-96-42.984-96-96s42.984-96,96-96s96,42.984,96,96
	S297.016,360,244,360z"/>
<g>
	<path style="fill:#322153;" d="M244,128c-57.344,0-104,46.656-104,104s46.656,104,104,104s104-46.656,104-104S301.344,128,244,128z
		 M244,320c-48.52,0-88-39.48-88-88s39.48-88,88-88s88,39.48,88,88S292.52,320,244,320z"/>
	<path style="fill:#322153;" d="M436,192h-28.808c-4.056-16.576-10.608-32.36-19.56-47.064l20.416-20.424
		c7.552-7.544,11.72-17.592,11.72-28.28s-4.168-20.736-11.72-28.28c-7.544-7.552-17.592-11.72-28.28-11.72
		s-20.736,4.168-28.28,11.72l-20.424,20.416C316.36,79.416,300.576,72.864,284,68.808V40c0-22.056-17.944-40-40-40s-40,17.944-40,40
		v28.808c-16.576,4.056-32.36,10.608-47.064,19.56l-20.424-20.416c-7.544-7.552-17.592-11.72-28.28-11.72s-20.736,4.168-28.28,11.72
		c-7.552,7.544-11.72,17.592-11.72,28.28s4.168,20.736,11.72,28.28l20.416,20.424C91.416,159.64,84.864,175.424,80.808,192H52
		c-22.056,0-40,17.944-40,40s17.944,40,40,40h28.808c4.056,16.576,10.608,32.36,19.56,47.064l-20.416,20.424
		c-7.552,7.544-11.72,17.592-11.72,28.28s4.168,20.736,11.72,28.28c7.544,7.552,17.592,11.72,28.28,11.72s20.736-4.168,28.28-11.72
		l20.424-20.416c14.704,8.952,30.488,15.504,47.064,19.56V424c0,22.056,17.944,40,40,40s40-17.944,40-40v-28.808
		c16.576-4.056,32.36-10.608,47.064-19.56l20.424,20.416c7.544,7.552,17.592,11.72,28.28,11.72s20.736-4.168,28.28-11.72
		c7.552-7.544,11.72-17.592,11.72-28.28s-4.168-20.736-11.72-28.28l-20.416-20.424c8.952-14.704,15.504-30.488,19.56-47.064H436
		c22.056,0,40-17.944,40-40S458.056,192,436,192z M436,256h-35.208c-3.808,0-7.088,2.68-7.84,6.408
		c-3.856,19.024-11.32,36.984-22.168,53.368c-2.104,3.168-1.672,7.384,1.016,10.072l24.944,24.952
		c4.528,4.528,7.032,10.552,7.032,16.968s-2.504,12.44-7.032,16.968c-9.064,9.064-24.872,9.064-33.936,0l-24.952-24.944
		c-2.696-2.696-6.92-3.104-10.072-1.016c-16.384,10.848-34.344,18.312-53.368,22.168c-3.736,0.76-6.416,4.04-6.416,7.848V424
		c0,13.232-10.768,24-24,24s-24-10.768-24-24v-35.208c0-3.808-2.68-7.088-6.408-7.84c-19.024-3.856-36.984-11.32-53.368-22.168
		c-1.344-0.888-2.88-1.328-4.416-1.328c-2.064,0-4.112,0.8-5.656,2.344L125.2,384.744c-9.064,9.064-24.872,9.064-33.936,0
		c-4.528-4.528-7.032-10.552-7.032-16.968s2.504-12.44,7.032-16.968l24.944-24.952c2.688-2.688,3.12-6.896,1.016-10.072
		c-10.848-16.384-18.312-34.344-22.168-53.368c-0.76-3.736-4.04-6.416-7.848-6.416H52c-13.232,0-24-10.768-24-24s10.768-24,24-24
		h35.208c3.808,0,7.088-2.68,7.84-6.408c3.856-19.024,11.32-36.984,22.168-53.368c2.104-3.168,1.672-7.384-1.016-10.072
		L91.256,113.2c-4.528-4.528-7.032-10.552-7.032-16.968s2.504-12.44,7.032-16.968c9.064-9.064,24.872-9.064,33.936,0l24.952,24.944
		c2.696,2.696,6.92,3.104,10.072,1.016c16.384-10.848,34.344-18.312,53.368-22.168c3.736-0.76,6.416-4.04,6.416-7.848V40
		c0-13.232,10.768-24,24-24s24,10.768,24,24v35.208c0,3.808,2.68,7.088,6.408,7.84c19.024,3.856,36.984,11.32,53.368,22.168
		c3.152,2.088,7.376,1.68,10.072-1.016L362.8,79.256c9.064-9.064,24.872-9.064,33.936,0c4.528,4.528,7.032,10.552,7.032,16.968
		s-2.504,12.44-7.032,16.968l-24.944,24.952c-2.688,2.688-3.12,6.896-1.016,10.072c10.848,16.384,18.312,34.344,22.168,53.368
		c0.76,3.736,4.04,6.416,7.848,6.416H436c13.232,0,24,10.768,24,24S449.232,256,436,256z"/>
	<path style="fill:#322153;" d="M244,352c-66.168,0-120-53.832-120-120c0-4.424-3.576-8-8-8s-8,3.576-8,8
		c0,74.992,61.008,136,136,136c4.424,0,8-3.576,8-8S248.424,352,244,352z"/>
	<path style="fill:#322153;" d="M244,96c-4.424,0-8,3.576-8,8c0,4.424,3.576,8,8,8c66.168,0,120,53.832,120,120c0,4.424,3.576,8,8,8
		s8-3.576,8-8C380,157.008,318.992,96,244,96z"/>
</g>
<g>
</g>
<g>
</g>
<g>
</g>
<g>
</g>
<g>
</g>
<g>
</g>
<g>
</g>
<g>
</g>
<g>
</g>
<g>
</g>
<g>
</g>
<g>
</g>
<g>
</g>
<g>
</g>
<g>
</g>
</svg>
