<?xml version="1.0" encoding="iso-8859-1"?>
<!-- Generator: Adobe Illustrator 19.0.0, SVG Export Plug-In . SVG Version: 6.00 Build 0)  -->
<svg version="1.1" id="Capa_1" xmlns="http://www.w3.org/2000/svg" xmlns:xlink="http://www.w3.org/1999/xlink" x="0px" y="0px"
	 viewBox="0 0 464 464" style="enable-background:new 0 0 464 464;" xml:space="preserve">
<path style="fill:#00F2A9;" d="M424,168H40c-17.672,0-32,14.328-32,32v32h448v-32C456,182.328,441.672,168,424,168z"/>
<g>
	<path style="fill:#322153;" d="M104.08,160H104c-4.416,0-7.96,3.576-7.96,8s3.624,8,8.04,8s8-3.576,8-8S108.504,160,104.08,160z"/>
	<path style="fill:#322153;" d="M72.08,160H72c-4.416,0-7.96,3.576-7.96,8s3.624,8,8.04,8s8-3.576,8-8S76.504,160,72.08,160z"/>
	<path style="fill:#322153;" d="M40.08,160H40c-4.416,0-7.96,3.576-7.96,8s3.624,8,8.04,8s8-3.576,8-8S44.504,160,40.08,160z"/>
	<path style="fill:#322153;" d="M441.4,132.152c-11.528-24.128-26.976-45.936-45.944-64.776
		c-13.816-13.704-29.384-25.688-46.296-35.592C313.704,10.992,273.184,0,232,0c-41.008,0-81.376,10.896-116.72,31.528
		c-17.104,9.976-32.824,22.04-46.728,35.84c-18.976,18.848-34.424,40.64-45.96,64.776C9.272,138.656,0,152.208,0,168v32v224
		c0,22.056,17.944,40,40,40h384c22.056,0,40-17.944,40-40V200v-32C464,152.208,454.72,138.648,441.4,132.152z M94.464,128
		c1.328-4.992,2.608-9.992,4.096-14.928c0.232-0.768,0.424-1.544,0.664-2.304c1.904-6.192,4.064-12.248,6.208-18.312
		c1.664,0.512,3.328,0.952,4.992,1.448c2.288,0.672,4.568,1.352,6.856,1.992c3.136,0.872,6.272,1.688,9.408,2.488
		c2.16,0.552,4.312,1.128,6.472,1.64c3.512,0.848,7.032,1.608,10.552,2.368c1.776,0.384,3.552,0.8,5.336,1.16
		c5.272,1.064,10.552,2.04,15.824,2.904c0.72,0.12,1.448,0.2,2.168,0.32c4.592,0.728,9.184,1.392,13.768,1.968
		c1.768,0.224,3.536,0.384,5.304,0.584c3.544,0.4,7.088,0.784,10.624,1.088c2.016,0.176,4.032,0.304,6.048,0.448
		c3.288,0.24,6.576,0.456,9.856,0.608c2.12,0.104,4.232,0.176,6.344,0.24c1.672,0.056,3.352,0.16,5.024,0.192V128H94.464z
		 M338.92,44.344c2.848,5.816,5.616,11.752,8.256,17.816c0.68,1.552,1.304,3.152,1.96,4.72c1.44,3.416,2.8,6.896,4.176,10.376
		c-1.44,0.44-2.88,0.896-4.328,1.328c-2.168,0.64-4.344,1.272-6.512,1.88c-3.016,0.84-6.04,1.632-9.064,2.408
		c-2.088,0.536-4.168,1.08-6.256,1.584c-3.312,0.8-6.624,1.52-9.936,2.232c-1.776,0.384-3.56,0.8-5.344,1.16
		c-4.912,0.992-9.832,1.904-14.744,2.72c-0.392,0.064-0.792,0.128-1.184,0.192c-4.864,0.792-9.72,1.488-14.576,2.096
		c-1.72,0.216-3.432,0.376-5.144,0.568c-3.376,0.384-6.76,0.752-10.136,1.048c-2.008,0.176-4.016,0.304-6.024,0.448
		c-3.072,0.224-6.144,0.424-9.216,0.576c-2.136,0.104-4.264,0.176-6.392,0.248c-1.496,0.048-2.984,0.064-4.472,0.096V16.152
		C274.752,17.44,308.744,27.12,338.92,44.344z M240,111.92c1.672-0.032,3.352-0.136,5.024-0.192
		c2.144-0.072,4.288-0.144,6.432-0.248c3.224-0.152,6.456-0.368,9.688-0.6c2.104-0.152,4.208-0.288,6.312-0.472
		c3.432-0.296,6.864-0.672,10.304-1.064c1.88-0.208,3.768-0.392,5.648-0.624c4.472-0.56,8.944-1.216,13.416-1.928
		c0.848-0.136,1.688-0.232,2.528-0.368c5.288-0.872,10.584-1.856,15.872-2.928c1.696-0.344,3.384-0.744,5.08-1.112
		c3.632-0.784,7.264-1.576,10.896-2.448c2.032-0.488,4.056-1.032,6.088-1.552c3.32-0.848,6.64-1.712,9.952-2.648
		c2.096-0.584,4.192-1.208,6.288-1.832c1.792-0.528,3.592-1.008,5.384-1.568c2.144,6.064,4.304,12.128,6.2,18.352
		c0.2,0.656,0.368,1.336,0.568,1.992c1.52,5.064,2.816,10.2,4.16,15.32H240V111.92z M386.56,128
		c-1.8-7.112-3.776-14.16-5.888-21.136c-0.256-0.856-0.56-1.68-0.824-2.528c-1.768-5.72-3.584-11.424-5.552-17.016
		c0.896-0.312,1.768-0.648,2.656-0.968c2.36-0.832,4.68-1.688,7.016-2.552c1.272-0.472,2.568-0.912,3.832-1.392
		c13.16,13.696,24.392,28.976,33.512,45.584H386.56V128z M374.792,69.96c-2.048,0.744-4.072,1.496-6.136,2.208
		c-1.44-3.672-2.92-7.328-4.448-10.944C367.84,64.024,371.36,66.944,374.792,69.96z M224,95.832
		c-1.488-0.032-2.968-0.048-4.456-0.096c-2.12-0.064-4.248-0.144-6.368-0.248c-3.04-0.144-6.08-0.344-9.12-0.568
		c-2.04-0.144-4.072-0.28-6.112-0.456c-3.296-0.288-6.6-0.648-9.896-1.016c-1.776-0.2-3.552-0.368-5.328-0.592
		c-4.808-0.608-9.624-1.288-14.44-2.072c-0.416-0.064-0.84-0.136-1.256-0.2c-4.896-0.808-9.8-1.712-14.704-2.704
		c-1.704-0.344-3.408-0.744-5.12-1.112c-3.392-0.728-6.784-1.472-10.176-2.28c-1.976-0.472-3.944-0.992-5.92-1.496
		c-3.152-0.8-6.296-1.624-9.448-2.504c-2.024-0.56-4.04-1.152-6.064-1.744c-1.52-0.448-3.04-0.928-4.552-1.392
		c1.368-3.488,2.736-6.984,4.176-10.416c0.68-1.608,1.32-3.248,2.008-4.84c2.648-6.112,5.424-12.104,8.28-17.992
		c30.072-17.08,63.92-26.664,98.496-27.952V95.832z M95.656,72.392c-1.672-0.576-3.352-1.128-5.016-1.72
		c-0.376-0.136-0.76-0.264-1.136-0.4c-0.152-0.056-0.304-0.12-0.456-0.168c3.656-3.224,7.432-6.328,11.312-9.312
		C98.744,64.624,97.176,68.504,95.656,72.392z M76.208,82.416c1.256,0.48,2.552,0.92,3.824,1.392
		c2.392,0.888,4.784,1.768,7.216,2.624c0.944,0.336,1.864,0.696,2.816,1.024c-1.968,5.568-3.784,11.232-5.552,16.912
		c-0.272,0.88-0.592,1.736-0.856,2.616c-2.12,6.952-4.104,13.968-5.92,21.024h-35.04C51.816,111.392,63.048,96.112,76.208,82.416z
		 M16,168c0-13.232,10.768-24,24-24h43.976H232h148.296H424c13.232,0,24,10.768,24,24v24H16V168z M424,448H40
		c-13.232,0-24-10.768-24-24V208h432v216C448,437.232,437.232,448,424,448z"/>
	<path style="fill:#322153;" d="M200,416H40c-4.416,0-8,3.576-8,8s3.584,8,8,8h160c4.416,0,8-3.576,8-8S204.416,416,200,416z"/>
	<path style="fill:#322153;" d="M424,384H40c-4.416,0-8,3.576-8,8s3.584,8,8,8h384c4.424,0,8-3.576,8-8S428.424,384,424,384z"/>
	<path style="fill:#322153;" d="M424,224H40c-4.416,0-8,3.576-8,8v128c0,4.424,3.584,8,8,8h384c4.424,0,8-3.576,8-8V232
		C432,227.576,428.424,224,424,224z M416,352H48V240h368V352z"/>
</g>
<g>
</g>
<g>
</g>
<g>
</g>
<g>
</g>
<g>
</g>
<g>
</g>
<g>
</g>
<g>
</g>
<g>
</g>
<g>
</g>
<g>
</g>
<g>
</g>
<g>
</g>
<g>
</g>
<g>
</g>
</svg>
