<?xml version="1.0" encoding="iso-8859-1"?>
<!-- Generator: Adobe Illustrator 19.0.0, SVG Export Plug-In . SVG Version: 6.00 Build 0)  -->
<svg version="1.1" id="Capa_1" xmlns="http://www.w3.org/2000/svg" xmlns:xlink="http://www.w3.org/1999/xlink" x="0px" y="0px"
	 viewBox="0 0 488 488" style="enable-background:new 0 0 488 488;" xml:space="preserve">
<circle style="fill:#00F2A9;" cx="356" cy="376" r="112"/>
<g>
	<path style="fill:#322153;" d="M356,288c-30.872,0-56,25.128-56,56s25.128,56,56,56s56-25.128,56-56S386.872,288,356,288z M356,384
		c-22.056,0-40-17.944-40-40s17.944-40,40-40s40,17.944,40,40S378.056,384,356,384z"/>
	<path style="fill:#322153;" d="M356,224h-12.688l-29.656-29.656C312.16,192.84,310.128,192,308,192h-24v-24
		c0-2.128-0.84-4.16-2.344-5.656l-32-32c-3.128-3.128-8.184-3.128-11.312,0L220,148.688V104c0-2.128-0.84-4.16-2.344-5.656l-32-32
		C184.16,64.84,182.128,64,180,64h-24V40c0-2.128-0.84-4.16-2.344-5.656l-32-32C120.16,0.84,118.128,0,116,0H20
		c-1.04,0-2.08,0.208-3.056,0.616c-1.96,0.808-3.52,2.368-4.328,4.328C12.208,5.92,12,6.96,12,8v96c0,2.128,0.84,4.16,2.344,5.656
		l32,32C47.84,143.16,49.872,144,52,144h24v24c0,2.128,0.84,4.16,2.344,5.656l32,32C111.84,207.16,113.872,208,116,208h44.688
		l-18.344,18.344c-3.128,3.128-3.128,8.184,0,11.312l32,32C175.84,271.16,177.872,272,180,272h24v24c0,2.128,0.84,4.16,2.344,5.656
		L236,331.312V344c0,66.168,53.832,120,120,120s120-53.832,120-120S422.168,224,356,224z M220,292.688V264c0-4.424-3.576-8-8-8
		h-28.688l-24-24l26.344-26.344c2.288-2.288,2.976-5.728,1.736-8.72C186.16,193.944,183.232,192,180,192h-60.688L92,164.688V136
		c0-4.424-3.576-8-8-8H55.312L28,100.688V27.312L136.688,136l-26.344,26.344c-3.128,3.128-3.128,8.184,0,11.312
		c1.56,1.56,3.608,2.344,5.656,2.344c2.048,0,4.096-0.784,5.656-2.344L148,147.312l26.344,26.344c1.56,1.56,3.608,2.344,5.656,2.344
		s4.096-0.784,5.656-2.344c3.128-3.128,3.128-8.184,0-11.312L159.312,136l26.344-26.344c3.128-3.128,3.128-8.184,0-11.312
		s-8.184-3.128-11.312,0L148,124.688L95.312,72l26.344-26.344c3.128-3.128,3.128-8.184,0-11.312s-8.184-3.128-11.312,0L84,60.688
		L39.312,16h73.376L140,43.312V72c0,4.424,3.576,8,8,8h28.688L204,107.312V168c0,3.232,1.944,6.16,4.936,7.392
		c2.984,1.24,6.432,0.552,8.72-1.736L244,147.312l24,24V200c0,4.424,3.576,8,8,8h28.688l20.232,20.232
		c-41.192,11.072-73.616,43.496-84.688,84.688L220,292.688z M356,448c-57.344,0-104-46.656-104-104s46.656-104,104-104
		s104,46.656,104,104S413.344,448,356,448z"/>
	<path style="fill:#322153;" d="M356,416c-39.704,0-72-32.296-72-72c0-4.424-3.576-8-8-8s-8,3.576-8,8c0,48.52,39.48,88,88,88
		c4.424,0,8-3.576,8-8S360.424,416,356,416z"/>
	<path style="fill:#322153;" d="M356,256c-4.424,0-8,3.576-8,8s3.576,8,8,8c39.704,0,72,32.296,72,72c0,4.424,3.576,8,8,8
		s8-3.576,8-8C444,295.48,404.52,256,356,256z"/>
	<path style="fill:#322153;" d="M217.656,194.344c-3.128-3.128-8.184-3.128-11.312,0s-3.128,8.184,0,11.312L236,235.312V264
		c0,4.424,3.576,8,8,8c4.424,0,8-3.576,8-8v-32c0-2.128-0.84-4.16-2.344-5.656L217.656,194.344z"/>
</g>
<g>
</g>
<g>
</g>
<g>
</g>
<g>
</g>
<g>
</g>
<g>
</g>
<g>
</g>
<g>
</g>
<g>
</g>
<g>
</g>
<g>
</g>
<g>
</g>
<g>
</g>
<g>
</g>
<g>
</g>
</svg>
