<?xml version="1.0" encoding="iso-8859-1"?>
<!-- Generator: Adobe Illustrator 19.0.0, SVG Export Plug-In . SVG Version: 6.00 Build 0)  -->
<svg version="1.1" id="Capa_1" xmlns="http://www.w3.org/2000/svg" xmlns:xlink="http://www.w3.org/1999/xlink" x="0px" y="0px"
	 viewBox="0 0 464 464" style="enable-background:new 0 0 464 464;" xml:space="preserve">
<path style="fill:#00F2A9;" d="M424,72H40C22.328,72,8,86.328,8,104v224c0,17.672,14.328,32,32,32h384c17.672,0,32-14.328,32-32V104
	C456,86.328,441.672,72,424,72z M424,296c-17.672,0-32,14.328-32,32H72c0-17.672-14.328-32-32-32V136c17.672,0,32-14.328,32-32h320
	c0,17.672,14.328,32,32,32V296z"/>
<g>
	<path style="fill:#322153;" d="M424,32H40C17.944,32,0,49.944,0,72v224c0,22.056,17.944,40,40,40h384c22.056,0,40-17.944,40-40V72
		C464,49.944,446.056,32,424,32z M448,296c0,13.232-10.768,24-24,24H40c-13.232,0-24-10.768-24-24V72c0-13.232,10.768-24,24-24h384
		c13.232,0,24,10.768,24,24V296z"/>
	<path style="fill:#322153;" d="M424,96c-13.232,0-24-10.768-24-24c0-4.424-3.576-8-8-8H72c-4.416,0-8,3.576-8,8
		c0,13.232-10.768,24-24,24c-4.416,0-8,3.576-8,8v160c0,4.424,3.584,8,8,8c13.232,0,24,10.768,24,24c0,4.424,3.584,8,8,8h320
		c4.424,0,8-3.576,8-8c0-13.232,10.768-24,24-24c4.424,0,8-3.576,8-8V104C432,99.576,428.424,96,424,96z M416,256.808
		c-15.648,3.184-28.008,15.544-31.192,31.192H79.192C76.008,272.352,63.648,259.992,48,256.808V111.192
		C63.648,108.008,76.008,95.648,79.192,80H384.8c3.184,15.648,15.544,28.008,31.192,31.192v145.616H416z"/>
	<path style="fill:#322153;" d="M232,112c-39.696,0-72,32.296-72,72s32.304,72,72,72c39.704,0,72-32.296,72-72S271.704,112,232,112z
		 M232,240c-30.88,0-56-25.128-56-56s25.12-56,56-56c30.872,0,56,25.128,56,56S262.872,240,232,240z"/>
	<path style="fill:#322153;" d="M344.752,159.504c-13.376,0-24.248,10.872-24.248,24.248S331.376,208,344.752,208
		S369,197.128,369,183.752S358.128,159.504,344.752,159.504z M344.752,192c-4.544,0-8.248-3.704-8.248-8.248
		s3.704-8.248,8.248-8.248s8.248,3.704,8.248,8.248S349.296,192,344.752,192z"/>
	<path style="fill:#322153;" d="M120,160c-13.232,0-24,10.768-24,24s10.768,24,24,24s24-10.768,24-24S133.232,160,120,160z M120,192
		c-4.408,0-8-3.584-8-8s3.592-8,8-8s8,3.584,8,8S124.408,192,120,192z"/>
	<path style="fill:#322153;" d="M456,352H8c-4.416,0-8,3.576-8,8s3.584,8,8,8h448c4.424,0,8-3.576,8-8S460.424,352,456,352z"/>
	<path style="fill:#322153;" d="M456,384H8c-4.416,0-8,3.576-8,8s3.584,8,8,8h448c4.424,0,8-3.576,8-8S460.424,384,456,384z"/>
	<path style="fill:#322153;" d="M456,416H8c-4.416,0-8,3.576-8,8s3.584,8,8,8h448c4.424,0,8-3.576,8-8S460.424,416,456,416z"/>
</g>
<g>
</g>
<g>
</g>
<g>
</g>
<g>
</g>
<g>
</g>
<g>
</g>
<g>
</g>
<g>
</g>
<g>
</g>
<g>
</g>
<g>
</g>
<g>
</g>
<g>
</g>
<g>
</g>
<g>
</g>
</svg>
