<?xml version="1.0" encoding="iso-8859-1"?>
<!-- Generator: Adobe Illustrator 19.0.0, SVG Export Plug-In . SVG Version: 6.00 Build 0)  -->
<svg version="1.1" id="Capa_1" xmlns="http://www.w3.org/2000/svg" xmlns:xlink="http://www.w3.org/1999/xlink" x="0px" y="0px"
	 viewBox="0 0 464 464" style="enable-background:new 0 0 464 464;" xml:space="preserve">
<g>
	<path style="fill:#00F2A9;" d="M104,264c-32,0-32,32-32,32v32c0,0,32,0,32-32S104,264,104,264z"/>
	<circle style="fill:#00F2A9;" cx="168" cy="104" r="32"/>
	<circle style="fill:#00F2A9;" cx="232" cy="72" r="32"/>
	<circle style="fill:#00F2A9;" cx="296" cy="104" r="32"/>
	<circle style="fill:#00F2A9;" cx="360" cy="200" r="32"/>
</g>
<path style="fill:#322153;" d="M64,264v32v50.744c0,10.688,4.16,20.736,11.712,28.288l45.256,45.248
	c4.536,4.536,7.032,10.56,7.032,16.976V456c0,4.424,3.584,8,8,8s8-3.576,8-8v-18.744c0-10.688-4.16-20.736-11.712-28.288
	L87.032,363.72C82.496,359.184,80,353.16,80,346.744v-43.576c14.032-2.728,32-12.936,32-39.168v-22.528
	c9.288,3.312,16,12.112,16,22.528v64c0,4.424,3.584,8,8,8s8-3.576,8-8v-64V103.792c6.704,5.08,14.96,8.208,24,8.208
	s17.296-3.128,24-8.208V296c0,4.424,3.584,8,8,8s8-3.576,8-8V72v-0.208c6.704,5.08,14.96,8.208,24,8.208
	c9.04,0,17.296-3.128,24-8.208V296c0,4.424,3.576,8,8,8s8-3.576,8-8V103.792c6.704,5.08,14.96,8.208,24,8.208
	c9.04,0,17.296-3.128,24-8.208V328c0,4.424,3.576,8,8,8s8-3.576,8-8V199.792c6.704,5.08,14.96,8.208,24,8.208
	c9.04,0,17.296-3.128,24-8.208v146.944c0,6.416-2.504,12.448-7.032,16.976L331.72,408.96c-7.552,7.56-11.72,17.608-11.72,28.296V456
	c0,4.424,3.576,8,8,8s8-3.576,8-8v-18.744c0-6.416,2.504-12.448,7.032-16.976l45.248-45.248c7.552-7.552,11.72-17.6,11.72-28.288
	V168c0-22.056-17.944-40-40-40c-9.04,0-17.296,3.128-24,8.208V72c0-22.056-17.944-40-40-40c-9.04,0-17.296,3.128-24,8.208V40
	c0-22.056-17.944-40-40-40s-40,17.944-40,40v0.208C185.296,35.128,177.04,32,168,32c-22.056,0-40,17.944-40,40v160.208
	c-6.704-5.08-14.96-8.208-24-8.208c-26.072,0-36.312,17.752-39.12,31.744c-0.04,0.184-0.064,0.376-0.096,0.56
	C64.256,259.08,64,261.72,64,264z M360,144c13.232,0,24,10.768,24,24s-10.768,24-24,24s-24-10.768-24-24S346.768,144,360,144z
	 M296,48c13.232,0,24,10.768,24,24s-10.768,24-24,24s-24-10.768-24-24S282.768,48,296,48z M232,16c13.232,0,24,10.768,24,24
	s-10.768,24-24,24s-24-10.768-24-24S218.768,16,232,16z M168,48c13.232,0,24,10.768,24,24s-10.768,24-24,24s-24-10.768-24-24
	S154.768,48,168,48z M80,286.776v-22.728c0-0.024,0-0.064,0.008-0.088c0-1.6,0.168-3.152,0.472-4.664
	c0.016-0.096,0.048-0.208,0.064-0.304c1.744-8.184,7.696-14.752,15.456-17.52V264C96,279.048,87.112,284.68,80,286.776z"/>
<g>
</g>
<g>
</g>
<g>
</g>
<g>
</g>
<g>
</g>
<g>
</g>
<g>
</g>
<g>
</g>
<g>
</g>
<g>
</g>
<g>
</g>
<g>
</g>
<g>
</g>
<g>
</g>
<g>
</g>
</svg>
