<?xml version="1.0" encoding="iso-8859-1"?>
<!-- Generator: Adobe Illustrator 19.0.0, SVG Export Plug-In . SVG Version: 6.00 Build 0)  -->
<svg version="1.1" id="Capa_1" xmlns="http://www.w3.org/2000/svg" xmlns:xlink="http://www.w3.org/1999/xlink" x="0px" y="0px"
	 viewBox="0 0 464 464" style="enable-background:new 0 0 464 464;" xml:space="preserve">
<g>
	<path style="fill:#00F2A9;" d="M232,104c-35.344,0-64,28.656-64,64s28.656,64,64,64s64-28.656,64-64S267.344,104,232,104z M232,200
		c-17.672,0-32-14.328-32-32s14.328-32,32-32s32,14.328,32,32S249.672,200,232,200z"/>
	<path style="fill:#00F2A9;" d="M72,360c35.344,0,64-28.656,64-64s-28.656-64-64-64S8,260.656,8,296S36.656,360,72,360z M72,264
		c17.672,0,32,14.328,32,32s-14.328,32-32,32s-32-14.328-32-32S54.328,264,72,264z"/>
	<path style="fill:#00F2A9;" d="M392,296c-35.344,0-64,28.656-64,64s28.656,64,64,64s64-28.656,64-64S427.344,296,392,296z M392,392
		c-17.672,0-32-14.328-32-32s14.328-32,32-32s32,14.328,32,32S409.672,392,392,392z"/>
</g>
<g>
	<path style="fill:#322153;" d="M240,64.472V16h24c4.424,0,8-3.576,8-8s-3.576-8-8-8h-64c-4.424,0-8,3.576-8,8s3.576,8,8,8h24
		v48.472C188.056,68.464,160,99,160,136s28.056,67.536,64,71.528V224h-24c-4.424,0-8,3.576-8,8c0,4.424,3.576,8,8,8h24v112h-24
		c-4.424,0-8,3.576-8,8s3.576,8,8,8h24v80h-24c-4.424,0-8,3.576-8,8s3.576,8,8,8h64c4.424,0,8-3.576,8-8s-3.576-8-8-8h-24V207.528
		C275.944,203.536,304,173,304,136S275.944,68.464,240,64.472z M232,192c-30.872,0-56-25.128-56-56s25.128-56,56-56s56,25.128,56,56
		S262.872,192,232,192z"/>
	<path style="fill:#322153;" d="M232,96c-22.056,0-40,17.944-40,40s17.944,40,40,40s40-17.944,40-40S254.056,96,232,96z M232,160
		c-13.232,0-24-10.768-24-24s10.768-24,24-24s24,10.768,24,24S245.232,160,232,160z"/>
	<path style="fill:#322153;" d="M32,264c0,22.056,17.944,40,40,40s40-17.944,40-40s-17.944-40-40-40S32,241.944,32,264z M96,264
		c0,13.232-10.768,24-24,24s-24-10.768-24-24s10.768-24,24-24S96,250.768,96,264z"/>
	<path style="fill:#322153;" d="M0,264c0,37,28.056,67.536,64,71.528V352H40c-4.424,0-8,3.576-8,8s3.576,8,8,8h24v80H40
		c-4.424,0-8,3.576-8,8s3.576,8,8,8h64c4.424,0,8-3.576,8-8s-3.576-8-8-8H80V335.528C115.944,331.536,144,301,144,264
		s-28.056-67.536-64-71.528V16h24c4.424,0,8-3.576,8-8s-3.576-8-8-8H40c-4.424,0-8,3.576-8,8s3.576,8,8,8h24v80H40
		c-4.424,0-8,3.576-8,8c0,4.424,3.576,8,8,8h24v80.472C28.056,196.464,0,227,0,264z M128,264c0,30.872-25.128,56-56,56
		s-56-25.128-56-56s25.128-56,56-56S128,233.128,128,264z"/>
	<path style="fill:#322153;" d="M400,256.472V16h24c4.424,0,8-3.576,8-8s-3.576-8-8-8h-64c-4.424,0-8,3.576-8,8s3.576,8,8,8h24v80
		h-24c-4.424,0-8,3.576-8,8c0,4.424,3.576,8,8,8h24v112h-24c-4.424,0-8,3.576-8,8c0,4.424,3.576,8,8,8h24v16.472
		C348.056,260.464,320,291,320,328s28.056,67.536,64,71.528V448h-24c-4.424,0-8,3.576-8,8s3.576,8,8,8h64c4.424,0,8-3.576,8-8
		s-3.576-8-8-8h-24v-48.472C435.944,395.536,464,365,464,328S435.944,260.464,400,256.472z M392,384c-30.872,0-56-25.128-56-56
		s25.128-56,56-56s56,25.128,56,56S422.872,384,392,384z"/>
	<path style="fill:#322153;" d="M392,288c-22.056,0-40,17.944-40,40s17.944,40,40,40s40-17.944,40-40S414.056,288,392,288z M392,352
		c-13.232,0-24-10.768-24-24s10.768-24,24-24s24,10.768,24,24S405.232,352,392,352z"/>
</g>
<g>
</g>
<g>
</g>
<g>
</g>
<g>
</g>
<g>
</g>
<g>
</g>
<g>
</g>
<g>
</g>
<g>
</g>
<g>
</g>
<g>
</g>
<g>
</g>
<g>
</g>
<g>
</g>
<g>
</g>
</svg>
