<?xml version="1.0" encoding="iso-8859-1"?>
<!-- Generator: Adobe Illustrator 19.0.0, SVG Export Plug-In . SVG Version: 6.00 Build 0)  -->
<svg version="1.1" id="Capa_1" xmlns="http://www.w3.org/2000/svg" xmlns:xlink="http://www.w3.org/1999/xlink" x="0px" y="0px"
	 viewBox="0 0 464 464" style="enable-background:new 0 0 464 464;" xml:space="preserve">
<path style="fill:#00F2A9;" d="M232,360c53.016,0,96-42.984,96-96s-42.984-96-96-96s-96,42.984-96,96S178.984,360,232,360z M224,232
	l32,32l-32,32V232z"/>
<g>
	<path style="fill:#322153;" d="M456,16c4.424,0,8-3.576,8-8s-3.576-8-8-8H8C3.576,0,0,3.576,0,8s3.576,8,8,8h24v49.656
		c-18.424,5.16-32,22.072-32,42.12v248.456c0,20.048,13.576,36.96,32,42.12V448H8c-4.424,0-8,3.576-8,8s3.576,8,8,8h448
		c4.424,0,8-3.576,8-8s-3.576-8-8-8h-24v-49.656c18.424-5.16,32-22.072,32-42.12V107.776c0-20.048-13.576-36.96-32-42.12V16H456z
		 M304,64V16h48v48H304z M240,64V16h48v48H240z M176,64V16h48v48H176z M112,64V16h48v48H112z M96,16v48H48V16H96z M48,400h48v48H48
		V400z M160,400v48h-48v-48H160z M224,400v48h-48v-48H224z M288,400v48h-48v-48H288z M352,400v48h-48v-48H352z M368,448v-48h48v48
		H368z M448,107.776v248.456C448,371.536,435.536,384,420.224,384H43.776C28.464,384,16,371.536,16,356.224V107.776
		C16,92.464,28.464,80,43.776,80h376.456C435.536,80,448,92.464,448,107.776z M416,64h-48V16h48V64z"/>
	<path style="fill:#322153;" d="M232,128c-57.344,0-104,46.656-104,104s46.656,104,104,104s104-46.656,104-104S289.344,128,232,128z
		 M232,320c-48.52,0-88-39.48-88-88s39.48-88,88-88s88,39.48,88,88S280.52,320,232,320z"/>
	<path style="fill:#322153;" d="M229.656,194.344c-2.288-2.288-5.728-2.976-8.72-1.736C217.944,193.84,216,196.768,216,200v64
		c0,3.232,1.944,6.16,4.936,7.392c0.992,0.416,2.032,0.608,3.064,0.608c2.08,0,4.128-0.816,5.656-2.344l32-32
		c3.128-3.128,3.128-8.184,0-11.312L229.656,194.344z M232,244.688v-25.376L244.688,232L232,244.688z"/>
</g>
<g>
</g>
<g>
</g>
<g>
</g>
<g>
</g>
<g>
</g>
<g>
</g>
<g>
</g>
<g>
</g>
<g>
</g>
<g>
</g>
<g>
</g>
<g>
</g>
<g>
</g>
<g>
</g>
<g>
</g>
</svg>
