<?xml version="1.0" encoding="iso-8859-1"?>
<!-- Generator: Adobe Illustrator 19.0.0, SVG Export Plug-In . SVG Version: 6.00 Build 0)  -->
<svg version="1.1" id="Capa_1" xmlns="http://www.w3.org/2000/svg" xmlns:xlink="http://www.w3.org/1999/xlink" x="0px" y="0px"
	 viewBox="0 0 464 464" style="enable-background:new 0 0 464 464;" xml:space="preserve">
<path style="fill:#00F2A9;" d="M392,172c0-17.672-14.328-32-32-32H40c-17.672,0-32,14.328-32,32v160c0,17.672,14.328,32,32,32h320
	c17.672,0,32-14.328,32-32V172z"/>
<g>
	<path style="fill:#322153;" d="M424,132h-24.808c-3.72-18.232-19.872-32-39.192-32H40c-22.056,0-40,17.944-40,40v160
		c0,22.056,17.944,40,40,40h320c19.312,0,35.472-13.768,39.192-32H424c22.056,0,40-17.944,40-40v-96
		C464,149.944,446.056,132,424,132z M360,324H40c-13.232,0-24-10.768-24-24V140c0-13.232,10.768-24,24-24h320
		c13.232,0,24,10.768,24,24v160C384,313.232,373.232,324,360,324z M448,268c0,13.232-10.768,24-24,24h-24V148h24
		c13.232,0,24,10.768,24,24V268z"/>
	<path style="fill:#322153;" d="M290.344,166.344L232,224.688l-26.344-26.344c-3.128-3.128-8.184-3.128-11.312,0l-64,64
		c-3.128,3.128-3.128,8.184,0,11.312c1.56,1.56,3.608,2.344,5.656,2.344s4.096-0.784,5.656-2.344L200,215.312l26.344,26.344
		c3.128,3.128,8.184,3.128,11.312,0l64-64c3.128-3.128,3.128-8.184,0-11.312S293.472,163.216,290.344,166.344z"/>
	<path style="fill:#322153;" d="M104.008,132H72c-12.328,0-22.168,3.752-29.264,11.144C31.416,154.944,31.976,171.632,32,172v32
		c0,4.424,3.576,8,8,8s8-3.576,8-8v-32.288c0-0.104-0.24-10.776,6.36-17.568C58.328,150.064,64.248,148,72,148h32.008
		c4.416,0,8-3.576,8-8S108.424,132,104.008,132z"/>
	<path style="fill:#322153;" d="M360,132c-4.424,0-8,3.576-8,8v160c0,4.424,3.576,8,8,8s8-3.576,8-8V140
		C368,135.576,364.424,132,360,132z"/>
	<path style="fill:#322153;" d="M72,292c-7.472,0-13.256-2.024-17.208-6.008C48.016,279.16,48,268.344,48,268.128
		c0.072-4.4-3.432-8.032-7.832-8.128c-4.424-0.12-8.072,3.424-8.168,7.832c-0.016,0.712-0.224,17.52,11.28,29.272
		C50.36,304.336,60.024,308,72,308c4.424,0,8-3.576,8-8S76.424,292,72,292z"/>
</g>
<g>
</g>
<g>
</g>
<g>
</g>
<g>
</g>
<g>
</g>
<g>
</g>
<g>
</g>
<g>
</g>
<g>
</g>
<g>
</g>
<g>
</g>
<g>
</g>
<g>
</g>
<g>
</g>
<g>
</g>
</svg>
