<?xml version="1.0" encoding="iso-8859-1"?>
<!-- Generator: Adobe Illustrator 19.0.0, SVG Export Plug-In . SVG Version: 6.00 Build 0)  -->
<svg version="1.1" id="Capa_1" xmlns="http://www.w3.org/2000/svg" xmlns:xlink="http://www.w3.org/1999/xlink" x="0px" y="0px"
	 viewBox="0 0 454.558 454.558" style="enable-background:new 0 0 454.558 454.558;" xml:space="preserve">
<ellipse style="fill:#00F2A9;" cx="83.999" cy="390.558" rx="63.999" ry="63.999"/>
<g>
	<path style="fill:#322153;" d="M75.976,72.211v64.712v32.464v65.384v33.432v18.896c-15.688,1.736-30.912,8.56-42.912,20.56
		c-28.072,28.08-28.072,73.752,0,101.832c14.04,14.032,32.48,21.048,50.912,21.048s36.872-7.016,50.912-21.048
		c12-12,18.824-27.232,20.568-42.912h18.888h33.432h65.384h32.464h64.712h32.152c11.216,0,22.008-4.76,29.576-13.064
		c7.576-8.296,11.336-19.464,10.32-30.632c-7.656-83.976-42.584-157.616-103.84-218.856C277.288,42.747,203.648,7.819,119.672,0.163
		c-11.144-1.016-22.336,2.744-30.64,10.32c-8.296,7.576-13.056,18.352-13.056,29.576V72.211z M91.976,303.227
		c11.568,1.656,22.72,6.856,31.6,15.736s14.08,20.032,15.736,31.6h-23.336c-13.232,0-24-10.768-24-24V303.227z M123.576,398.163
		c-21.832,21.832-57.368,21.832-79.2,0s-21.832-57.368,0-79.2c8.88-8.872,20.032-14.08,31.6-15.736v23.336c0,22.056,17.944,40,40,40
		h23.336C137.656,378.131,132.456,389.283,123.576,398.163z M155.456,350.563c-1.736-15.688-8.568-30.912-20.568-42.912
		c-12-12-27.232-18.824-42.912-20.56v-18.896c0-7.888,3.704-15.032,10.152-19.576c4.176-2.944,8.992-4.456,13.896-4.456
		c2.768,0,5.552,0.488,8.28,1.456c16.728,5.976,32.12,15.688,44.52,28.096s22.12,27.8,28.096,44.512c2.696,7.56,1.6,15.648-3,22.184
		c-4.544,6.448-11.688,10.152-19.576,10.152H155.456z M206.256,350.563c0.24-0.32,0.512-0.6,0.744-0.928
		c7.528-10.688,9.392-24.44,4.984-36.792c-6.768-18.928-17.776-36.376-31.84-50.448c-14.064-14.072-31.512-25.08-50.456-31.84
		c-12.352-4.408-26.088-2.544-36.784,4.984c-0.328,0.232-0.608,0.504-0.928,0.744v-1.512c0-7.52,3.424-14.488,9.384-19.096
		c4.24-3.288,9.312-5.008,14.496-5.008c1.976,0,3.968,0.248,5.936,0.76c26.48,6.848,50.568,20.56,69.672,39.656
		c19.096,19.104,32.808,43.192,39.656,69.68c1.84,7.12,0.296,14.552-4.24,20.424c-4.616,5.952-11.584,9.376-19.104,9.376H206.256z
		 M239.808,350.563c7.352-9.744,9.84-22.032,6.792-33.816c-7.552-29.24-22.712-55.856-43.832-76.984
		c-21.128-21.12-47.744-36.272-76.984-43.832c-11.768-3.056-24.08-0.544-33.816,6.792v-33.352c0-7.12,3.128-13.832,8.576-18.432
		c4.36-3.672,9.808-5.64,15.392-5.64c1.344,0,2.696,0.12,4.048,0.344c44.024,7.56,85.48,28.928,116.72,60.168
		s52.608,72.696,60.168,116.728c1.192,6.936-0.736,14.024-5.296,19.432c-4.584,5.464-11.304,8.592-18.424,8.592H239.808z
		 M305.128,350.563c6.624-8.784,9.4-19.84,7.52-30.72c-8.12-47.264-31.064-91.776-64.624-125.328
		c-33.552-33.56-78.064-56.504-125.32-64.624c-10.896-1.88-21.944,0.896-30.728,7.52v-0.488c0-7.056,3.064-13.76,8.408-18.392
		c4.312-3.736,9.536-5.704,15.008-5.704c1.096,0,2.192,0.08,3.296,0.24c53.136,7.656,103.088,32.56,140.648,70.136
		c37.568,37.56,62.48,87.512,70.136,140.648c0.96,6.632-0.984,13.136-5.464,18.304c-4.632,5.344-11.336,8.408-18.392,8.408H305.128z
		 M337.712,350.563c6.288-8.312,9.08-18.712,7.6-28.992c-8.16-56.536-34.672-109.696-74.664-149.68
		c-39.984-39.992-93.144-66.504-149.68-74.664c-10.312-1.464-20.688,1.312-28.992,7.6V72.211c0-6.872,2.816-13.208,7.928-17.832
		c4.496-4.072,10.128-6.232,16.08-6.232c0.832,0,1.656,0.04,2.496,0.128c71.144,7.16,133.768,37.328,186.12,89.68
		s82.52,114.976,89.68,186.12c0.688,6.856-1.48,13.456-6.112,18.568c-4.632,5.104-10.968,7.92-17.84,7.92H337.712z M99.816,22.299
		c4.504-4.104,10.168-6.296,16.152-6.296c0.744,0,1.504,0.032,2.248,0.104c80.16,7.296,150.472,40.68,209,99.216
		c58.536,58.528,91.92,128.84,99.216,209c0.624,6.808-1.576,13.336-6.192,18.4c-4.616,5.048-10.928,7.84-17.768,7.84h-0.4
		c6.08-8.032,9.136-18.016,8.12-28.096c-7.528-74.912-39.256-140.808-94.288-195.832s-120.92-86.76-195.832-94.288
		c-10.048-0.992-20.056,2.048-28.096,8.12v-0.408C91.976,33.227,94.768,26.915,99.816,22.299z"/>
	<path style="fill:#322153;" d="M83.976,382.563c-13.232,0-24-10.768-24-24c0-4.424-3.576-8-8-8s-8,3.576-8,8
		c0,22.056,17.944,40,40,40c4.424,0,8-3.576,8-8S88.4,382.563,83.976,382.563z"/>
</g>
<g>
</g>
<g>
</g>
<g>
</g>
<g>
</g>
<g>
</g>
<g>
</g>
<g>
</g>
<g>
</g>
<g>
</g>
<g>
</g>
<g>
</g>
<g>
</g>
<g>
</g>
<g>
</g>
<g>
</g>
</svg>
