<?xml version="1.0" encoding="iso-8859-1"?>
<!-- Generator: Adobe Illustrator 19.0.0, SVG Export Plug-In . SVG Version: 6.00 Build 0)  -->
<svg version="1.1" id="Capa_1" xmlns="http://www.w3.org/2000/svg" xmlns:xlink="http://www.w3.org/1999/xlink" x="0px" y="0px"
	 viewBox="0 0 464 464" style="enable-background:new 0 0 464 464;" xml:space="preserve">
<g>
	<circle style="fill:#00F2A9;" cx="232" cy="232" r="32"/>
	<path style="fill:#00F2A9;" d="M200,392c0,17.672,14.328,32,32,32h48c8.84,0,16-7.16,16-16v-32c0-8.84-7.16-16-16-16
		s-16,7.16-16,16v-48c0-17.672-14.328-32-32-32s-32,14.328-32,32V392z"/>
</g>
<g>
	<path style="fill:#322153;" d="M32,232v192c0,22.056,17.944,40,40,40h320c22.056,0,40-17.944,40-40V232
		c0-19.312-13.768-35.472-32-39.192v-17.616c18.232-3.72,32-19.872,32-39.192c0-22.056-17.944-40-40-40h-88V40
		c0-22.056-17.944-40-40-40h-64c-22.056,0-40,17.944-40,40v56H72c-22.056,0-40,17.944-40,40c0,19.312,13.768,35.472,32,39.192
		v17.616C45.768,196.528,32,212.688,32,232z M416,232v192c0,13.232-10.768,24-24,24H72c-13.232,0-24-10.768-24-24V232
		c0-13.232,10.768-24,24-24h120.808c3.72,18.232,19.872,32,39.192,32s35.472-13.768,39.192-32H392C405.232,208,416,218.768,416,232z
		 M80,176h120.208c-3.536,4.672-6.184,10.056-7.392,16H80V176z M384,192H271.192c-1.216-5.944-3.856-11.328-7.392-16H384V192z
		 M256,200c0,13.232-10.768,24-24,24s-24-10.768-24-24s10.768-24,24-24S256,186.768,256,200z M176,40c0-13.232,10.768-24,24-24h64
		c13.232,0,24,10.768,24,24v56H176V40z M48,136c0-13.232,10.768-24,24-24h96h128h96c13.232,0,24,10.768,24,24s-10.768,24-24,24H72
		C58.768,160,48,149.232,48,136z"/>
	<path style="fill:#322153;" d="M280,320c-2.808,0-5.504,0.488-8,1.368V296c0-22.056-17.944-40-40-40s-40,17.944-40,40v64
		c0,22.056,17.944,40,40,40h48c13.232,0,24-10.768,24-24v-32C304,330.768,293.232,320,280,320z M288,376c0,4.416-3.584,8-8,8h-48
		c-13.232,0-24-10.768-24-24v-64c0-13.232,10.768-24,24-24s24,10.768,24,24v64c0,4.424,3.576,8,8,8s8-3.576,8-8v-16
		c0-4.416,3.584-8,8-8s8,3.584,8,8V376z"/>
	<path style="fill:#322153;" d="M72,368c4.424,0,8-3.576,8-8V232c0-4.424-3.576-8-8-8s-8,3.576-8,8v128
		C64,364.424,67.576,368,72,368z"/>
	<path style="fill:#322153;" d="M104,416c-7.608,0-13.472-2.048-17.432-6.08c-6.648-6.776-6.576-17.44-6.568-17.712
		c0.112-4.4-3.352-8.072-7.752-8.2c-4.248-0.488-8.112,3.32-8.24,7.744c-0.024,0.712-0.416,17.456,11,29.232
		C82.096,428.288,91.848,432,104,432c4.424,0,8-3.576,8-8S108.424,416,104,416z"/>
	<path style="fill:#322153;" d="M384,232v64c0,4.424,3.576,8,8,8s8-3.576,8-8v-64c0-4.424-3.576-8-8-8S384,227.576,384,232z"/>
	<path style="fill:#322153;" d="M392,351.936c-4.424,0-8,3.576-8,8V392c0,8.44-2.168,14.72-6.432,18.656
		c-6.64,6.12-16.784,5.392-17.568,5.344h-32c-4.424,0-8,3.576-8,8s3.576,8,8,8l31.248-0.032c0.16,0.008,1.048,0.088,2.488,0.088
		c5.144,0,17.192-0.992,26.52-9.496C396.048,415.472,400,405.176,400,392v-32.064C400,355.512,396.424,351.936,392,351.936z"/>
</g>
<g>
</g>
<g>
</g>
<g>
</g>
<g>
</g>
<g>
</g>
<g>
</g>
<g>
</g>
<g>
</g>
<g>
</g>
<g>
</g>
<g>
</g>
<g>
</g>
<g>
</g>
<g>
</g>
<g>
</g>
</svg>
