<?xml version="1.0" encoding="iso-8859-1"?>
<!-- Generator: Adobe Illustrator 19.0.0, SVG Export Plug-In . SVG Version: 6.00 Build 0)  -->
<svg version="1.1" id="Capa_1" xmlns="http://www.w3.org/2000/svg" xmlns:xlink="http://www.w3.org/1999/xlink" x="0px" y="0px"
	 viewBox="0 0 464 464" style="enable-background:new 0 0 464 464;" xml:space="preserve">
<g>
	<path style="fill:#00F2A9;" d="M153.12,168H40c-17.68,0-32,14.32-32,32v32h128C136,208.64,142.24,186.8,153.12,168z"/>
	<path style="fill:#00F2A9;" d="M424,168h-49.12c10.88,18.8,17.12,40.64,17.12,64h64v-32C456,182.32,441.68,168,424,168z"/>
	<circle style="fill:#00F2A9;" cx="264" cy="232" r="96"/>
</g>
<g>
	<path style="fill:#322153;" d="M424,128h-44.832C355.096,89.64,312.536,64,264,64s-91.096,25.64-115.168,64H40
		c-22.056,0-40,17.944-40,40v32v224c0,22.056,17.944,40,40,40h384c22.056,0,40-17.944,40-40V200v-32
		C464,145.944,446.056,128,424,128z M424,144c13.232,0,24,10.768,24,24v24h-48.408c-1-17.032-5.08-33.208-11.8-48H424z M264,80
		c66.168,0,120,53.832,120,120c0,63.472-49.56,115.448-112,119.592v-16c53.608-4.112,96-48.952,96-103.592
		c0-57.344-46.656-104-104-104s-104,46.656-104,104c0,54.64,42.392,99.48,96,103.592v16c-62.44-4.144-112-56.12-112-119.592
		C144,133.832,197.832,80,264,80z M240,333.752c7.808,1.392,15.8,2.248,24,2.248s16.192-0.856,24-2.248v18.656
		c-9.912,0.152-29.144-0.032-48-0.288V333.752z M272,235.312l29.656-29.656c3.128-3.128,3.128-8.184,0-11.312s-8.184-3.128-11.312,0
		L272,212.688V168c0-4.424-3.576-8-8-8s-8,3.576-8,8v44.688l-18.344-18.344c-3.128-3.128-8.184-3.128-11.312,0
		s-3.128,8.184,0,11.312L256,235.312v52.28c-44.784-4.056-80-41.768-80-87.592c0-48.52,39.48-88,88-88s88,39.48,88,88
		c0,45.824-35.216,83.536-80,87.592V235.312z M16,168c0-13.232,10.768-24,24-24h100.208c-6.72,14.792-10.8,30.968-11.8,48H16V168z
		 M424,448H40c-13.232,0-24-10.768-24-24V208h112.408c3.368,57.544,42.52,105.608,95.592,121.976V360c0,4.368,3.504,7.928,7.872,8
		c21.904,0.344,36.616,0.536,46.6,0.536c20.264,0,21.088-0.808,23.128-2.816c1.528-1.504,2.4-3.576,2.4-5.72v-30.024
		c53.072-16.368,92.224-64.432,95.592-121.976H448v216C448,437.232,437.232,448,424,448z"/>
	<path style="fill:#322153;" d="M104.088,160H104c-4.424,0-7.96,3.576-7.96,8s3.624,8,8.048,8s8-3.576,8-8S108.504,160,104.088,160z
		"/>
	<path style="fill:#322153;" d="M72.088,160H72c-4.424,0-7.96,3.576-7.96,8s3.624,8,8.048,8s8-3.576,8-8S76.504,160,72.088,160z"/>
	<path style="fill:#322153;" d="M40.088,160H40c-4.424,0-7.96,3.576-7.96,8s3.624,8,8.048,8s8-3.576,8-8S44.504,160,40.088,160z"/>
	<path style="fill:#322153;" d="M272,40V8c0-4.424-3.576-8-8-8s-8,3.576-8,8v32c0,4.424,3.576,8,8,8S272,44.424,272,40z"/>
	<path style="fill:#322153;" d="M142.624,86.624c2.048,0,4.096-0.784,5.656-2.344c3.128-3.128,3.128-8.184,0-11.312l-22.624-22.624
		c-3.128-3.128-8.184-3.128-11.312,0s-3.128,8.184,0,11.312l22.624,22.624C138.528,85.84,140.576,86.624,142.624,86.624z"/>
	<path style="fill:#322153;" d="M389.656,85.656l22.624-22.624c3.128-3.128,3.128-8.184,0-11.312s-8.184-3.128-11.312,0
		l-22.624,22.624c-3.128,3.128-3.128,8.184,0,11.312C379.904,87.216,381.952,88,384,88S388.096,87.216,389.656,85.656z"/>
	<path style="fill:#322153;" d="M296,384h-64c-4.424,0-8,3.576-8,8s3.576,8,8,8h64c4.424,0,8-3.576,8-8S300.424,384,296,384z"/>
	<path style="fill:#322153;" d="M296,416h-64c-4.424,0-8,3.576-8,8s3.576,8,8,8h64c4.424,0,8-3.576,8-8S300.424,416,296,416z"/>
	<path style="fill:#322153;" d="M40,336h96c4.424,0,8-3.576,8-8s-3.576-8-8-8H40c-4.424,0-8,3.576-8,8S35.576,336,40,336z"/>
	<path style="fill:#322153;" d="M168,352H40c-4.424,0-8,3.576-8,8s3.576,8,8,8h128c4.424,0,8-3.576,8-8S172.424,352,168,352z"/>
	<path style="fill:#322153;" d="M40,400h64c4.424,0,8-3.576,8-8s-3.576-8-8-8H40c-4.424,0-8,3.576-8,8S35.576,400,40,400z"/>
	<path style="fill:#322153;" d="M136,416H40c-4.424,0-8,3.576-8,8s3.576,8,8,8h96c4.424,0,8-3.576,8-8S140.424,416,136,416z"/>
</g>
<g>
</g>
<g>
</g>
<g>
</g>
<g>
</g>
<g>
</g>
<g>
</g>
<g>
</g>
<g>
</g>
<g>
</g>
<g>
</g>
<g>
</g>
<g>
</g>
<g>
</g>
<g>
</g>
<g>
</g>
</svg>
