<?xml version="1.0" encoding="iso-8859-1"?>
<!-- Generator: Adobe Illustrator 19.0.0, SVG Export Plug-In . SVG Version: 6.00 Build 0)  -->
<svg version="1.1" id="Capa_1" xmlns="http://www.w3.org/2000/svg" xmlns:xlink="http://www.w3.org/1999/xlink" x="0px" y="0px"
	 viewBox="0 0 464 464" style="enable-background:new 0 0 464 464;" xml:space="preserve">
<path style="fill:#00F2A9;" d="M136,392v64h32h128h32v-64l-32-32V232l-64-64l-64,64c0,0,0.304,67.192,0.408,128H168L136,392z"/>
<g>
	<path style="fill:#322153;" d="M96,424c0,22.056,17.944,40,40,40h192c22.056,0,40-17.944,40-40V40c0-22.056-17.944-40-40-40H136
		c-22.056,0-40,17.944-40,40V424z M276.688,16l-16,16h-57.376l-16-16H276.688z M112,40c0-13.232,10.768-24,24-24h28.688
		l29.656,29.656C195.84,47.16,197.872,48,200,48h64c2.128,0,4.16-0.84,5.656-2.344L299.312,16H328c13.232,0,24,10.768,24,24v384
		c0,13.232-10.768,24-24,24H136c-13.232,0-24-10.768-24-24V40z"/>
	<path style="fill:#322153;" d="M136,432h32h128h32c4.424,0,8-3.576,8-8v-64c0-2.128-0.84-4.16-2.344-5.656L304,324.688V200
		c0-2.128-0.84-4.16-2.344-5.656L240,132.688V72c0-4.424-3.576-8-8-8s-8,3.576-8,8v60.688l-61.656,61.656
		c-1.504,1.504-2.352,3.552-2.344,5.696c0.168,37.576,0.336,83.704,0.408,124.24l-30.064,30.064C128.84,355.84,128,357.872,128,360
		v64C128,428.424,131.576,432,136,432z M320,363.312V416h-16v-68.688L320,363.312z M232,147.312l56,56V416H176.2
		c0.528-34.488,0.08-154.168-0.184-212.704L232,147.312z M144,363.312l16.44-16.44c0.032,31.6-0.008,57.344-0.16,69.128H144V363.312
		z"/>
	<path style="fill:#322153;" d="M200,400c4.424,0,8-3.576,8-8V232c0-4.424-3.576-8-8-8s-8,3.576-8,8v160
		C192,396.424,195.576,400,200,400z"/>
	<path style="fill:#322153;" d="M232,400c4.424,0,8-3.576,8-8V232c0-4.424-3.576-8-8-8s-8,3.576-8,8v160
		C224,396.424,227.576,400,232,400z"/>
	<path style="fill:#322153;" d="M264,400c4.424,0,8-3.576,8-8V232c0-4.424-3.576-8-8-8s-8,3.576-8,8v160
		C256,396.424,259.576,400,264,400z"/>
</g>
<g>
</g>
<g>
</g>
<g>
</g>
<g>
</g>
<g>
</g>
<g>
</g>
<g>
</g>
<g>
</g>
<g>
</g>
<g>
</g>
<g>
</g>
<g>
</g>
<g>
</g>
<g>
</g>
<g>
</g>
</svg>
