<?xml version="1.0" encoding="iso-8859-1"?>
<!-- Generator: Adobe Illustrator 19.0.0, SVG Export Plug-In . SVG Version: 6.00 Build 0)  -->
<svg version="1.1" id="Capa_1" xmlns="http://www.w3.org/2000/svg" xmlns:xlink="http://www.w3.org/1999/xlink" x="0px" y="0px"
	 viewBox="0 0 464 464" style="enable-background:new 0 0 464 464;" xml:space="preserve">
<g>
	<path style="fill:#00F2A9;" d="M424,200v-96c0-17.672-14.328-32-32-32h-96c-17.672,0-32,14.328-32,32v96c0,17.672,14.328,32,32,32
		h96C409.672,232,424,217.672,424,200z"/>
	<path style="fill:#00F2A9;" d="M168,424c17.672,0,32-14.328,32-32v-64c0-17.672-14.328-32-32-32h-64c-17.672,0-32,14.328-32,32v64
		c0,17.672,14.328,32,32,32H168z"/>
</g>
<g>
	<path style="fill:#322153;" d="M296,208h96c22.056,0,40-17.944,40-40V72c0-22.056-17.944-40-40-40h-96c-22.056,0-40,17.944-40,40
		v96C256,190.056,273.944,208,296,208z M272,72c0-13.232,10.768-24,24-24h96c13.232,0,24,10.768,24,24v96c0,13.232-10.768,24-24,24
		h-96c-13.232,0-24-10.768-24-24V72z"/>
	<path style="fill:#322153;" d="M168,400c22.056,0,40-17.944,40-40v-64c0-22.056-17.944-40-40-40h-64c-22.056,0-40,17.944-40,40v64
		c0,22.056,17.944,40,40,40H168z M80,360v-64c0-13.232,10.768-24,24-24h64c13.232,0,24,10.768,24,24v64c0,13.232-10.768,24-24,24
		h-64C90.768,384,80,373.232,80,360z"/>
	<path style="fill:#322153;" d="M424,256H296c-22.056,0-40,17.944-40,40v128c0,22.056,17.944,40,40,40h128c22.056,0,40-17.944,40-40
		V296C464,273.944,446.056,256,424,256z M448,424c0,13.232-10.768,24-24,24H296c-13.232,0-24-10.768-24-24V296
		c0-13.232,10.768-24,24-24h128c13.232,0,24,10.768,24,24V424z"/>
	<path style="fill:#322153;" d="M40,208h128c22.056,0,40-17.944,40-40V40c0-22.056-17.944-40-40-40H40C17.944,0,0,17.944,0,40v128
		C0,190.056,17.944,208,40,208z M16,40c0-13.232,10.768-24,24-24h128c13.232,0,24,10.768,24,24v128c0,13.232-10.768,24-24,24H40
		c-13.232,0-24-10.768-24-24V40z"/>
	<path style="fill:#322153;" d="M72,176c4.424,0,8-3.576,8-8s-3.576-8-8-8c-22.344,0-23.896-21.808-24-24v-32c0-4.424-3.576-8-8-8
		s-8,3.576-8,8v32.248C32,150,41.336,176,72,176z"/>
	<path style="fill:#322153;" d="M328,80h31.712c2.48,0,24.288,1.664,24.288,24c0,4.424,3.576,8,8,8s8-3.576,8-8
		c0-30.656-26-39.568-40-40h-32c-4.424,0-8,3.576-8,8S323.576,80,328,80z"/>
	<path style="fill:#322153;" d="M424,352c-4.424,0-8,3.576-8,8v32c0,7.608-2.048,13.472-6.08,17.432
		c-6.824,6.696-17.568,6.536-17.92,6.568h-32c-4.424,0-8,3.576-8,8s3.576,8,8,8h31.752c0.056,0,0.224,0,0.488,0
		c2.944,0,17.936-0.528,28.752-11.008C428.288,413.904,432,404.152,432,392v-32C432,355.576,428.424,352,424,352z"/>
	<path style="fill:#322153;" d="M328,288.008c-31.64,0-40,26.168-40,40.008c0,4.392,3.552,7.984,7.952,7.984
		c0.016,0,0.032,0,0.048,0c4.384,0,7.952-3.56,8-7.944c0.048-4.016,1.416-24.056,24-24.056c4.424,0,8-3.576,8-8
		S332.424,288.008,328,288.008z"/>
</g>
<g>
</g>
<g>
</g>
<g>
</g>
<g>
</g>
<g>
</g>
<g>
</g>
<g>
</g>
<g>
</g>
<g>
</g>
<g>
</g>
<g>
</g>
<g>
</g>
<g>
</g>
<g>
</g>
<g>
</g>
</svg>
