<?xml version="1.0" encoding="iso-8859-1"?>
<!-- Generator: Adobe Illustrator 19.0.0, SVG Export Plug-In . SVG Version: 6.00 Build 0)  -->
<svg version="1.1" id="Capa_1" xmlns="http://www.w3.org/2000/svg" xmlns:xlink="http://www.w3.org/1999/xlink" x="0px" y="0px"
	 viewBox="0 0 488 488" style="enable-background:new 0 0 488 488;" xml:space="preserve">
<path style="fill:#00F2A9;" d="M357.112,70.68C323.904,51.208,285.272,40,244,40c-41.096,0-79.576,11.12-112.688,30.44
	c-16.488,9.624-31.656,21.248-45.12,34.616C45.32,145.632,20,201.856,20,264c0,62.288,25.448,118.624,66.488,159.232
	c13.392,13.248,28.456,24.784,44.824,34.336C164.424,476.88,202.904,488,244,488c41.272,0,79.904-11.208,113.112-30.68
	c16.208-9.504,31.128-20.96,44.4-34.088C442.552,382.624,468,326.288,468,264c0-62.144-25.32-118.368-66.192-158.944
	C388.464,91.8,373.44,80.256,357.112,70.68z"/>
<path style="fill:#322153;" d="M361.16,31.784C325.704,10.992,285.184,0,244,0c-41.008,0-81.376,10.896-116.72,31.528
	c-17.104,9.976-32.824,22.04-46.728,35.84C36.344,111.264,12,169.736,12,232c0,62.416,24.456,120.984,68.856,164.912
	c13.84,13.696,29.464,25.664,46.424,35.552C162.632,453.104,202.992,464,244,464c41.184,0,81.704-10.992,117.16-31.784
	c16.784-9.84,32.256-21.72,45.984-35.304C451.544,352.984,476,294.416,476,232c0-62.264-24.344-120.728-68.544-164.624
	C393.64,53.672,378.072,41.688,361.16,31.784z M378.976,116.944c0.632,2.168,1.304,4.336,1.896,6.504
	c1.176,4.256,2.24,8.52,3.28,12.776c0.384,1.576,0.824,3.16,1.184,4.736c1.368,5.88,2.608,11.76,3.712,17.632
	c0.128,0.704,0.224,1.4,0.352,2.104c0.936,5.128,1.792,10.256,2.528,15.384c0.28,1.968,0.488,3.936,0.744,5.912
	c0.496,3.848,0.976,7.696,1.36,11.536c0.232,2.304,0.392,4.608,0.584,6.904c0.288,3.504,0.552,7.016,0.744,10.512
	c0.136,2.44,0.224,4.88,0.304,7.32c0.072,1.912,0.096,3.816,0.136,5.728H252V111.92c1.672-0.032,3.352-0.136,5.024-0.192
	c2.144-0.072,4.288-0.144,6.432-0.248c3.224-0.152,6.456-0.368,9.688-0.6c2.104-0.152,4.208-0.288,6.312-0.472
	c3.432-0.296,6.872-0.672,10.304-1.064c1.88-0.208,3.76-0.384,5.64-0.624c4.488-0.568,8.976-1.224,13.464-1.936
	c0.832-0.128,1.656-0.232,2.488-0.368c5.296-0.872,10.592-1.856,15.888-2.928c1.664-0.336,3.328-0.736,4.984-1.088
	c3.672-0.784,7.344-1.592,11.008-2.472c1.992-0.48,3.976-1.008,5.96-1.52c3.376-0.864,6.744-1.744,10.12-2.688
	c2.032-0.568,4.064-1.176,6.096-1.768c1.864-0.552,3.728-1.048,5.592-1.624c0.76,2.152,1.528,4.304,2.256,6.456
	c0.808,2.384,1.624,4.76,2.384,7.144C376.816,109.608,377.904,113.272,378.976,116.944z M395.36,253.152
	c-0.192,3.424-0.456,6.856-0.728,10.28c-0.192,2.4-0.368,4.8-0.608,7.208c-0.368,3.664-0.832,7.328-1.296,11
	c-0.28,2.176-0.512,4.344-0.824,6.52c-0.664,4.608-1.448,9.216-2.272,13.832c-0.224,1.232-0.392,2.472-0.624,3.704
	c-1.096,5.8-2.328,11.608-3.672,17.416c-0.448,1.92-0.976,3.84-1.448,5.768c-0.968,3.928-1.944,7.856-3.032,11.784
	c-0.648,2.352-1.376,4.696-2.064,7.048c-1.032,3.512-2.072,7.032-3.2,10.544c-0.792,2.472-1.64,4.936-2.48,7.408
	c-0.72,2.112-1.472,4.224-2.216,6.336c-1.792-0.56-3.584-1.04-5.376-1.576c-2.2-0.656-4.4-1.312-6.6-1.936
	c-3.288-0.928-6.576-1.792-9.864-2.64c-2.072-0.536-4.136-1.096-6.208-1.6c-3.688-0.896-7.368-1.712-11.048-2.512
	c-1.648-0.36-3.304-0.76-4.952-1.096c-5.312-1.088-10.616-2.088-15.904-2.976c-0.912-0.152-1.816-0.264-2.728-0.408
	c-4.392-0.704-8.784-1.36-13.168-1.928c-1.912-0.248-3.816-0.432-5.728-0.648c-3.376-0.384-6.752-0.76-10.112-1.064
	c-2.16-0.192-4.312-0.336-6.464-0.496c-3.112-0.224-6.216-0.44-9.32-0.592c-2.248-0.112-4.488-0.192-6.728-0.264
	c-1.56-0.048-3.128-0.152-4.688-0.184V240h143.808c-0.04,1.896-0.064,3.8-0.136,5.696
	C395.584,248.184,395.496,250.664,395.36,253.152z M137.512,419.896c-2.84-5.84-5.592-11.792-8.224-17.856
	c-0.672-1.56-1.304-3.152-1.96-4.72c-1.44-3.416-2.8-6.888-4.16-10.36c1.536-0.472,3.072-0.96,4.608-1.416
	c2.056-0.608,4.112-1.216,6.168-1.792c3.192-0.896,6.376-1.736,9.568-2.56c1.952-0.504,3.896-1.016,5.84-1.488
	c3.504-0.848,7-1.624,10.488-2.384c1.616-0.352,3.232-0.736,4.84-1.064c5.104-1.048,10.208-2.008,15.296-2.856
	c0.136-0.024,0.272-0.04,0.408-0.064c4.944-0.816,9.88-1.536,14.808-2.16c1.616-0.208,3.232-0.36,4.848-0.544
	c3.448-0.4,6.888-0.776,10.32-1.088c1.904-0.168,3.808-0.296,5.712-0.44c3.144-0.232,6.288-0.44,9.424-0.6
	c1.992-0.096,3.984-0.176,5.976-0.24c1.512-0.048,3.024-0.064,4.528-0.096v79.68C201.424,446.56,167.576,436.968,137.512,419.896z
	 M109.36,347.032c-0.656-2.232-1.352-4.472-1.976-6.704c-1.168-4.184-2.224-8.368-3.256-12.544
	c-0.416-1.696-0.896-3.392-1.288-5.088c-1.376-5.872-2.64-11.736-3.752-17.584c-0.192-1.016-0.336-2.024-0.52-3.032
	c-0.888-4.824-1.712-9.648-2.416-14.456c-0.296-2.032-0.52-4.048-0.784-6.072c-0.496-3.792-0.984-7.592-1.368-11.368
	c-0.232-2.272-0.4-4.536-0.592-6.8c-0.296-3.52-0.568-7.04-0.768-10.552c-0.136-2.36-0.216-4.72-0.304-7.072
	c-0.072-1.92-0.096-3.832-0.144-5.752H236v112.088c-1.544,0.032-3.104,0.136-4.656,0.184c-2.24,0.072-4.48,0.152-6.728,0.264
	c-3.072,0.152-6.152,0.36-9.232,0.584c-2.168,0.16-4.336,0.304-6.504,0.496c-3.312,0.296-6.632,0.664-9.952,1.04
	c-1.952,0.224-3.904,0.408-5.856,0.664c-4.312,0.552-8.624,1.2-12.952,1.888c-0.96,0.152-1.92,0.272-2.88,0.432
	c-5.28,0.88-10.568,1.872-15.864,2.96c-1.616,0.328-3.232,0.72-4.848,1.072c-3.712,0.808-7.424,1.624-11.144,2.528
	c-2.016,0.488-4.04,1.032-6.056,1.552c-3.32,0.856-6.648,1.728-9.968,2.664c-2.16,0.608-4.32,1.248-6.48,1.896
	c-1.808,0.536-3.608,1.024-5.416,1.584c-0.784-2.208-1.576-4.416-2.32-6.624c-0.816-2.408-1.648-4.816-2.424-7.224
	C111.536,354.368,110.44,350.696,109.36,347.032z M92.64,211.2c0.192-3.48,0.464-6.968,0.76-10.456
	c0.192-2.288,0.36-4.568,0.592-6.856c0.376-3.744,0.856-7.496,1.352-11.248c0.264-2.048,0.488-4.096,0.792-6.144
	c0.696-4.768,1.512-9.552,2.392-14.336c0.192-1.04,0.328-2.064,0.528-3.104c1.112-5.84,2.368-11.688,3.736-17.552
	c0.384-1.632,0.84-3.272,1.24-4.912c1.048-4.232,2.112-8.472,3.288-12.712c0.6-2.168,1.28-4.344,1.92-6.512
	c1.096-3.72,2.2-7.44,3.4-11.16c0.76-2.36,1.568-4.72,2.368-7.08c0.752-2.224,1.552-4.456,2.344-6.68c1.728,0.536,3.464,1,5.2,1.504
	c2.216,0.656,4.424,1.304,6.64,1.928c3.208,0.896,6.424,1.728,9.632,2.552c2.088,0.536,4.176,1.088,6.272,1.592
	c3.592,0.864,7.184,1.648,10.776,2.416c1.712,0.368,3.416,0.776,5.128,1.12c5.288,1.072,10.576,2.048,15.864,2.912
	c0.664,0.112,1.32,0.184,1.984,0.288c4.648,0.744,9.304,1.416,13.952,2c1.752,0.216,3.504,0.384,5.256,0.584
	c3.56,0.4,7.12,0.784,10.672,1.096c2.016,0.176,4.024,0.304,6.032,0.448c3.296,0.24,6.584,0.456,9.872,0.608
	c2.112,0.104,4.224,0.176,6.336,0.24c1.672,0.056,3.352,0.16,5.024,0.192V224h-143.8c0.04-1.904,0.072-3.808,0.136-5.72
	C92.424,215.92,92.512,213.56,92.64,211.2z M350.92,44.344c2.848,5.816,5.616,11.752,8.256,17.816c0.68,1.552,1.304,3.152,1.96,4.72
	c1.44,3.416,2.8,6.896,4.176,10.376c-1.44,0.44-2.88,0.896-4.328,1.328c-2.168,0.64-4.344,1.272-6.512,1.88
	c-3.016,0.84-6.04,1.632-9.064,2.408c-2.088,0.536-4.168,1.08-6.256,1.584c-3.312,0.8-6.624,1.52-9.936,2.232
	c-1.776,0.384-3.56,0.8-5.344,1.16c-4.912,0.992-9.832,1.904-14.744,2.72c-0.392,0.064-0.792,0.128-1.184,0.192
	c-4.864,0.792-9.72,1.488-14.576,2.096c-1.72,0.216-3.432,0.376-5.144,0.568c-3.376,0.384-6.76,0.752-10.136,1.048
	c-2.008,0.176-4.016,0.304-6.024,0.448c-3.072,0.224-6.144,0.424-9.216,0.576c-2.136,0.104-4.264,0.176-6.392,0.248
	c-1.496,0.048-2.984,0.064-4.472,0.096V16.152C286.752,17.44,320.744,27.12,350.92,44.344z M386.792,69.96
	c-2.048,0.744-4.072,1.496-6.136,2.208c-1.44-3.672-2.92-7.328-4.448-10.944C379.84,64.024,383.36,66.944,386.792,69.96z
	 M236,95.832c-1.488-0.032-2.968-0.048-4.456-0.096c-2.12-0.064-4.248-0.144-6.368-0.248c-3.04-0.144-6.08-0.344-9.12-0.568
	c-2.04-0.144-4.072-0.28-6.112-0.456c-3.296-0.288-6.6-0.648-9.896-1.016c-1.776-0.2-3.552-0.368-5.328-0.592
	c-4.808-0.608-9.624-1.288-14.44-2.072c-0.416-0.064-0.84-0.136-1.256-0.2c-4.896-0.808-9.8-1.712-14.704-2.704
	c-1.704-0.344-3.408-0.744-5.12-1.112c-3.392-0.728-6.784-1.472-10.176-2.28c-1.976-0.472-3.944-0.992-5.92-1.496
	c-3.152-0.8-6.296-1.624-9.448-2.504c-2.024-0.56-4.04-1.152-6.064-1.744c-1.52-0.448-3.04-0.928-4.552-1.392
	c1.368-3.488,2.736-6.984,4.176-10.416c0.68-1.608,1.32-3.248,2.008-4.84c2.648-6.112,5.424-12.104,8.28-17.992
	c30.072-17.08,63.92-26.664,98.496-27.952V95.832z M107.656,72.392c-1.672-0.576-3.352-1.128-5.016-1.72
	c-0.376-0.136-0.76-0.264-1.136-0.4c-0.152-0.056-0.304-0.12-0.456-0.168c3.656-3.224,7.432-6.328,11.312-9.312
	C110.744,64.624,109.176,68.504,107.656,72.392z M88.2,82.416c1.248,0.48,2.544,0.912,3.8,1.376
	c2.464,0.912,4.928,1.816,7.424,2.696c0.88,0.312,1.736,0.648,2.624,0.952c-0.776,2.192-1.456,4.384-2.192,6.576
	c-0.856,2.528-1.72,5.056-2.536,7.584c-1.2,3.736-2.312,7.464-3.408,11.192c-0.704,2.384-1.432,4.76-2.096,7.144
	c-1.144,4.128-2.176,8.248-3.2,12.368c-0.488,1.96-1.024,3.928-1.48,5.888c-1.416,6.056-2.712,12.112-3.856,18.152
	c-0.128,0.664-0.216,1.328-0.336,1.992c-1,5.392-1.904,10.768-2.688,16.136c-0.296,2.048-0.52,4.096-0.784,6.144
	c-0.52,3.976-1.024,7.952-1.424,11.912c-0.24,2.352-0.408,4.696-0.6,7.04c-0.304,3.664-0.592,7.32-0.792,10.968
	c-0.136,2.432-0.224,4.864-0.312,7.288c-0.072,2.056-0.224,4.128-0.264,6.184H28.144C30.072,170.752,51.184,120.912,88.2,82.416z
	 M76.08,240c0.04,2.064,0.184,4.136,0.264,6.2c0.088,2.44,0.176,4.88,0.312,7.328c0.2,3.648,0.488,7.304,0.792,10.96
	c0.2,2.36,0.368,4.72,0.608,7.08c0.4,3.976,0.912,7.96,1.432,11.952c0.264,2.048,0.488,4.088,0.784,6.136
	c0.8,5.488,1.728,10.992,2.752,16.504c0.104,0.552,0.176,1.096,0.28,1.648c1.152,6.072,2.464,12.16,3.888,18.256
	c0.432,1.856,0.952,3.72,1.408,5.576c1.048,4.248,2.12,8.488,3.304,12.744c0.64,2.304,1.352,4.616,2.032,6.928
	c1.12,3.816,2.264,7.632,3.496,11.448c0.8,2.48,1.648,4.96,2.496,7.44c0.76,2.232,1.448,4.464,2.24,6.696
	c-4.6,1.592-9.168,3.256-13.68,4.968C51.296,343.328,30.072,293.392,28.144,240H76.08z M101.536,394.312
	c2.104-0.76,4.176-1.536,6.296-2.264c1.464,3.744,2.976,7.472,4.528,11.16C108.648,400.36,105.048,397.384,101.536,394.312z
	 M252,368.168c1.512,0.032,3.016,0.048,4.528,0.096c2.024,0.072,4.056,0.144,6.088,0.248c3.064,0.152,6.144,0.36,9.224,0.584
	c1.992,0.144,3.984,0.28,5.984,0.464c3.312,0.296,6.632,0.664,9.952,1.048c1.744,0.2,3.488,0.368,5.24,0.592
	c4.68,0.6,9.368,1.288,14.072,2.064c0.392,0.064,0.776,0.112,1.168,0.176c5.08,0.848,10.168,1.808,15.256,2.856
	c1.648,0.336,3.304,0.736,4.952,1.088c3.488,0.76,6.976,1.536,10.464,2.384c1.928,0.472,3.856,0.984,5.784,1.48
	c3.24,0.832,6.472,1.688,9.712,2.608c2,0.56,4.008,1.152,6.008,1.752c1.584,0.472,3.168,0.976,4.744,1.464
	c-1.344,3.408-2.68,6.816-4.096,10.176c-0.672,1.592-1.304,3.208-1.992,4.776c-2.616,6-5.352,11.872-8.176,17.632
	c-30.168,17.224-64.16,26.904-98.912,28.192V368.168z M380.52,392.168c2,0.696,3.96,1.424,5.944,2.144
	c-3.328,2.928-6.744,5.744-10.248,8.456C377.688,399.256,379.128,395.72,380.52,392.168z M399.504,381.872
	c-4.392-1.672-8.848-3.288-13.328-4.848c0.792-2.248,1.488-4.496,2.248-6.736c0.8-2.376,1.616-4.752,2.376-7.128
	c1.248-3.896,2.408-7.792,3.544-11.688c0.64-2.192,1.312-4.384,1.92-6.576c1.208-4.36,2.296-8.728,3.368-13.088
	c0.424-1.72,0.896-3.448,1.296-5.168c1.424-6.128,2.72-12.248,3.872-18.376c0.008-0.032,0.008-0.072,0.016-0.104
	c1.128-6.032,2.112-12.064,2.976-18.088c0.28-1.936,0.48-3.864,0.728-5.8c0.536-4.128,1.048-8.256,1.456-12.376
	c0.232-2.328,0.392-4.648,0.584-6.968c0.304-3.736,0.592-7.472,0.792-11.208c0.136-2.448,0.216-4.896,0.304-7.336
	c0.08-2.12,0.224-4.256,0.264-6.376h47.936C457.928,293.392,436.704,343.328,399.504,381.872z M411.92,224
	c-0.04-2.112-0.184-4.224-0.264-6.336c-0.088-2.448-0.168-4.896-0.304-7.352c-0.2-3.68-0.48-7.368-0.784-11.056
	c-0.192-2.368-0.36-4.736-0.592-7.112c-0.392-3.96-0.888-7.92-1.392-11.88c-0.272-2.104-0.488-4.2-0.792-6.304
	c-0.776-5.424-1.68-10.856-2.672-16.288c-0.112-0.624-0.192-1.248-0.312-1.872c-1.128-6.024-2.408-12.056-3.8-18.08
	c-0.472-2.056-1.032-4.112-1.536-6.168c-0.984-4.008-1.976-8.016-3.08-12.016c-0.664-2.424-1.408-4.84-2.112-7.264
	c-1.072-3.656-2.152-7.304-3.32-10.952c-0.808-2.536-1.672-5.072-2.528-7.608c-0.72-2.136-1.376-4.272-2.128-6.4
	c0.896-0.312,1.768-0.648,2.656-0.968c2.36-0.832,4.68-1.688,7.016-2.552c1.272-0.472,2.568-0.912,3.832-1.392
	c37.016,38.504,58.136,88.336,60.064,141.584H411.92V224z"/>
<g>
</g>
<g>
</g>
<g>
</g>
<g>
</g>
<g>
</g>
<g>
</g>
<g>
</g>
<g>
</g>
<g>
</g>
<g>
</g>
<g>
</g>
<g>
</g>
<g>
</g>
<g>
</g>
<g>
</g>
</svg>
