<?xml version="1.0" encoding="iso-8859-1"?>
<!-- Generator: Adobe Illustrator 19.0.0, SVG Export Plug-In . SVG Version: 6.00 Build 0)  -->
<svg version="1.1" id="Capa_1" xmlns="http://www.w3.org/2000/svg" xmlns:xlink="http://www.w3.org/1999/xlink" x="0px" y="0px"
	 viewBox="0 0 432 432" style="enable-background:new 0 0 432 432;" xml:space="preserve">
<path style="fill:#00F2A9;" d="M200,40v224h224c0-56-23.616-116.4-65.608-158.392S259.384,40,200,40z"/>
<path style="fill:#322153;" d="M200,0c-4.424,0-8,3.576-8,8v24.2C85.416,36.424,0,124.4,0,232c0,10.952,0.944,22.168,2.816,33.32
	c0.208,1.256,0.784,2.336,1.488,3.304c1.536,8.44,3.688,17.888,6.712,27.888c0.048,0.728,0.168,1.448,0.416,2.152
	c0.336,0.96,0.8,1.888,1.16,2.848c8.312,25.432,22.336,53.752,46.008,77.592c30.216,30.432,70.456,47.728,119.808,51.56
	C185.648,431.456,192.88,432,200,432c107.6,0,195.576-85.416,199.8-192H424c4.424,0,8-3.576,8-8
	c0-61.072-24.768-120.856-67.952-164.048S261.072,0,200,0z M208,48.2c95.104,4.096,171.704,80.696,175.8,175.8H208V48.2z M72,352
	H56.928c-0.568,0-1.112,0.136-1.656,0.272C51.28,346.968,47.688,341.52,44.456,336H96v53.8c-5.832-3.656-11.312-7.768-16.568-12.168
	c0.336-0.816,0.568-1.664,0.568-2.56V360C80,355.864,76.136,352,72,352z M104,320H38.432c-2.84-5.208-5.44-10.56-7.76-16H128v97.328
	c-5.44-2.32-10.792-4.912-16-7.76V328C112,323.576,108.424,320,104,320z M136,288H24.352c-1.576-5.576-2.88-10.936-3.944-16H160
	v141.264c-5.48-0.912-10.808-2.04-16-3.344V296C144,291.576,140.424,288,136,288z M192,415.728c-5.304-0.24-10.64-0.624-16-1.328
	V264c0-4.424-3.576-8-8-8H17.592c-0.704-5.36-1.088-10.696-1.328-16H192V415.728z M192,48.2V224H16.2
	C20.296,128.896,96.896,52.296,192,48.2z M208,415.8V240h175.8C379.704,335.104,303.104,411.704,208,415.8z M399.8,224
	C395.68,120.08,311.92,36.32,208,32.2V16.152c54.056,2.056,106.416,24.8,144.736,63.12S413.8,169.944,415.848,224H399.8z"/>
<g>
</g>
<g>
</g>
<g>
</g>
<g>
</g>
<g>
</g>
<g>
</g>
<g>
</g>
<g>
</g>
<g>
</g>
<g>
</g>
<g>
</g>
<g>
</g>
<g>
</g>
<g>
</g>
<g>
</g>
</svg>
