<?xml version="1.0" encoding="iso-8859-1"?>
<!-- Generator: Adobe Illustrator 19.0.0, SVG Export Plug-In . SVG Version: 6.00 Build 0)  -->
<svg version="1.1" id="Capa_1" xmlns="http://www.w3.org/2000/svg" xmlns:xlink="http://www.w3.org/1999/xlink" x="0px" y="0px"
	 viewBox="0 0 488 488" style="enable-background:new 0 0 488 488;" xml:space="preserve">
<path style="fill:#00F2A9;" d="M436,136h-32v128c0,17.68-14.32,32-32,32H129.28c-8.48,0-16.64,3.36-22.64,9.36L84,328v32
	c0,17.68,14.32,32,32,32h242.72c8.48,0,16.64,3.36,22.64,9.36L468,488V168C468,150.32,453.68,136,436,136z"/>
<g>
	<path style="fill:#322153;" d="M436,96h-24V40c0-22.056-17.944-40-40-40H52C29.944,0,12,17.944,12,40v320
		c0,3.232,1.944,6.16,4.936,7.392C17.928,367.808,18.968,368,20,368c2.08,0,4.128-0.816,5.656-2.344L76,315.312V328
		c0,22.056,17.944,40,40,40h242.744c6.416,0,12.448,2.504,16.976,7.032l86.624,86.624C463.872,463.184,465.92,464,468,464
		c1.032,0,2.072-0.192,3.064-0.608c2.992-1.232,4.936-4.16,4.936-7.392V136C476,113.944,458.056,96,436,96z M28,40
		c0-13.232,10.768-24,24-24h320c13.232,0,24,10.768,24,24v192c0,13.232-10.768,24-24,24H129.256
		c-10.688,0-20.736,4.168-28.288,11.72l-22.616,22.616c-0.008,0.008-0.016,0.016-0.024,0.024L28,340.688V40z M460,436.688
		l-72.968-72.968c-7.552-7.552-17.6-11.72-28.288-11.72H116c-13.232,0-24-10.768-24-24v-28.688l20.28-20.28
		c4.536-4.528,10.56-7.032,16.976-7.032H372c22.056,0,40-17.944,40-40V112h24c13.232,0,24,10.768,24,24V436.688z"/>
	<path style="fill:#322153;" d="M116,176c22.056,0,40-17.944,40-40s-17.944-40-40-40s-40,17.944-40,40S93.944,176,116,176z M116,112
		c13.232,0,24,10.768,24,24s-10.768,24-24,24s-24-10.768-24-24S102.768,112,116,112z"/>
	<path style="fill:#322153;" d="M212,176c22.056,0,40-17.944,40-40s-17.944-40-40-40s-40,17.944-40,40S189.944,176,212,176z
		 M212,112c13.232,0,24,10.768,24,24s-10.768,24-24,24s-24-10.768-24-24S198.768,112,212,112z"/>
	<path style="fill:#322153;" d="M308,96c-22.056,0-40,17.944-40,40s17.944,40,40,40s40-17.944,40-40S330.056,96,308,96z M308,160
		c-13.232,0-24-10.768-24-24s10.768-24,24-24s24,10.768,24,24S321.232,160,308,160z"/>
	<path style="fill:#322153;" d="M308,320H132c-4.416,0-8-3.584-8-8v-16c0-4.424-3.576-8-8-8s-8,3.576-8,8v16
		c0,13.232,10.768,24,24,24h176c4.424,0,8-3.576,8-8S312.424,320,308,320z"/>
	<path style="fill:#322153;" d="M436,256c-4.424,0-8,3.576-8,8v96c0,4.424,3.576,8,8,8s8-3.576,8-8v-96
		C444,259.576,440.424,256,436,256z"/>
	<path style="fill:#322153;" d="M84,48h64c4.424,0,8-3.584,8-8s-3.576-8-8-8H84c-4.424,0-8,3.584-8,8S79.576,48,84,48z"/>
	<path style="fill:#322153;" d="M212,48h144c4.416,0,8,3.592,8,8v48c0,4.416,3.576,8,8,8s8-3.584,8-8V56c0-13.232-10.768-24-24-24
		H212c-4.424,0-8,3.584-8,8S207.576,48,212,48z"/>
	<path style="fill:#322153;" d="M52,192c-4.424,0-8,3.584-8,8v64c0,4.424,3.576,8,8,8s8-3.576,8-8v-64C60,195.584,56.424,192,52,192
		z"/>
</g>
<g>
</g>
<g>
</g>
<g>
</g>
<g>
</g>
<g>
</g>
<g>
</g>
<g>
</g>
<g>
</g>
<g>
</g>
<g>
</g>
<g>
</g>
<g>
</g>
<g>
</g>
<g>
</g>
<g>
</g>
</svg>
