<?xml version="1.0" encoding="iso-8859-1"?>
<!-- Generator: Adobe Illustrator 19.0.0, SVG Export Plug-In . SVG Version: 6.00 Build 0)  -->
<svg version="1.1" id="Capa_1" xmlns="http://www.w3.org/2000/svg" xmlns:xlink="http://www.w3.org/1999/xlink" x="0px" y="0px"
	 viewBox="0 0 464 464" style="enable-background:new 0 0 464 464;" xml:space="preserve">
<g>
	<path style="fill:#00F2A9;" d="M72,392c0,17.672,14.328,32,32,32s32-14.328,32-32V264c0-17.672-14.328-32-32-32s-32,14.328-32,32
		V392z"/>
	<path style="fill:#00F2A9;" d="M264,392v-64c0-17.672-14.328-32-32-32s-32,14.328-32,32v64c0,17.672,14.328,32,32,32
		S264,409.672,264,392z"/>
	<path style="fill:#00F2A9;" d="M392,392V232c0-17.672-14.328-32-32-32s-32,14.328-32,32v160c0,17.672,14.328,32,32,32
		S392,409.672,392,392z"/>
</g>
<g>
	<path style="fill:#322153;" d="M64,360c0,22.056,17.944,40,40,40s40-17.944,40-40V232c0-22.056-17.944-40-40-40s-40,17.944-40,40
		V360z M80,232c0-13.232,10.768-24,24-24s24,10.768,24,24v128c0,13.232-10.768,24-24,24s-24-10.768-24-24V232z"/>
	<path style="fill:#322153;" d="M232,256c-22.056,0-40,17.944-40,40v64c0,22.056,17.944,40,40,40s40-17.944,40-40v-64
		C272,273.944,254.056,256,232,256z M256,360c0,13.232-10.768,24-24,24s-24-10.768-24-24v-64c0-13.232,10.768-24,24-24
		s24,10.768,24,24V360z"/>
	<path style="fill:#322153;" d="M360,160.512c-21.776,0-40,17.712-40,39.488v160c0,21.776,18.224,39.488,40,39.488
		s40-17.712,40-39.488V200C400,178.224,381.776,160.512,360,160.512z M384,360c0,13.512-10.488,24.512-24,24.512s-24-11-24-24.512
		V200c0-13.512,10.488-24.512,24-24.512s24,11,24,24.512V360z"/>
	<path style="fill:#322153;" d="M456,416H8c-4.424,0-8,3.576-8,8s3.576,8,8,8h448c4.424,0,8-3.576,8-8S460.424,416,456,416z"/>
	<path style="fill:#322153;" d="M75.72,164.28C83.264,171.832,93.312,176,104,176c8.568,0,16.648-2.784,23.432-7.736l65.064,36.688
		C194.976,224.656,211.64,240,232,240c21.048,0,38.168-16.4,39.704-37.072l67.48-96.904C345.4,109.848,352.512,112,360,112
		c10.688,0,20.736-4.168,28.28-11.72C395.832,92.736,400,82.688,400,72s-4.168-20.728-11.72-28.28S370.688,32,360,32
		s-20.736,4.168-28.28,11.72C324.168,51.264,320,61.312,320,72c0,8.376,2.632,16.304,7.368,23L267.2,181.408
		C260.48,168.744,247.312,160,232,160c-17.68,0-32.544,11.608-37.816,27.536l-55.768-31.448C141.96,150.04,144,143.2,144,136
		c0-10.688-4.168-20.736-11.72-28.28C124.736,100.168,114.688,96,104,96s-20.736,4.168-28.28,11.72
		C68.168,115.264,64,125.312,64,136S68.168,156.736,75.72,164.28z M343.032,55.032C347.56,50.504,353.584,48,360,48
		s12.44,2.504,16.968,7.032C381.496,59.56,384,65.584,384,72s-2.504,12.44-7.032,16.968c-9.064,9.064-24.872,9.064-33.936,0
		C338.496,84.44,336,78.416,336,72S338.496,59.56,343.032,55.032z M232,176c13.232,0,24,10.768,24,24s-10.768,24-24,24
		s-24-10.768-24-24S218.768,176,232,176z M87.032,119.032C91.56,114.504,97.584,112,104,112s12.44,2.504,16.968,7.032
		S128,129.584,128,136s-2.504,12.44-7.032,16.968c-9.064,9.064-24.872,9.064-33.936,0C82.496,148.44,80,142.416,80,136
		S82.496,123.56,87.032,119.032z"/>
	<path style="fill:#322153;" d="M104,368c4.424,0,8-3.576,8-8v-96c0-4.424-3.576-8-8-8s-8,3.576-8,8v96
		C96,364.424,99.576,368,104,368z"/>
	<path style="fill:#322153;" d="M232,288c-4.424,0-8,3.576-8,8v64c0,4.424,3.576,8,8,8c4.424,0,8-3.576,8-8v-64
		C240,291.576,236.424,288,232,288z"/>
	<path style="fill:#322153;" d="M360,192c-4.424,0-8,3.576-8,8v128c0,4.424,3.576,8,8,8s8-3.576,8-8V200
		C368,195.576,364.424,192,360,192z"/>
</g>
<g>
</g>
<g>
</g>
<g>
</g>
<g>
</g>
<g>
</g>
<g>
</g>
<g>
</g>
<g>
</g>
<g>
</g>
<g>
</g>
<g>
</g>
<g>
</g>
<g>
</g>
<g>
</g>
<g>
</g>
</svg>
