<?xml version="1.0" encoding="iso-8859-1"?>
<!-- Generator: Adobe Illustrator 19.0.0, SVG Export Plug-In . SVG Version: 6.00 Build 0)  -->
<svg version="1.1" id="Capa_1" xmlns="http://www.w3.org/2000/svg" xmlns:xlink="http://www.w3.org/1999/xlink" x="0px" y="0px"
	 viewBox="0 0 488 488" style="enable-background:new 0 0 488 488;" xml:space="preserve">
<g>
	<path style="fill:#00F2A9;" d="M367.175,219.288c2.448-9.8-4.96-19.288-15.056-19.288c-7.12,0-13.328,4.848-15.056,11.76
		L307.999,328c-40.288-20.144-87.712-20.144-128,0l-29.064-116.24c-1.728-6.912-7.936-11.76-15.056-11.76
		c-10.096,0-17.504,9.488-15.056,19.288L147.999,328c0,17.672,14.328,32,32,32h128c17.672,0,32-14.328,32-32L367.175,219.288z"/>
	<path style="fill:#00F2A9;" d="M275.999,456h-64c-17.672,0-32,14.328-32,32h128C307.999,470.328,293.671,456,275.999,456z"/>
</g>
<g>
	<path style="fill:#322153;" d="M117.343,169.048c-4.496,5.744-6.056,13.104-4.28,20.176l26.952,107.816
		c0.544,21.576,18.272,38.96,39.984,38.96h28.688l27.312,27.312V416h-24c-22.056,0-40,17.944-40,40c0,4.424,3.576,8,8,8h128
		c4.424,0,8-3.576,8-8c0-22.056-17.944-40-40-40h-24v-52.688L279.311,336h28.688c21.712,0,39.44-17.384,39.984-38.96l26.96-107.816
		c1.768-7.08,0.2-14.44-4.288-20.176c-4.488-5.752-11.248-9.048-18.536-9.048c-0.992,0-1.96,0.128-2.928,0.248l22.84-112.28
		c2.408-11.816-0.592-23.944-8.216-33.28C356.175,5.352,344.887,0,332.831,0H155.167c-12.056,0-23.344,5.352-30.976,14.688
		c-7.624,9.336-10.624,21.472-8.216,33.28l22.84,112.28c-0.976-0.12-1.936-0.248-2.936-0.248
		C128.591,160,121.831,163.296,117.343,169.048z M298.631,448H189.367c3.304-9.312,12.2-16,22.632-16h64
		C286.431,432,295.327,438.688,298.631,448z M243.999,348.688L231.311,336h25.376L243.999,348.688z M358.047,178.888
		c1.44,1.84,1.936,4.192,1.376,6.464l-27.184,108.712c-0.16,0.632-0.24,1.28-0.24,1.936c0,13.232-10.768,24-24,24h-128
		c-13.232,0-24-10.768-24-24c0-0.656-0.08-1.304-0.24-1.936l-27.168-108.712c-0.568-2.264-0.072-4.616,1.368-6.464
		c1.432-1.832,3.584-2.888,5.92-2.888c3.456,0,6.456,2.344,7.296,5.696l29.064,116.24c0.584,2.36,2.208,4.32,4.416,5.328
		c2.2,1.024,4.752,0.976,6.92-0.112c37.832-18.92,83.016-18.92,120.84,0c2.168,1.088,4.712,1.136,6.92,0.112
		c2.2-1.008,3.832-2.968,4.416-5.328l29.064-116.24c0.848-3.352,3.848-5.696,7.304-5.696
		C354.455,176,356.607,177.056,358.047,178.888z M136.575,24.816C141.159,19.208,147.927,16,155.167,16h177.672
		c7.232,0,14.008,3.208,18.584,8.816s6.376,12.88,4.936,19.968L329.263,178l-26.68,106.712c-37.312-15.64-79.84-15.64-117.16,0
		L158.735,178L131.639,44.784C130.199,37.696,131.999,30.416,136.575,24.816z"/>
	<path style="fill:#322153;" d="M174.343,77.656c1.56,1.56,3.608,2.344,5.656,2.344s4.096-0.784,5.656-2.344l10.344-10.344
		L216.687,88l-10.344,10.344c-3.128,3.128-3.128,8.184,0,11.312c1.56,1.56,3.608,2.344,5.656,2.344s4.096-0.784,5.656-2.344
		l10.344-10.344l10.344,10.344c1.56,1.56,3.608,2.344,5.656,2.344s4.096-0.784,5.656-2.344c3.128-3.128,3.128-8.184,0-11.312
		L239.311,88l20.688-20.688L280.687,88l-10.344,10.344c-3.128,3.128-3.128,8.184,0,11.312c1.56,1.56,3.608,2.344,5.656,2.344
		s4.096-0.784,5.656-2.344l10.344-10.344l10.344,10.344c1.56,1.56,3.608,2.344,5.656,2.344s4.096-0.784,5.656-2.344
		c3.128-3.128,3.128-8.184,0-11.312L303.311,88l10.344-10.344c3.128-3.128,3.128-8.184,0-11.312s-8.184-3.128-11.312,0
		l-10.344,10.344L271.311,56l10.344-10.344c3.128-3.128,3.128-8.184,0-11.312s-8.184-3.128-11.312,0l-10.344,10.344l-10.344-10.344
		c-3.128-3.128-8.184-3.128-11.312,0s-3.128,8.184,0,11.312L248.687,56l-20.688,20.688L207.311,56l10.344-10.344
		c3.128-3.128,3.128-8.184,0-11.312s-8.184-3.128-11.312,0l-10.344,10.344l-10.344-10.344c-3.128-3.128-8.184-3.128-11.312,0
		s-3.128,8.184,0,11.312L184.687,56l-10.344,10.344C171.215,69.472,171.215,74.528,174.343,77.656z"/>
	<path style="fill:#322153;" d="M281.655,194.344c-3.128-3.128-8.184-3.128-11.312,0l-10.344,10.344L239.311,184l10.344-10.344
		c3.128-3.128,3.128-8.184,0-11.312s-8.184-3.128-11.312,0l-10.344,10.344l-10.344-10.344c-3.128-3.128-8.184-3.128-11.312,0
		s-3.128,8.184,0,11.312L216.687,184l-10.344,10.344c-3.128,3.128-3.128,8.184,0,11.312c1.56,1.56,3.608,2.344,5.656,2.344
		s4.096-0.784,5.656-2.344l10.344-10.344L248.687,216l-10.344,10.344c-3.128,3.128-3.128,8.184,0,11.312
		c1.56,1.56,3.608,2.344,5.656,2.344s4.096-0.784,5.656-2.344l10.344-10.344l10.344,10.344c1.56,1.56,3.608,2.344,5.656,2.344
		s4.096-0.784,5.656-2.344c3.128-3.128,3.128-8.184,0-11.312L271.311,216l10.344-10.344
		C284.783,202.528,284.783,197.472,281.655,194.344z"/>
</g>
<g>
</g>
<g>
</g>
<g>
</g>
<g>
</g>
<g>
</g>
<g>
</g>
<g>
</g>
<g>
</g>
<g>
</g>
<g>
</g>
<g>
</g>
<g>
</g>
<g>
</g>
<g>
</g>
<g>
</g>
</svg>
