<?xml version="1.0" encoding="iso-8859-1"?>
<!-- Generator: Adobe Illustrator 19.0.0, SVG Export Plug-In . SVG Version: 6.00 Build 0)  -->
<svg version="1.1" id="Capa_1" xmlns="http://www.w3.org/2000/svg" xmlns:xlink="http://www.w3.org/1999/xlink" x="0px" y="0px"
	 viewBox="0 0 464 464" style="enable-background:new 0 0 464 464;" xml:space="preserve">
<g>
	<path style="fill:#00F2A9;" d="M40,392h64c17.672,0,32-14.328,32-32s-14.328-32-32-32H88c-8.84,0-16-7.16-16-16v-96
		c0-8.84,7.16-16,16-16h144v32c0,17.672,14.328,32,32,32s32-14.328,32-32v-64c0-17.672-14.328-32-32-32H40
		c-17.672,0-32,14.328-32,32v192C8,377.672,22.328,392,40,392z"/>
	<path style="fill:#00F2A9;" d="M424,136h-64c-17.672,0-32,14.328-32,32s14.328,32,32,32h16c8.84,0,16,7.16,16,16v96
		c0,8.84-7.16,16-16,16H232v-32.152C232,278.256,217.744,264,200.16,264h-0.312C182.256,264,168,278.256,168,295.848V360
		c0,17.672,14.328,32,32,32l0,0h224c17.672,0,32-14.328,32-32V168C456,150.328,441.672,136,424,136z"/>
</g>
<g>
	<path style="fill:#322153;" d="M0,136v192c0,22.056,17.944,40,40,40h64c22.056,0,40-17.944,40-40s-17.944-40-40-40H88
		c-4.408,0-8-3.584-8-8v-96c0-4.416,3.592-8,8-8h136v24c0,22.056,17.944,40,40,40s40-17.944,40-40v-64c0-22.056-17.944-40-40-40H40
		C17.944,96,0,113.944,0,136z M16,136c0-13.232,10.768-24,24-24h224c13.232,0,24,10.768,24,24v64c0,13.232-10.768,24-24,24
		s-24-10.768-24-24v-32c0-4.424-3.584-8-8-8H88c-13.232,0-24,10.768-24,24v96c0,13.232,10.768,24,24,24h16c13.232,0,24,10.768,24,24
		s-10.768,24-24,24H40c-13.232,0-24-10.768-24-24V136z"/>
	<path style="fill:#322153;" d="M424,96h-64c-22.056,0-40,17.944-40,40s17.944,40,40,40h16c4.416,0,8,3.584,8,8v96
		c0,4.416-3.584,8-8,8H240v-24.16c0-21.968-17.872-39.84-40.16-39.84c-21.968,0-39.84,17.872-39.84,39.84V328
		c0,22.056,17.944,40,40,40h224c22.056,0,40-17.944,40-40V136C464,113.944,446.056,96,424,96z M448,328c0,13.232-10.768,24-24,24
		H200c-13.232,0-24-10.768-24-24v-64.16c0-13.152,10.696-23.84,24.16-23.84c13.152,0,23.84,10.696,23.84,23.84V296
		c0,4.424,3.584,8,8,8h144c13.232,0,24-10.768,24-24v-96c0-13.232-10.768-24-24-24h-16c-13.232,0-24-10.768-24-24s10.768-24,24-24
		h64c13.232,0,24,10.768,24,24V328z"/>
	<path style="fill:#322153;" d="M32,40c0,22.056,17.944,40,40,40h32c19.312,0,35.472-13.768,39.192-32h17.616
		c3.72,18.232,19.872,32,39.192,32h32c22.056,0,40-17.944,40-40S254.056,0,232,0h-32c-19.312,0-35.472,13.768-39.192,32h-17.616
		C139.472,13.768,123.312,0,104,0H72C49.944,0,32,17.944,32,40z M200,16h32c13.232,0,24,10.768,24,24s-10.768,24-24,24h-32
		c-10.416,0-19.216-6.712-22.528-16H200c4.416,0,8-3.576,8-8s-3.584-8-8-8h-22.528C180.784,22.712,189.584,16,200,16z M72,16h32
		c10.416,0,19.216,6.712,22.528,16H104c-4.416,0-8,3.576-8,8s3.584,8,8,8h22.528c-3.312,9.288-12.112,16-22.528,16H72
		c-13.232,0-24-10.768-24-24S58.768,16,72,16z"/>
	<path style="fill:#322153;" d="M264,464c19.312,0,35.472-13.768,39.192-32h17.616c3.72,18.232,19.872,32,39.192,32h32
		c22.056,0,40-17.944,40-40s-17.944-40-40-40h-32c-19.312,0-35.472,13.768-39.192,32h-17.616c-3.72-18.232-19.872-32-39.192-32h-32
		c-22.056,0-40,17.944-40,40s17.944,40,40,40H264z M360,400h32c13.232,0,24,10.768,24,24s-10.768,24-24,24h-32
		c-10.416,0-19.216-6.712-22.528-16H360c4.424,0,8-3.576,8-8s-3.576-8-8-8h-22.528C340.784,406.712,349.584,400,360,400z M208,424
		c0-13.232,10.768-24,24-24h32c10.416,0,19.216,6.712,22.528,16H264c-4.424,0-8,3.576-8,8s3.576,8,8,8h22.528
		c-3.312,9.288-12.112,16-22.528,16h-32C218.768,448,208,437.232,208,424z"/>
</g>
<g>
</g>
<g>
</g>
<g>
</g>
<g>
</g>
<g>
</g>
<g>
</g>
<g>
</g>
<g>
</g>
<g>
</g>
<g>
</g>
<g>
</g>
<g>
</g>
<g>
</g>
<g>
</g>
<g>
</g>
</svg>
