<?xml version="1.0" encoding="iso-8859-1"?>
<!-- Generator: Adobe Illustrator 19.0.0, SVG Export Plug-In . SVG Version: 6.00 Build 0)  -->
<svg version="1.1" id="Capa_1" xmlns="http://www.w3.org/2000/svg" xmlns:xlink="http://www.w3.org/1999/xlink" x="0px" y="0px"
	 viewBox="0 0 464 464" style="enable-background:new 0 0 464 464;" xml:space="preserve">
<path style="fill:#00F2A9;" d="M424,104H168c-17.672,0-32,14.328-32,32v32h160c17.672,0,32,14.328,32,32v160h96
	c17.672,0,32-14.328,32-32V136C456,118.328,441.672,104,424,104z"/>
<path style="fill:#322153;" d="M452.28,75.72c-0.04-0.04-0.088-0.048-0.12-0.08C444.928,68.456,434.976,64,424,64H168
	c-10.976,0-20.928,4.456-28.16,11.64c-0.04,0.032-0.088,0.048-0.12,0.08s-0.048,0.088-0.08,0.12C132.456,83.072,128,93.024,128,104
	v24H40c-2.04,0-4.008,0.24-5.936,0.6c-7.592,1.144-14.424,4.408-20,9.2c-0.936,0.712-1.664,1.296-1.912,1.512
	c-0.064,0.056-0.088,0.136-0.144,0.192C4.608,146.768,0,156.848,0,168v192c0,22.056,17.944,40,40,40h256
	c10.976,0,20.928-4.456,28.16-11.64c0.04-0.032,0.088-0.048,0.12-0.08s0.048-0.088,0.08-0.12C331.544,380.928,336,370.976,336,360
	v-24h88c10.976,0,20.928-4.456,28.16-11.64c0.04-0.032,0.088-0.048,0.12-0.08s0.048-0.088,0.08-0.12
	C459.544,316.928,464,306.976,464,296V104c0-10.976-4.456-20.928-11.64-28.16C452.328,75.8,452.32,75.752,452.28,75.72z
	 M339.312,200l106.28-106.28C447.096,96.848,448,100.304,448,104v192c0,3.696-0.904,7.152-2.408,10.28L339.312,200z M211.312,264
	l106.28-106.28c1.504,3.128,2.408,6.584,2.408,10.28v192c0,3.696-0.904,7.152-2.408,10.28L211.312,264z M424,80
	c3.696,0,7.152,0.904,10.28,2.408L336,180.688V168c0-11.336-4.784-21.528-12.384-28.816c-0.064-0.056-0.096-0.136-0.16-0.184
	c-0.096-0.072-0.376-0.272-0.576-0.424c-5.92-5.416-13.44-8.984-21.784-10.064C299.4,128.2,297.696,128,296,128h-92.688
	L157.72,82.408C160.848,80.904,164.304,80,168,80H424z M144,104c0-3.696,0.904-7.152,2.408-10.28l34.28,34.28H144V104z M296,144
	c0.776,0,1.504,0.16,2.256,0.232c2.352,0.44,4.992,1.456,7.512,2.688l-120.8,120.8c-9.064,9.064-24.872,9.064-33.936,0
	L30.024,146.712c2.184-1.072,4.632-1.976,7.08-2.416C38.064,144.176,39.008,144,40,144H296z M18.408,370.28
	C16.904,367.152,16,363.696,16,360V168c0-3.696,0.904-7.152,2.408-10.28L124.688,264L18.408,370.28z M40,384
	c-3.696,0-7.152-0.904-10.28-2.408L136,275.312l3.72,3.72c7.8,7.8,18.04,11.696,28.28,11.696s20.488-3.896,28.28-11.696l3.72-3.72
	l106.28,106.28C303.152,383.096,299.696,384,296,384H40z M336,320V219.312l98.28,98.28C431.152,319.096,427.696,320,424,320H336z"/>
<g>
</g>
<g>
</g>
<g>
</g>
<g>
</g>
<g>
</g>
<g>
</g>
<g>
</g>
<g>
</g>
<g>
</g>
<g>
</g>
<g>
</g>
<g>
</g>
<g>
</g>
<g>
</g>
<g>
</g>
</svg>
