<?xml version="1.0" encoding="iso-8859-1"?>
<!-- Generator: Adobe Illustrator 19.0.0, SVG Export Plug-In . SVG Version: 6.00 Build 0)  -->
<svg version="1.1" id="Capa_1" xmlns="http://www.w3.org/2000/svg" xmlns:xlink="http://www.w3.org/1999/xlink" x="0px" y="0px"
	 viewBox="0 0 464.001 464.001" style="enable-background:new 0 0 464.001 464.001;" xml:space="preserve">
<g>
	<path style="fill:#00F2A9;" d="M424,152.002v64h32v-32C456,166.33,441.672,152.002,424,152.002z"/>
	<path style="fill:#00F2A9;" d="M360,152.002H40c-17.672,0-32,14.328-32,32v32h352.336L360,152.002z"/>
</g>
<g>
	<path style="fill:#322153;" d="M464,184.002v-32c0-19.312-13.768-35.472-32-39.192V96.002h24c3.232,0,6.16-1.944,7.392-4.936
		c1.24-2.992,0.552-6.432-1.736-8.72l-64-64c-3.128-3.128-8.184-3.128-11.312,0l-64,64c-2.288,2.288-2.976,5.728-1.736,8.72
		c1.232,2.992,4.16,4.936,7.392,4.936h24v16H40c-22.056,0-40,17.944-40,40v32v224c0,22.056,17.944,40,40,40h384
		c22.056,0,40-17.944,40-40V184.002z M448,176.002h-16v-46.528c0.264,0.096,0.544,0.144,0.8,0.248
		c0.424,0.168,0.84,0.36,1.248,0.552c0.912,0.424,1.784,0.896,2.624,1.424c0.376,0.24,0.768,0.464,1.128,0.728
		c0.96,0.68,1.864,1.432,2.712,2.24c0.168,0.16,0.36,0.296,0.52,0.456c0.984,0.992,1.864,2.08,2.664,3.232
		c0.224,0.32,0.4,0.664,0.608,1c0.544,0.872,1.04,1.768,1.472,2.712c0.2,0.44,0.384,0.888,0.56,1.336
		c0.36,0.936,0.656,1.896,0.896,2.88c0.104,0.44,0.232,0.864,0.32,1.312c0.272,1.432,0.448,2.896,0.448,4.408V176.002z M16,152.002
		c0-13.232,10.768-24,24-24h312v48H16V152.002z M424,432.002H40c-13.232,0-24-10.768-24-24v-216h336v216c0,4.424,3.576,8,8,8
		s8-3.576,8-8V185.69c0.128-0.576,0.336-1.128,0.336-1.72l-0.336-64V88.002c0-4.424-3.576-8-8-8h-12.688L392,35.314l44.688,44.688
		H424c-4.424,0-8,3.576-8,8v32v64v224c0,4.424,3.576,8,8,8s8-3.576,8-8v-216h16v216C448,421.234,437.232,432.002,424,432.002z"/>
	<path style="fill:#322153;" d="M312.16,392.002h-13.6c-2.384-10.216-5.64-19.032-10.328-27.944l10.168-11.68
		c9.36-9.488,9.36-25.512,0.056-34.936l-22.56-23.336c-8.96-9.072-24.44-9.376-33.48-0.648l-13.96,10.72
		C219.496,299.33,208,295.89,200,293.434v-13.872c0-1.256,0.064-2.288,0.096-3.144c0.104-3.128,0.224-6.664-2.728-9.64
		c-2.96-2.992-6.584-2.912-9.744-2.816l-2.816,0.04l-34.832-0.032c-8.792-0.168-19.744-0.304-25.88,5.752
		c-2.656,2.616-4.096,6.024-4.096,9.832v14.928c-8,2.568-12.408,5.6-18.376,8.872l-8.088-9.736c-9.048-9.16-23.656-9.232-32.84,0.08
		l-21.872,22.72c-9.192,9.312-9.064,24.584,0.312,34.072l10.144,10.168c-5.488,10.96-9.16,22.96-11.376,31.656
		c-1.096,4.28,1.496,8.64,5.776,9.728c4.272,1.104,8.632-1.496,9.728-5.776c3.312-12.976,7.808-24.704,12.648-33.016
		c1.832-3.136,1.32-7.112-1.24-9.68l-14.32-14.36c-3.216-3.256-3.344-8.448-0.2-11.624l21.872-22.72
		c3.016-3.08,7.448-2.56,9.536-0.512l11.944,14.384c2.512,3.032,6.872,3.8,10.256,1.76c11.432-6.832,21.792-11.152,26.968-13.12
		c3.104-1.176,5.128-4.152,5.128-7.472v-19.072c0-1.04,10.344-0.928,13.664-0.864L184,280.002v19.904
		c0,3.84,2.768,7.144,6.536,7.856c13.344,2.528,23.664,6.376,34.488,12.848c2.832,1.688,6.4,1.48,8.992-0.52l18.536-14.256
		c0.288-0.224,0.568-0.464,0.824-0.72c2.92-2.968,8.152-2.792,11.072,0.168l22.56,23.336c3.12,3.16,3.12,9.344-0.336,12.864
		l-14.192,16.28c-2.248,2.584-2.608,6.32-0.88,9.288c6.432,11.024,10.088,20.992,12.608,34.416c0.704,3.792,4,6.536,7.856,6.536
		h20.096c7.912,0,7.912,2.92,7.912,4.32c0,4.424,3.576,8,8,8s8-3.576,8-8C336.072,399.978,326.68,392.002,312.16,392.002z"/>
	<path style="fill:#322153;" d="M219.608,373.426c-13.536-13.712-31.544-21.264-50.704-21.264c-0.008,0-0.008,0-0.008,0
		c-19.168,0-37.168,7.544-50.72,21.264c-4.448,4.504-8.272,9.552-11.384,15.008c-2.192,3.832-0.856,8.72,2.984,10.904
		c3.832,2.2,8.728,0.864,10.904-2.984c2.424-4.24,5.416-8.176,8.88-11.688c10.504-10.648,24.48-16.504,39.328-16.504
		s28.816,5.856,39.32,16.504c3.48,3.528,6.472,7.464,8.872,11.696c1.48,2.584,4.176,4.04,6.96,4.04c1.344,0,2.704-0.336,3.952-1.048
		c3.832-2.184,5.176-7.072,2.992-10.912C227.896,382.994,224.072,377.938,219.608,373.426z"/>
	<path style="fill:#322153;" d="M168.896,335.914c4.424,0,8-3.576,8-8s-3.576-8-8-8c-43.816,0-83.048,28.072-97.624,69.848
		c-1.456,4.168,0.752,8.736,4.92,10.184c0.864,0.304,1.76,0.448,2.632,0.448c3.304,0,6.4-2.064,7.552-5.368
		C98.72,359.674,131.88,335.914,168.896,335.914z"/>
	<path style="fill:#322153;" d="M104.088,144.002H104c-4.424,0-7.96,3.576-7.96,8s3.624,8,8.048,8s8-3.576,8-8
		S108.504,144.002,104.088,144.002z"/>
	<path style="fill:#322153;" d="M72.088,144.002H72c-4.424,0-7.96,3.576-7.96,8s3.624,8,8.048,8s8-3.576,8-8
		S76.504,144.002,72.088,144.002z"/>
	<path style="fill:#322153;" d="M40.088,144.002H40c-4.424,0-7.96,3.576-7.96,8s3.624,8,8.048,8s8-3.576,8-8
		S44.504,144.002,40.088,144.002z"/>
</g>
<g>
</g>
<g>
</g>
<g>
</g>
<g>
</g>
<g>
</g>
<g>
</g>
<g>
</g>
<g>
</g>
<g>
</g>
<g>
</g>
<g>
</g>
<g>
</g>
<g>
</g>
<g>
</g>
<g>
</g>
</svg>
