<?xml version="1.0" encoding="iso-8859-1"?>
<!-- Generator: Adobe Illustrator 19.0.0, SVG Export Plug-In . SVG Version: 6.00 Build 0)  -->
<svg version="1.1" id="Capa_1" xmlns="http://www.w3.org/2000/svg" xmlns:xlink="http://www.w3.org/1999/xlink" x="0px" y="0px"
	 viewBox="0 0 464 464" style="enable-background:new 0 0 464 464;" xml:space="preserve">
<path style="fill:#00F2A9;" d="M295.996,136c-20.16,10.08-42.08,15.12-64,15.12s-43.84-5.04-64-15.12h-6.88l-15.92,224
	c56-20.64,117.6-20.64,173.6,0l-15.92-224H295.996z M183.996,328c-8.8,0-16-7.2-16-16s7.2-16,16-16s16,7.2,16,16
	S192.796,328,183.996,328z M231.996,264c-17.68,0-32-14.32-32-32s14.32-32,32-32s32,14.32,32,32S249.676,264,231.996,264z
	 M279.996,328c-8.8,0-16-7.2-16-16s7.2-16,16-16s16,7.2,16,16S288.796,328,279.996,328z"/>
<g>
	<path style="fill:#322153;" d="M434.1,426.848l27.432-384c0.792-11.04-3.088-22.016-10.624-30.112
		C443.364,4.64,432.692,0,421.628,0h-91.264c-11.064,0-21.736,4.64-29.272,12.744c-7.536,8.096-11.416,19.072-10.624,30.112
		l3.824,53.488c-0.632,0.136-1.264,0.208-1.864,0.504c-37.832,18.92-83.016,18.92-120.84,0c-0.6-0.296-1.24-0.368-1.864-0.504
		l3.824-53.488c0.792-11.04-3.088-22.016-10.624-30.112C155.364,4.64,144.692,0,133.628,0H42.364C31.3,0,20.628,4.64,13.092,12.744
		C5.548,20.832,1.676,31.816,2.468,42.848l27.432,384C31.38,447.68,48.9,464,69.796,464h36.408c20.888,0,38.416-16.32,39.896-37.152
		l6.64-93.008c51.328-17.688,107.184-17.688,158.512,0l6.64,93.008C319.38,447.68,336.9,464,357.796,464h36.408
		C415.092,464,432.612,447.68,434.1,426.848z M418.836,416h-85.68l-5.16-88.344c0-0.024,0-0.048,0-0.072L306.868,48h138.256
		L418.836,416z M330.364,16h91.264c6.736,0,12.976,2.72,17.56,7.648c2.296,2.464,4.008,5.296,5.088,8.352h-136.56
		c1.08-3.056,2.792-5.888,5.088-8.352C317.388,18.72,323.628,16,330.364,16z M231.996,176c13.232,0,24,10.768,24,24
		s-10.768,24-24,24s-24-10.768-24-24S218.764,176,231.996,176z M42.364,16h91.264c6.736,0,12.976,2.72,17.56,7.648
		c2.296,2.464,4.008,5.296,5.088,8.352H19.716c1.08-3.056,2.792-5.888,5.088-8.352C29.388,18.72,35.628,16,42.364,16z M18.868,48
		h138.256l-21.128,279.584c0,0.024,0,0.048,0,0.072L130.836,416h-85.68L18.868,48z M106.196,448H69.788
		c-10.32,0-19.176-6.68-22.52-16h81.44C125.372,441.32,116.516,448,106.196,448z M153.98,316.544l14.536-203.488
		c17.584,8.136,36.44,12.744,55.48,13.744v34.016c-18.232,3.72-32,19.872-32,39.192c0,22.056,17.944,40,40,40s40-17.944,40-40
		c0-19.312-13.768-35.472-32-39.192V126.8c19.04-1,37.896-5.608,55.48-13.744l14.536,203.488
		C259.276,300.528,204.716,300.528,153.98,316.544z M335.276,432h81.44c-3.344,9.32-12.2,16-22.52,16h-36.408
		C347.476,448,338.62,441.32,335.276,432z"/>
	<path style="fill:#322153;" d="M183.996,256c-13.232,0-24,10.768-24,24s10.768,24,24,24s24-10.768,24-24S197.228,256,183.996,256z
		 M183.996,288c-4.416,0-8-3.584-8-8s3.584-8,8-8s8,3.584,8,8S188.412,288,183.996,288z"/>
	<path style="fill:#322153;" d="M279.996,256c-13.232,0-24,10.768-24,24s10.768,24,24,24s24-10.768,24-24S293.228,256,279.996,256z
		 M279.996,288c-4.416,0-8-3.584-8-8s3.584-8,8-8s8,3.584,8,8S284.412,288,279.996,288z"/>
</g>
<g>
</g>
<g>
</g>
<g>
</g>
<g>
</g>
<g>
</g>
<g>
</g>
<g>
</g>
<g>
</g>
<g>
</g>
<g>
</g>
<g>
</g>
<g>
</g>
<g>
</g>
<g>
</g>
<g>
</g>
</svg>
