<?xml version="1.0" encoding="iso-8859-1"?>
<!-- Generator: Adobe Illustrator 19.0.0, SVG Export Plug-In . SVG Version: 6.00 Build 0)  -->
<svg version="1.1" id="Capa_1" xmlns="http://www.w3.org/2000/svg" xmlns:xlink="http://www.w3.org/1999/xlink" x="0px" y="0px"
	 viewBox="0 0 464 464" style="enable-background:new 0 0 464 464;" xml:space="preserve">
<path style="fill:#00F2A9;" d="M154.109,40c-17.672,0-32,14.328-32,32v192h192V72c0-17.672-14.328-32-32-32H154.109z"/>
<g>
	<path style="fill:#322153;" d="M93.149,384.64c-2.88-1.28-6.48-0.56-8.72,1.68c-1.44,1.512-2.32,3.512-2.32,5.68
		c0,2.16,0.8,4.16,2.32,5.68c1.52,1.512,3.52,2.32,5.68,2.32s4.16-0.808,5.68-2.32c0.72-0.808,1.28-1.68,1.68-2.64
		c0.4-0.96,0.64-2,0.64-3.04c0-2.08-0.88-4.168-2.32-5.68C94.989,385.6,94.109,385.04,93.149,384.64z"/>
	<path style="fill:#322153;" d="M119.069,384.64c-0.96,0.4-1.84,0.96-2.64,1.68c-1.44,1.512-2.32,3.6-2.32,5.68
		c0,2.16,0.8,4.16,2.32,5.68c1.52,1.512,3.52,2.32,5.68,2.32s4.16-0.808,5.68-2.32c1.52-1.52,2.32-3.52,2.32-5.68
		c0-2.08-0.88-4.168-2.32-5.68C125.549,384.08,122.029,383.36,119.069,384.64z"/>
	<path style="fill:#322153;" d="M148.429,386.32c-1.44,1.512-2.32,3.6-2.32,5.68c0,1.04,0.24,2.08,0.64,3.04
		c0.4,0.96,0.96,1.832,1.68,2.64c1.52,1.512,3.52,2.32,5.68,2.32s4.16-0.808,5.68-2.32c1.52-1.52,2.32-3.52,2.32-5.68
		c0-2.08-0.88-4.168-2.32-5.68C156.829,383.36,151.389,383.36,148.429,386.32z"/>
	<path style="fill:#322153;" d="M180.429,386.32c-1.44,1.512-2.32,3.512-2.32,5.68c0,2.16,0.8,4.16,2.32,5.68
		c1.52,1.512,3.52,2.32,5.68,2.32s4.16-0.808,5.68-2.32c1.52-1.52,2.32-3.52,2.32-5.68c0-2.08-0.88-4.168-2.32-5.68
		C188.829,383.36,183.389,383.36,180.429,386.32z"/>
	<path style="fill:#322153;" d="M215.069,384.64c-0.96,0.4-1.84,0.96-2.64,1.68c-1.44,1.512-2.32,3.6-2.32,5.68
		c0,1.04,0.16,2.08,0.64,3.04c0.4,0.96,0.96,1.832,1.68,2.64c1.52,1.512,3.52,2.32,5.68,2.32s4.16-0.808,5.68-2.32
		c1.52-1.52,2.32-3.52,2.32-5.68c0-2.08-0.88-4.168-2.32-5.68C221.549,384.08,218.029,383.36,215.069,384.64z"/>
	<path style="fill:#322153;" d="M244.429,386.32c-1.448,1.512-2.32,3.6-2.32,5.68c0,1.04,0.24,2.08,0.64,3.04s0.96,1.832,1.68,2.64
		c0.8,0.72,1.68,1.28,2.64,1.68s2,0.64,3.04,0.64s2.08-0.24,3.04-0.64s1.832-0.96,2.64-1.68c0.72-0.808,1.28-1.68,1.68-2.64
		s0.64-2,0.64-3.04c0-2.08-0.88-4.168-2.32-5.68C252.829,383.36,247.389,383.36,244.429,386.32z"/>
	<path style="fill:#322153;" d="M286.589,385.36c-0.48-0.32-0.96-0.56-1.44-0.72c-0.488-0.24-0.96-0.4-1.52-0.488
		c-1.52-0.32-3.12-0.152-4.56,0.488c-1.04,0.4-1.84,0.96-2.64,1.68c-1.448,1.512-2.32,3.512-2.32,5.68c0,2.16,0.8,4.16,2.32,5.68
		c1.512,1.512,3.512,2.32,5.68,2.32c2.16,0,4.16-0.808,5.68-2.32c0.72-0.808,1.28-1.68,1.68-2.64s0.64-2,0.64-3.04
		c0-2.08-0.88-4.168-2.32-5.68C287.389,386,286.981,385.68,286.589,385.36z"/>
	<path style="fill:#322153;" d="M308.429,386.32c-1.448,1.512-2.32,3.6-2.32,5.68c0,2.16,0.8,4.16,2.32,5.68
		c1.512,1.512,3.512,2.32,5.68,2.32c2.16,0,4.16-0.808,5.68-2.32c1.512-1.52,2.32-3.52,2.32-5.68c0-2.08-0.88-4.168-2.32-5.68
		C316.829,383.36,311.389,383.36,308.429,386.32z"/>
	<path style="fill:#322153;" d="M126.589,353.36c-0.48-0.32-0.96-0.56-1.44-0.72c-0.48-0.24-0.96-0.4-1.44-0.488
		c-2.64-0.552-5.36,0.32-7.28,2.168c-1.44,1.512-2.32,3.6-2.32,5.68c0,2.16,0.8,4.16,2.32,5.68c1.52,1.512,3.52,2.32,5.68,2.32
		s4.16-0.808,5.68-2.32c1.52-1.52,2.32-3.52,2.32-5.68c0-2.08-0.88-4.168-2.32-5.68C127.389,354,126.989,353.6,126.589,353.36z"/>
	<path style="fill:#322153;" d="M148.429,354.32c-1.44,1.512-2.32,3.6-2.32,5.68c0,2.16,0.8,4.16,2.32,5.68
		c1.52,1.512,3.52,2.32,5.68,2.32s4.16-0.808,5.68-2.32c1.52-1.52,2.32-3.52,2.32-5.68c0-2.08-0.88-4.168-2.32-5.68
		C156.749,351.36,151.389,351.36,148.429,354.32z"/>
	<path style="fill:#322153;" d="M180.429,354.32c-1.44,1.512-2.32,3.6-2.32,5.68c0,2.16,0.8,4.16,2.32,5.68
		c1.52,1.512,3.52,2.32,5.68,2.32s4.16-0.808,5.68-2.32c1.52-1.52,2.32-3.52,2.32-5.68c0-2.08-0.88-4.168-2.32-5.68
		C188.829,351.36,183.469,351.36,180.429,354.32z"/>
	<path style="fill:#322153;" d="M212.429,354.32c-1.44,1.512-2.32,3.6-2.32,5.68c0,2.16,0.8,4.16,2.32,5.68
		c1.52,1.512,3.52,2.32,5.68,2.32s4.16-0.808,5.68-2.32c1.52-1.52,2.32-3.52,2.32-5.68c0-2.08-0.88-4.168-2.32-5.68
		C220.749,351.36,215.389,351.36,212.429,354.32z"/>
	<path style="fill:#322153;" d="M254.589,353.36c-0.48-0.32-0.96-0.56-1.44-0.72c-0.488-0.24-0.96-0.4-1.52-0.488
		c-2.552-0.552-5.36,0.32-7.192,2.168c-1.456,1.512-2.328,3.6-2.328,5.68c0,2.16,0.8,4.16,2.32,5.68
		c1.512,1.512,3.512,2.32,5.68,2.32c2.16,0,4.16-0.808,5.68-2.32c1.512-1.52,2.32-3.52,2.32-5.68c0-2.08-0.88-4.168-2.32-5.68
		C255.389,354,254.981,353.6,254.589,353.36z"/>
	<path style="fill:#322153;" d="M279.069,352.64c-1.04,0.4-1.92,0.96-2.64,1.68c-1.448,1.512-2.32,3.6-2.32,5.68
		c0,2.16,0.8,4.16,2.32,5.68c1.512,1.512,3.512,2.32,5.68,2.32c2.16,0,4.16-0.808,5.68-2.32c1.512-1.52,2.32-3.52,2.32-5.68
		c0-2.08-0.88-4.168-2.32-5.68C285.549,352.08,281.941,351.36,279.069,352.64z"/>
	<path style="fill:#322153;" d="M318.589,353.36c-0.48-0.32-0.96-0.56-1.44-0.72c-0.488-0.24-0.96-0.4-1.52-0.488
		c-1.52-0.32-3.12-0.152-4.56,0.488c-1.04,0.4-1.84,0.96-2.64,1.68c-1.448,1.512-2.32,3.6-2.32,5.68c0,2.16,0.8,4.16,2.32,5.68
		c1.512,1.512,3.512,2.32,5.68,2.32c2.16,0,4.16-0.808,5.68-2.32c1.512-1.52,2.32-3.52,2.32-5.68c0-2.08-0.88-4.168-2.32-5.68
		C319.389,354,318.981,353.6,318.589,353.36z"/>
	<path style="fill:#322153;" d="M338.109,392c0,1.04,0.24,2.08,0.64,3.04s0.96,1.832,1.68,2.64c1.512,1.512,3.512,2.32,5.68,2.32
		c1.04,0,2.08-0.24,3.04-0.64s1.832-0.96,2.64-1.68c0.72-0.808,1.28-1.68,1.68-2.64s0.64-2,0.64-3.04c0-0.488-0.08-1.04-0.168-1.52
		c-0.08-0.552-0.232-1.04-0.48-1.512c-0.168-0.488-0.4-0.96-0.72-1.448c-0.32-0.4-0.64-0.8-0.96-1.192c-2.96-2.96-8.4-2.96-11.36,0
		C338.981,387.832,338.109,389.92,338.109,392z"/>
	<path style="fill:#322153;" d="M82.725,292.944c-0.4,0.976-0.616,2.016-0.616,3.056v29.576l-29.488,44.232
		c-4.632,6.944-6.824,14.776-6.72,22.632c0,0.032-0.016,0.056-0.008,0.088l0.016,0.296c0.032,1.272,0.096,2.544,0.256,3.816
		l1.984,30.008C49.533,447.592,67.069,464,88.061,464h260.088c21,0,38.528-16.416,39.912-37.368l1.968-29.792
		c1.184-9.304-0.936-18.784-6.424-27.024l-29.496-44.24V296c0-1.04-0.208-2.08-0.616-3.056c-0.408-0.984-1-1.872-1.736-2.616
		L333.421,272h36.688v8c0,13.232,10.768,24,24,24s24-10.768,24-24v-64c0-13.232-10.768-24-24-24s-24,10.768-24,24v8h-48V40
		c0-22.056-17.944-40-40-40h-128c-22.056,0-40,17.944-40,40v184h-40c-13.232,0-24,10.768-24,24s10.768,24,24,24h28.688
		l-18.336,18.336C83.717,291.072,83.133,291.96,82.725,292.944z M338.109,320h-240v-16h240V320z M348.149,448H88.061
		c-12.6,0-21.952-9.84-21.952-22.416v-0.016c8,4.12,11.784,6.432,19.792,6.432h264.416c8.008,0,15.456-2.312,21.776-6.416v0.008
		C371.269,438.16,360.749,448,348.149,448z M371.477,403.328c-4.248,7.936-12.16,12.672-21.16,12.672H85.901
		c-9,0-16.912-4.744-21.16-12.68c-4.248-7.928-3.8-17.144,1.192-24.632L94.389,336h247.44l28.464,42.688
		C375.277,386.176,375.725,395.392,371.477,403.328z M386.109,216c0-4.416,3.584-8,8-8s8,3.584,8,8v64c0,4.416-3.584,8-8,8
		s-8-3.584-8-8v-16v-32V216z M130.109,40c0-13.232,10.768-24,24-24h128c13.232,0,24,10.768,24,24v184h-176V40z M66.109,248
		c0-4.416,3.592-8,8-8h48h192h56v16h-296C69.701,256,66.109,252.416,66.109,248z M310.797,272l16,16H109.421l16-16H310.797z"/>
	<path style="fill:#322153;" d="M282.109,32h-128c-4.416,0-8,3.576-8,8s3.584,8,8,8h128c4.424,0,8-3.576,8-8S286.533,32,282.109,32z
		"/>
	<path style="fill:#322153;" d="M282.109,64h-128c-4.416,0-8,3.576-8,8s3.584,8,8,8h128c4.424,0,8-3.576,8-8S286.533,64,282.109,64z
		"/>
	<path style="fill:#322153;" d="M282.109,96h-128c-4.416,0-8,3.576-8,8c0,4.424,3.584,8,8,8h128c4.424,0,8-3.576,8-8
		S286.533,96,282.109,96z"/>
	<path style="fill:#322153;" d="M282.109,128h-128c-4.416,0-8,3.576-8,8s3.584,8,8,8h128c4.424,0,8-3.576,8-8
		S286.533,128,282.109,128z"/>
	<path style="fill:#322153;" d="M282.109,160h-128c-4.416,0-8,3.576-8,8s3.584,8,8,8h128c4.424,0,8-3.576,8-8
		S286.533,160,282.109,160z"/>
	<path style="fill:#322153;" d="M218.109,192h-64c-4.416,0-8,3.576-8,8s3.584,8,8,8h64c4.416,0,8-3.576,8-8S222.525,192,218.109,192
		z"/>
</g>
<g>
</g>
<g>
</g>
<g>
</g>
<g>
</g>
<g>
</g>
<g>
</g>
<g>
</g>
<g>
</g>
<g>
</g>
<g>
</g>
<g>
</g>
<g>
</g>
<g>
</g>
<g>
</g>
<g>
</g>
</svg>
