<?xml version="1.0" encoding="iso-8859-1"?>
<!-- Generator: Adobe Illustrator 19.0.0, SVG Export Plug-In . SVG Version: 6.00 Build 0)  -->
<svg version="1.1" id="Capa_1" xmlns="http://www.w3.org/2000/svg" xmlns:xlink="http://www.w3.org/1999/xlink" x="0px" y="0px"
	 viewBox="0 0 464 464" style="enable-background:new 0 0 464 464;" xml:space="preserve">
<g>
	<path style="fill:#00F2A9;" d="M135.996,264v-32c0,0-32-1.336-32-32c0,64.312,0,128,0,128s0,32,32,32s32,0,32,0h32h32
		C178.98,360,135.996,317.016,135.996,264z"/>
	<path style="fill:#00F2A9;" d="M327.996,232v32c0,53.016-42.984,96-96,96h96c0,0,32,0,32-32c0-14.936,0-71.704,0-128
		C359.996,230.664,327.996,232,327.996,232z"/>
	<path style="fill:#00F2A9;" d="M263.996,40c-31.504,0-32,32-32,32s-0.664-32-32-32s-32,0-32,0c-35.344,0-64,28.656-64,64v96
		c0-30.664,32-32,32-32h32c35.344,0,64-28.656,64-64c0,35.344,28.656,64,64,64h32c0,0,32,1.336,32,32v-96c0-35.344-28.656-64-64-64
		H263.996z"/>
</g>
<g>
	<path style="fill:#322153;" d="M103.996,352c-1.592,0-3.16,0.096-4.656,0.272c-11.832,1.368-21.952,8.32-27.768,19.072
		c-6.136,11.344-6.376,24.96-0.64,36.424l17.064,34.12C94.828,455.528,108.524,464,123.772,464h216.456
		c15.24,0,28.944-8.472,35.776-22.112l17.064-34.128c5.736-11.464,5.496-25.08-0.64-36.424
		c-5.816-10.752-15.936-17.704-27.728-19.072c-1.544-0.168-3.112-0.264-4.704-0.264h-60.688l-16-16h44.688c13.832,0,40-8.36,40-40
		V168V72c0-39.704-32.296-72-72-72h-32c-15.952,0-26,6.84-32.04,15.376C225.908,6.84,215.876,0,199.996,0h-32
		c-39.704,0-72,32.296-72,72v96v128c0,13.832,8.36,40,40,40h44.688l-16,16H103.996z M167.996,371.312l34.384,34.384l-51.568-17.192
		L167.996,371.312z M102.308,434.736l-17.064-34.128c-3.408-6.8-3.248-14.888,0.408-21.648c3.296-6.104,8.952-10.032,15.568-10.8
		c0.92-0.112,1.84-0.16,2.776-0.16h44.688l-18.344,18.344c-1.96,1.96-2.768,4.8-2.136,7.496c0.64,2.704,2.624,4.872,5.256,5.752
		l90.536,30.168V448H123.772C114.628,448,106.404,442.912,102.308,434.736z M362.812,368.168c6.576,0.768,12.232,4.696,15.528,10.8
		c3.656,6.76,3.816,14.848,0.408,21.648l-17.064,34.128C357.588,442.912,349.364,448,340.22,448H239.996v-18.24l90.528-30.176
		c2.632-0.872,4.616-3.048,5.256-5.752c0.632-2.696-0.168-5.528-2.136-7.496L315.308,368h44.688
		C360.932,368,361.852,368.048,362.812,368.168z M295.996,371.312l17.184,17.184l-51.568,17.192L295.996,371.312z M231.996,320
		c-48.52,0-88-39.48-88-88v-32v-56h24c27.832,0,52.016-15.864,64-39.032c11.984,23.168,36.168,39.032,64,39.032l24-0.008V200v32
		C319.996,280.52,280.516,320,231.996,320z M351.996,296c0,22.584-20.032,23.952-24,24h-40.624
		c29.192-18.44,48.624-50.992,48.624-88v-25.056c5.152-1.16,10.848-3.312,16-6.848V296z M335.996,190.32V145.6
		c7.088,2.344,16,8.12,16,22.4C351.996,182.104,343.092,187.92,335.996,190.32z M263.996,16h32c30.872,0,56,25.128,56,56v63.936
		c-7.984-5.472-17.328-7.664-24-7.936h-32c-30.872,0-56-25.128-56-56V40.128C240.036,37.656,241.036,16,263.996,16z M111.996,72
		c0-30.872,25.128-56,56-56h32c22.584,0,23.92,21.728,24,24.168V72c0,30.872-25.128,56-56,56h-31.96c-0.016,0-0.024,0-0.04,0
		s-0.024,0-0.04,0h-0.296c-6.496,0-15.736,2.464-23.664,7.904L111.996,72L111.996,72z M127.996,145.656V190.4
		c-7.088-2.344-16-8.12-16-22.4C111.996,153.832,120.98,148.032,127.996,145.656z M135.996,320c-22.584,0-23.952-20.032-24-24
		v-95.904c5.152,3.536,10.848,5.696,16,6.848V232c0,37.008,19.432,69.56,48.624,88H135.996z M231.996,336h28.688l24,24
		l-52.688,52.688L179.308,360l24-24H231.996z"/>
	<path style="fill:#322153;" d="M135.996,80c4.344,0,7.904-3.48,8-7.832c0.048-2.472,1.16-24.168,24-24.168c4.424,0,8-3.576,8-8
		s-3.576-8-8-8c-30.984,0-39.712,26.056-40,39.832c-0.096,4.416,3.416,8.072,7.832,8.168C135.884,80,135.94,80,135.996,80z"/>
	<path style="fill:#322153;" d="M327.996,112c4.424,0,8-3.576,8-8V72c0-4.424-3.576-8-8-8s-8,3.576-8,8v32
		C319.996,108.424,323.572,112,327.996,112z"/>
</g>
<g>
</g>
<g>
</g>
<g>
</g>
<g>
</g>
<g>
</g>
<g>
</g>
<g>
</g>
<g>
</g>
<g>
</g>
<g>
</g>
<g>
</g>
<g>
</g>
<g>
</g>
<g>
</g>
<g>
</g>
</svg>
