<?xml version="1.0" encoding="iso-8859-1"?>
<!-- Generator: Adobe Illustrator 19.0.0, SVG Export Plug-In . SVG Version: 6.00 Build 0)  -->
<svg version="1.1" id="Capa_1" xmlns="http://www.w3.org/2000/svg" xmlns:xlink="http://www.w3.org/1999/xlink" x="0px" y="0px"
	 viewBox="0 0 464 464" style="enable-background:new 0 0 464 464;" xml:space="preserve">
<g>
	<path style="fill:#00F2A9;" d="M199.996,72h-32c-17.672,0-32,14.328-32,32v32l32-32c0,0,0.664,32,32,32s32-32,32-32
		S232.66,72,199.996,72z"/>
	<path style="fill:#00F2A9;" d="M231.996,72v32c0,0,0.496,32,32,32c32.496,0,32-32,32-32l32,32V72c0-32-32-32-32-32s-0.504,0-32,0
		C232.492,40,231.996,72,231.996,72z"/>
	<polygon style="fill:#00F2A9;" points="167.996,456 231.996,424 167.996,392 	"/>
	<polygon style="fill:#00F2A9;" points="295.996,456 295.996,392 231.996,424 	"/>
</g>
<g>
	<path style="fill:#322153;" d="M263.948,80c0.016,0,0.032,0,0.048,0c4.384,0,7.952-3.56,8-7.944
		c0.048-4.016,1.416-24.056,24-24.056c4.424,0,8-3.576,8-8s-3.576-8-8-8c-31.64,0-40,26.168-40,40.008
		C255.996,76.408,259.548,80,263.948,80z"/>
	<path style="fill:#322153;" d="M103.996,352c-1.592,0-3.16,0.096-4.656,0.272c-11.832,1.368-21.952,8.32-27.768,19.072
		c-6.136,11.344-6.376,24.96-0.64,36.424l17.064,34.12C94.828,455.528,108.524,464,123.772,464h216.456
		c15.24,0,28.944-8.472,35.776-22.112l17.064-34.128c5.736-11.464,5.496-25.08-0.64-36.424
		c-5.816-10.752-15.936-17.704-27.728-19.072c-1.544-0.168-3.112-0.264-4.704-0.264h-60.688l-25.056-25.056
		c36.328-16.24,61.744-52.648,61.744-94.944v-24.872c13.952-2.92,32-13.816,32-39.12s-18.048-35.8-32-38.928V104V40
		c0-31.64-26.168-40-40-40h-32c-30.48,0-39.376,24.952-39.952,39.056C217.572,34.44,209.556,32,199.996,32h-32
		c-22.056,0-40,17.944-40,40v32v25.08c-13.952,3.12-32,13.616-32,38.92s18.048,35.8,32,38.92V232
		c0,42.296,25.416,78.704,61.744,94.944L164.684,352H103.996z M175.996,372.944L214.108,392l-38.112,19.056V372.944z
		 M102.308,434.736l-17.064-34.128c-3.408-6.8-3.248-14.888,0.408-21.648c3.296-6.104,8.952-10.032,15.568-10.8
		c0.92-0.112,1.84-0.16,2.776-0.16h56v56c0,2.776,1.44,5.344,3.8,6.808c1.28,0.792,2.736,1.192,4.2,1.192
		c1.224,0,2.448-0.28,3.576-0.84l52.424-26.216V448H123.772C114.628,448,106.404,442.912,102.308,434.736z M362.812,368.168
		c6.576,0.768,12.232,4.696,15.528,10.8c3.656,6.76,3.816,14.848,0.408,21.648l-17.064,34.128
		C357.588,442.912,349.364,448,340.22,448H239.996v-43.056l52.424,26.208c1.128,0.568,2.352,0.848,3.576,0.848
		c1.464,0,2.92-0.4,4.2-1.192c2.36-1.464,3.8-4.032,3.8-6.808v-56h56C360.932,368,361.852,368.048,362.812,368.168z M249.884,392
		l38.112-19.056v38.112L249.884,392z M351.996,168c0,14.104-8.912,19.928-16,22.336v-44.752
		C343.084,147.936,351.996,153.728,351.996,168z M239.996,40.128c0.04-2.472,1.04-24.128,24-24.128h31.952
		c4.016,0.048,24.048,1.416,24.048,24v44.688l-18.344-18.344c-2.304-2.304-5.784-2.984-8.776-1.712c-3,1.272-4.928,4.232-4.88,7.496
		c0,0.112-0.024,10.92-6.816,17.824C277.164,94.016,271.548,96,263.996,96c-22.232,0-23.888-20.136-24-24V40.128z M143.996,72
		c0-13.232,10.768-24,24-24h32c7.472,0,13.256,2.024,17.208,6.008c6.808,6.864,6.792,17.768,6.792,17.824
		c-0.048,2.472-1.16,24.168-24,24.168c-22.584,0-23.92-21.728-24-24.168c-0.072-3.2-2.04-6.064-5.016-7.256
		c-0.968-0.392-1.976-0.576-2.984-0.576c-2.08,0-4.128,0.816-5.656,2.344l-18.344,18.344V72z M111.996,168
		c0-14.104,8.904-19.928,16-22.336v44.752C120.908,188.064,111.996,182.272,111.996,168z M143.996,232v-32v-64v-28.688
		l19.344-19.344C168.18,99.992,178.956,112,199.996,112c15.904,0,25.92-6.88,31.96-15.424c6.032,8.544,16.056,15.424,32.04,15.424
		c11.888,0,21.512-3.64,28.584-10.832c3.968-4.032,6.552-8.656,8.24-13.032l19.176,19.176V136v64v32c0,48.52-39.48,88-88,88
		S143.996,280.52,143.996,232z M231.996,336c8.88,0,17.448-1.24,25.68-3.344c0.24,0.328,0.368,0.704,0.664,1l24.152,24.152
		l-50.496,25.248L181.5,357.808l24.152-24.152c0.296-0.296,0.424-0.672,0.664-1C214.548,334.76,223.116,336,231.996,336z"/>
</g>
<g>
</g>
<g>
</g>
<g>
</g>
<g>
</g>
<g>
</g>
<g>
</g>
<g>
</g>
<g>
</g>
<g>
</g>
<g>
</g>
<g>
</g>
<g>
</g>
<g>
</g>
<g>
</g>
<g>
</g>
</svg>
