<?xml version="1.0" encoding="iso-8859-1"?>
<!-- Generator: Adobe Illustrator 19.0.0, SVG Export Plug-In . SVG Version: 6.00 Build 0)  -->
<svg version="1.1" id="Capa_1" xmlns="http://www.w3.org/2000/svg" xmlns:xlink="http://www.w3.org/1999/xlink" x="0px" y="0px"
	 viewBox="0 0 464 464" style="enable-background:new 0 0 464 464;" xml:space="preserve">
<path style="fill:#00F2A9;" d="M424,72H40C22.328,72,8,86.328,8,104v32h448v-32C456,86.328,441.672,72,424,72z"/>
<g>
	<path style="fill:#322153;" d="M464,104V72c0-22.056-17.944-40-40-40H40C17.944,32,0,49.944,0,72v32v224c0,22.056,17.944,40,40,40
		h152v24c0,22.056,17.944,40,40,40s40-17.944,40-40v-24h152c22.056,0,40-17.944,40-40V104z M16,72c0-13.232,10.768-24,24-24h384
		c13.232,0,24,10.768,24,24v24H16V72z M240,384V240h16v144H240z M208,384V240h16v144H208z M212.944,224L232,185.888L251.056,224
		H212.944z M232,416c-10.416,0-19.216-6.712-22.528-16h45.048C251.216,409.288,242.416,416,232,416z M424,352H272V232
		c0-1.208-0.312-2.328-0.792-3.36c-0.032-0.072-0.016-0.152-0.048-0.216l-32-64c-2.72-5.424-11.592-5.424-14.312,0l-32,64
		c-0.032,0.072-0.016,0.152-0.048,0.216c-0.488,1.032-0.8,2.152-0.8,3.36v120H40c-13.232,0-24-10.768-24-24V112h432v216
		C448,341.232,437.232,352,424,352z"/>
	<path style="fill:#322153;" d="M104.088,64H104c-4.424,0-7.96,3.576-7.96,8s3.624,8,8.048,8s8-3.576,8-8S108.504,64,104.088,64z"/>
	<path style="fill:#322153;" d="M72.088,64H72c-4.424,0-7.96,3.576-7.96,8s3.624,8,8.048,8s8-3.576,8-8S76.504,64,72.088,64z"/>
	<path style="fill:#322153;" d="M40.088,64H40c-4.424,0-7.96,3.576-7.96,8s3.624,8,8.048,8s8-3.576,8-8S44.504,64,40.088,64z"/>
	<path style="fill:#322153;" d="M200,160H40c-4.424,0-8,3.576-8,8s3.576,8,8,8h160c4.424,0,8-3.576,8-8S204.424,160,200,160z"/>
	<path style="fill:#322153;" d="M424,128H40c-4.424,0-8,3.576-8,8s3.576,8,8,8h384c4.424,0,8-3.576,8-8S428.424,128,424,128z"/>
</g>
<g>
</g>
<g>
</g>
<g>
</g>
<g>
</g>
<g>
</g>
<g>
</g>
<g>
</g>
<g>
</g>
<g>
</g>
<g>
</g>
<g>
</g>
<g>
</g>
<g>
</g>
<g>
</g>
<g>
</g>
</svg>
