<?xml version="1.0" encoding="iso-8859-1"?>
<!-- Generator: Adobe Illustrator 19.0.0, SVG Export Plug-In . SVG Version: 6.00 Build 0)  -->
<svg version="1.1" id="Capa_1" xmlns="http://www.w3.org/2000/svg" xmlns:xlink="http://www.w3.org/1999/xlink" x="0px" y="0px"
	 viewBox="0 0 464.009 464.009" style="enable-background:new 0 0 464.009 464.009;" xml:space="preserve">
<polygon style="fill:#00F2A9;" points="104.005,296.005 360.005,296.005 392.005,264.005 72.005,264.005 "/>
<g>
	<path style="fill:#322153;" d="M400.005,456.005V258.421l49.344,74.016c1.536,2.32,4.08,3.568,6.664,3.568
		c1.52,0,3.064-0.44,4.432-1.344c3.68-2.456,4.672-7.416,2.216-11.096l-64-96c-0.128-0.192-0.344-0.288-0.488-0.464
		c-0.432-0.544-0.912-0.984-1.464-1.4c-0.344-0.256-0.664-0.512-1.056-0.712c-0.6-0.312-1.248-0.488-1.928-0.64
		c-0.32-0.072-0.592-0.272-0.928-0.304c-0.128-0.008-0.24,0.048-0.368,0.048c-0.152-0.008-0.272-0.088-0.424-0.088h-320
		c-0.152,0-0.272,0.08-0.424,0.088c-0.128,0.008-0.24-0.056-0.368-0.048c-0.328,0.032-0.608,0.232-0.928,0.304
		c-0.68,0.152-1.328,0.328-1.928,0.64c-0.384,0.2-0.704,0.448-1.056,0.712c-0.552,0.416-1.04,0.856-1.464,1.4
		c-0.144,0.176-0.36,0.272-0.488,0.472l-64,96c-2.456,3.68-1.464,8.64,2.216,11.096c3.688,2.44,8.64,1.456,11.096-2.216
		l49.344-74.032v197.584c0,4.424,3.576,8,8,8h320C396.429,464.005,400.005,460.429,400.005,456.005z M372.693,240.005l-16,16
		H107.317l-16-16H372.693z M80.005,448.005V251.317l18.344,18.344c1.496,1.504,3.528,2.344,5.656,2.344h256
		c2.128,0,4.16-0.84,5.656-2.344l18.344-18.344v196.688H80.005z"/>
	<path style="fill:#322153;" d="M168.005,416.005h-64c-4.424,0-8,3.576-8,8s3.576,8,8,8h64c4.424,0,8-3.576,8-8
		S172.429,416.005,168.005,416.005z"/>
	<path style="fill:#322153;" d="M200.005,384.005h-96c-4.424,0-8,3.576-8,8s3.576,8,8,8h96c4.424,0,8-3.576,8-8
		S204.429,384.005,200.005,384.005z"/>
	<path style="fill:#322153;" d="M104.005,368.005h32c4.424,0,8-3.576,8-8s-3.576-8-8-8h-32c-4.424,0-8,3.576-8,8
		S99.581,368.005,104.005,368.005z"/>
	<path style="fill:#322153;" d="M88.005,48.005c13.232,0,24-10.768,24-24s-10.768-24-24-24s-24,10.768-24,24
		S74.773,48.005,88.005,48.005z M88.005,16.005c4.416,0,8,3.584,8,8s-3.584,8-8,8s-8-3.584-8-8S83.589,16.005,88.005,16.005z"/>
	<path style="fill:#322153;" d="M192.005,88.005c0,13.232,10.768,24,24,24s24-10.768,24-24s-10.768-24-24-24
		S192.005,74.773,192.005,88.005z M224.005,88.005c0,4.416-3.584,8-8,8s-8-3.584-8-8s3.584-8,8-8S224.005,83.589,224.005,88.005z"/>
	<path style="fill:#322153;" d="M352.005,56.005c0,13.232,10.768,24,24,24s24-10.768,24-24s-10.768-24-24-24
		S352.005,42.773,352.005,56.005z M384.005,56.005c0,4.416-3.584,8-8,8s-8-3.584-8-8s3.584-8,8-8S384.005,51.589,384.005,56.005z"/>
	<path style="fill:#322153;" d="M280.005,0.005c-13.232,0-24,10.768-24,24s10.768,24,24,24s24-10.768,24-24
		S293.237,0.005,280.005,0.005z M280.005,32.005c-4.416,0-8-3.584-8-8s3.584-8,8-8s8,3.584,8,8S284.421,32.005,280.005,32.005z"/>
	<path style="fill:#322153;" d="M128.005,152.005c0,13.232,10.768,24,24,24s24-10.768,24-24s-10.768-24-24-24
		S128.005,138.773,128.005,152.005z M160.005,152.005c0,4.416-3.584,8-8,8s-8-3.584-8-8s3.584-8,8-8
		S160.005,147.589,160.005,152.005z"/>
	<path style="fill:#322153;" d="M280.005,160.005c-13.232,0-24,10.768-24,24s10.768,24,24,24s24-10.768,24-24
		S293.237,160.005,280.005,160.005z M280.005,192.005c-4.416,0-8-3.584-8-8s3.584-8,8-8s8,3.584,8,8
		S284.421,192.005,280.005,192.005z"/>
</g>
<g>
</g>
<g>
</g>
<g>
</g>
<g>
</g>
<g>
</g>
<g>
</g>
<g>
</g>
<g>
</g>
<g>
</g>
<g>
</g>
<g>
</g>
<g>
</g>
<g>
</g>
<g>
</g>
<g>
</g>
</svg>
