<?xml version="1.0" encoding="iso-8859-1"?>
<!-- Generator: Adobe Illustrator 19.0.0, SVG Export Plug-In . SVG Version: 6.00 Build 0)  -->
<svg version="1.1" id="Capa_1" xmlns="http://www.w3.org/2000/svg" xmlns:xlink="http://www.w3.org/1999/xlink" x="0px" y="0px"
	 viewBox="0 0 464 464" style="enable-background:new 0 0 464 464;" xml:space="preserve">
<g>
	<path style="fill:#00F2A9;" d="M88,328c44.184,0,80-35.816,80-80H8C8,292.184,43.816,328,88,328z"/>
	<path style="fill:#00F2A9;" d="M376,328c44.184,0,80-35.816,80-80H296C296,292.184,331.816,328,376,328z"/>
</g>
<g>
	<path style="fill:#322153;" d="M88,272c14.96,0,29.024-5.832,39.592-16.408c3.128-3.128,3.128-8.184,0-11.312
		s-8.184-3.128-11.312,0C108.728,251.832,98.68,256,88,256s-20.728-4.168-28.28-11.72c-3.128-3.128-8.184-3.128-11.312,0
		s-3.128,8.184,0,11.312C58.976,266.168,73.04,272,88,272z"/>
	<path style="fill:#322153;" d="M376,272c14.96,0,29.024-5.832,39.592-16.408c3.128-3.128,3.128-8.184,0-11.312
		s-8.184-3.128-11.312,0C396.728,251.832,386.68,256,376,256s-20.728-4.168-28.28-11.72c-3.128-3.128-8.184-3.128-11.312,0
		s-3.128,8.184,0,11.312C346.976,266.168,361.04,272,376,272z"/>
	<path style="fill:#322153;" d="M0,216.216C0,264.64,39.552,304,88,304s88-39.36,88-87.784c0-0.032,0-0.064,0-0.096
		c0-0.04,0-0.08,0-0.112c0-0.52-0.2-0.968-0.296-1.456c-0.096-0.504,0.232-1.016,0.04-1.512l0.256-0.152v-0.008L112.104,53.936
		c-0.176-2.064-0.904-4.056-1.576-5.936h83.712l29.6,88.8l-30.992,247.92C174.208,388.112,160,404.392,160,424c0,4.424,3.576,8,8,8
		h128c4.424,0,8-3.576,8-8c0-19.608-14.208-35.888-32.848-39.28L240.16,136.8l29.6-88.8h83.712c-0.672,1.88-1.088,3.872-1.264,5.936
		L288.632,212.88c0,0,0,0,0,0.008l-0.056,0.144c-0.2,0.496-0.184,1.016-0.28,1.52C288.2,215.04,288,215.488,288,216
		c0,0.04,0,0.08,0,0.112s0,0.064,0,0.096C288,264.64,327.552,304,376,304s88-39.36,88-87.784c0-0.032,0-0.064,0-0.096
		c0-0.04,0-0.08,0-0.112c0-0.52-0.2-0.968-0.296-1.456c-0.096-0.504,0.232-1.016,0.04-1.512l0.256-0.152v-0.008L400.104,53.936
		C399.04,41.68,388.528,32,376,32H88c-12.528,0-22.728,9.68-23.792,21.936L0.632,212.88c0,0,0,0,0,0.008l-0.056,0.144
		c-0.2,0.496-0.184,1.016-0.28,1.52C0.2,215.04,0,215.488,0,216c0,0.04,0,0.08,0,0.112C0,216.152,0,216.176,0,216.216z
		 M73.136,74.696C77.24,77.968,82.36,80,88,80s10.76-2.032,14.864-5.304L156.184,208H19.816L73.136,74.696z M96,56
		c0,4.416-3.584,8-8,8s-8-3.584-8-8s3.584-8,8-8S96,51.584,96,56z M88,288c-37,0-67.56-28.048-71.552-64H159.56
		C155.56,259.952,125,288,88,288z M232,200.504L254.936,384h-45.88L232,200.504z M286.632,416H177.368
		c3.304-9.312,12.2-16,22.632-16h64C274.432,400,283.328,406.688,286.632,416z M232,110.704L211.096,48h41.808L232,110.704z
		 M444.184,208H307.816l53.32-133.304C365.24,77.968,370.36,80,376,80s10.76-2.032,14.864-5.304L444.184,208z M384,56
		c0,4.416-3.584,8-8,8s-8-3.584-8-8s3.584-8,8-8S384,51.584,384,56z M376,288c-37,0-67.56-28.048-71.552-64H447.56
		C443.56,259.952,413,288,376,288z"/>
</g>
<g>
</g>
<g>
</g>
<g>
</g>
<g>
</g>
<g>
</g>
<g>
</g>
<g>
</g>
<g>
</g>
<g>
</g>
<g>
</g>
<g>
</g>
<g>
</g>
<g>
</g>
<g>
</g>
<g>
</g>
</svg>
