<?xml version="1.0" encoding="iso-8859-1"?>
<!-- Generator: Adobe Illustrator 19.0.0, SVG Export Plug-In . SVG Version: 6.00 Build 0)  -->
<svg version="1.1" id="Capa_1" xmlns="http://www.w3.org/2000/svg" xmlns:xlink="http://www.w3.org/1999/xlink" x="0px" y="0px"
	 viewBox="0 0 464 464" style="enable-background:new 0 0 464 464;" xml:space="preserve">
<path style="fill:#00F2A9;" d="M456,136c0-17.672-14.328-32-32-32H40c-17.672,0-32,14.328-32,32v32h448V136z"/>
<g>
	<path style="fill:#322153;" d="M40,400h384c22.056,0,40-17.944,40-40V136v-32c0-22.056-17.944-40-40-40H40
		C17.944,64,0,81.944,0,104v32v224C0,382.056,17.944,400,40,400z M424,384H40c-13.232,0-24-10.768-24-24V144h432v216
		C448,373.232,437.232,384,424,384z M16,104c0-13.232,10.768-24,24-24h384c13.232,0,24,10.768,24,24v24H16V104z"/>
	<path style="fill:#322153;" d="M408.096,344h-13.592c-2.384-10.208-5.64-19.024-10.336-27.944l10.176-11.688
		c9.352-9.488,9.352-25.504,0.056-34.928l-22.568-23.328c-4.592-4.656-10.688-7.216-17.168-7.224c-0.008,0-0.008,0-0.008,0
		c-6.136,0-11.896,2.328-16.296,6.568l-13.936,10.72c-8.96-4.84-18.064-8.28-28.424-10.744V231.56c0-1.256,0.032-2.296,0.064-3.152
		c0.104-3.12,0.208-6.656-2.736-9.632c-2.968-2.984-6.568-2.912-9.76-2.816l-2.816,0.04l-34.832-0.032
		c-8.76-0.144-19.704-0.304-25.848,5.752c-2.664,2.616-4.072,6.024-4.072,9.832v14.928c-6.152,2.568-12.44,5.6-18.4,8.872
		l-8.112-9.736c-4.52-4.576-10.344-7.104-16.392-7.104c0,0,0,0-0.008,0c-6.04,0.008-11.856,2.528-16.448,7.176l-21.88,22.728
		c-9.176,9.312-9.056,24.576,0.312,34.064l10.152,10.168c-5.504,10.984-9.168,22.984-11.376,31.664
		c-1.096,4.28,1.504,8.632,5.784,9.72c4.216,1.104,8.632-1.496,9.72-5.784c3.288-12.936,7.784-24.664,12.648-33.008
		c1.832-3.144,1.312-7.112-1.248-9.68L146.44,291.2c-3.224-3.256-3.352-8.448-0.208-11.624l21.88-22.728
		c3.016-3.064,7.424-2.552,9.528-0.504l11.952,14.384c2.52,3.032,6.856,3.792,10.264,1.76c11.408-6.832,21.808-11.152,26.984-13.12
		c3.104-1.168,5.16-4.144,5.16-7.464v-19.072c2.992-1.04,10.352-0.928,13.672-0.864L280,232v19.904c0,3.84,2.736,7.144,6.504,7.856
		c13.344,2.528,23.648,6.376,34.472,12.848c2.832,1.688,6.392,1.488,8.984-0.52l18.536-14.256c0.288-0.224,0.56-0.464,0.824-0.72
		c1.416-1.44,3.312-2.232,5.336-2.232c2.168,0,4.216,0.872,5.728,2.408l22.568,23.328c3.12,3.16,3.12,9.36-0.336,12.872l-14.2,16.28
		c-2.248,2.584-2.608,6.32-0.88,9.288c6.448,11.04,10.096,21.008,12.608,34.416C380.84,357.256,384.152,360,388,360h20.096
		c7.912,0,7.912,2.92,7.912,4.32c0,4.424,3.576,8,8,8s8-3.576,8-8C432.008,351.976,422.616,344,408.096,344z"/>
	<path style="fill:#322153;" d="M315.552,325.416c-13.544-13.712-31.552-21.256-50.72-21.256s-37.168,7.544-50.72,21.264
		c-4.424,4.488-8.248,9.528-11.384,14.992c-2.192,3.832-0.856,8.728,2.968,10.92c1.256,0.72,2.624,1.056,3.968,1.056
		c2.776,0,5.48-1.448,6.952-4.024c2.44-4.272,5.432-8.208,8.88-11.704c10.504-10.648,24.48-16.504,39.328-16.504
		s28.824,5.856,39.328,16.504c3.464,3.504,6.456,7.448,8.88,11.704c2.176,3.832,7.072,5.168,10.912,2.976
		c3.832-2.184,5.168-7.08,2.976-10.912C323.824,334.968,319.992,329.912,315.552,325.416z"/>
	<path style="fill:#322153;" d="M264.832,287.912c4.424,0,8-3.576,8-8s-3.576-8-8-8c-43.816,0-83.048,28.072-97.624,69.848
		c-1.456,4.168,0.752,8.736,4.92,10.184c0.864,0.304,1.76,0.448,2.632,0.448c3.304,0,6.4-2.064,7.552-5.368
		C194.656,311.672,227.824,287.912,264.832,287.912z"/>
	<path style="fill:#322153;" d="M40,176h160c4.424,0,8-3.576,8-8s-3.576-8-8-8H40c-4.424,0-8,3.576-8,8S35.576,176,40,176z"/>
	<path style="fill:#322153;" d="M40,208h96c4.424,0,8-3.576,8-8s-3.576-8-8-8H40c-4.424,0-8,3.576-8,8S35.576,208,40,208z"/>
	<path style="fill:#322153;" d="M72,224H40c-4.424,0-8,3.576-8,8c0,4.424,3.576,8,8,8h32c4.424,0,8-3.576,8-8S76.424,224,72,224z"/>
	<path style="fill:#322153;" d="M72,320H40c-4.424,0-8,3.576-8,8s3.576,8,8,8h32c4.424,0,8-3.576,8-8S76.424,320,72,320z"/>
	<path style="fill:#322153;" d="M104.088,96H104c-4.424,0-7.96,3.576-7.96,8c0,4.424,3.624,8,8.048,8s8-3.576,8-8
		S108.504,96,104.088,96z"/>
	<path style="fill:#322153;" d="M72.088,96H72c-4.424,0-7.96,3.576-7.96,8c0,4.424,3.624,8,8.048,8s8-3.576,8-8S76.504,96,72.088,96
		z"/>
	<path style="fill:#322153;" d="M40.088,96H40c-4.424,0-7.96,3.576-7.96,8c0,4.424,3.624,8,8.048,8s8-3.576,8-8S44.504,96,40.088,96
		z"/>
</g>
<g>
</g>
<g>
</g>
<g>
</g>
<g>
</g>
<g>
</g>
<g>
</g>
<g>
</g>
<g>
</g>
<g>
</g>
<g>
</g>
<g>
</g>
<g>
</g>
<g>
</g>
<g>
</g>
<g>
</g>
</svg>
