<?xml version="1.0" encoding="iso-8859-1"?>
<!-- Generator: Adobe Illustrator 19.0.0, SVG Export Plug-In . SVG Version: 6.00 Build 0)  -->
<svg version="1.1" id="Capa_1" xmlns="http://www.w3.org/2000/svg" xmlns:xlink="http://www.w3.org/1999/xlink" x="0px" y="0px"
	 viewBox="0 0 464 464" style="enable-background:new 0 0 464 464;" xml:space="preserve">
<path style="fill:#00F2A9;" d="M72,152v32h262.248C348.472,184,360,195.528,360,209.752V376h32c17.672,0,32-14.328,32-32l0,0V152
	c0-17.672-14.328-32-32-32H104C86.328,120,72,134.328,72,152z"/>
<g>
	<path style="fill:#322153;" d="M424,48H136c-19.568,0-35.832,14.144-39.264,32.736C78.144,84.168,64,100.432,64,120v24H40
		c-22.056,0-40,17.944-40,40v192c0,22.056,17.944,40,40,40h288c22.056,0,40-17.944,40-40v-24h24
		c19.568,0,35.832-14.144,39.264-32.736C449.856,315.832,464,299.568,464,280V88C464,65.944,446.056,48,424,48z M352,376
		c0,13.232-10.768,24-24,24H40c-13.232,0-24-10.768-24-24V184c0-13.232,10.768-24,24-24h288c13.232,0,24,10.768,24,24V376z M392,336
		h-24V184c0-22.056-17.944-40-40-40H80v-24c0-13.232,10.768-24,24-24h288c13.232,0,24,10.768,24,24v192
		C416,325.232,405.232,336,392,336z M448,280c0,10.432-6.688,19.328-16,22.632V120c0-22.056-17.944-40-40-40H113.368
		c3.304-9.312,12.2-16,22.632-16h288c13.232,0,24,10.768,24,24V280z"/>
	<path style="fill:#322153;" d="M136,224h96c4.416,0,8-3.576,8-8s-3.584-8-8-8h-96c-4.416,0-8,3.576-8,8
		C128,220.424,131.584,224,136,224z"/>
	<path style="fill:#322153;" d="M296,304H72c-4.416,0-8,3.576-8,8s3.584,8,8,8h224c4.424,0,8-3.576,8-8S300.424,304,296,304z"/>
	<path style="fill:#322153;" d="M296,336H72c-4.416,0-8,3.576-8,8s3.584,8,8,8h224c4.424,0,8-3.576,8-8S300.424,336,296,336z"/>
</g>
<g>
</g>
<g>
</g>
<g>
</g>
<g>
</g>
<g>
</g>
<g>
</g>
<g>
</g>
<g>
</g>
<g>
</g>
<g>
</g>
<g>
</g>
<g>
</g>
<g>
</g>
<g>
</g>
<g>
</g>
</svg>
