<?xml version="1.0" encoding="iso-8859-1"?>
<!-- Generator: Adobe Illustrator 19.0.0, SVG Export Plug-In . SVG Version: 6.00 Build 0)  -->
<svg version="1.1" id="Capa_1" xmlns="http://www.w3.org/2000/svg" xmlns:xlink="http://www.w3.org/1999/xlink" x="0px" y="0px"
	 viewBox="0 0 454.327 454.327" style="enable-background:new 0 0 454.327 454.327;" xml:space="preserve">
<g>
	<circle style="fill:#00F2A9;" cx="184.5" cy="275.662" r="21.336"/>
	<circle style="fill:#00F2A9;" cx="269.804" cy="360.966" r="21.336"/>
</g>
<g>
	<path style="fill:#322153;" d="M195.164,166.326h64c4.424,0,8-3.576,8-8s-3.576-8-8-8h-64c-4.424,0-8,3.576-8,8
		S190.74,166.326,195.164,166.326z"/>
	<path style="fill:#322153;" d="M171.26,127.846c-67.224,23.72-112.264,87.584-112.096,158.912
		c0.216,87.592,71.456,162.656,158.792,167.328c3.128,0.168,6.224,0.248,9.328,0.24c43.208,0,83.904-16.168,115.448-46.056
		c33.808-32.056,52.432-75.368,52.432-121.944c0-71.16-45.072-134.848-112.152-158.496c-9.256-3.256-15.552-12.008-15.816-21.88
		c0.024-5.872,2.12-10.472,6.992-15.344l38.624-38.624c11.944-11.936,11.944-31.376,0-43.312c-11.56-11.56-31.752-11.56-43.312,0
		c-5.704,5.704-14.984,5.704-20.688,0c-11.56-11.56-31.752-11.56-43.312,0c-5.704,5.704-14.984,5.704-20.688,0
		c-11.56-11.56-31.752-11.56-43.312,0c-11.944,11.936-11.944,31.376,0,43.312l38.624,38.624c5.112,5.112,7.016,9.112,7.016,14.76
		C187.124,115.478,180.74,124.51,171.26,127.846z M251.164,106.166c0,0.048,0,0.088,0,0.136c0,5.704,1.584,11.152,3.936,16.112
		c-4.936,0.544-9.696,1.84-13.832,3.912l-3.368,1.688c-6.72,3.376-14.744,3.36-21.464,0l-3.384-1.688c-4-2-8.824-3.216-13.904-3.688
		c2.544-5.28,4.016-11.136,4.016-17.24c0,0,0-0.008,0-0.016c0-1.064-0.12-2.056-0.2-3.056h48.576c-0.08,0.8-0.296,1.552-0.32,2.368
		c-0.032,0.24-0.056,0.48-0.056,0.728C251.164,105.67,251.164,105.918,251.164,106.166z M379.164,286.326
		c0,42.144-16.848,81.328-47.448,110.336c-30.576,28.984-70.792,43.776-112.904,41.44c-79.008-4.224-143.456-72.136-143.648-151.392
		c-0.16-64.528,40.6-122.312,101.424-143.768c1.184-0.416,2.28-0.992,3.408-1.512c0.2-0.08,0.416-0.064,0.616-0.168
		c7.064-3.544,18.88-3.832,25.288-0.624l3.376,1.688c5.6,2.808,11.744,4.2,17.888,4.2c6.144,0,12.288-1.4,17.888-4.2l3.376-1.688
		c6.72-3.376,17.352-3.336,24.192,0.08c0.064,0.032,0.136,0.024,0.2,0.056c1.568,0.808,3.184,1.56,4.88,2.16
		C338.388,164.318,379.164,221.942,379.164,286.326z M152.82,40.67c-5.704-5.704-5.704-14.984,0-20.688
		c2.848-2.848,6.6-4.272,10.344-4.272s7.496,1.424,10.344,4.272c11.56,11.56,31.752,11.56,43.312,0
		c5.704-5.704,14.984-5.704,20.688,0c11.56,11.56,31.752,11.56,43.312,0c5.704-5.704,14.984-5.704,20.688,0s5.704,14.984,0,20.688
		l-38.624,38.624c-2.256,2.256-4.072,4.616-5.664,7.032h-59.864c-1.856-2.736-3.936-5.056-5.912-7.032L152.82,40.67z"/>
	<path style="fill:#322153;" d="M157.508,355.982c1.56,1.56,3.608,2.344,5.656,2.344s4.096-0.784,5.656-2.344l128-128
		c3.128-3.128,3.128-8.184,0-11.312s-8.184-3.128-11.312,0l-128,128C154.38,347.798,154.38,352.854,157.508,355.982z"/>
	<path style="fill:#322153;" d="M184.5,272.99c16.168,0,29.328-13.16,29.328-29.328c0-16.176-13.16-29.336-29.328-29.336
		c-16.176,0-29.336,13.16-29.336,29.336C155.164,259.83,168.324,272.99,184.5,272.99z M184.5,230.326
		c7.352,0,13.328,5.984,13.328,13.336s-5.976,13.328-13.328,13.328s-13.336-5.976-13.336-13.328S177.148,230.326,184.5,230.326z"/>
	<path style="fill:#322153;" d="M299.164,328.99c0-16.168-13.16-29.328-29.336-29.328c-16.168,0-29.328,13.16-29.328,29.328
		c0,16.176,13.16,29.336,29.328,29.336C286.004,358.326,299.164,345.166,299.164,328.99z M256.5,328.99
		c0-7.352,5.976-13.328,13.328-13.328s13.336,5.976,13.336,13.328s-5.984,13.336-13.336,13.336S256.5,336.342,256.5,328.99z"/>
	<path style="fill:#322153;" d="M219.164,414.326c0,4.424,3.576,8,8,8c74.992,0,136-61.008,136-136c0-4.424-3.576-8-8-8
		s-8,3.576-8,8c0,66.168-53.832,120-120,120C222.74,406.326,219.164,409.902,219.164,414.326z"/>
</g>
<g>
</g>
<g>
</g>
<g>
</g>
<g>
</g>
<g>
</g>
<g>
</g>
<g>
</g>
<g>
</g>
<g>
</g>
<g>
</g>
<g>
</g>
<g>
</g>
<g>
</g>
<g>
</g>
<g>
</g>
</svg>
