<?xml version="1.0" encoding="iso-8859-1"?>
<!-- Generator: Adobe Illustrator 19.0.0, SVG Export Plug-In . SVG Version: 6.00 Build 0)  -->
<svg version="1.1" id="Capa_1" xmlns="http://www.w3.org/2000/svg" xmlns:xlink="http://www.w3.org/1999/xlink" x="0px" y="0px"
	 viewBox="0 0 464 464" style="enable-background:new 0 0 464 464;" xml:space="preserve">
<g>
	<circle style="fill:#00F2A9;" cx="103.974" cy="264" r="32"/>
	<circle style="fill:#00F2A9;" cx="359.974" cy="136" r="32"/>
	<circle style="fill:#00F2A9;" cx="359.974" cy="392" r="32"/>
</g>
<g>
	<path style="fill:#322153;" d="M463.974,104c0-57.344-46.656-104-104-104s-104,46.656-104,104c0,13.768,2.752,26.896,7.632,38.928
		l-70.808,35.176c-4.232-6.984-9.256-13.624-15.28-19.648c-40.544-40.544-106.528-40.544-147.08,0s-40.544,106.528,0,147.08
		c20.272,20.272,46.904,30.416,73.536,30.416s53.264-10.144,73.536-30.416c6.144-6.144,11.24-12.928,15.528-20.064l70.664,35.328
		c-4.952,12.112-7.728,25.336-7.728,39.2c0,57.344,46.656,104,104,104s104-46.656,104-104c0-54.64-42.392-99.48-96-103.592V207.6
		C421.582,203.48,463.974,158.64,463.974,104z M359.974,16c48.52,0,88,39.48,88,88s-40.12,88-88.64,88
		c-34.464,0-63.36-19.96-79.36-48.888c0-0.008,0-0.016,0-0.016c0-0.008,0.632-0.016,0.632-0.016
		c-5.88-11.792-8.952-25.032-8.952-39.08C271.654,55.48,311.454,16,359.974,16z M166.198,294.224
		c-34.312,34.312-90.144,34.312-124.456,0s-34.312-90.144,0-124.456c17.16-17.16,39.696-25.736,62.224-25.736
		s45.072,8.576,62.224,25.736c6.36,6.36,11.536,13.472,15.536,21.04c0.136,0.512,0.168,1.032,0.408,1.52
		c0.272,0.544,0.632,1,1,1.448C198.918,226.544,193.334,267.096,166.198,294.224z M200.294,271.216
		c10.232-25.224,10.152-53.672-0.2-78.864l70.704-35.12c16.888,28.184,46.672,47.72,81.184,50.368v48.808
		c-34.416,2.64-64.12,22.072-81.032,50.128L200.294,271.216z M447.974,360c0,48.52-39.48,88-88,88s-88-39.48-88-88s39.48-88,88-88
		S447.974,311.48,447.974,360z"/>
	<path style="fill:#322153;" d="M103.974,176c4.424,0,8-3.576,8-8s-3.576-8-8-8c-39.704,0-72,32.296-72,72c0,4.424,3.576,8,8,8
		s8-3.576,8-8C47.974,201.128,73.102,176,103.974,176z"/>
	<path style="fill:#322153;" d="M167.974,224c-4.424,0-8,3.576-8,8c0,30.872-25.128,56-56,56c-4.424,0-8,3.576-8,8s3.576,8,8,8
		c39.704,0,72-32.296,72-72C175.974,227.576,172.398,224,167.974,224z"/>
	<path style="fill:#322153;" d="M359.974,175.96c18.44,0,36.872-7.016,50.912-21.048c3.128-3.128,3.128-8.184,0-11.312
		s-8.184-3.128-11.312,0c-21.84,21.832-57.36,21.832-79.2,0c-3.128-3.128-8.184-3.128-11.312,0s-3.128,8.184,0,11.312
		C323.102,168.944,341.534,175.96,359.974,175.96z"/>
	<path style="fill:#322153;" d="M320.374,64.4c21.84-21.832,57.36-21.832,79.2,0c1.56,1.56,3.608,2.344,5.656,2.344
		s4.096-0.784,5.656-2.344c3.128-3.128,3.128-8.184,0-11.312c-28.08-28.064-73.752-28.064-101.832,0
		c-3.128,3.128-3.128,8.184,0,11.312S317.246,67.52,320.374,64.4z"/>
	<path style="fill:#322153;" d="M359.974,416c-30.872,0-56-25.128-56-56c0-4.424-3.576-8-8-8s-8,3.576-8,8c0,39.704,32.296,72,72,72
		c4.424,0,8-3.576,8-8S364.398,416,359.974,416z"/>
	<path style="fill:#322153;" d="M351.974,296c0,4.424,3.576,8,8,8c30.872,0,56,25.128,56,56c0,4.424,3.576,8,8,8s8-3.576,8-8
		c0-39.704-32.296-72-72-72C355.549,288,351.974,291.576,351.974,296z"/>
	<path style="fill:#322153;" d="M143.974,232c0-22.056-17.944-40-40-40s-40,17.944-40,40s17.944,40,40,40
		S143.974,254.056,143.974,232z M79.974,232c0-13.232,10.768-24,24-24s24,10.768,24,24s-10.768,24-24,24S79.974,245.232,79.974,232z
		"/>
	<path style="fill:#322153;" d="M359.974,64c-22.056,0-40,17.944-40,40s17.944,40,40,40s40-17.944,40-40S382.03,64,359.974,64z
		 M359.974,128c-13.232,0-24-10.768-24-24s10.768-24,24-24s24,10.768,24,24S373.206,128,359.974,128z"/>
	<path style="fill:#322153;" d="M359.974,320c-22.056,0-40,17.944-40,40s17.944,40,40,40s40-17.944,40-40S382.03,320,359.974,320z
		 M359.974,384c-13.232,0-24-10.768-24-24s10.768-24,24-24s24,10.768,24,24S373.206,384,359.974,384z"/>
</g>
<g>
</g>
<g>
</g>
<g>
</g>
<g>
</g>
<g>
</g>
<g>
</g>
<g>
</g>
<g>
</g>
<g>
</g>
<g>
</g>
<g>
</g>
<g>
</g>
<g>
</g>
<g>
</g>
<g>
</g>
</svg>
