<?xml version="1.0" encoding="iso-8859-1"?>
<!-- Generator: Adobe Illustrator 19.0.0, SVG Export Plug-In . SVG Version: 6.00 Build 0)  -->
<svg version="1.1" id="Capa_1" xmlns="http://www.w3.org/2000/svg" xmlns:xlink="http://www.w3.org/1999/xlink" x="0px" y="0px"
	 viewBox="0 0 464 464" style="enable-background:new 0 0 464 464;" xml:space="preserve">
<path style="fill:#00F2A9;" d="M232,200c0,0-2-64-64-64c-0.624,0-1.232,0.008-1.84,0.016c-46.36,0.968-68.48,57.656-35.696,90.44
	L232,328l101.536-101.536c32.784-32.784,10.664-89.48-35.696-90.44c-0.608-0.016-1.216-0.024-1.84-0.024C234,136,232,200,232,200z"
	/>
<g>
	<path style="fill:#322153;" d="M40,368h114.744c6.416,0,12.448,2.504,16.976,7.032l54.624,54.624
		c1.56,1.56,3.608,2.344,5.656,2.344s4.096-0.784,5.656-2.344l54.624-54.624c4.536-4.528,10.56-7.032,16.976-7.032H424
		c22.056,0,40-17.944,40-40V72c0-22.056-17.944-40-40-40H40C17.944,32,0,49.944,0,72v256C0,350.056,17.944,368,40,368z M16,72
		c0-13.232,10.768-24,24-24h384c13.232,0,24,10.768,24,24v256c0,13.232-10.768,24-24,24H309.256
		c-10.688,0-20.736,4.168-28.288,11.72L232,412.688l-48.968-48.968c-7.552-7.552-17.6-11.72-28.288-11.72H40
		c-13.232,0-24-10.768-24-24V72z"/>
	<path style="fill:#322153;" d="M226.344,301.656c1.56,1.56,3.608,2.344,5.656,2.344s4.096-0.784,5.656-2.344L339.192,200.12
		c17.624-17.616,22.776-42.984,13.44-66.192c-9.184-22.864-30.128-37.392-54.688-37.904L296,96c-35.176,0-54.456,19.08-64,39.336
		C222.456,115.08,203.176,96,168,96l-2.008,0.016c-24.504,0.512-45.44,15.04-54.624,37.904c-9.336,23.208-4.184,48.576,13.44,66.192
		L226.344,301.656z M126.208,139.888c6.76-16.824,22.136-27.504,40.048-27.872L168,112c53.344,0,55.92,53.976,56.008,56.256
		c0.136,4.312,3.656,7.744,7.968,7.744c0.008,0,0.016,0,0.024,0c4.304,0,7.832-3.424,7.992-7.72C240.08,165.976,242.656,112,296,112
		l1.68,0.016c17.976,0.376,33.352,11.056,40.112,27.872c6.896,17.168,3.104,35.904-9.904,48.912L232,284.688l-95.88-95.88
		C123.112,175.8,119.312,157.056,126.208,139.888z"/>
	<path style="fill:#322153;" d="M40,304c2.048,0,4.096-0.784,5.656-2.344l32-32c3.128-3.128,3.128-8.184,0-11.312
		s-8.184-3.128-11.312,0l-32,32c-3.128,3.128-3.128,8.184,0,11.312C35.904,303.216,37.952,304,40,304z"/>
	<path style="fill:#322153;" d="M392,112c2.048,0,4.096-0.784,5.656-2.344l32-32c3.128-3.128,3.128-8.184,0-11.312
		s-8.184-3.128-11.312,0l-32,32c-3.128,3.128-3.128,8.184,0,11.312C387.904,111.216,389.952,112,392,112z"/>
	<path style="fill:#322153;" d="M418.344,258.344l-64,64c-3.128,3.128-3.128,8.184,0,11.312c1.56,1.56,3.608,2.344,5.656,2.344
		s4.096-0.784,5.656-2.344l64-64c3.128-3.128,3.128-8.184,0-11.312S421.472,255.216,418.344,258.344z"/>
	<path style="fill:#322153;" d="M418.344,290.344l-32,32c-3.128,3.128-3.128,8.184,0,11.312c1.56,1.56,3.608,2.344,5.656,2.344
		s4.096-0.784,5.656-2.344l32-32c3.128-3.128,3.128-8.184,0-11.312S421.472,287.216,418.344,290.344z"/>
</g>
<g>
</g>
<g>
</g>
<g>
</g>
<g>
</g>
<g>
</g>
<g>
</g>
<g>
</g>
<g>
</g>
<g>
</g>
<g>
</g>
<g>
</g>
<g>
</g>
<g>
</g>
<g>
</g>
<g>
</g>
</svg>
