<?xml version="1.0" encoding="iso-8859-1"?>
<!-- Generator: Adobe Illustrator 19.0.0, SVG Export Plug-In . SVG Version: 6.00 Build 0)  -->
<svg version="1.1" id="Capa_1" xmlns="http://www.w3.org/2000/svg" xmlns:xlink="http://www.w3.org/1999/xlink" x="0px" y="0px"
	 viewBox="0 0 464 464" style="enable-background:new 0 0 464 464;" xml:space="preserve">
<g>
	<rect x="232" y="184" style="fill:#00F2A9;" width="96" height="64"/>
	<polygon style="fill:#00F2A9;" points="360,184 360,248 456,248 432,184 	"/>
	<polygon style="fill:#00F2A9;" points="136,184 136,248 200,248 200,184 168,216 	"/>
</g>
<g>
	<path style="fill:#322153;" d="M438.88,139.352C433.432,122.992,418.176,112,400.936,112H104c-19.312,0-35.472,13.768-39.192,32H8
		c-4.416,0-8,3.576-8,8s3.584,8,8,8h56v112H40c-4.416,0-8,3.576-8,8s3.584,8,8,8h24.808c3.72,18.232,19.872,32,39.192,32h24.808
		c3.72,18.232,19.872,32,39.192,32s35.472-13.768,39.192-32h145.616c3.72,18.232,19.872,32,39.192,32
		c19.568,0,35.832-14.144,39.264-32.736C449.856,315.832,464,299.568,464,280v-64c0-0.856-0.144-1.712-0.416-2.528L438.88,139.352z
		 M428.904,160l16,48H368v-48H428.904z M168,336c-13.232,0-24-10.768-24-24s10.768-24,24-24s24,10.768,24,24S181.232,336,168,336z
		 M392,336c-13.232,0-24-10.768-24-24s10.768-24,24-24s24,10.768,24,24S405.232,336,392,336z M430.856,302.88
		C426.704,285.224,410.904,272,392,272c-19.312,0-35.472,13.768-39.192,32H207.192c-3.72-18.232-19.872-32-39.192-32
		s-35.472,13.768-39.192,32H104c-10.416,0-19.216-6.712-22.528-16H104c4.416,0,8-3.576,8-8s-3.584-8-8-8H80V160h24
		c4.416,0,8-3.576,8-8s-3.584-8-8-8H81.472c3.312-9.288,12.112-16,22.528-16h296.936c10.192,0,19.192,6.416,22.6,16H360
		c-4.424,0-8,3.576-8,8v64c0,4.424,3.576,8,8,8h88v56C448,290.84,440.736,299.912,430.856,302.88z"/>
	<path style="fill:#322153;" d="M40,224c4.416,0,8-3.576,8-8s-3.584-8-8-8H8c-4.416,0-8,3.576-8,8c0,4.424,3.584,8,8,8H40z"/>
	<path style="fill:#322153;" d="M328,144h-96c-4.416,0-8,3.576-8,8v64c0,4.424,3.584,8,8,8h96c4.424,0,8-3.576,8-8v-64
		C336,147.576,332.424,144,328,144z M320,208h-80v-48h80V208z"/>
	<path style="fill:#322153;" d="M328,240h-32c-4.424,0-8,3.576-8,8s3.576,8,8,8h32c4.424,0,8-3.576,8-8S332.424,240,328,240z"/>
	<path style="fill:#322153;" d="M232,240h-96c-4.416,0-8,3.576-8,8s3.584,8,8,8h96c4.416,0,8-3.576,8-8S236.416,240,232,240z"/>
	<path style="fill:#322153;" d="M392,240h-32c-4.424,0-8,3.576-8,8s3.576,8,8,8h32c4.424,0,8-3.576,8-8S396.424,240,392,240z"/>
	<path style="fill:#322153;" d="M136,224h64c4.416,0,8-3.576,8-8v-64c0-0.984-0.232-1.912-0.56-2.792
		c-0.104-0.272-0.232-0.504-0.36-0.76c-0.304-0.608-0.672-1.152-1.12-1.664c-0.184-0.208-0.344-0.416-0.552-0.608
		c-0.624-0.576-1.32-1.064-2.12-1.432c-0.072-0.032-0.128-0.088-0.2-0.12c-0.008,0-0.016-0.008-0.024-0.016
		c-0.912-0.384-1.856-0.528-2.8-0.56c-0.096,0-0.168-0.048-0.264-0.048h-64c-0.096,0-0.168,0.048-0.264,0.056
		c-0.944,0.032-1.888,0.176-2.8,0.56c-0.008,0-0.016,0.008-0.024,0.016c-0.072,0.032-0.128,0.088-0.2,0.12
		c-0.8,0.36-1.496,0.848-2.12,1.432c-0.208,0.192-0.368,0.4-0.552,0.608c-0.448,0.512-0.816,1.056-1.12,1.664
		c-0.128,0.256-0.264,0.496-0.36,0.76c-0.328,0.872-0.56,1.8-0.56,2.784v64C128,220.424,131.584,224,136,224z M192,208h-48v-36.688
		l18.344,18.344c3.128,3.128,8.184,3.128,11.312,0L192,171.312V208z M155.312,160h25.376L168,172.688L155.312,160z"/>
</g>
<g>
</g>
<g>
</g>
<g>
</g>
<g>
</g>
<g>
</g>
<g>
</g>
<g>
</g>
<g>
</g>
<g>
</g>
<g>
</g>
<g>
</g>
<g>
</g>
<g>
</g>
<g>
</g>
<g>
</g>
</svg>
