<?xml version="1.0" encoding="iso-8859-1"?>
<!-- Generator: Adobe Illustrator 19.0.0, SVG Export Plug-In . SVG Version: 6.00 Build 0)  -->
<svg version="1.1" id="Capa_1" xmlns="http://www.w3.org/2000/svg" xmlns:xlink="http://www.w3.org/1999/xlink" x="0px" y="0px"
	 viewBox="0 0 472.001 472.001" style="enable-background:new 0 0 472.001 472.001;" xml:space="preserve">
<path style="fill:#00F2A9;" d="M69.94,447.762c3.56,14.248,16.36,24.24,31.048,24.24H371.02c14.68,0,27.48-9.992,31.048-24.24
	l57.928-231.76h-448L69.94,447.762z"/>
<g>
	<path style="fill:#322153;" d="M4.228,185.562c0.024,0.128-0.024,0.248,0.008,0.376l57.936,231.76
		c4.464,17.84,20.416,30.304,38.808,30.304h270.032c18.392,0,34.344-12.464,38.808-30.304l57.936-231.76
		c0.032-0.128-0.016-0.248,0.008-0.376c0.216-1.064,0.28-2.144,0.064-3.192c-0.008-0.056-0.048-0.104-0.056-0.16
		c-0.232-0.992-0.688-1.904-1.28-2.752c-0.08-0.12-0.088-0.272-0.176-0.384c-0.072-0.088-0.184-0.128-0.264-0.216
		c-0.144-0.168-0.232-0.368-0.384-0.52L292.964,5.658c-5.544-5.544-13.8-7.168-21.048-4.184c-7.24,3-11.92,10.008-11.92,17.84
		c0,5.088,2.064,10.064,5.656,13.656l143.032,143.032H63.308L206.34,32.97c3.592-3.592,5.656-8.568,5.656-13.656
		c0-7.832-4.68-14.84-11.92-17.84c-7.24-2.984-15.504-1.36-21.048,4.184L6.34,178.346c-0.16,0.16-0.248,0.352-0.384,0.52
		c-0.072,0.088-0.192,0.12-0.264,0.216c-0.088,0.112-0.096,0.264-0.176,0.384c-0.592,0.848-1.056,1.76-1.28,2.752
		c-0.016,0.056-0.048,0.104-0.056,0.16C3.956,183.426,4.02,184.498,4.228,185.562z M100.98,432.001c-1.336,0-2.64-0.12-3.928-0.328
		c-0.432-0.072-0.832-0.208-1.256-0.304c-0.84-0.184-1.672-0.368-2.48-0.64c-0.48-0.16-0.936-0.384-1.408-0.576
		c-0.704-0.288-1.416-0.568-2.08-0.928c-0.472-0.248-0.92-0.552-1.376-0.832c-0.616-0.376-1.232-0.76-1.808-1.192
		c-0.44-0.328-0.856-0.696-1.28-1.064c-0.536-0.456-1.064-0.928-1.552-1.432c-0.392-0.408-0.76-0.832-1.128-1.264
		c-0.448-0.536-0.888-1.08-1.288-1.656c-0.328-0.472-0.632-0.952-0.936-1.448c-0.36-0.6-0.704-1.224-1.008-1.864
		c-0.256-0.528-0.496-1.056-0.712-1.608c-0.112-0.288-0.2-0.584-0.296-0.88h315.12c-0.104,0.288-0.184,0.592-0.296,0.88
		c-0.216,0.544-0.456,1.08-0.712,1.608c-0.312,0.64-0.648,1.256-1.008,1.864c-0.296,0.496-0.6,0.976-0.928,1.448
		c-0.408,0.576-0.84,1.128-1.296,1.664c-0.368,0.432-0.728,0.864-1.12,1.264c-0.496,0.504-1.024,0.976-1.552,1.432
		c-0.416,0.36-0.832,0.728-1.28,1.064c-0.576,0.432-1.192,0.808-1.808,1.192c-0.456,0.28-0.904,0.576-1.376,0.832
		c-0.672,0.352-1.384,0.64-2.088,0.928c-0.472,0.192-0.92,0.416-1.408,0.576c-0.808,0.272-1.648,0.456-2.48,0.64
		c-0.424,0.096-0.824,0.232-1.256,0.296c-1.304,0.208-2.608,0.328-3.944,0.328H100.98z M397.756,400.001H74.236l-51.992-208h21.752
		h384h21.752L397.756,400.001z M276.964,21.658c-0.616-0.616-0.968-1.472-0.968-2.344c0-1.92,1.28-2.744,2.048-3.064
		c0.768-0.296,2.248-0.64,3.608,0.72l159.032,159.032h-9.376L276.964,21.658z M190.34,16.97c1.36-1.36,2.84-1.024,3.608-0.72
		c0.768,0.32,2.048,1.144,2.048,3.064c0,0.872-0.352,1.728-0.968,2.344L40.684,176.002h-9.376L190.34,16.97z"/>
	<path style="fill:#322153;" d="M139.996,368.001h-25.752L83.756,246.066c-1.072-4.288-5.432-6.912-9.696-5.824
		c-4.288,1.072-6.896,5.416-5.824,9.696l32,128c0.896,3.568,4.088,6.064,7.76,6.064h32c4.424,0,8-3.576,8-8
		S144.42,368.001,139.996,368.001z"/>
</g>
<g>
</g>
<g>
</g>
<g>
</g>
<g>
</g>
<g>
</g>
<g>
</g>
<g>
</g>
<g>
</g>
<g>
</g>
<g>
</g>
<g>
</g>
<g>
</g>
<g>
</g>
<g>
</g>
<g>
</g>
</svg>
