<?xml version="1.0" encoding="iso-8859-1"?>
<!-- Generator: Adobe Illustrator 19.0.0, SVG Export Plug-In . SVG Version: 6.00 Build 0)  -->
<svg version="1.1" id="Capa_1" xmlns="http://www.w3.org/2000/svg" xmlns:xlink="http://www.w3.org/1999/xlink" x="0px" y="0px"
	 viewBox="0 0 528 528" style="enable-background:new 0 0 528 528;" xml:space="preserve">
<g>
	<circle style="fill:#00F2A9;" cx="168" cy="264" r="64"/>
	<circle style="fill:#00F2A9;" cx="360" cy="264" r="64"/>
</g>
<g>
	<path style="fill:#322153;" d="M495.632,192.72C491.784,103.48,418.176,32,328,32H200c-90.192,0-163.808,71.504-167.632,160.768
		C13.952,196.352,0,212.56,0,232v96c0,22.056,17.944,40,40,40h32c4.424,0,8-3.576,8-8v-17.656C110.536,413.8,181.512,464,264,464
		c8.856,0,17.568-0.64,26.12-1.76c-1.336,2.992-2.12,6.28-2.12,9.76c0,13.232,10.768,24,24,24h48h16h48
		c39.704,0,72-32.296,72-71.936l0.44-56.864c17.984-3.696,31.56-19.648,31.56-38.704v-96.992
		C528,212.168,514.008,196.104,495.632,192.72z M479.592,192H456c-1.824,0-3.424,0.72-4.768,1.744
		C429.176,135.16,380.376,89.608,319.784,71.976c7.64-5.704,13.248-13.976,15.304-23.616C412.928,51.976,475.52,114.28,479.592,192z
		 M232,64c-10.416,0-19.216-6.712-22.528-16H318.52c-3.304,9.288-12.104,16-22.52,16H232z M192.912,48.36
		c2.064,9.64,7.664,17.912,15.304,23.616C147.624,89.608,98.824,135.16,76.768,193.744C75.424,192.72,73.824,192,72,192H48.408
		C52.48,114.28,115.072,51.976,192.912,48.36z M64,352H40c-13.232,0-24-10.768-24-24v-96c0-13.232,10.768-24,24-24h24V352z M80,264
		c0-101.464,82.536-184,184-184s184,82.536,184,184s-82.536,184-184,184S80,365.464,80,264z M360,480h-48c-4.416,0-8-3.584-8-8
		s3.584-8,8-8h64c4.416,0,8,3.584,8,8s-3.584,8-8,8H360z M424,480h-25.472c0.896-2.512,1.472-5.184,1.472-8
		c0-13.232-10.768-24-24-24h-33.656C389.72,427.752,427.752,389.72,448,342.344V360c0,4.424,3.576,8,8,8h24.432L480,424
		C480,454.872,454.872,480,424,480z M512,328.496c0,12.96-10.544,23.504-23.504,23.504H464V208h24.496
		c12.96,0,23.504,10.544,23.504,23.504V328.496z"/>
	<path style="fill:#322153;" d="M40,256c-4.424,0-8,3.576-8,8v64c0,4.424,3.576,8,8,8s8-3.576,8-8v-64C48,259.576,44.424,256,40,256
		z"/>
	<path style="fill:#322153;" d="M488,256c-4.424,0-8,3.576-8,8v64c0,4.424,3.576,8,8,8s8-3.576,8-8v-64
		C496,259.576,492.424,256,488,256z"/>
	<path style="fill:#322153;" d="M432,232c0-39.704-32.296-72-72-72s-72,32.296-72,72h-48c0-39.704-32.296-72-72-72s-72,32.296-72,72
		s32.296,72,72,72c34.2,0,62.84-23.984,70.144-56h51.712c7.304,32.016,35.952,56,70.144,56C399.704,304,432,271.704,432,232z
		 M168,288c-30.872,0-56-25.128-56-56s25.128-56,56-56s56,25.128,56,56S198.872,288,168,288z M360,288c-30.872,0-56-25.128-56-56
		s25.128-56,56-56s56,25.128,56,56S390.872,288,360,288z"/>
	<path style="fill:#322153;" d="M136,240c2.048,0,4.096-0.784,5.656-2.344l32-32c3.128-3.128,3.128-8.184,0-11.312
		s-8.184-3.128-11.312,0l-32,32c-3.128,3.128-3.128,8.184,0,11.312C131.904,239.216,133.952,240,136,240z"/>
	<path style="fill:#322153;" d="M328,240c1.952,0,3.912-0.712,5.456-2.152c5.064-4.728,31.136-31.112,32.24-32.224
		c3.104-3.152,3.072-8.208-0.072-11.32c-3.152-3.104-8.2-3.064-11.32,0.072c-0.264,0.272-26.936,27.272-31.76,31.776
		c-3.232,3.016-3.416,8.08-0.4,11.304C323.728,239.152,325.856,240,328,240z"/>
	<path style="fill:#322153;" d="M205.656,194.344c-3.128-3.128-8.184-3.128-11.312,0l-64,64c-3.128,3.128-3.128,8.184,0,11.312
		c1.56,1.56,3.608,2.344,5.656,2.344s4.096-0.784,5.656-2.344l64-64C208.784,202.528,208.784,197.472,205.656,194.344z"/>
	<path style="fill:#322153;" d="M397.656,194.344c-3.128-3.128-8.184-3.128-11.312,0l-64,64c-3.128,3.128-3.128,8.184,0,11.312
		c1.56,1.56,3.608,2.344,5.656,2.344s4.096-0.784,5.656-2.344l64-64C400.784,202.528,400.784,197.472,397.656,194.344z"/>
</g>
<g>
</g>
<g>
</g>
<g>
</g>
<g>
</g>
<g>
</g>
<g>
</g>
<g>
</g>
<g>
</g>
<g>
</g>
<g>
</g>
<g>
</g>
<g>
</g>
<g>
</g>
<g>
</g>
<g>
</g>
</svg>
