<?xml version="1.0" encoding="iso-8859-1"?>
<!-- Generator: Adobe Illustrator 19.0.0, SVG Export Plug-In . SVG Version: 6.00 Build 0)  -->
<svg version="1.1" id="Capa_1" xmlns="http://www.w3.org/2000/svg" xmlns:xlink="http://www.w3.org/1999/xlink" x="0px" y="0px"
	 viewBox="0 0 464 464" style="enable-background:new 0 0 464 464;" xml:space="preserve">
<g>
	<polygon style="fill:#00F2A9;" points="168,328 264,232 264,136 40,136 40,328 104,264 	"/>
	<polygon style="fill:#00F2A9;" points="296,232 296,328 424,328 424,168 328,264 	"/>
</g>
<g>
	<path style="fill:#322153;" d="M8,464h288c4.424,0,8-3.576,8-8v-56h152c4.424,0,8-3.576,8-8V8c0-4.424-3.576-8-8-8H168
		c-4.424,0-8,3.576-8,8v56H8c-4.424,0-8,3.576-8,8v384C0,460.424,3.576,464,8,464z M16,448v-48h152h120v48H16z M304,219.312
		l18.344,18.344c1.56,1.56,3.608,2.344,5.656,2.344s4.096-0.784,5.656-2.344L416,155.312V288H304V219.312z M416,132.688l-88,88
		l-24-24V72c0-4.424-3.576-8-8-8h-88V48h208V132.688z M304,384v-48h144v48H304z M176,16h272v304H304v-16h120c4.424,0,8-3.576,8-8V40
		c0-4.424-3.576-8-8-8H200c-4.424,0-8,3.576-8,8v24h-16V16z M288,80v304H168H16V80H288z"/>
	<path style="fill:#322153;" d="M40,368h224c4.424,0,8-3.576,8-8V104c0-4.424-3.576-8-8-8H40c-4.424,0-8,3.576-8,8v256
		C32,364.424,35.576,368,40,368z M48,352v-52.688l56-56l58.344,58.344c1.56,1.56,3.608,2.344,5.656,2.344s4.096-0.784,5.656-2.344
		L256,219.312V352H48z M256,112v84.688l-88,88l-58.344-58.344c-3.128-3.128-8.184-3.128-11.312,0L48,276.688V112H256z"/>
	<path style="fill:#322153;" d="M264,416h-96c-4.424,0-8,3.576-8,8s3.576,8,8,8h96c4.424,0,8-3.576,8-8S268.424,416,264,416z"/>
	<path style="fill:#322153;" d="M199.224,208c10.888,0,21.128-4.24,28.832-11.944C235.76,188.352,240,178.12,240,167.224
		c0-10.88-4.24-21.128-11.944-28.832c-6.112-6.112-13.256-12.44-20.784-9.816c-7.232,2.496-8.208,10.456-9.072,17.48
		c-0.68,5.52-1.512,12.4-4.632,15.504c-3.112,3.12-9.984,3.952-15.504,4.632c-7.024,0.856-14.984,1.832-17.48,9.072
		c-2.592,7.528,3.704,14.672,9.816,20.784C178.104,203.76,188.344,208,199.224,208z M180.016,182.088
		c7.536-0.92,17.856-2.192,24.864-9.2s8.28-17.328,9.2-24.864c0.032-0.248,0.064-0.504,0.096-0.768
		c0.744,0.68,1.592,1.496,2.56,2.464c4.688,4.672,7.264,10.896,7.264,17.504c0,6.616-2.576,12.832-7.256,17.512
		c-9.352,9.36-25.664,9.36-35.032,0c-0.968-0.968-1.784-1.824-2.464-2.56C179.512,182.152,179.768,182.12,180.016,182.088z"/>
	<path style="fill:#322153;" d="M424,352h-96c-4.424,0-8,3.576-8,8s3.576,8,8,8h96c4.424,0,8-3.576,8-8S428.424,352,424,352z"/>
	<path style="fill:#322153;" d="M360,144c22.056,0,40-17.944,40-40s-17.944-40-40-40s-40,17.944-40,40S337.944,144,360,144z M360,80
		c13.232,0,24,10.768,24,24s-10.768,24-24,24s-24-10.768-24-24S346.768,80,360,80z"/>
</g>
<g>
</g>
<g>
</g>
<g>
</g>
<g>
</g>
<g>
</g>
<g>
</g>
<g>
</g>
<g>
</g>
<g>
</g>
<g>
</g>
<g>
</g>
<g>
</g>
<g>
</g>
<g>
</g>
<g>
</g>
</svg>
