<?xml version="1.0" encoding="iso-8859-1"?>
<!-- Generator: Adobe Illustrator 19.0.0, SVG Export Plug-In . SVG Version: 6.00 Build 0)  -->
<svg version="1.1" id="Capa_1" xmlns="http://www.w3.org/2000/svg" xmlns:xlink="http://www.w3.org/1999/xlink" x="0px" y="0px"
	 viewBox="0 0 457.545 457.545" style="enable-background:new 0 0 457.545 457.545;" xml:space="preserve">
<path style="fill:#00F2A9;" d="M153.523,174.784c-8.84,0-24-0.84-24,8v32c0,8.84,15.16,24,24,24h20.192
	c3.024,8,7.624,18.76,13.632,28.92l-14.272,12.272c-6.248,6.248-6.248,15.376,0,21.624l22.624,22.128
	c6.248,6.248,16.376,6,22.624-0.248l10.272-14.4c10.16,6,20.92,10.48,28.92,13.504v20.2c0,8.84,15.16,24,24,24h32
	c8.84,0,8-15.16,8-24v-20.192c16-3.024,26.76-7.624,36.92-13.632l16.272,14.272c6.248,6.248,17.376,6.248,23.624,0l23.128-22.624
	c6.248-6.248,6.496-16.376,0.248-22.624l-14.152-10.272c6-10.16,10.736-20.92,13.752-28.92h20.216c8.84,0,8-15.16,8-24v-32
	c0-8.84,0.84-8-8-8h-20.192c-3.024-16-7.624-26.76-13.632-36.92l14.272-16.272c6.248-6.248,6.248-17.376,0-23.624l-22.624-23.128
	c-6.248-6.248-16.376-6.496-22.624-0.248l-18.272,14.152C348.283,82.728,337.523,78,321.523,74.976V54.784c0-8.84,0.84-8-8-8h-32
	c-8.84,0-24-0.84-24,8v20.192c-8,3.024-18.76,7.624-28.92,13.632l-12.272-14.272c-6.248-6.248-15.376-6.248-21.624,0L172.579,96.96
	c-6.248,6.248-6,16.376,0.248,22.624l14.4,18.272c-6,10.16-10.48,20.92-13.504,36.92h-20.2V174.784z M297.523,134.784
	c35.344,0,64,28.656,64,64s-28.656,64-64,64s-64-28.656-64-64S262.179,134.784,297.523,134.784z"/>
<g>
	<path style="fill:#322153;" d="M151.451,134.776c-8.72-0.056-19.632-0.136-25.824,6.008c-2.688,2.672-4.104,6.128-4.104,10v32
		c0,13.16,18.84,32,32,32h14.736c2.272,5.6,5.264,12.312,8.912,19.136l-9.752,8.408c-4.536,4.528-7.032,10.384-7.032,16.472
		c0,6.096,2.504,11.944,7.096,16.528l22.56,22.072c9.28,9.288,24.512,9.176,33.944-0.248c0.312-0.312,0.6-0.648,0.856-1.008
		l6.12-8.576c5.608,2.952,11.752,5.768,18.56,8.504v14.712c0,13.16,18.84,32,32,32h32c3.872,0,7.328-1.424,10-4.104
		c6.136-6.192,6-17.072,6-25.816V297.08c8-2.4,19.056-5.672,27.904-10.376l11.632,10.184c8.936,8.936,26.08,8.864,34.872,0.064
		l23.192-22.688c4.512-4.512,7.056-10.504,7.16-16.848c0.104-6.472-2.352-12.544-6.904-17.096c-0.296-0.296-0.616-0.568-0.952-0.824
		l-8.392-6.096c3.728-6.984,6.664-13.592,8.736-18.624h14.752c3.872,0,7.328-1.424,10-4.104c6.136-6.184,6-17.064,6-25.808v-2.08
		l0.016-34.024c0.032-4.032,0.072-7.832-3.048-10.944c-3.112-3.12-6.992-3.064-10.944-3.048l-15.728,0.016
		c-2.4-10.248-5.672-19.056-10.376-27.904l10.184-11.632c4.472-4.472,7.032-10.832,7.032-17.472s-2.56-13.008-6.968-17.408
		l-22.688-23.192c-4.512-4.512-10.504-7.056-16.848-7.16c-6.248-0.032-12.192,2.216-16.696,6.512l-13.712,10.616
		c-9.072-4.864-17.968-8.224-28.224-10.648l0.016-15.736c0.032-4.032,0.072-7.832-3.048-10.944
		c-3.112-3.12-6.968-3.072-10.944-3.048l-2.024,0.016l-34.08-0.008c-8.728-0.072-19.632-0.136-25.824,6.008
		c-2.672,2.672-4.096,6.128-4.096,10v14.744c-5.608,2.272-12.32,5.264-19.136,8.896l-8.408-9.752
		c-9.392-9.392-23.544-9.392-33.008,0.064l-22.056,22.56c-4.552,4.552-7.008,10.624-6.912,17.096
		c0.096,6.176,2.504,12.008,6.792,16.488l10.824,13.736c-4.696,8.824-7.976,17.704-10.408,28.168L151.451,134.776z M181.579,144.272
		c2.552-13.512,6.304-23.792,12.528-34.336c1.68-2.84,1.44-6.432-0.6-9.024l-14.4-18.272c-0.192-0.24-0.408-0.488-0.632-0.704
		c-1.56-1.56-2.44-3.616-2.472-5.784c-0.032-2.104,0.752-4.072,2.28-5.592l22.064-22.568c3.144-3.136,7.192-3.136,9.904-0.44
		l12.272,14.272c2.536,2.936,6.8,3.648,10.136,1.672c10-5.896,20.576-10.344,27.68-13.032c3.12-1.176,5.184-4.16,5.184-7.488V23.848
		c2.888-1.152,10.456-1.064,13.816-1.064h34.184v20.192c0,3.84,2.736,7.152,6.512,7.856c13.256,2.504,23.208,6.208,34.336,12.784
		c2.832,1.656,6.376,1.44,8.968-0.56l18.272-14.152c0.264-0.208,0.52-0.432,0.76-0.672c1.472-1.464,3.072-2.344,5.536-2.216
		c2.168,0.032,4.208,0.904,5.712,2.408l22.696,23.2c1.496,1.488,2.344,3.728,2.344,6.152s-0.848,4.664-2.704,6.536l-14.272,16.272
		c-2.28,2.592-2.632,6.368-0.872,9.344c6.36,10.768,10.144,21.032,12.656,34.336c0.712,3.784,4.016,6.52,7.864,6.52h20.192
		l0.008,34.184c0.024,3.392,0.08,10.92-1.072,13.816h-19.136c-3.328,0-6.304,2.064-7.488,5.168c-2.12,5.6-6.64,16.648-13.16,27.68
		c-2.096,3.552-1.152,8.12,2.184,10.544l13.544,9.832c1.24,1.416,1.896,3.224,1.864,5.16c-0.032,2.168-0.904,4.208-2.408,5.712
		l-23.2,22.696c-2.968,2.984-8.936,3.344-12.688-0.36l-16.272-14.272c-2.592-2.28-6.36-2.624-9.344-0.872
		c-10.768,6.36-21.032,10.144-34.336,12.656c-3.76,0.712-6.496,4.016-6.496,7.864l0.008,22.384c0.024,3.392,0.08,10.92-1.072,13.816
		h-30.936c-4.536-0.096-15.904-11.464-16-16V290.6c0-3.328-2.064-6.304-5.168-7.488c-10.88-4.12-19.944-8.336-27.68-12.904
		c-1.272-0.752-2.672-1.112-4.064-1.112c-2.504,0-4.968,1.176-6.512,3.352l-9.824,13.776c-3.192,2.8-7.992,2.784-10.976-0.192
		l-22.568-22.08c-1.528-1.52-2.336-3.304-2.336-5.152c0-1.832,0.816-3.624,1.904-4.752l14.272-12.272
		c2.944-2.52,3.648-6.8,1.672-10.136c-5.92-10.016-10.352-20.576-13.032-27.68c-1.184-3.112-4.168-5.176-7.496-5.176h-20.192
		c-4.544-0.096-15.912-11.464-16-16v-30.936c2.888-1.152,10.432-1.064,13.816-1.064h22.376
		C177.563,150.784,180.867,148.048,181.579,144.272z"/>
	<path style="fill:#322153;" d="M225.523,166.784c0,39.704,32.296,72,72,72s72-32.296,72-72s-32.296-72-72-72
		S225.523,127.08,225.523,166.784z M353.523,166.784c0,30.872-25.128,56-56,56s-56-25.128-56-56s25.128-56,56-56
		S353.523,135.912,353.523,166.784z"/>
	<path style="fill:#322153;" d="M201.523,174.784c4.416,0,8-3.576,8-8c0-48.52,39.48-88,88-88c4.424,0,8-3.576,8-8s-3.576-8-8-8
		c-57.344,0-104,46.656-104,104C193.523,171.208,197.107,174.784,201.523,174.784z"/>
	<path style="fill:#322153;" d="M297.523,254.784c-4.424,0-8,3.576-8,8s3.576,8,8,8c57.344,0,104-46.656,104-104
		c0-4.424-3.576-8-8-8s-8,3.576-8,8C385.523,215.304,346.043,254.784,297.523,254.784z"/>
	<path style="fill:#322153;" d="M93.627,300.784c-2.688,2.672-4.104,6.128-4.104,10v14.744c-5.608,2.272-12.32,5.264-19.136,8.896
		l-8.408-9.752c-9.392-9.392-23.544-9.392-33.008,0.064l-22.056,22.56c-4.552,4.552-7.008,10.624-6.912,17.096
		c0.096,6.352,2.64,12.336,7.176,16.872l10.136,10.048c-5.472,10.856-9.168,22.8-11.408,31.472c-1.104,4.28,1.472,8.64,5.752,9.752
		c4.264,1.112,8.64-1.48,9.744-5.752c3.344-12.976,7.856-24.64,12.704-32.848c1.864-3.16,1.344-7.168-1.256-9.752l-14.368-14.248
		c-1.56-1.56-2.44-3.616-2.472-5.784c-0.032-2.104,0.752-4.072,2.28-5.592l22.064-22.568c3.136-3.136,7.192-3.128,9.904-0.44
		l12.272,14.272c2.528,2.936,6.8,3.648,10.136,1.672c10-5.896,20.568-10.344,27.68-13.032c3.12-1.176,5.176-4.16,5.176-7.488V311.84
		c2.888-1.144,10.424-1.056,13.816-1.056h34.184v20.192c0,3.84,2.736,7.152,6.512,7.856c13.264,2.504,23.208,6.208,34.336,12.784
		c2.816,1.656,6.368,1.448,8.968-0.56l18.272-14.152c0.264-0.208,0.52-0.432,0.76-0.672c1.464-1.464,3.352-2.224,5.536-2.216
		c2.168,0.032,4.224,0.904,5.72,2.408l22.688,23.2c1.496,1.488,2.344,3.728,2.344,6.152s-0.848,4.664-2.704,6.536l-14.272,16.272
		c-2.28,2.592-2.632,6.368-0.872,9.344c6.36,10.768,10.144,21.032,12.656,34.336c0.712,3.784,4.016,6.52,7.864,6.52h20.192
		c8,0,8,2.6,8,4c0,4.424,3.576,8,8,8s8-3.576,8-8c0-9.672-6.304-20-24-20h-13.704c-2.4-10.248-5.672-19.056-10.376-27.904
		l10.184-11.632c4.472-4.472,7.032-10.832,7.032-17.472s-2.56-13.008-6.968-17.408l-22.688-23.192
		c-9.304-9.288-24.232-9.52-33.544-0.64l-13.712,10.616c-9.072-4.872-17.968-8.232-28.224-10.656l0.008-15.736
		c0.032-4.032,0.072-7.832-3.04-10.944s-6.896-3.04-10.944-3.048l-2.024,0.016l-34.072-0.008
		C110.747,294.696,99.819,294.64,93.627,300.784z"/>
	<path style="fill:#322153;" d="M78.083,429.712c1.256,0.728,2.632,1.072,3.992,1.072c2.768,0,5.456-1.432,6.936-4
		c2.432-4.216,5.432-8.12,8.912-11.6c21.832-21.832,57.36-21.832,79.192,0c3.488,3.496,6.488,7.392,8.92,11.592
		c2.2,3.832,7.096,5.136,10.928,2.928c3.832-2.208,5.136-7.104,2.928-10.928c-3.128-5.416-6.976-10.432-11.456-14.904
		c-28.072-28.08-73.752-28.08-101.824,0c-4.472,4.472-8.328,9.488-11.464,14.912C72.947,422.616,74.251,427.504,78.083,429.712z"/>
	<path style="fill:#322153;" d="M137.523,366.784c4.416,0,8-3.576,8-8s-3.584-8-8-8c-44.008,0-83.424,27.864-98.08,69.336
		c-1.472,4.168,0.712,8.736,4.88,10.2c0.88,0.312,1.784,0.464,2.664,0.464c3.296,0,6.384-2.048,7.544-5.336
		C66.931,390.36,100.283,366.784,137.523,366.784z"/>
</g>
<g>
</g>
<g>
</g>
<g>
</g>
<g>
</g>
<g>
</g>
<g>
</g>
<g>
</g>
<g>
</g>
<g>
</g>
<g>
</g>
<g>
</g>
<g>
</g>
<g>
</g>
<g>
</g>
<g>
</g>
</svg>
