<?xml version="1.0" encoding="iso-8859-1"?>
<!-- Generator: Adobe Illustrator 19.0.0, SVG Export Plug-In . SVG Version: 6.00 Build 0)  -->
<svg version="1.1" id="Capa_1" xmlns="http://www.w3.org/2000/svg" xmlns:xlink="http://www.w3.org/1999/xlink" x="0px" y="0px"
	 viewBox="0 0 464 464" style="enable-background:new 0 0 464 464;" xml:space="preserve">
<circle style="fill:#00F2A9;" cx="232" cy="264" r="64"/>
<g>
	<path style="fill:#322153;" d="M456,192c-4.424,0-8,3.576-8,8v24h-16.2C427.68,120.08,343.92,36.32,240,32.2V16h24
		c4.424,0,8-3.576,8-8s-3.576-8-8-8h-64c-4.424,0-8,3.576-8,8s3.576,8,8,8h24v16.2C120.08,36.32,36.32,120.08,32.2,224H16v-24
		c0-4.424-3.576-8-8-8s-8,3.576-8,8v64c0,4.424,3.576,8,8,8s8-3.576,8-8v-24h16.2c4.12,103.92,87.88,187.68,191.8,191.8V448h-24
		c-4.424,0-8,3.576-8,8s3.576,8,8,8h64c4.424,0,8-3.576,8-8s-3.576-8-8-8h-24v-16.2c103.92-4.12,187.68-87.88,191.8-191.8H448v24
		c0,4.424,3.576,8,8,8s8-3.576,8-8v-64C464,195.576,460.424,192,456,192z M415.8,224h-48.2c-4.024-68.6-59-123.576-127.6-127.592
		V48.2C335.104,52.296,411.704,128.896,415.8,224z M232,288c-30.872,0-56-25.128-56-56s25.128-56,56-56s56,25.128,56,56
		S262.872,288,232,288z M224,160.472c-33.32,3.704-59.824,30.208-63.528,63.528h-48.064
		c3.968-59.784,51.808-107.624,111.592-111.592V160.472z M160.472,240c3.704,33.32,30.208,59.824,63.528,63.528v48.064
		C164.216,347.624,116.376,299.784,112.408,240H160.472z M240,303.528c33.32-3.704,59.824-30.208,63.528-63.528h48.064
		C347.624,299.784,299.784,347.624,240,351.592V303.528z M303.528,224c-3.704-33.32-30.208-59.824-63.528-63.528v-48.064
		c59.784,3.968,107.624,51.808,111.592,111.592H303.528z M224,48.2v48.2c-68.6,4.024-123.576,59-127.592,127.6H48.2
		C52.296,128.896,128.896,52.296,224,48.2z M48.2,240h48.2c4.024,68.6,59,123.576,127.6,127.592v48.2
		C128.896,411.704,52.296,335.104,48.2,240z M240,415.8v-48.2c68.6-4.024,123.576-59,127.592-127.6h48.2
		C411.704,335.104,335.104,411.704,240,415.8z"/>
	<path style="fill:#322153;" d="M232,192c-11.888,0-21.512,3.64-28.584,10.832c-11.552,11.736-11.424,28.584-11.416,29.296
		c0.072,4.376,3.64,7.872,8,7.872c0.04,0,0.088,0,0.128,0c4.416-0.072,7.944-3.712,7.872-8.128c0-0.112,0.024-10.92,6.816-17.824
		C218.832,209.984,224.448,208,232,208c4.424,0,8-3.576,8-8S236.424,192,232,192z"/>
</g>
<g>
</g>
<g>
</g>
<g>
</g>
<g>
</g>
<g>
</g>
<g>
</g>
<g>
</g>
<g>
</g>
<g>
</g>
<g>
</g>
<g>
</g>
<g>
</g>
<g>
</g>
<g>
</g>
<g>
</g>
</svg>
