<?xml version="1.0" encoding="iso-8859-1"?>
<!-- Generator: Adobe Illustrator 19.0.0, SVG Export Plug-In . SVG Version: 6.00 Build 0)  -->
<svg version="1.1" id="Capa_1" xmlns="http://www.w3.org/2000/svg" xmlns:xlink="http://www.w3.org/1999/xlink" x="0px" y="0px"
	 viewBox="0 0 464 464" style="enable-background:new 0 0 464 464;" xml:space="preserve">
<g>
	<rect x="104" y="360" style="fill:#00F2A9;" width="352" height="32"/>
	<rect x="40" y="200" style="fill:#00F2A9;" width="64" height="32"/>
</g>
<g>
	<path style="fill:#322153;" d="M424,160h-56v-56c0-22.056-17.944-40-40-40H40C17.944,64,0,81.944,0,104v160
		c0,22.056,17.944,40,40,40h56v24v32c0,22.056,17.944,40,40,40h288c22.056,0,40-17.944,40-40V200C464,177.944,446.056,160,424,160z
		 M112,352v-16h336v16H112z M352,104v119.592C274.584,219.536,212.464,157.416,208.408,80H328C341.232,80,352,90.768,352,104z
		 M16,264V104c0-13.232,10.768-24,24-24h152.408C196.496,166.24,265.76,235.504,352,239.592V264c0,13.232-10.768,24-24,24H40
		C26.768,288,16,277.232,16,264z M328,304c22.056,0,40-17.944,40-40v-88h56c13.232,0,24,10.768,24,24v120H112v-16H328z M424,384H136
		c-10.416,0-19.216-6.712-22.528-16H446.52C443.216,377.288,434.416,384,424,384z"/>
	<path style="fill:#322153;" d="M40,208h64c4.424,0,8-3.576,8-8v-32c0-4.424-3.576-8-8-8H40c-4.424,0-8,3.576-8,8v32
		C32,204.424,35.576,208,40,208z M48,176h48v16H48V176z"/>
	<path style="fill:#322153;" d="M112,272c0-4.424-3.576-8-8-8H40c-4.424,0-8,3.576-8,8s3.576,8,8,8h64
		C108.424,280,112,276.424,112,272z"/>
	<path style="fill:#322153;" d="M136,280h64c4.424,0,8-3.576,8-8s-3.576-8-8-8h-64c-4.424,0-8,3.576-8,8S131.576,280,136,280z"/>
	<path style="fill:#322153;" d="M232,280h64c4.424,0,8-3.576,8-8s-3.576-8-8-8h-64c-4.424,0-8,3.576-8,8S227.576,280,232,280z"/>
</g>
<g>
</g>
<g>
</g>
<g>
</g>
<g>
</g>
<g>
</g>
<g>
</g>
<g>
</g>
<g>
</g>
<g>
</g>
<g>
</g>
<g>
</g>
<g>
</g>
<g>
</g>
<g>
</g>
<g>
</g>
</svg>
