<?xml version="1.0" encoding="iso-8859-1"?>
<!-- Generator: Adobe Illustrator 19.0.0, SVG Export Plug-In . SVG Version: 6.00 Build 0)  -->
<svg version="1.1" id="Capa_1" xmlns="http://www.w3.org/2000/svg" xmlns:xlink="http://www.w3.org/1999/xlink" x="0px" y="0px"
	 viewBox="0 0 464 464" style="enable-background:new 0 0 464 464;" xml:space="preserve">
<rect x="104" y="136" style="fill:#00F2A9;" width="256" height="256"/>
<g>
	<path style="fill:#322153;" d="M72,464h32h256h32c22.056,0,40-17.944,40-40V40c0-22.056-17.944-40-40-40h-32H104H72
		C49.944,0,32,17.944,32,40v384C32,446.056,49.944,464,72,464z M112,448v-48h240v48H112z M352,16v48H112V16H352z M48,40
		c0-10.416,6.712-19.216,16-22.528V40c0,4.416,3.584,8,8,8s8-3.584,8-8V16h16v56c0,4.416,3.584,8,8,8h256c4.424,0,8-3.584,8-8V16h16
		v24c0,4.416,3.576,8,8,8s8-3.584,8-8V17.472c9.288,3.312,16,12.112,16,22.528v384c0,10.416-6.712,19.216-16,22.528V424
		c0-4.424-3.576-8-8-8s-8,3.576-8,8v24h-16v-56c0-4.424-3.576-8-8-8H104c-4.416,0-8,3.576-8,8v56H80v-24c0-4.424-3.584-8-8-8
		s-8,3.576-8,8v22.528c-9.288-3.312-16-12.112-16-22.528V40z"/>
	<path style="fill:#322153;" d="M104,368h256c4.424,0,8-3.576,8-8V104c0-4.416-3.576-8-8-8H104c-4.416,0-8,3.584-8,8v256
		C96,364.424,99.584,368,104,368z M112,112h240v240H112V112z"/>
	<path style="fill:#322153;" d="M392,267.432c4.424,0,8-3.576,8-8v-54.856c0-4.416-3.576-8-8-8s-8,3.584-8,8v54.856
		C384,263.848,387.576,267.432,392,267.432z"/>
	<path style="fill:#322153;" d="M392,377.144c4.424,0,8-3.576,8-8v-54.856c0-4.424-3.576-8-8-8s-8,3.576-8,8v54.856
		C384,373.56,387.576,377.144,392,377.144z"/>
	<path style="fill:#322153;" d="M392,157.712c4.424,0,8-3.584,8-8V94.856c0-4.416-3.576-8-8-8s-8,3.584-8,8v54.856
		C384,154.128,387.576,157.712,392,157.712z"/>
	<path style="fill:#322153;" d="M72,267.432c4.416,0,8-3.576,8-8v-54.856c0-4.416-3.584-8-8-8s-8,3.584-8,8v54.856
		C64,263.848,67.584,267.432,72,267.432z"/>
	<path style="fill:#322153;" d="M72,157.712c4.416,0,8-3.584,8-8V94.856c0-4.416-3.584-8-8-8s-8,3.584-8,8v54.856
		C64,154.128,67.584,157.712,72,157.712z"/>
	<path style="fill:#322153;" d="M72,377.144c4.416,0,8-3.576,8-8v-54.856c0-4.424-3.584-8-8-8s-8,3.576-8,8v54.856
		C64,373.56,67.584,377.144,72,377.144z"/>
</g>
<g>
</g>
<g>
</g>
<g>
</g>
<g>
</g>
<g>
</g>
<g>
</g>
<g>
</g>
<g>
</g>
<g>
</g>
<g>
</g>
<g>
</g>
<g>
</g>
<g>
</g>
<g>
</g>
<g>
</g>
</svg>
